<svg width="470" height="333" viewBox="0 0 470 333" fill="none" xmlns="http://www.w3.org/2000/svg">
<path d="M344.287 13.6336C365.974 7.82255 388.266 20.6925 394.077 42.3797C398.955 60.5874 390.665 79.2185 375.046 88.1678L418.248 76.5926C439.935 70.7815 462.227 83.6515 468.038 105.339C473.849 127.026 460.979 149.318 439.292 155.129L396.061 166.712C414.076 166.637 430.59 178.632 435.471 196.851C441.282 218.538 428.412 240.83 406.725 246.641L92.5798 330.816C70.8929 336.627 48.601 323.757 42.7898 302.07C36.9787 280.383 49.8497 258.091 71.5369 252.28L114.77 240.695C96.7541 240.772 80.2385 228.778 75.3562 210.557C70.4776 192.35 78.7671 173.718 94.3855 164.768L51.1853 176.345C29.4983 182.155 7.20642 169.285 1.39526 147.598C-4.4158 125.911 8.45516 103.619 30.1423 97.8084L344.287 13.6336Z" fill="#9ADCAC"/>
<mask id="path-2-outside-1_2660_13338" maskUnits="userSpaceOnUse" x="17.6641" y="-0.819336" width="435" height="326" fill="black">
<rect fill="white" x="17.6641" y="-0.819336" width="435" height="326"/>
<path d="M331.739 5.79346C352.995 -0.440584 374.496 11.9481 379.763 33.4644C384.185 51.5286 375.757 70.2807 360.36 79.523L398.774 68.2573C420.03 62.0233 441.531 74.412 446.798 95.9282C452.065 117.444 439.103 139.941 417.847 146.175L379.403 157.45C396.972 157.012 412.854 168.645 417.279 186.72C422.546 208.236 409.584 230.733 388.328 236.967L109.377 318.781C88.1213 325.015 66.6202 312.626 61.353 291.11C56.0858 269.594 69.0479 247.097 90.3042 240.863L128.75 229.586C111.181 230.025 95.2976 218.394 90.8725 200.318C86.4505 182.254 94.8783 163.501 110.275 154.258L71.8618 165.525C50.6057 171.759 29.1045 159.37 23.8374 137.854C18.5702 116.338 31.5322 93.8412 52.7885 87.6069L331.739 5.79346Z"/>
</mask>
<path d="M331.739 5.79346L330.613 1.95513L330.613 1.95514L331.739 5.79346ZM379.763 33.4644L383.648 32.5133L383.648 32.5133L379.763 33.4644ZM360.36 79.523L358.301 76.0934L361.485 83.3613L360.36 79.523ZM398.774 68.2573L399.9 72.0957L399.9 72.0957L398.774 68.2573ZM446.798 95.9282L450.684 94.9772L450.684 94.9771L446.798 95.9282ZM417.847 146.175L418.973 150.014L418.973 150.014L417.847 146.175ZM379.403 157.45L378.277 153.611L379.502 161.448L379.403 157.45ZM417.279 186.72L421.164 185.769L421.164 185.769L417.279 186.72ZM388.328 236.967L389.453 240.806L389.453 240.806L388.328 236.967ZM109.377 318.781L110.503 322.619L110.503 322.619L109.377 318.781ZM61.353 291.11L57.4677 292.061L57.4677 292.061L61.353 291.11ZM90.3042 240.863L91.4299 244.701L91.4299 244.701L90.3042 240.863ZM128.75 229.586L129.876 233.425L128.651 225.588L128.75 229.586ZM90.8725 200.318L86.9872 201.269L86.9872 201.269L90.8725 200.318ZM110.275 154.258L112.334 157.688L109.149 150.42L110.275 154.258ZM71.8618 165.525L72.9875 169.363L72.9876 169.363L71.8618 165.525ZM23.8374 137.854L19.9521 138.805L19.9521 138.805L23.8374 137.854ZM52.7885 87.6069L51.6628 83.7686L51.6628 83.7686L52.7885 87.6069ZM331.739 5.79346L332.864 9.63179C351.933 4.03944 371.153 15.1139 375.878 34.4155L379.763 33.4644L383.648 32.5133C377.839 8.78236 354.057 -4.92061 330.613 1.95513L331.739 5.79346ZM379.763 33.4644L375.878 34.4154C379.866 50.7095 372.255 67.717 358.301 76.0934L360.36 79.523L362.418 82.9525C379.258 72.8443 388.504 52.3478 383.648 32.5133L379.763 33.4644ZM360.36 79.523L361.485 83.3613L399.9 72.0957L398.774 68.2573L397.648 64.419L359.234 75.6846L360.36 79.523ZM398.774 68.2573L399.9 72.0957C418.968 66.5033 438.188 77.5778 442.913 96.8793L446.798 95.9282L450.684 94.9771C444.874 71.2462 421.092 57.5433 397.648 64.419L398.774 68.2573ZM446.798 95.9282L442.913 96.8793C447.671 116.318 435.925 136.705 416.721 142.337L417.847 146.175L418.973 150.014C442.281 143.177 456.459 118.571 450.684 94.9772L446.798 95.9282ZM417.847 146.175L416.721 142.337L378.277 153.611L379.403 157.45L380.528 161.288L418.973 150.014L417.847 146.175ZM379.403 157.45L379.502 161.448C395.209 161.057 409.42 171.438 413.393 187.671L417.279 186.72L421.164 185.769C416.288 165.851 398.735 152.967 379.303 153.451L379.403 157.45ZM417.279 186.72L413.393 187.671C418.152 207.11 406.406 227.497 387.202 233.129L388.328 236.967L389.453 240.806C412.762 233.969 426.94 209.363 421.164 185.769L417.279 186.72ZM388.328 236.967L387.202 233.129L108.252 314.942L109.377 318.781L110.503 322.619L389.453 240.806L388.328 236.967ZM109.377 318.781L108.252 314.942C89.1836 320.535 69.9633 309.46 65.2383 290.159L61.353 291.11L57.4677 292.061C63.277 315.792 87.059 329.495 110.503 322.619L109.377 318.781ZM61.353 291.11L65.2383 290.159C60.4797 270.72 72.226 250.333 91.4299 244.701L90.3042 240.863L89.1784 237.024C65.8698 243.861 51.692 268.467 57.4677 292.061L61.353 291.11ZM90.3042 240.863L91.4299 244.701L129.876 233.425L128.75 229.586L127.625 225.748L89.1784 237.024L90.3042 240.863ZM128.75 229.586L128.651 225.588C112.943 225.98 98.7317 215.6 94.7578 199.367L90.8725 200.318L86.9872 201.269C91.8635 221.188 109.418 234.07 128.85 233.585L128.75 229.586ZM90.8725 200.318L94.7578 199.367C90.769 183.073 98.3797 166.064 112.334 157.688L110.275 154.258L108.216 150.829C91.3769 160.937 82.1319 181.435 86.9872 201.269L90.8725 200.318ZM110.275 154.258L109.149 150.42L70.736 161.687L71.8618 165.525L72.9876 169.363L111.401 158.097L110.275 154.258ZM71.8618 165.525L70.7361 161.687C51.668 167.279 32.4477 156.204 27.7226 136.903L23.8374 137.854L19.9521 138.805C25.7614 162.536 49.5434 176.239 72.9875 169.363L71.8618 165.525ZM23.8374 137.854L27.7226 136.903C22.9641 117.464 34.7103 97.0776 53.9143 91.4453L52.7885 87.6069L51.6628 83.7686C28.3541 90.6048 14.1764 115.211 19.9521 138.805L23.8374 137.854ZM52.7885 87.6069L53.9143 91.4453L332.864 9.63178L331.739 5.79346L330.613 1.95514L51.6628 83.7686L52.7885 87.6069Z" fill="#24B34B" mask="url(#path-2-outside-1_2660_13338)"/>
<path d="M74.548 85.66H60.928V121H52.708V85.66H39.088V78.4H74.548V85.66ZM93.5882 96.52C91.1482 96.52 88.9682 97 87.0482 97.96C85.1282 98.88 83.7482 100.22 82.9082 101.98V121H74.8682V89.56H82.2482V96.28C83.3682 94.12 84.7882 92.42 86.5082 91.18C88.2282 89.94 90.0482 89.26 91.9682 89.14C92.4082 89.14 92.7482 89.14 92.9882 89.14C93.2282 89.14 93.4282 89.16 93.5882 89.2V96.52ZM94.5355 111.7C94.5355 109.66 95.0955 107.88 96.2155 106.36C97.3755 104.8 98.9755 103.6 101.016 102.76C103.056 101.92 105.396 101.5 108.036 101.5C109.356 101.5 110.696 101.6 112.056 101.8C113.416 102 114.596 102.32 115.596 102.76V101.08C115.596 99.08 114.996 97.54 113.796 96.46C112.636 95.38 110.896 94.84 108.576 94.84C106.856 94.84 105.216 95.14 103.656 95.74C102.096 96.34 100.456 97.22 98.7355 98.38L96.1555 93.1C98.2355 91.74 100.356 90.72 102.516 90.04C104.716 89.36 107.016 89.02 109.416 89.02C113.896 89.02 117.376 90.14 119.856 92.38C122.376 94.62 123.636 97.82 123.636 101.98V112C123.636 112.84 123.776 113.44 124.056 113.8C124.376 114.16 124.876 114.38 125.556 114.46V121C124.836 121.12 124.176 121.22 123.576 121.3C123.016 121.38 122.536 121.42 122.136 121.42C120.536 121.42 119.316 121.06 118.476 120.34C117.676 119.62 117.176 118.74 116.976 117.7L116.796 116.08C115.436 117.84 113.736 119.2 111.696 120.16C109.656 121.12 107.576 121.6 105.456 121.6C103.376 121.6 101.496 121.18 99.8155 120.34C98.1755 119.46 96.8755 118.28 95.9155 116.8C94.9955 115.28 94.5355 113.58 94.5355 111.7ZM114.096 113.32C114.536 112.84 114.896 112.36 115.176 111.88C115.456 111.4 115.596 110.96 115.596 110.56V107.38C114.636 106.98 113.596 106.68 112.476 106.48C111.356 106.24 110.296 106.12 109.296 106.12C107.216 106.12 105.496 106.58 104.136 107.5C102.816 108.38 102.156 109.56 102.156 111.04C102.156 111.84 102.376 112.6 102.816 113.32C103.256 114.04 103.896 114.62 104.736 115.06C105.576 115.5 106.576 115.72 107.736 115.72C108.936 115.72 110.116 115.5 111.276 115.06C112.436 114.58 113.376 114 114.096 113.32ZM137.295 121L125.715 89.56H134.055L141.975 113.68L149.955 89.56H157.575L146.055 121H137.295ZM174.149 121.6C171.629 121.6 169.349 121.18 167.309 120.34C165.269 119.46 163.529 118.28 162.089 116.8C160.649 115.28 159.529 113.56 158.729 111.64C157.969 109.68 157.589 107.62 157.589 105.46C157.589 102.46 158.249 99.72 159.569 97.24C160.929 94.76 162.849 92.78 165.329 91.3C167.849 89.78 170.809 89.02 174.209 89.02C177.649 89.02 180.589 89.78 183.029 91.3C185.469 92.78 187.329 94.76 188.609 97.24C189.929 99.68 190.589 102.32 190.589 105.16C190.589 105.64 190.569 106.14 190.529 106.66C190.489 107.14 190.449 107.54 190.409 107.86H166.109C166.269 109.46 166.729 110.86 167.489 112.06C168.289 113.26 169.289 114.18 170.489 114.82C171.729 115.42 173.049 115.72 174.449 115.72C176.049 115.72 177.549 115.34 178.949 114.58C180.389 113.78 181.369 112.74 181.889 111.46L188.789 113.38C188.029 114.98 186.929 116.4 185.489 117.64C184.089 118.88 182.429 119.86 180.509 120.58C178.589 121.26 176.469 121.6 174.149 121.6ZM165.929 102.76H182.369C182.209 101.16 181.749 99.78 180.989 98.62C180.269 97.42 179.309 96.5 178.109 95.86C176.909 95.18 175.569 94.84 174.089 94.84C172.649 94.84 171.329 95.18 170.129 95.86C168.969 96.5 168.009 97.42 167.249 98.62C166.529 99.78 166.089 101.16 165.929 102.76ZM194.227 77.2H202.267V110.92C202.267 112.36 202.507 113.34 202.987 113.86C203.467 114.34 204.127 114.58 204.967 114.58C205.607 114.58 206.267 114.5 206.947 114.34C207.627 114.18 208.227 113.98 208.747 113.74L209.827 119.86C208.747 120.38 207.487 120.78 206.047 121.06C204.607 121.34 203.307 121.48 202.147 121.48C199.627 121.48 197.667 120.82 196.267 119.5C194.907 118.14 194.227 116.22 194.227 113.74V77.2ZM224.483 121V78.4H232.763V121H224.483ZM268.891 121H260.851V103.36C260.851 100.84 260.411 99 259.531 97.84C258.651 96.68 257.431 96.1 255.871 96.1C254.791 96.1 253.691 96.38 252.571 96.94C251.491 97.5 250.511 98.28 249.631 99.28C248.751 100.24 248.111 101.36 247.711 102.64V121H239.671V89.56H246.931V95.38C247.731 94.02 248.751 92.88 249.991 91.96C251.231 91 252.651 90.28 254.251 89.8C255.891 89.28 257.611 89.02 259.411 89.02C261.371 89.02 262.971 89.38 264.211 90.1C265.491 90.78 266.451 91.72 267.091 92.92C267.771 94.08 268.231 95.4 268.471 96.88C268.751 98.36 268.891 99.86 268.891 101.38V121ZM272.762 105.28C272.762 102.24 273.362 99.5 274.562 97.06C275.762 94.58 277.422 92.62 279.542 91.18C281.662 89.74 284.082 89.02 286.802 89.02C289.122 89.02 291.202 89.6 293.042 90.76C294.922 91.88 296.382 93.32 297.422 95.08V77.2H305.462V112C305.462 112.84 305.602 113.44 305.882 113.8C306.162 114.16 306.642 114.38 307.322 114.46V121C305.922 121.28 304.782 121.42 303.902 121.42C302.462 121.42 301.262 121.06 300.302 120.34C299.382 119.62 298.862 118.68 298.742 117.52L298.622 115.54C297.462 117.5 295.882 119 293.882 120.04C291.922 121.08 289.862 121.6 287.702 121.6C285.542 121.6 283.542 121.18 281.702 120.34C279.902 119.5 278.322 118.34 276.962 116.86C275.642 115.38 274.602 113.66 273.842 111.7C273.122 109.7 272.762 107.56 272.762 105.28ZM297.422 109.48V101.98C297.022 100.82 296.382 99.78 295.502 98.86C294.622 97.94 293.642 97.22 292.562 96.7C291.482 96.14 290.402 95.86 289.322 95.86C288.082 95.86 286.962 96.12 285.962 96.64C284.962 97.16 284.082 97.86 283.322 98.74C282.602 99.62 282.042 100.64 281.642 101.8C281.282 102.96 281.102 104.18 281.102 105.46C281.102 106.74 281.302 107.96 281.702 109.12C282.142 110.24 282.762 111.22 283.562 112.06C284.362 112.9 285.282 113.56 286.322 114.04C287.402 114.52 288.562 114.76 289.802 114.76C290.562 114.76 291.322 114.64 292.082 114.4C292.882 114.12 293.622 113.76 294.302 113.32C295.022 112.84 295.642 112.28 296.162 111.64C296.722 110.96 297.142 110.24 297.422 109.48ZM311.854 109.24V89.56H319.894V107.5C319.894 109.9 320.334 111.72 321.214 112.96C322.094 114.16 323.394 114.76 325.114 114.76C326.154 114.76 327.174 114.56 328.174 114.16C329.214 113.72 330.154 113.08 330.994 112.24C331.874 111.4 332.614 110.34 333.214 109.06V89.56H341.254V112C341.254 112.84 341.394 113.44 341.674 113.8C341.994 114.16 342.494 114.38 343.174 114.46V121C342.374 121.12 341.694 121.2 341.134 121.24C340.614 121.32 340.134 121.36 339.694 121.36C338.254 121.36 337.074 121.04 336.154 120.4C335.274 119.72 334.754 118.8 334.594 117.64L334.414 115.12C333.014 117.24 331.214 118.86 329.014 119.98C326.814 121.06 324.394 121.6 321.754 121.6C318.514 121.6 316.054 120.56 314.374 118.48C312.694 116.36 311.854 113.28 311.854 109.24ZM359.624 121.6C356.944 121.6 354.384 121.16 351.944 120.28C349.504 119.4 347.404 118.1 345.644 116.38L348.524 111.16C350.404 112.68 352.244 113.8 354.044 114.52C355.884 115.24 357.644 115.6 359.324 115.6C360.884 115.6 362.124 115.32 363.044 114.76C364.004 114.2 364.484 113.36 364.484 112.24C364.484 111.48 364.224 110.9 363.704 110.5C363.184 110.06 362.424 109.68 361.424 109.36C360.464 109.04 359.284 108.68 357.884 108.28C355.564 107.52 353.624 106.78 352.064 106.06C350.504 105.34 349.324 104.44 348.524 103.36C347.764 102.24 347.384 100.82 347.384 99.1C347.384 97.02 347.904 95.24 348.944 93.76C350.024 92.24 351.504 91.06 353.384 90.22C355.304 89.38 357.544 88.96 360.104 88.96C362.344 88.96 364.464 89.32 366.464 90.04C368.464 90.72 370.284 91.84 371.924 93.4L368.684 98.5C367.084 97.26 365.564 96.36 364.124 95.8C362.684 95.2 361.224 94.9 359.744 94.9C358.904 94.9 358.104 95 357.344 95.2C356.624 95.4 356.024 95.74 355.544 96.22C355.104 96.66 354.884 97.3 354.884 98.14C354.884 98.9 355.084 99.5 355.484 99.94C355.924 100.34 356.564 100.7 357.404 101.02C358.284 101.34 359.344 101.7 360.584 102.1C363.104 102.82 365.224 103.56 366.944 104.32C368.704 105.08 370.024 106.02 370.904 107.14C371.784 108.22 372.224 109.72 372.224 111.64C372.224 114.76 371.084 117.2 368.804 118.96C366.524 120.72 363.464 121.6 359.624 121.6ZM395.157 119.38C394.477 119.66 393.657 119.98 392.697 120.34C391.737 120.7 390.697 120.98 389.577 121.18C388.497 121.42 387.397 121.54 386.277 121.54C384.797 121.54 383.437 121.28 382.197 120.76C380.957 120.24 379.957 119.42 379.197 118.3C378.477 117.14 378.117 115.64 378.117 113.8V95.74H373.977V89.56H378.117V79.36H386.157V89.56H392.757V95.74H386.157V111.1C386.197 112.18 386.497 112.96 387.057 113.44C387.617 113.92 388.317 114.16 389.157 114.16C389.997 114.16 390.817 114.02 391.617 113.74C392.417 113.46 393.057 113.22 393.537 113.02L395.157 119.38ZM416.864 96.52C414.424 96.52 412.244 97 410.324 97.96C408.404 98.88 407.024 100.22 406.184 101.98V121H398.144V89.56H405.524V96.28C406.644 94.12 408.064 92.42 409.784 91.18C411.504 89.94 413.324 89.26 415.244 89.14C415.684 89.14 416.024 89.14 416.264 89.14C416.504 89.14 416.704 89.16 416.864 89.2V96.52ZM420.807 127.12C421.527 127.28 422.187 127.42 422.787 127.54C423.427 127.66 423.967 127.72 424.407 127.72C425.167 127.72 425.787 127.52 426.267 127.12C426.787 126.76 427.287 126.08 427.767 125.08C428.247 124.12 428.747 122.76 429.267 121L416.847 89.56H425.187L433.647 112.78L441.087 89.56H448.767L435.567 127.24C435.087 128.64 434.347 129.9 433.347 131.02C432.387 132.18 431.167 133.08 429.687 133.72C428.247 134.4 426.627 134.74 424.827 134.74C424.187 134.74 423.547 134.68 422.907 134.56C422.267 134.48 421.567 134.32 420.807 134.08V127.12ZM156.72 185.74V193H127.14V150.4H156.18V157.66H135.42V167.92H153.36V174.64H135.42V185.74H156.72ZM169.128 193L157.548 161.56H165.888L173.808 185.68L181.788 161.56H189.408L177.888 193H169.128ZM205.982 193.6C203.462 193.6 201.182 193.18 199.142 192.34C197.102 191.46 195.362 190.28 193.922 188.8C192.482 187.28 191.362 185.56 190.562 183.64C189.802 181.68 189.422 179.62 189.422 177.46C189.422 174.46 190.082 171.72 191.402 169.24C192.762 166.76 194.682 164.78 197.162 163.3C199.682 161.78 202.642 161.02 206.042 161.02C209.482 161.02 212.422 161.78 214.862 163.3C217.302 164.78 219.162 166.76 220.442 169.24C221.762 171.68 222.422 174.32 222.422 177.16C222.422 177.64 222.402 178.14 222.362 178.66C222.322 179.14 222.282 179.54 222.242 179.86H197.942C198.102 181.46 198.562 182.86 199.322 184.06C200.122 185.26 201.122 186.18 202.322 186.82C203.562 187.42 204.882 187.72 206.282 187.72C207.882 187.72 209.382 187.34 210.782 186.58C212.222 185.78 213.202 184.74 213.722 183.46L220.622 185.38C219.862 186.98 218.762 188.4 217.322 189.64C215.922 190.88 214.262 191.86 212.342 192.58C210.422 193.26 208.302 193.6 205.982 193.6ZM197.762 174.76H214.202C214.042 173.16 213.582 171.78 212.822 170.62C212.102 169.42 211.142 168.5 209.942 167.86C208.742 167.18 207.402 166.84 205.922 166.84C204.482 166.84 203.162 167.18 201.962 167.86C200.802 168.5 199.842 169.42 199.082 170.62C198.362 171.78 197.922 173.16 197.762 174.76ZM255.34 193H247.3V175.36C247.3 172.84 246.86 171 245.98 169.84C245.1 168.68 243.88 168.1 242.32 168.1C241.24 168.1 240.14 168.38 239.02 168.94C237.94 169.5 236.96 170.28 236.08 171.28C235.2 172.24 234.56 173.36 234.16 174.64V193H226.12V161.56H233.38V167.38C234.18 166.02 235.2 164.88 236.44 163.96C237.68 163 239.1 162.28 240.7 161.8C242.34 161.28 244.06 161.02 245.86 161.02C247.82 161.02 249.42 161.38 250.66 162.1C251.94 162.78 252.9 163.72 253.54 164.92C254.22 166.08 254.68 167.4 254.92 168.88C255.2 170.36 255.34 171.86 255.34 173.38V193ZM279.795 191.38C279.115 191.66 278.295 191.98 277.335 192.34C276.375 192.7 275.335 192.98 274.215 193.18C273.135 193.42 272.035 193.54 270.915 193.54C269.435 193.54 268.075 193.28 266.835 192.76C265.595 192.24 264.595 191.42 263.835 190.3C263.115 189.14 262.755 187.64 262.755 185.8V167.74H258.615V161.56H262.755V151.36H270.795V161.56H277.395V167.74H270.795V183.1C270.835 184.18 271.135 184.96 271.695 185.44C272.255 185.92 272.955 186.16 273.795 186.16C274.635 186.16 275.455 186.02 276.255 185.74C277.055 185.46 277.695 185.22 278.175 185.02L279.795 191.38ZM294.362 193.6C291.682 193.6 289.122 193.16 286.682 192.28C284.242 191.4 282.142 190.1 280.382 188.38L283.262 183.16C285.142 184.68 286.982 185.8 288.782 186.52C290.622 187.24 292.382 187.6 294.062 187.6C295.622 187.6 296.862 187.32 297.782 186.76C298.742 186.2 299.222 185.36 299.222 184.24C299.222 183.48 298.962 182.9 298.442 182.5C297.922 182.06 297.162 181.68 296.162 181.36C295.202 181.04 294.022 180.68 292.622 180.28C290.302 179.52 288.362 178.78 286.802 178.06C285.242 177.34 284.062 176.44 283.262 175.36C282.502 174.24 282.122 172.82 282.122 171.1C282.122 169.02 282.642 167.24 283.682 165.76C284.762 164.24 286.242 163.06 288.122 162.22C290.042 161.38 292.282 160.96 294.842 160.96C297.082 160.96 299.202 161.32 301.202 162.04C303.202 162.72 305.022 163.84 306.662 165.4L303.422 170.5C301.822 169.26 300.302 168.36 298.862 167.8C297.422 167.2 295.962 166.9 294.482 166.9C293.642 166.9 292.842 167 292.082 167.2C291.362 167.4 290.762 167.74 290.282 168.22C289.842 168.66 289.622 169.3 289.622 170.14C289.622 170.9 289.822 171.5 290.222 171.94C290.662 172.34 291.302 172.7 292.142 173.02C293.022 173.34 294.082 173.7 295.322 174.1C297.842 174.82 299.962 175.56 301.682 176.32C303.442 177.08 304.762 178.02 305.642 179.14C306.522 180.22 306.962 181.72 306.962 183.64C306.962 186.76 305.822 189.2 303.542 190.96C301.262 192.72 298.202 193.6 294.362 193.6ZM352.945 193L332.905 171.76C331.225 169.96 329.865 168.42 328.825 167.14C327.825 165.82 327.105 164.62 326.665 163.54C326.225 162.46 326.005 161.3 326.005 160.06C326.005 158.02 326.505 156.24 327.505 154.72C328.545 153.16 329.945 151.96 331.705 151.12C333.505 150.28 335.505 149.86 337.705 149.86C339.705 149.86 341.545 150.22 343.225 150.94C344.945 151.62 346.345 152.66 347.425 154.06C348.505 155.46 349.045 157.2 349.045 159.28C349.045 161.16 348.565 162.86 347.605 164.38C346.685 165.9 345.445 167.3 343.885 168.58C342.325 169.86 340.565 171.1 338.605 172.3C337.165 173.22 335.845 174.12 334.645 175C333.485 175.88 332.565 176.82 331.885 177.82C331.245 178.78 330.925 179.84 330.925 181C330.925 182.12 331.245 183.16 331.885 184.12C332.525 185.08 333.405 185.86 334.525 186.46C335.685 187.02 336.965 187.3 338.365 187.3C340.085 187.3 341.745 186.88 343.345 186.04C344.985 185.2 346.445 184.02 347.725 182.5C349.005 180.94 350.005 179.08 350.725 176.92C351.485 174.76 351.865 172.34 351.865 169.66H358.405C358.405 173.46 357.825 176.84 356.665 179.8C355.505 182.72 353.945 185.22 351.985 187.3C350.025 189.34 347.805 190.9 345.325 191.98C342.845 193.06 340.265 193.6 337.585 193.6C334.665 193.6 332.125 193.02 329.965 191.86C327.805 190.66 326.125 189.1 324.925 187.18C323.765 185.26 323.185 183.18 323.185 180.94C323.185 178.7 323.705 176.74 324.745 175.06C325.785 173.38 327.105 171.9 328.705 170.62C330.305 169.3 331.905 168.14 333.505 167.14C335.265 166.02 336.745 165.08 337.945 164.32C339.145 163.52 340.065 162.74 340.705 161.98C341.345 161.18 341.665 160.32 341.665 159.4C341.665 158.32 341.285 157.46 340.525 156.82C339.805 156.14 338.865 155.8 337.705 155.8C336.825 155.8 336.045 155.98 335.365 156.34C334.725 156.7 334.225 157.18 333.865 157.78C333.505 158.38 333.325 159.06 333.325 159.82C333.325 160.38 333.485 160.94 333.805 161.5C334.165 162.06 334.765 162.8 335.605 163.72C336.485 164.6 337.685 165.86 339.205 167.5L363.505 193H352.945ZM159.919 265V237.04L148.999 257.86H144.379L133.459 237.04V265H125.179V222.4H134.059L146.659 246.64L159.379 222.4H168.199V265H159.919ZM189.165 265.6C186.645 265.6 184.365 265.18 182.325 264.34C180.285 263.46 178.545 262.28 177.105 260.8C175.665 259.28 174.545 257.56 173.745 255.64C172.985 253.68 172.605 251.62 172.605 249.46C172.605 246.46 173.265 243.72 174.585 241.24C175.945 238.76 177.865 236.78 180.345 235.3C182.865 233.78 185.825 233.02 189.225 233.02C192.665 233.02 195.605 233.78 198.045 235.3C200.485 236.78 202.345 238.76 203.625 241.24C204.945 243.68 205.605 246.32 205.605 249.16C205.605 249.64 205.585 250.14 205.545 250.66C205.505 251.14 205.465 251.54 205.425 251.86H181.125C181.285 253.46 181.745 254.86 182.505 256.06C183.305 257.26 184.305 258.18 185.505 258.82C186.745 259.42 188.065 259.72 189.465 259.72C191.065 259.72 192.565 259.34 193.965 258.58C195.405 257.78 196.385 256.74 196.905 255.46L203.805 257.38C203.045 258.98 201.945 260.4 200.505 261.64C199.105 262.88 197.445 263.86 195.525 264.58C193.605 265.26 191.485 265.6 189.165 265.6ZM180.945 246.76H197.385C197.225 245.16 196.765 243.78 196.005 242.62C195.285 241.42 194.325 240.5 193.125 239.86C191.925 239.18 190.585 238.84 189.105 238.84C187.665 238.84 186.345 239.18 185.145 239.86C183.985 240.5 183.025 241.42 182.265 242.62C181.545 243.78 181.105 245.16 180.945 246.76ZM223.883 265.6C221.363 265.6 219.083 265.18 217.043 264.34C215.003 263.46 213.263 262.28 211.823 260.8C210.383 259.28 209.263 257.56 208.463 255.64C207.703 253.68 207.323 251.62 207.323 249.46C207.323 246.46 207.983 243.72 209.303 241.24C210.663 238.76 212.583 236.78 215.063 235.3C217.583 233.78 220.543 233.02 223.943 233.02C227.383 233.02 230.323 233.78 232.763 235.3C235.203 236.78 237.063 238.76 238.343 241.24C239.663 243.68 240.323 246.32 240.323 249.16C240.323 249.64 240.303 250.14 240.263 250.66C240.223 251.14 240.183 251.54 240.143 251.86H215.843C216.003 253.46 216.463 254.86 217.223 256.06C218.023 257.26 219.023 258.18 220.223 258.82C221.463 259.42 222.783 259.72 224.183 259.72C225.783 259.72 227.283 259.34 228.683 258.58C230.123 257.78 231.103 256.74 231.623 255.46L238.523 257.38C237.763 258.98 236.663 260.4 235.223 261.64C233.823 262.88 232.163 263.86 230.243 264.58C228.323 265.26 226.203 265.6 223.883 265.6ZM215.663 246.76H232.103C231.943 245.16 231.483 243.78 230.723 242.62C230.003 241.42 229.043 240.5 227.843 239.86C226.643 239.18 225.303 238.84 223.823 238.84C222.383 238.84 221.063 239.18 219.863 239.86C218.703 240.5 217.743 241.42 216.983 242.62C216.263 243.78 215.823 245.16 215.663 246.76ZM262.568 263.38C261.888 263.66 261.068 263.98 260.108 264.34C259.148 264.7 258.108 264.98 256.988 265.18C255.908 265.42 254.808 265.54 253.688 265.54C252.208 265.54 250.848 265.28 249.608 264.76C248.368 264.24 247.368 263.42 246.608 262.3C245.888 261.14 245.528 259.64 245.528 257.8V239.74H241.388V233.56H245.528V223.36H253.568V233.56H260.168V239.74H253.568V255.1C253.608 256.18 253.908 256.96 254.468 257.44C255.028 257.92 255.728 258.16 256.568 258.16C257.408 258.16 258.228 258.02 259.028 257.74C259.828 257.46 260.468 257.22 260.948 257.02L262.568 263.38ZM265.256 253.24V233.56H273.296V251.5C273.296 253.9 273.736 255.72 274.616 256.96C275.496 258.16 276.796 258.76 278.516 258.76C279.556 258.76 280.576 258.56 281.576 258.16C282.616 257.72 283.556 257.08 284.396 256.24C285.276 255.4 286.016 254.34 286.616 253.06V233.56H294.656V256C294.656 256.84 294.796 257.44 295.076 257.8C295.396 258.16 295.896 258.38 296.576 258.46V265C295.776 265.12 295.096 265.2 294.536 265.24C294.016 265.32 293.536 265.36 293.096 265.36C291.656 265.36 290.476 265.04 289.556 264.4C288.676 263.72 288.156 262.8 287.996 261.64L287.816 259.12C286.416 261.24 284.616 262.86 282.416 263.98C280.216 265.06 277.796 265.6 275.156 265.6C271.916 265.6 269.456 264.56 267.776 262.48C266.096 260.36 265.256 257.28 265.256 253.24ZM320.286 265.6C317.846 265.6 315.686 265.06 313.806 263.98C311.966 262.86 310.526 261.36 309.486 259.48V277.78H301.446V233.56H308.466V238.96C309.666 237.12 311.186 235.68 313.026 234.64C314.866 233.56 316.966 233.02 319.326 233.02C321.446 233.02 323.386 233.44 325.146 234.28C326.946 235.12 328.506 236.3 329.826 237.82C331.146 239.3 332.166 241.02 332.886 242.98C333.646 244.9 334.026 246.98 334.026 249.22C334.026 252.26 333.426 255.02 332.226 257.5C331.066 259.98 329.446 261.96 327.366 263.44C325.326 264.88 322.966 265.6 320.286 265.6ZM317.586 258.76C318.826 258.76 319.946 258.5 320.946 257.98C321.946 257.46 322.806 256.76 323.526 255.88C324.286 254.96 324.846 253.94 325.206 252.82C325.606 251.66 325.806 250.46 325.806 249.22C325.806 247.9 325.586 246.68 325.146 245.56C324.746 244.44 324.146 243.46 323.346 242.62C322.546 241.74 321.606 241.06 320.526 240.58C319.486 240.1 318.346 239.86 317.106 239.86C316.346 239.86 315.566 240 314.766 240.28C314.006 240.52 313.266 240.88 312.546 241.36C311.826 241.84 311.186 242.4 310.626 243.04C310.106 243.68 309.726 244.38 309.486 245.14V252.52C309.966 253.68 310.606 254.74 311.406 255.7C312.246 256.66 313.206 257.42 314.286 257.98C315.366 258.5 316.466 258.76 317.586 258.76ZM349.853 265.6C347.173 265.6 344.613 265.16 342.173 264.28C339.733 263.4 337.633 262.1 335.873 260.38L338.753 255.16C340.633 256.68 342.473 257.8 344.273 258.52C346.113 259.24 347.873 259.6 349.553 259.6C351.113 259.6 352.353 259.32 353.273 258.76C354.233 258.2 354.713 257.36 354.713 256.24C354.713 255.48 354.453 254.9 353.933 254.5C353.413 254.06 352.653 253.68 351.653 253.36C350.693 253.04 349.513 252.68 348.113 252.28C345.793 251.52 343.853 250.78 342.293 250.06C340.733 249.34 339.553 248.44 338.753 247.36C337.993 246.24 337.613 244.82 337.613 243.1C337.613 241.02 338.133 239.24 339.173 237.76C340.253 236.24 341.733 235.06 343.613 234.22C345.533 233.38 347.773 232.96 350.333 232.96C352.573 232.96 354.693 233.32 356.693 234.04C358.693 234.72 360.513 235.84 362.153 237.4L358.913 242.5C357.313 241.26 355.793 240.36 354.353 239.8C352.913 239.2 351.453 238.9 349.973 238.9C349.133 238.9 348.333 239 347.573 239.2C346.853 239.4 346.253 239.74 345.773 240.22C345.333 240.66 345.113 241.3 345.113 242.14C345.113 242.9 345.313 243.5 345.713 243.94C346.153 244.34 346.793 244.7 347.633 245.02C348.513 245.34 349.573 245.7 350.813 246.1C353.333 246.82 355.453 247.56 357.173 248.32C358.933 249.08 360.253 250.02 361.133 251.14C362.013 252.22 362.453 253.72 362.453 255.64C362.453 258.76 361.313 261.2 359.033 262.96C356.753 264.72 353.693 265.6 349.853 265.6Z" fill="white"/>
</svg>
