<svg width="470" height="333" viewBox="0 0 470 333" fill="none" xmlns="http://www.w3.org/2000/svg">
<path d="M344.287 13.4528C365.974 7.64199 388.266 20.5128 394.077 42.1998C398.955 60.4069 390.665 79.0374 375.047 87.987L418.248 76.4118C439.935 70.601 462.227 83.4718 468.038 105.159C473.849 126.846 460.978 149.137 439.291 154.948L396.057 166.532C414.074 166.456 430.589 178.451 435.471 196.672C441.282 218.359 428.411 240.65 406.724 246.461L92.5798 330.636C70.8927 336.447 48.6008 323.576 42.7898 301.889C36.9789 280.202 49.8489 257.91 71.5359 252.099L114.765 240.515C96.7509 240.59 80.2379 228.596 75.3562 210.377C70.4778 192.17 78.7666 173.538 94.3845 164.589L51.1853 176.165C29.4981 181.976 7.20627 169.105 1.39523 147.418C-4.41558 125.731 8.45436 103.439 30.1413 97.6276L344.287 13.4528Z" fill="#9ADCAC"/>
<mask id="path-2-outside-1_2672_13495" maskUnits="userSpaceOnUse" x="17.6641" y="-1" width="435" height="326" fill="black">
<rect fill="white" x="17.6641" y="-1" width="435" height="326"/>
<path d="M331.739 5.61287C352.995 -0.621362 374.497 11.7674 379.764 33.2838C384.186 51.3476 375.758 70.0997 360.362 79.3424L398.774 68.0767C420.03 61.8425 441.532 74.2313 446.799 95.7476C452.066 117.264 439.104 139.76 417.848 145.995L379.401 157.27C396.971 156.831 412.855 168.463 417.28 186.54C422.547 208.056 409.585 230.552 388.328 236.787L109.378 318.6C88.122 324.834 66.62 312.446 61.3529 290.929C56.086 269.413 69.0479 246.916 90.3041 240.682L128.747 229.407C111.179 229.844 95.2972 218.212 90.8724 200.137C86.4507 182.074 94.8779 163.32 110.274 154.078L71.8627 165.344C50.6064 171.579 29.1044 159.19 23.8373 137.673C18.5704 116.157 31.5323 93.6606 52.7884 87.4264L331.739 5.61287Z"/>
</mask>
<path d="M331.739 5.61287L330.613 1.77455L330.613 1.77455L331.739 5.61287ZM379.764 33.2838L383.649 32.3327L383.649 32.3327L379.764 33.2838ZM360.362 79.3424L358.303 75.9129L361.487 83.1807L360.362 79.3424ZM398.774 68.0767L399.9 71.9151L399.9 71.9151L398.774 68.0767ZM446.799 95.7476L450.684 94.7965L450.684 94.7965L446.799 95.7476ZM417.848 145.995L418.974 149.833L418.974 149.833L417.848 145.995ZM379.401 157.27L378.275 153.432L379.501 161.269L379.401 157.27ZM417.28 186.54L421.165 185.589L421.165 185.589L417.28 186.54ZM388.328 236.787L389.454 240.625L389.454 240.625L388.328 236.787ZM109.378 318.6L108.253 314.762L108.253 314.762L109.378 318.6ZM61.3529 290.929L57.4676 291.88L57.4676 291.88L61.3529 290.929ZM90.3041 240.682L91.4298 244.521L91.4298 244.521L90.3041 240.682ZM128.747 229.407L129.873 233.245L128.648 225.408L128.747 229.407ZM90.8724 200.137L86.9871 201.088L86.9871 201.088L90.8724 200.137ZM110.274 154.078L112.333 157.507L109.148 150.239L110.274 154.078ZM71.8627 165.344L72.9884 169.183L72.9885 169.183L71.8627 165.344ZM23.8373 137.673L19.952 138.624L19.952 138.625L23.8373 137.673ZM52.7884 87.4264L51.6627 83.588L51.6627 83.588L52.7884 87.4264ZM331.739 5.61287L332.864 9.4512C351.933 3.85866 371.154 14.9333 375.879 34.2349L379.764 33.2838L383.649 32.3327C377.84 8.60162 354.057 -5.10138 330.613 1.77455L331.739 5.61287ZM379.764 33.2838L375.879 34.2349C379.867 50.5285 372.256 67.5362 358.303 75.9129L360.362 79.3424L362.42 82.7718C379.259 72.6633 388.505 52.1667 383.649 32.3327L379.764 33.2838ZM360.362 79.3424L361.487 83.1807L399.9 71.9151L398.774 68.0767L397.648 64.2384L359.236 75.504L360.362 79.3424ZM398.774 68.0767L399.9 71.9151C418.968 66.3225 438.189 77.3971 442.914 96.6987L446.799 95.7476L450.684 94.7965C444.875 71.0655 421.092 57.3625 397.648 64.2384L398.774 68.0767ZM446.799 95.7476L442.914 96.6987C447.672 116.137 435.926 136.524 416.722 142.156L417.848 145.995L418.974 149.833C442.282 142.997 456.46 118.39 450.684 94.7965L446.799 95.7476ZM417.848 145.995L416.722 142.156L378.275 153.432L379.401 157.27L380.526 161.108L418.974 149.833L417.848 145.995ZM379.401 157.27L379.501 161.269C395.208 160.877 409.42 171.257 413.394 187.491L417.28 186.54L421.165 185.589C416.289 165.669 398.733 152.786 379.301 153.271L379.401 157.27ZM417.28 186.54L413.394 187.491C418.153 206.929 406.407 227.316 387.203 232.948L388.328 236.787L389.454 240.625C412.763 233.789 426.941 209.182 421.165 185.589L417.28 186.54ZM388.328 236.787L387.203 232.948L108.253 314.762L109.378 318.6L110.504 322.438L389.454 240.625L388.328 236.787ZM109.378 318.6L108.253 314.762C89.1842 320.354 69.9632 309.28 65.2382 289.978L61.3529 290.929L57.4676 291.88C63.2769 315.611 87.0598 329.314 110.504 322.438L109.378 318.6ZM61.3529 290.929L65.2382 289.978C60.4798 270.539 72.226 250.153 91.4298 244.521L90.3041 240.682L89.1783 236.844C65.8698 243.68 51.6922 268.287 57.4676 291.88L61.3529 290.929ZM90.3041 240.682L91.4298 244.521L129.873 233.245L128.747 229.407L127.622 225.569L89.1783 236.844L90.3041 240.682ZM128.747 229.407L128.648 225.408C112.942 225.799 98.7314 215.419 94.7577 199.186L90.8724 200.137L86.9871 201.088C91.863 221.006 109.416 233.889 128.847 233.406L128.747 229.407ZM90.8724 200.137L94.7577 199.186C90.7692 182.892 98.3793 165.884 112.333 157.507L110.274 154.078L108.215 150.648C91.3764 160.757 82.1321 181.255 86.9871 201.088L90.8724 200.137ZM110.274 154.078L109.148 150.239L70.7368 161.506L71.8627 165.344L72.9885 169.183L111.4 157.916L110.274 154.078ZM71.8627 165.344L70.7369 161.506C51.6686 167.099 32.4475 156.024 27.7225 136.722L23.8373 137.673L19.952 138.625C25.7613 162.356 49.5442 176.059 72.9884 169.183L71.8627 165.344ZM23.8373 137.673L27.7226 136.722C22.9642 117.284 34.7104 96.897 53.9142 91.2647L52.7884 87.4264L51.6627 83.588C28.3541 90.4242 14.1766 115.031 19.952 138.624L23.8373 137.673ZM52.7884 87.4264L53.9142 91.2647L332.864 9.45119L331.739 5.61287L330.613 1.77455L51.6627 83.588L52.7884 87.4264Z" fill="#24B34B" mask="url(#path-2-outside-1_2672_13495)"/>
<path d="M79.7914 81.66H66.1714V117H57.9514V81.66H44.3314V74.4H79.7914V81.66ZM98.8316 92.52C96.3916 92.52 94.2116 93 92.2916 93.96C90.3716 94.88 88.9916 96.22 88.1516 97.98V117H80.1116V85.56H87.4916V92.28C88.6116 90.12 90.0316 88.42 91.7516 87.18C93.4716 85.94 95.2916 85.26 97.2116 85.14C97.6516 85.14 97.9916 85.14 98.2316 85.14C98.4716 85.14 98.6716 85.16 98.8316 85.2V92.52ZM99.7789 107.7C99.7789 105.66 100.339 103.88 101.459 102.36C102.619 100.8 104.219 99.6 106.259 98.76C108.299 97.92 110.639 97.5 113.279 97.5C114.599 97.5 115.939 97.6 117.299 97.8C118.659 98 119.839 98.32 120.839 98.76V97.08C120.839 95.08 120.239 93.54 119.039 92.46C117.879 91.38 116.139 90.84 113.819 90.84C112.099 90.84 110.459 91.14 108.899 91.74C107.339 92.34 105.699 93.22 103.979 94.38L101.399 89.1C103.479 87.74 105.599 86.72 107.759 86.04C109.959 85.36 112.259 85.02 114.659 85.02C119.139 85.02 122.619 86.14 125.099 88.38C127.619 90.62 128.879 93.82 128.879 97.98V108C128.879 108.84 129.019 109.44 129.299 109.8C129.619 110.16 130.119 110.38 130.799 110.46V117C130.079 117.12 129.419 117.22 128.819 117.3C128.259 117.38 127.779 117.42 127.379 117.42C125.779 117.42 124.559 117.06 123.719 116.34C122.919 115.62 122.419 114.74 122.219 113.7L122.039 112.08C120.679 113.84 118.979 115.2 116.939 116.16C114.899 117.12 112.819 117.6 110.699 117.6C108.619 117.6 106.739 117.18 105.059 116.34C103.419 115.46 102.119 114.28 101.159 112.8C100.239 111.28 99.7789 109.58 99.7789 107.7ZM119.339 109.32C119.779 108.84 120.139 108.36 120.419 107.88C120.699 107.4 120.839 106.96 120.839 106.56V103.38C119.879 102.98 118.839 102.68 117.719 102.48C116.599 102.24 115.539 102.12 114.539 102.12C112.459 102.12 110.739 102.58 109.379 103.5C108.059 104.38 107.399 105.56 107.399 107.04C107.399 107.84 107.619 108.6 108.059 109.32C108.499 110.04 109.139 110.62 109.979 111.06C110.819 111.5 111.819 111.72 112.979 111.72C114.179 111.72 115.359 111.5 116.519 111.06C117.679 110.58 118.619 110 119.339 109.32ZM142.539 117L130.959 85.56H139.299L147.219 109.68L155.199 85.56H162.819L151.299 117H142.539ZM179.392 117.6C176.872 117.6 174.592 117.18 172.552 116.34C170.512 115.46 168.772 114.28 167.332 112.8C165.892 111.28 164.772 109.56 163.972 107.64C163.212 105.68 162.832 103.62 162.832 101.46C162.832 98.46 163.492 95.72 164.812 93.24C166.172 90.76 168.092 88.78 170.572 87.3C173.092 85.78 176.052 85.02 179.452 85.02C182.892 85.02 185.832 85.78 188.272 87.3C190.712 88.78 192.572 90.76 193.852 93.24C195.172 95.68 195.832 98.32 195.832 101.16C195.832 101.64 195.812 102.14 195.772 102.66C195.732 103.14 195.692 103.54 195.652 103.86H171.352C171.512 105.46 171.972 106.86 172.732 108.06C173.532 109.26 174.532 110.18 175.732 110.82C176.972 111.42 178.292 111.72 179.692 111.72C181.292 111.72 182.792 111.34 184.192 110.58C185.632 109.78 186.612 108.74 187.132 107.46L194.032 109.38C193.272 110.98 192.172 112.4 190.732 113.64C189.332 114.88 187.672 115.86 185.752 116.58C183.832 117.26 181.712 117.6 179.392 117.6ZM171.172 98.76H187.612C187.452 97.16 186.992 95.78 186.232 94.62C185.512 93.42 184.552 92.5 183.352 91.86C182.152 91.18 180.812 90.84 179.332 90.84C177.892 90.84 176.572 91.18 175.372 91.86C174.212 92.5 173.252 93.42 172.492 94.62C171.772 95.78 171.332 97.16 171.172 98.76ZM199.47 73.2H207.51V106.92C207.51 108.36 207.75 109.34 208.23 109.86C208.71 110.34 209.37 110.58 210.21 110.58C210.85 110.58 211.51 110.5 212.19 110.34C212.87 110.18 213.47 109.98 213.99 109.74L215.07 115.86C213.99 116.38 212.73 116.78 211.29 117.06C209.85 117.34 208.55 117.48 207.39 117.48C204.87 117.48 202.91 116.82 201.51 115.5C200.15 114.14 199.47 112.22 199.47 109.74V73.2ZM247.427 117.3C244.667 117.3 242.047 116.74 239.567 115.62C237.127 114.5 234.967 112.96 233.087 111C231.247 109 229.807 106.68 228.767 104.04C227.727 101.4 227.207 98.54 227.207 95.46C227.207 92.54 227.727 89.8 228.767 87.24C229.807 84.64 231.267 82.36 233.147 80.4C235.027 78.44 237.227 76.9 239.747 75.78C242.267 74.66 245.007 74.1 247.967 74.1C251.967 74.1 255.387 74.96 258.227 76.68C261.107 78.36 263.267 80.6 264.707 83.4L258.527 87.96C257.447 85.84 255.927 84.22 253.967 83.1C252.047 81.98 249.947 81.42 247.667 81.42C245.867 81.42 244.227 81.8 242.747 82.56C241.267 83.32 239.987 84.36 238.907 85.68C237.827 87 236.987 88.52 236.387 90.24C235.827 91.96 235.547 93.78 235.547 95.7C235.547 97.74 235.847 99.62 236.447 101.34C237.087 103.06 237.967 104.56 239.087 105.84C240.247 107.12 241.587 108.14 243.107 108.9C244.627 109.62 246.307 109.98 248.147 109.98C250.307 109.98 252.367 109.42 254.327 108.3C256.327 107.18 258.187 105.54 259.907 103.38V111.54C256.347 115.38 252.187 117.3 247.427 117.3ZM259.307 101.16H250.727V95.1H266.147V117H259.307V101.16ZM289.943 92.52C287.503 92.52 285.323 93 283.403 93.96C281.483 94.88 280.103 96.22 279.263 97.98V117H271.223V85.56H278.603V92.28C279.723 90.12 281.143 88.42 282.863 87.18C284.583 85.94 286.403 85.26 288.323 85.14C288.763 85.14 289.103 85.14 289.343 85.14C289.583 85.14 289.783 85.16 289.943 85.2V92.52ZM307.336 117.6C304.776 117.6 302.476 117.18 300.436 116.34C298.396 115.46 296.656 114.26 295.216 112.74C293.816 111.22 292.736 109.48 291.976 107.52C291.216 105.56 290.836 103.5 290.836 101.34C290.836 99.14 291.216 97.06 291.976 95.1C292.736 93.14 293.816 91.4 295.216 89.88C296.656 88.36 298.396 87.18 300.436 86.34C302.476 85.46 304.776 85.02 307.336 85.02C309.896 85.02 312.176 85.46 314.176 86.34C316.216 87.18 317.956 88.36 319.396 89.88C320.836 91.4 321.916 93.14 322.636 95.1C323.396 97.06 323.776 99.14 323.776 101.34C323.776 103.5 323.396 105.56 322.636 107.52C321.916 109.48 320.836 111.22 319.396 112.74C317.996 114.26 316.276 115.46 314.236 116.34C312.196 117.18 309.896 117.6 307.336 117.6ZM299.116 101.34C299.116 103.18 299.476 104.82 300.196 106.26C300.916 107.66 301.896 108.76 303.136 109.56C304.376 110.36 305.776 110.76 307.336 110.76C308.856 110.76 310.236 110.36 311.476 109.56C312.716 108.72 313.696 107.6 314.416 106.2C315.176 104.76 315.556 103.12 315.556 101.28C315.556 99.48 315.176 97.86 314.416 96.42C313.696 94.98 312.716 93.86 311.476 93.06C310.236 92.26 308.856 91.86 307.336 91.86C305.776 91.86 304.376 92.28 303.136 93.12C301.896 93.92 300.916 95.04 300.196 96.48C299.476 97.88 299.116 99.5 299.116 101.34ZM327.703 105.24V85.56H335.743V103.5C335.743 105.9 336.183 107.72 337.063 108.96C337.943 110.16 339.243 110.76 340.963 110.76C342.003 110.76 343.023 110.56 344.023 110.16C345.063 109.72 346.003 109.08 346.843 108.24C347.723 107.4 348.463 106.34 349.063 105.06V85.56H357.103V108C357.103 108.84 357.243 109.44 357.523 109.8C357.843 110.16 358.343 110.38 359.023 110.46V117C358.223 117.12 357.543 117.2 356.983 117.24C356.463 117.32 355.983 117.36 355.543 117.36C354.103 117.36 352.923 117.04 352.003 116.4C351.123 115.72 350.603 114.8 350.443 113.64L350.263 111.12C348.863 113.24 347.063 114.86 344.863 115.98C342.663 117.06 340.243 117.6 337.603 117.6C334.363 117.6 331.903 116.56 330.223 114.48C328.543 112.36 327.703 109.28 327.703 105.24ZM382.733 117.6C380.293 117.6 378.133 117.06 376.253 115.98C374.413 114.86 372.973 113.36 371.933 111.48V129.78H363.893V85.56H370.913V90.96C372.113 89.12 373.633 87.68 375.473 86.64C377.313 85.56 379.413 85.02 381.773 85.02C383.893 85.02 385.833 85.44 387.593 86.28C389.393 87.12 390.953 88.3 392.273 89.82C393.593 91.3 394.613 93.02 395.333 94.98C396.093 96.9 396.473 98.98 396.473 101.22C396.473 104.26 395.873 107.02 394.673 109.5C393.513 111.98 391.893 113.96 389.813 115.44C387.773 116.88 385.413 117.6 382.733 117.6ZM380.033 110.76C381.273 110.76 382.393 110.5 383.393 109.98C384.393 109.46 385.253 108.76 385.973 107.88C386.733 106.96 387.293 105.94 387.653 104.82C388.053 103.66 388.253 102.46 388.253 101.22C388.253 99.9 388.033 98.68 387.593 97.56C387.193 96.44 386.593 95.46 385.793 94.62C384.993 93.74 384.053 93.06 382.973 92.58C381.933 92.1 380.793 91.86 379.553 91.86C378.793 91.86 378.013 92 377.213 92.28C376.453 92.52 375.713 92.88 374.993 93.36C374.273 93.84 373.633 94.4 373.073 95.04C372.553 95.68 372.173 96.38 371.933 97.14V104.52C372.413 105.68 373.053 106.74 373.853 107.7C374.693 108.66 375.653 109.42 376.733 109.98C377.813 110.5 378.913 110.76 380.033 110.76ZM412.3 117.6C409.62 117.6 407.06 117.16 404.62 116.28C402.18 115.4 400.08 114.1 398.32 112.38L401.2 107.16C403.08 108.68 404.92 109.8 406.72 110.52C408.56 111.24 410.32 111.6 412 111.6C413.56 111.6 414.8 111.32 415.72 110.76C416.68 110.2 417.16 109.36 417.16 108.24C417.16 107.48 416.9 106.9 416.38 106.5C415.86 106.06 415.1 105.68 414.1 105.36C413.14 105.04 411.96 104.68 410.56 104.28C408.24 103.52 406.3 102.78 404.74 102.06C403.18 101.34 402 100.44 401.2 99.36C400.44 98.24 400.06 96.82 400.06 95.1C400.06 93.02 400.58 91.24 401.62 89.76C402.7 88.24 404.18 87.06 406.06 86.22C407.98 85.38 410.22 84.96 412.78 84.96C415.02 84.96 417.14 85.32 419.14 86.04C421.14 86.72 422.96 87.84 424.6 89.4L421.36 94.5C419.76 93.26 418.24 92.36 416.8 91.8C415.36 91.2 413.9 90.9 412.42 90.9C411.58 90.9 410.78 91 410.02 91.2C409.3 91.4 408.7 91.74 408.22 92.22C407.78 92.66 407.56 93.3 407.56 94.14C407.56 94.9 407.76 95.5 408.16 95.94C408.6 96.34 409.24 96.7 410.08 97.02C410.96 97.34 412.02 97.7 413.26 98.1C415.78 98.82 417.9 99.56 419.62 100.32C421.38 101.08 422.7 102.02 423.58 103.14C424.46 104.22 424.9 105.72 424.9 107.64C424.9 110.76 423.76 113.2 421.48 114.96C419.2 116.72 416.14 117.6 412.3 117.6ZM201.86 189V165.36H197.72V159.24H201.86V157.32C201.86 154.72 202.28 152.48 203.12 150.6C204 148.68 205.22 147.2 206.78 146.16C208.38 145.12 210.24 144.6 212.36 144.6C213.64 144.6 214.92 144.76 216.2 145.08C217.52 145.4 218.82 145.86 220.1 146.46L218.48 152.52C217.88 152.2 217.18 151.94 216.38 151.74C215.58 151.5 214.82 151.38 214.1 151.38C212.74 151.38 211.7 151.86 210.98 152.82C210.26 153.78 209.9 155.18 209.9 157.02V159.24H217.58V165.36H209.9V189H201.86ZM235.057 189.6C232.497 189.6 230.197 189.18 228.157 188.34C226.117 187.46 224.377 186.26 222.937 184.74C221.537 183.22 220.457 181.48 219.697 179.52C218.937 177.56 218.557 175.5 218.557 173.34C218.557 171.14 218.937 169.06 219.697 167.1C220.457 165.14 221.537 163.4 222.937 161.88C224.377 160.36 226.117 159.18 228.157 158.34C230.197 157.46 232.497 157.02 235.057 157.02C237.617 157.02 239.897 157.46 241.897 158.34C243.937 159.18 245.677 160.36 247.117 161.88C248.557 163.4 249.637 165.14 250.357 167.1C251.117 169.06 251.497 171.14 251.497 173.34C251.497 175.5 251.117 177.56 250.357 179.52C249.637 181.48 248.557 183.22 247.117 184.74C245.717 186.26 243.997 187.46 241.957 188.34C239.917 189.18 237.617 189.6 235.057 189.6ZM226.837 173.34C226.837 175.18 227.197 176.82 227.917 178.26C228.637 179.66 229.617 180.76 230.857 181.56C232.097 182.36 233.497 182.76 235.057 182.76C236.577 182.76 237.957 182.36 239.197 181.56C240.437 180.72 241.417 179.6 242.137 178.2C242.897 176.76 243.277 175.12 243.277 173.28C243.277 171.48 242.897 169.86 242.137 168.42C241.417 166.98 240.437 165.86 239.197 165.06C237.957 164.26 236.577 163.86 235.057 163.86C233.497 163.86 232.097 164.28 230.857 165.12C229.617 165.92 228.637 167.04 227.917 168.48C227.197 169.88 226.837 171.5 226.837 173.34ZM274.444 164.52C272.004 164.52 269.824 165 267.904 165.96C265.984 166.88 264.604 168.22 263.764 169.98V189H255.724V157.56H263.104V164.28C264.224 162.12 265.644 160.42 267.364 159.18C269.084 157.94 270.904 157.26 272.824 157.14C273.264 157.14 273.604 157.14 273.844 157.14C274.084 157.14 274.284 157.16 274.444 157.2V164.52ZM69.4993 253.74V261H39.9193V218.4H68.9593V225.66H48.1993V235.92H66.1393V242.64H48.1993V253.74H69.4993ZM103.019 261H94.9787V243.36C94.9787 240.84 94.5387 239 93.6587 237.84C92.7787 236.68 91.5587 236.1 89.9987 236.1C88.9187 236.1 87.8187 236.38 86.6987 236.94C85.6187 237.5 84.6387 238.28 83.7587 239.28C82.8787 240.24 82.2387 241.36 81.8387 242.64V261H73.7987V229.56H81.0587V235.38C81.8587 234.02 82.8787 232.88 84.1187 231.96C85.3587 231 86.7787 230.28 88.3787 229.8C90.0187 229.28 91.7387 229.02 93.5387 229.02C95.4987 229.02 97.0987 229.38 98.3387 230.1C99.6187 230.78 100.579 231.72 101.219 232.92C101.899 234.08 102.359 235.4 102.599 236.88C102.879 238.36 103.019 239.86 103.019 241.38V261ZM127.474 259.38C126.794 259.66 125.974 259.98 125.014 260.34C124.054 260.7 123.014 260.98 121.894 261.18C120.814 261.42 119.714 261.54 118.594 261.54C117.114 261.54 115.754 261.28 114.514 260.76C113.274 260.24 112.274 259.42 111.514 258.3C110.794 257.14 110.434 255.64 110.434 253.8V235.74H106.294V229.56H110.434V219.36H118.474V229.56H125.074V235.74H118.474V251.1C118.514 252.18 118.814 252.96 119.374 253.44C119.934 253.92 120.634 254.16 121.474 254.16C122.314 254.16 123.134 254.02 123.934 253.74C124.734 253.46 125.374 253.22 125.854 253.02L127.474 259.38ZM149.181 236.52C146.741 236.52 144.561 237 142.641 237.96C140.721 238.88 139.341 240.22 138.501 241.98V261H130.461V229.56H137.841V236.28C138.961 234.12 140.381 232.42 142.101 231.18C143.821 229.94 145.641 229.26 147.561 229.14C148.001 229.14 148.341 229.14 148.581 229.14C148.821 229.14 149.021 229.16 149.181 229.2V236.52ZM166.634 261.6C164.114 261.6 161.834 261.18 159.794 260.34C157.754 259.46 156.014 258.28 154.574 256.8C153.134 255.28 152.014 253.56 151.214 251.64C150.454 249.68 150.074 247.62 150.074 245.46C150.074 242.46 150.734 239.72 152.054 237.24C153.414 234.76 155.334 232.78 157.814 231.3C160.334 229.78 163.294 229.02 166.694 229.02C170.134 229.02 173.074 229.78 175.514 231.3C177.954 232.78 179.814 234.76 181.094 237.24C182.414 239.68 183.074 242.32 183.074 245.16C183.074 245.64 183.054 246.14 183.014 246.66C182.974 247.14 182.934 247.54 182.894 247.86H158.594C158.754 249.46 159.214 250.86 159.974 252.06C160.774 253.26 161.774 254.18 162.974 254.82C164.214 255.42 165.534 255.72 166.934 255.72C168.534 255.72 170.034 255.34 171.434 254.58C172.874 253.78 173.854 252.74 174.374 251.46L181.274 253.38C180.514 254.98 179.414 256.4 177.974 257.64C176.574 258.88 174.914 259.86 172.994 260.58C171.074 261.26 168.954 261.6 166.634 261.6ZM158.414 242.76H174.854C174.694 241.16 174.234 239.78 173.474 238.62C172.754 237.42 171.794 236.5 170.594 235.86C169.394 235.18 168.054 234.84 166.574 234.84C165.134 234.84 163.814 235.18 162.614 235.86C161.454 236.5 160.494 237.42 159.734 238.62C159.014 239.78 158.574 241.16 158.414 242.76ZM205.612 261.6C203.172 261.6 201.012 261.06 199.132 259.98C197.292 258.86 195.852 257.36 194.812 255.48V273.78H186.772V229.56H193.792V234.96C194.992 233.12 196.512 231.68 198.352 230.64C200.192 229.56 202.292 229.02 204.652 229.02C206.772 229.02 208.712 229.44 210.472 230.28C212.272 231.12 213.832 232.3 215.152 233.82C216.472 235.3 217.492 237.02 218.212 238.98C218.972 240.9 219.352 242.98 219.352 245.22C219.352 248.26 218.752 251.02 217.552 253.5C216.392 255.98 214.772 257.96 212.692 259.44C210.652 260.88 208.292 261.6 205.612 261.6ZM202.912 254.76C204.152 254.76 205.272 254.5 206.272 253.98C207.272 253.46 208.132 252.76 208.852 251.88C209.612 250.96 210.172 249.94 210.532 248.82C210.932 247.66 211.132 246.46 211.132 245.22C211.132 243.9 210.912 242.68 210.472 241.56C210.072 240.44 209.472 239.46 208.672 238.62C207.872 237.74 206.932 237.06 205.852 236.58C204.812 236.1 203.672 235.86 202.432 235.86C201.672 235.86 200.892 236 200.092 236.28C199.332 236.52 198.592 236.88 197.872 237.36C197.152 237.84 196.512 238.4 195.952 239.04C195.432 239.68 195.052 240.38 194.812 241.14V248.52C195.292 249.68 195.932 250.74 196.732 251.7C197.572 252.66 198.532 253.42 199.612 253.98C200.692 254.5 201.792 254.76 202.912 254.76ZM242.319 236.52C239.879 236.52 237.699 237 235.779 237.96C233.859 238.88 232.479 240.22 231.639 241.98V261H223.599V229.56H230.979V236.28C232.099 234.12 233.519 232.42 235.239 231.18C236.959 229.94 238.779 229.26 240.699 229.14C241.139 229.14 241.479 229.14 241.719 229.14C241.959 229.14 242.159 229.16 242.319 229.2V236.52ZM259.772 261.6C257.252 261.6 254.972 261.18 252.932 260.34C250.892 259.46 249.152 258.28 247.712 256.8C246.272 255.28 245.152 253.56 244.352 251.64C243.592 249.68 243.212 247.62 243.212 245.46C243.212 242.46 243.872 239.72 245.192 237.24C246.552 234.76 248.472 232.78 250.952 231.3C253.472 229.78 256.432 229.02 259.832 229.02C263.272 229.02 266.212 229.78 268.652 231.3C271.092 232.78 272.952 234.76 274.232 237.24C275.552 239.68 276.212 242.32 276.212 245.16C276.212 245.64 276.192 246.14 276.152 246.66C276.112 247.14 276.072 247.54 276.032 247.86H251.732C251.892 249.46 252.352 250.86 253.112 252.06C253.912 253.26 254.912 254.18 256.112 254.82C257.352 255.42 258.672 255.72 260.072 255.72C261.672 255.72 263.172 255.34 264.572 254.58C266.012 253.78 266.992 252.74 267.512 251.46L274.412 253.38C273.652 254.98 272.552 256.4 271.112 257.64C269.712 258.88 268.052 259.86 266.132 260.58C264.212 261.26 262.092 261.6 259.772 261.6ZM251.552 242.76H267.992C267.832 241.16 267.372 239.78 266.612 238.62C265.892 237.42 264.932 236.5 263.732 235.86C262.532 235.18 261.192 234.84 259.712 234.84C258.272 234.84 256.952 235.18 255.752 235.86C254.592 236.5 253.632 237.42 252.872 238.62C252.152 239.78 251.712 241.16 251.552 242.76ZM309.13 261H301.09V243.36C301.09 240.84 300.65 239 299.77 237.84C298.89 236.68 297.67 236.1 296.11 236.1C295.03 236.1 293.93 236.38 292.81 236.94C291.73 237.5 290.75 238.28 289.87 239.28C288.99 240.24 288.35 241.36 287.95 242.64V261H279.91V229.56H287.17V235.38C287.97 234.02 288.99 232.88 290.23 231.96C291.47 231 292.89 230.28 294.49 229.8C296.13 229.28 297.85 229.02 299.65 229.02C301.61 229.02 303.21 229.38 304.45 230.1C305.73 230.78 306.69 231.72 307.33 232.92C308.01 234.08 308.47 235.4 308.71 236.88C308.99 238.36 309.13 239.86 309.13 241.38V261ZM329.501 261.6C326.981 261.6 324.701 261.18 322.661 260.34C320.621 259.46 318.881 258.28 317.441 256.8C316.001 255.28 314.881 253.56 314.081 251.64C313.321 249.68 312.941 247.62 312.941 245.46C312.941 242.46 313.601 239.72 314.921 237.24C316.281 234.76 318.201 232.78 320.681 231.3C323.201 229.78 326.161 229.02 329.561 229.02C333.001 229.02 335.941 229.78 338.381 231.3C340.821 232.78 342.681 234.76 343.961 237.24C345.281 239.68 345.941 242.32 345.941 245.16C345.941 245.64 345.921 246.14 345.881 246.66C345.841 247.14 345.801 247.54 345.761 247.86H321.461C321.621 249.46 322.081 250.86 322.841 252.06C323.641 253.26 324.641 254.18 325.841 254.82C327.081 255.42 328.401 255.72 329.801 255.72C331.401 255.72 332.901 255.34 334.301 254.58C335.741 253.78 336.721 252.74 337.241 251.46L344.141 253.38C343.381 254.98 342.281 256.4 340.841 257.64C339.441 258.88 337.781 259.86 335.861 260.58C333.941 261.26 331.821 261.6 329.501 261.6ZM321.281 242.76H337.721C337.561 241.16 337.101 239.78 336.341 238.62C335.621 237.42 334.661 236.5 333.461 235.86C332.261 235.18 330.921 234.84 329.441 234.84C328.001 234.84 326.681 235.18 325.481 235.86C324.321 236.5 323.361 237.42 322.601 238.62C321.881 239.78 321.441 241.16 321.281 242.76ZM349.339 249.24V229.56H357.379V247.5C357.379 249.9 357.819 251.72 358.699 252.96C359.579 254.16 360.879 254.76 362.599 254.76C363.639 254.76 364.659 254.56 365.659 254.16C366.699 253.72 367.639 253.08 368.479 252.24C369.359 251.4 370.099 250.34 370.699 249.06V229.56H378.739V252C378.739 252.84 378.879 253.44 379.159 253.8C379.479 254.16 379.979 254.38 380.659 254.46V261C379.859 261.12 379.179 261.2 378.619 261.24C378.099 261.32 377.619 261.36 377.179 261.36C375.739 261.36 374.559 261.04 373.639 260.4C372.759 259.72 372.239 258.8 372.079 257.64L371.899 255.12C370.499 257.24 368.699 258.86 366.499 259.98C364.299 261.06 361.879 261.6 359.239 261.6C355.999 261.6 353.539 260.56 351.859 258.48C350.179 256.36 349.339 253.28 349.339 249.24ZM404.249 236.52C401.809 236.52 399.629 237 397.709 237.96C395.789 238.88 394.409 240.22 393.569 241.98V261H385.529V229.56H392.909V236.28C394.029 234.12 395.449 232.42 397.169 231.18C398.889 229.94 400.709 229.26 402.629 229.14C403.069 229.14 403.409 229.14 403.649 229.14C403.889 229.14 404.089 229.16 404.249 229.2V236.52ZM419.112 261.6C416.432 261.6 413.872 261.16 411.432 260.28C408.992 259.4 406.892 258.1 405.132 256.38L408.012 251.16C409.892 252.68 411.732 253.8 413.532 254.52C415.372 255.24 417.132 255.6 418.812 255.6C420.372 255.6 421.612 255.32 422.532 254.76C423.492 254.2 423.972 253.36 423.972 252.24C423.972 251.48 423.712 250.9 423.192 250.5C422.672 250.06 421.912 249.68 420.912 249.36C419.952 249.04 418.772 248.68 417.372 248.28C415.052 247.52 413.112 246.78 411.552 246.06C409.992 245.34 408.812 244.44 408.012 243.36C407.252 242.24 406.872 240.82 406.872 239.1C406.872 237.02 407.392 235.24 408.432 233.76C409.512 232.24 410.992 231.06 412.872 230.22C414.792 229.38 417.032 228.96 419.592 228.96C421.832 228.96 423.952 229.32 425.952 230.04C427.952 230.72 429.772 231.84 431.412 233.4L428.172 238.5C426.572 237.26 425.052 236.36 423.612 235.8C422.172 235.2 420.712 234.9 419.232 234.9C418.392 234.9 417.592 235 416.832 235.2C416.112 235.4 415.512 235.74 415.032 236.22C414.592 236.66 414.372 237.3 414.372 238.14C414.372 238.9 414.572 239.5 414.972 239.94C415.412 240.34 416.052 240.7 416.892 241.02C417.772 241.34 418.832 241.7 420.072 242.1C422.592 242.82 424.712 243.56 426.432 244.32C428.192 245.08 429.512 246.02 430.392 247.14C431.272 248.22 431.712 249.72 431.712 251.64C431.712 254.76 430.572 257.2 428.292 258.96C426.012 260.72 422.952 261.6 419.112 261.6Z" fill="white"/>
</svg>
