<svg width="24" height="14" viewBox="0 0 24 14" fill="none" xmlns="http://www.w3.org/2000/svg">
<path d="M11.552 13.2751L17.2812 7.55601C17.5758 7.2616 17.5758 6.7384 17.2812 6.44469L11.552 0.725603C11.3002 0.473898 11.4559 0 11.7903 0H16.8993C17.1727 0 17.4372 0.11318 17.6427 0.31871L23.779 6.44469C24.0737 6.7384 24.0737 7.26195 23.779 7.55601L17.6427 13.6813C17.4369 13.8868 17.1727 14 16.8993 14H11.7903C11.4559 14 11.3002 13.5268 11.552 13.2751Z" fill="#6CCC86"/>
<path d="M8.16683 0.26577C7.90171 0.568163 7.90171 1.05838 8.16683 1.36077C8.43165 1.66386 8.86125 1.66386 9.12606 1.36077C9.39118 1.05838 9.39118 0.568163 9.12606 0.26577C8.86155 -0.0373178 8.43195 -0.0373178 8.16683 0.26577Z" fill="#6CCC86"/>
<path d="M9.97323 2.32816C9.70811 2.63056 9.70811 3.12077 9.97323 3.42316C10.238 3.72625 10.6676 3.72625 10.9325 3.42316C11.1976 3.12077 11.1976 2.63056 10.9325 2.32816C10.6676 2.02508 10.238 2.02508 9.97323 2.32816Z" fill="#6CCC86"/>
<path d="M11.7782 4.38936C11.5134 4.69244 11.5134 5.18265 11.7782 5.48505C12.0433 5.78813 12.4729 5.78813 12.7377 5.48505C13.0029 5.18265 13.0029 4.69244 12.7377 4.38936C12.4732 4.08696 12.0433 4.08696 11.7782 4.38936Z" fill="#6CCC86"/>
<path d="M13.5846 6.45141C13.3198 6.7545 13.3198 7.24471 13.5846 7.5471C13.8497 7.84949 14.2793 7.84949 14.5441 7.5471C14.809 7.24471 14.809 6.7545 14.5441 6.45141C14.2793 6.14902 13.8497 6.14902 13.5846 6.45141Z" fill="#6CCC86"/>
<path d="M8.16683 13.7343C7.90171 13.4319 7.90171 12.941 8.16683 12.6387C8.43165 12.3363 8.86125 12.3363 9.12606 12.6387C9.39118 12.941 9.39118 13.4319 9.12606 13.7343C8.86155 14.0367 8.43195 14.0367 8.16683 13.7343Z" fill="#6CCC86"/>
<path d="M9.97323 11.6719C9.70811 11.3696 9.70811 10.8793 9.97323 10.5763C10.238 10.2739 10.6676 10.2739 10.9325 10.5763C11.1976 10.8793 11.1976 11.3696 10.9325 11.6719C10.6676 11.9743 10.238 11.9743 9.97323 11.6719Z" fill="#6CCC86"/>
<path d="M11.7782 9.61024C11.5134 9.30785 11.5134 8.81763 11.7782 8.51454C12.0433 8.21215 12.4729 8.21215 12.7377 8.51454C13.0029 8.81763 13.0029 9.30785 12.7377 9.61024C12.4732 9.91264 12.0433 9.91264 11.7782 9.61024Z" fill="#6CCC86"/>
<path d="M13.5846 7.5471C13.3198 7.24471 13.3198 6.7545 13.5846 6.45141C13.8497 6.14902 14.2793 6.14902 14.5441 6.45141C14.809 6.7545 14.809 7.24471 14.5441 7.5471C14.2793 7.84949 13.8497 7.84949 13.5846 7.5471Z" fill="#6CCC86"/>
<path d="M4.18658 0.26577C3.92146 0.568163 3.92146 1.05838 4.18658 1.36077C4.45139 1.66386 4.88099 1.66386 5.14581 1.36077C5.41093 1.05838 5.41093 0.568163 5.14581 0.26577C4.88099 -0.0373178 4.45139 -0.0373178 4.18658 0.26577Z" fill="#6CCC86"/>
<path d="M5.99297 2.32816C5.72786 2.63056 5.72786 3.12077 5.99297 3.42316C6.25779 3.72625 6.68739 3.72625 6.95221 3.42316C7.21732 3.12077 7.21732 2.63056 6.95221 2.32816C6.68739 2.02508 6.25779 2.02508 5.99297 2.32816Z" fill="#6CCC86"/>
<path d="M7.79818 4.38936C7.53307 4.69244 7.53307 5.18265 7.79818 5.48505C8.063 5.78813 8.49261 5.78813 8.75742 5.48505C9.02254 5.18265 9.02254 4.69244 8.75742 4.38936C8.49261 4.08696 8.063 4.08696 7.79818 4.38936Z" fill="#6CCC86"/>
<path d="M9.60435 6.45141C9.33954 6.7545 9.33954 7.24471 9.60435 7.5471C9.86947 7.84949 10.2991 7.84949 10.5639 7.5471C10.8287 7.24471 10.8287 6.7545 10.5639 6.45141C10.2991 6.14902 9.86947 6.14902 9.60435 6.45141Z" fill="#6CCC86"/>
<path d="M4.18658 13.7343C3.92146 13.4319 3.92146 12.941 4.18658 12.6387C4.45139 12.3363 4.88099 12.3363 5.14581 12.6387C5.41093 12.941 5.41093 13.4319 5.14581 13.7343C4.88099 14.0367 4.45139 14.0367 4.18658 13.7343Z" fill="#6CCC86"/>
<path d="M5.99297 11.6719C5.72786 11.3696 5.72786 10.8793 5.99297 10.5763C6.25779 10.2739 6.68739 10.2739 6.95221 10.5763C7.21732 10.8793 7.21732 11.3696 6.95221 11.6719C6.68739 11.9743 6.25779 11.9743 5.99297 11.6719Z" fill="#6CCC86"/>
<path d="M7.79818 9.61024C7.53307 9.30785 7.53307 8.81763 7.79818 8.51454C8.063 8.21215 8.49261 8.21215 8.75742 8.51454C9.02254 8.81763 9.02254 9.30785 8.75742 9.61024C8.49261 9.91264 8.063 9.91264 7.79818 9.61024Z" fill="#6CCC86"/>
<path d="M9.60435 7.5471C9.33954 7.24471 9.33954 6.7545 9.60435 6.45141C9.86947 6.14902 10.2991 6.14902 10.5639 6.45141C10.8287 6.7545 10.8287 7.24471 10.5639 7.5471C10.2991 7.84949 9.86947 7.84949 9.60435 7.5471Z" fill="#6CCC86"/>
<path d="M0.198839 0.26577C-0.0662797 0.568163 -0.0662797 1.05838 0.198839 1.36077C0.463654 1.66386 0.893258 1.66386 1.15838 1.36077C1.42319 1.05838 1.42319 0.568163 1.15838 0.26577C0.893258 -0.0373178 0.463654 -0.0373178 0.198839 0.26577Z" fill="#6CCC86"/>
<path d="M2.00405 2.32816C1.73893 2.63056 1.73893 3.12077 2.00405 3.42316C2.26886 3.72625 2.69847 3.72625 2.96328 3.42316C3.2284 3.12077 3.2284 2.63056 2.96328 2.32816C2.69847 2.02508 2.26886 2.02508 2.00405 2.32816Z" fill="#6CCC86"/>
<path d="M3.81045 4.38936C3.54533 4.69244 3.54533 5.18265 3.81045 5.48505C4.07526 5.78813 4.50487 5.78813 4.76968 5.48505C5.0348 5.18265 5.0348 4.69244 4.76968 4.38936C4.50487 4.08696 4.07526 4.08696 3.81045 4.38936Z" fill="#6CCC86"/>
<path d="M5.61566 6.45141C5.35054 6.7545 5.35054 7.24471 5.61566 7.5471C5.88047 7.84949 6.31007 7.84949 6.57489 7.5471C6.84001 7.24471 6.84001 6.7545 6.57489 6.45141C6.31007 6.14902 5.88047 6.14902 5.61566 6.45141Z" fill="#6CCC86"/>
<path d="M0.198839 13.7343C-0.0662797 13.4319 -0.0662797 12.941 0.198839 12.6387C0.463654 12.3363 0.893258 12.3363 1.15838 12.6387C1.42319 12.941 1.42319 13.4319 1.15838 13.7343C0.893258 14.0367 0.463654 14.0367 0.198839 13.7343Z" fill="#6CCC86"/>
<path d="M2.00405 11.6719C1.73893 11.3696 1.73893 10.8793 2.00405 10.5763C2.26886 10.2739 2.69847 10.2739 2.96328 10.5763C3.2284 10.8793 3.2284 11.3696 2.96328 11.6719C2.69847 11.9743 2.26886 11.9743 2.00405 11.6719Z" fill="#6CCC86"/>
<path d="M3.81045 9.61024C3.54533 9.30785 3.54533 8.81763 3.81045 8.51454C4.07526 8.21215 4.50487 8.21215 4.76968 8.51454C5.0348 8.81763 5.0348 9.30785 4.76968 9.61024C4.50487 9.91264 4.07526 9.91264 3.81045 9.61024Z" fill="#6CCC86"/>
<path d="M5.61566 7.5471C5.35054 7.24471 5.35054 6.7545 5.61566 6.45141C5.88047 6.14902 6.31007 6.14902 6.57489 6.45141C6.84001 6.7545 6.84001 7.24471 6.57489 7.5471C6.31007 7.84949 5.88047 7.84949 5.61566 7.5471Z" fill="#6CCC86"/>
</svg>
