<svg width="405" height="221" viewBox="0 0 405 221" fill="none" xmlns="http://www.w3.org/2000/svg">
<path d="M320.073 -46.6992C339.202 -55.433 362.293 -45.6955 377.146 -30.8196C404.198 -3.70441 411.835 40.8185 395.361 75.3642C388.669 89.4012 376.501 102.719 360.958 103.378C359.112 103.453 357.192 103.333 355.556 102.479C350.515 99.8277 351.835 91.1539 357.042 88.8469C362.248 86.5398 368.624 89.5809 371.73 94.3598C374.836 99.1237 375.346 105.101 375.256 110.794C374.731 143.781 356.216 175.256 329.375 194.506C302.549 213.757 268.266 221.307 235.333 218.52C226.511 217.771 217.688 216.303 209.452 213.052C198.334 208.678 188.672 201.233 177.779 196.304C166.886 191.375 153.488 189.278 143.391 195.675C138.62 198.686 134.869 203.869 135.004 209.502C135.139 215.135 140.21 220.618 145.821 219.944C151.508 219.255 155.049 213.023 155.259 207.3C155.649 197.293 148.687 188.065 139.91 183.226C131.133 178.372 120.81 177.174 110.788 176.889C88.1327 176.23 65.3422 179.735 43.9471 187.211C29.1836 192.364 15.0802 199.36 0.0766711 203.719C-37.5523 214.64 -80.0124 207.525 -112 184.934" stroke="#8A8A8A" stroke-width="0.9557" stroke-miterlimit="10" stroke-linecap="round" stroke-dasharray="5.26 5.26"/>
</svg>
