<svg width="638" height="246" viewBox="0 0 638 246" fill="none" xmlns="http://www.w3.org/2000/svg">
<path d="M642.743 281.306C670.165 278.685 689.983 252.514 697.09 225.909C710.019 177.43 689.521 121.918 648.205 93.5174C631.419 81.9758 608.892 74.8369 590.827 84.27C588.684 85.3938 586.584 86.7876 585.288 88.8275C581.306 95.1375 588.485 104.113 595.902 103.32C603.32 102.527 608.562 94.9009 608.955 87.4452C609.358 80.0066 606.022 72.8914 602.191 66.4922C579.989 29.4128 538.369 5.83255 495.31 1.57443C452.268 -2.69352 408.43 11.1958 372.894 35.9274C363.376 42.5555 354.329 49.9994 347.114 59.0824C337.366 71.3268 331.281 86.1021 322.152 98.8279C313.023 111.554 299.197 122.709 283.552 122.065C276.167 121.774 268.517 118.351 264.981 111.872C261.445 105.394 263.607 95.8518 270.414 92.9413C277.316 89.9986 285.415 94.7494 289.402 101.104C296.399 112.201 294.545 127.23 287.757 138.468C280.979 149.724 270.054 157.844 258.87 164.732C233.6 180.318 205.449 191.269 176.281 196.802C156.157 200.625 135.575 201.926 115.698 206.807C65.8566 219.064 22.3479 254.948 0.855823 301.528" stroke="#8A8A8A" stroke-width="0.9557" stroke-miterlimit="10" stroke-linecap="round" stroke-dasharray="5.26 5.26"/>
</svg>
