<svg width="44" height="81" viewBox="0 0 44 81" fill="none" xmlns="http://www.w3.org/2000/svg">
<path d="M38.5986 19.7797L28.5457 29.0328L18.4928 19.7797C15.5689 21.0475 13.0914 23.9927 13.0914 26.7586V46.8375C13.0914 47.9772 13.7187 48.9823 14.6729 49.5764L12.4195 59.3227L5.38515 57.9422C4.79397 57.8269 4.21671 58.1714 4.09145 58.7169L0.0241475 76.305C-0.101115 76.8467 0.273146 77.3806 0.864325 77.4959L4.3766 78.1836C4.39052 77.9827 4.40172 77.7803 4.44891 77.578C4.96642 75.3333 7.36305 73.903 9.80007 74.3806C10.5082 74.5201 11.1287 74.8159 11.6585 75.2053L17.455 50.1412C17.6775 50.1412 18.1088 50.1412 19.1868 50.1412L20.5514 76.9837C20.5514 78.9252 22.2623 80.5 24.3725 80.5C25.2627 80.5 26.9042 80.5 28.5455 80.5C30.1883 80.5 31.8298 80.5 32.7201 80.5C34.8288 80.5 36.5413 78.925 36.5413 76.9837L37.9059 50.1412C40.4112 50.1412 39.4361 50.1412 40.4112 50.1412C42.3948 50.1412 44 48.6609 44 46.8375V26.7586C44.0014 23.9927 41.5239 21.0475 38.5986 19.7797Z" fill="#E38F19"/>
<path d="M28.6305 15.5667C33.1514 15.5667 36.814 12.1937 36.814 8.03469C36.814 3.87031 33.1514 0.5 28.6305 0.5C24.1084 0.5 20.4457 3.87031 20.4457 8.03469C20.4457 12.1937 24.1082 15.5667 28.6305 15.5667Z" fill="#E38F19"/>
<path d="M26.3436 18.7425V24.6611L28.5457 27.3733L30.749 24.6611V18.7425H26.3436Z" fill="#E38F19"/>
<path d="M9.32566 76.4305C8.11835 76.1923 6.93175 76.9017 6.67444 78.0133C6.41848 79.1247 7.18788 80.217 8.39655 80.4539C9.60267 80.692 10.7891 79.9812 11.0478 78.8698C11.3037 77.7597 10.5331 76.6661 9.32566 76.4305Z" fill="#E38F19"/>
</svg>
