<svg width="76" height="80" viewBox="0 0 76 80" fill="none" xmlns="http://www.w3.org/2000/svg">
<path d="M73.3324 33.6357H53.6279C53.021 33.6357 52.6595 34.315 52.6595 34.9288V78.7618C52.6595 79.3723 53.021 79.8356 53.6279 79.8356H73.3324C73.9392 79.8356 74.2467 79.3723 74.2467 78.7618V34.9288C74.2467 34.315 73.9392 33.6357 73.3324 33.6357Z" fill="#E38F19"/>
<path d="M48.244 58.1575C48.244 57.5444 47.8121 56.9823 47.2026 56.9823H27.3326C26.7229 56.9823 26.1662 57.5445 26.1662 58.1575V78.9557C26.1662 79.5684 26.7229 80 27.3326 80H47.2026C47.8123 80 48.244 79.5684 48.244 78.9557V58.1575Z" fill="#E38F19"/>
<path d="M22.0778 69.5019C22.0778 68.8888 21.646 68.3267 21.0363 68.3267H1.16636C0.556687 68.3267 0 68.889 0 69.5019V78.7912C0 79.404 0.556687 79.8356 1.16636 79.8356H21.0363C21.646 79.8356 22.0778 79.404 22.0778 78.7912V69.5019Z" fill="#E38F19"/>
<path d="M5.8874 62.8944C6.44605 62.8944 7.03218 62.4388 7.03218 61.877V56.8203C7.03218 49.3884 12.9034 43.1714 20.2958 43.1714H26.9744C27.5334 43.1714 27.9652 42.8863 27.9652 42.3247V35.5064C27.9652 27.6271 34.3628 20.9759 42.2003 20.9759H42.3566V23.4021C42.3566 23.7579 42.5406 24.073 42.869 24.2056C42.9738 24.248 43.0688 24.2686 43.1767 24.2686C43.4067 24.2686 43.624 24.1755 43.7905 24.0001L46.8305 20.7979C47.1493 20.4623 47.1476 19.9367 46.8286 19.6014L43.7846 16.3988C43.5396 16.1414 43.1973 16.061 42.8693 16.1933C42.5406 16.3257 42.3566 16.641 42.3566 16.9968V19.1674H42.2003C33.2468 19.1674 25.6756 26.5051 25.6756 35.5064V41.3631H20.2958C11.7874 41.3631 4.74263 48.2667 4.74263 56.8205V61.8771C4.74263 62.4388 5.32875 62.8944 5.8874 62.8944Z" fill="#E38F19"/>
<path d="M63.2896 4.50474C63.8482 4.50474 64.4344 4.04932 64.4344 3.48735V1.01738C64.4344 0.455423 63.8482 0 63.2896 0C62.7309 0 62.1448 0.455423 62.1448 1.01738V3.48735C62.1448 4.04932 62.7309 4.50474 63.2896 4.50474Z" fill="#E38F19"/>
<path d="M67.9892 5.50733C68.1367 5.58378 68.2945 5.61978 68.4497 5.61978C68.8174 5.61978 69.1719 5.41756 69.3512 5.06621L70.4889 2.83381C70.7435 2.33384 70.5468 1.72074 70.0493 1.46459C69.552 1.20761 68.9421 1.40622 68.6874 1.9062L67.5499 4.13826C67.2951 4.63824 67.4919 5.25134 67.9892 5.50733Z" fill="#E38F19"/>
<path d="M57.5544 4.86562C57.7266 5.23456 58.0907 5.45142 58.4711 5.45142C58.6151 5.45142 58.761 5.42035 58.9 5.35508C59.406 5.11619 59.6239 4.51049 59.3866 4.00164L58.3296 1.73587C58.0926 1.2275 57.4902 1.00916 56.9838 1.24674C56.4779 1.48563 56.26 2.091 56.4973 2.59985L57.5544 4.86562Z" fill="#E38F19"/>
<path d="M73.1392 11.1112H71.1138L71.2569 8.7959C71.2951 8.16883 70.7995 7.6585 70.1744 7.6585H56.4572C55.8322 7.6585 55.3364 8.16883 55.3751 8.7959L55.5179 11.1112H53.8249C52.2425 11.1112 50.9583 12.4367 50.9583 14.0273C50.9583 14.8744 51.3262 15.6943 51.974 16.2415L54.4868 18.3881L54.4871 18.3971L56.1135 19.7808C56.1132 19.7788 56.1128 19.7773 56.1125 19.7755L56.1135 19.7764L56.1179 19.7823C56.6528 22.4694 58.6259 24.6119 61.1796 25.3909C61.6869 25.5459 62.0362 26.0142 62.0733 26.5459L62.4493 30.3716C62.4644 30.5855 62.2958 30.6763 62.0823 30.6763H58.8354C58.632 30.6763 58.5468 31.025 58.5468 31.2288V31.9687C58.5468 32.1732 58.632 32.156 58.8354 32.156H67.7962C67.9993 32.156 68.0321 32.1732 68.0321 31.9687V31.2288C68.0321 31.025 67.9993 30.6763 67.7962 30.6763H64.5497C64.3362 30.6763 64.1676 30.5858 64.1823 30.3719L64.5586 26.501C64.5958 25.9693 64.9448 25.5372 65.4521 25.382C67.8934 24.6367 69.803 22.62 70.4343 20.1538H70.4384L70.4393 20.1392C70.439 20.1412 70.4357 20.1366 70.4351 20.1382L72.1207 18.693V18.6907L74.9867 16.2576C75.6307 15.7104 76 14.8736 76 14.0264C76.0002 12.436 74.7177 11.1112 73.1392 11.1112ZM52.9232 15.1306C52.6105 14.8644 52.4299 14.4379 52.4299 14.0275C52.4299 13.2539 53.0556 12.591 53.8248 12.591H55.6091H55.6047H55.6082L55.9154 17.6392L54.3615 16.3564L52.9232 15.1306ZM63.274 20.4559C61.0216 20.4559 59.1955 18.6197 59.1955 16.3553C59.1955 14.0902 61.0216 12.2543 63.274 12.2543C65.5271 12.2543 67.3532 14.0902 67.3532 16.3553C67.3534 18.6197 65.5273 20.4559 63.274 20.4559ZM74.037 15.1306L72.2525 16.6473L70.6979 17.932L71.023 12.591H73.139C73.9082 12.591 74.5301 13.2539 74.5301 14.0275C74.5301 14.4377 74.3497 14.8644 74.037 15.1306Z" fill="#E38F19"/>
<path d="M63.274 18.3899C64.3918 18.3899 65.2978 17.4789 65.2978 16.3553C65.2978 15.2316 64.3918 14.3207 63.274 14.3207C62.1563 14.3207 61.2503 15.2316 61.2503 16.3553C61.2503 17.4789 62.1563 18.3899 63.274 18.3899Z" fill="#E38F19"/>
</svg>
