<svg width="70" height="80" viewBox="0 0 70 80" fill="none" xmlns="http://www.w3.org/2000/svg">
<path d="M66.106 48.3846C65.8783 48.2515 65.6463 48.1334 65.4118 48.0269V30.7227C65.6463 30.6162 65.8783 30.4977 66.106 30.3652C69.8295 28.2066 71.1051 23.4264 68.9552 19.687C66.8067 15.9488 62.0455 14.6676 58.3228 16.8264C58.0943 16.9582 57.8762 17.1007 57.6673 17.2517L42.7448 8.59923C42.7703 8.34177 42.7842 8.08096 42.7842 7.81682C42.7842 3.4999 39.2992 0 34.9998 0C30.701 0 27.2159 3.49972 27.2159 7.81682C27.2159 8.08096 27.2292 8.34177 27.2553 8.59923L12.3328 17.2517C12.1229 17.1007 11.9052 16.9582 11.6769 16.8264C7.95441 14.6678 3.19334 15.9488 1.0445 19.6877C-1.10573 23.4262 0.170547 28.2066 3.89369 30.3652C4.12137 30.4977 4.35342 30.6164 4.58757 30.7227V48.0269C4.35342 48.1334 4.12137 48.2515 3.89369 48.3846C0.170547 50.543 -1.10503 55.323 1.0445 59.0628C2.29208 61.2334 4.42044 62.5733 6.71418 62.8949C7.58306 60.5977 8.81174 58.896 10.6015 58.1806L18.5001 55.0176H15.5675C15.5463 53.7333 15.211 52.4366 14.5264 51.2456C13.8418 50.0552 12.8915 49.1148 11.7941 48.454L15.5638 41.8988L22.2436 53.5182L23.4352 53.041L24.4012 52.2242L17.0149 39.375L19.2397 35.505C19.1776 34.6591 19.1396 33.791 19.13 32.8985C19.1214 32.0478 19.1648 31.2262 19.2537 30.4327L15.564 36.8511L11.7943 30.2961C12.8917 29.6357 13.842 28.6955 14.5266 27.5047C15.2108 26.3135 15.5465 25.0169 15.5673 23.7325H21.5567C22.1624 22.8002 22.8757 21.9568 23.6898 21.2085H15.1968C14.959 20.4644 14.6094 19.7553 14.1577 19.1077L27.9434 11.1151C28.2752 11.832 28.7118 12.4905 29.2358 13.069L25.275 19.9573C26.4576 19.1583 27.7937 18.5183 29.272 18.0534L31.2264 14.6537C32.3452 15.2771 33.6309 15.6333 34.9996 15.6333C36.3688 15.6333 37.6544 15.2771 38.7731 14.6535L40.7291 18.0557C42.2084 18.5209 43.5452 19.1625 44.7282 19.9629L40.7643 13.0689C41.2882 12.4903 41.7249 11.8318 42.057 11.115L55.842 19.1075C55.3905 19.7553 55.0412 20.4643 54.8032 21.2084H46.3052C47.1193 21.9567 47.8328 22.8002 48.4386 23.7324H54.4327C54.4532 25.0165 54.7889 26.3131 55.4735 27.504C56.1577 28.695 57.1083 29.6352 58.2052 30.2958L54.4355 36.851L50.7383 30.4192C50.8288 31.2165 50.8722 32.0421 50.8627 32.8975C50.8534 33.7867 50.8158 34.6516 50.7546 35.4944L52.9855 39.3748L45.5966 52.2273L46.5584 53.0412L47.7547 53.5206L54.4355 41.8992L58.2052 48.4542C57.108 49.1142 56.1581 50.0545 55.4738 51.2455C54.7892 52.4365 54.4539 53.7336 54.4327 55.0179H51.495L59.3933 58.1802C61.1836 58.8952 62.4128 60.597 63.2825 62.8954C65.5775 62.5748 67.7076 61.2345 68.9561 59.0626C71.1053 55.3235 69.8297 50.5434 66.106 48.3846ZM14.1113 39.3748L9.43282 47.5139C8.67192 47.3487 7.88616 47.2979 7.10146 47.367V31.3822C7.88616 31.4511 8.67209 31.4007 9.43282 31.2353L14.1113 39.3748ZM62.8982 47.3668C62.1135 47.2978 61.3273 47.3486 60.5672 47.5141L55.8889 39.375L60.5672 31.2357C61.3283 31.401 62.1135 31.4515 62.8982 31.3826V47.3668Z" fill="#E38F19"/>
<path d="M35.0036 52.4974C35.0036 52.4974 48.3947 53.0429 48.3947 33.4697C48.3947 24.765 43.8704 20.2478 35.0036 20.2478C26.3229 20.2478 21.5186 24.7652 21.6061 33.4697C21.7335 45.3913 26.7784 52.6238 35.0036 52.4974Z" fill="#E38F19"/>
<path d="M58.6891 61.546L45.3091 56.1891L42.1759 53.5373C41.3483 52.8352 40.1257 52.8871 39.3583 53.6531L35.0024 58.0036L30.6331 53.6521C29.8654 52.8869 28.6446 52.8372 27.8177 53.5373L24.6842 56.1891L11.3038 61.5467C6.99541 63.2702 6.99838 78.5934 6.62861 80H63.3707C63.0015 78.5969 62.9996 63.2676 58.6891 61.546Z" fill="#E38F19"/>
</svg>
