<svg width="411" height="448" viewBox="0 0 411 448" fill="none" xmlns="http://www.w3.org/2000/svg">
<rect width="411" height="232" transform="translate(0 216)" fill="url(#paint0_linear_778_5073)"/>
<path d="M56.3571 285.002H52.1091V296H50.0751V285.002H45.8091V283.22H56.3571V285.002ZM60.1504 296.18C59.4064 296.18 58.7404 296.054 58.1524 295.802C57.5644 295.538 57.0544 295.178 56.6224 294.722C56.2024 294.266 55.8784 293.75 55.6504 293.174C55.4224 292.586 55.3084 291.962 55.3084 291.302C55.3084 290.642 55.4224 290.018 55.6504 289.43C55.8784 288.842 56.2024 288.326 56.6224 287.882C57.0544 287.426 57.5644 287.072 58.1524 286.82C58.7524 286.556 59.4184 286.424 60.1504 286.424C60.8824 286.424 61.5424 286.556 62.1304 286.82C62.7304 287.072 63.2404 287.426 63.6604 287.882C64.0924 288.326 64.4224 288.842 64.6504 289.43C64.8784 290.018 64.9924 290.642 64.9924 291.302C64.9924 291.962 64.8784 292.586 64.6504 293.174C64.4224 293.75 64.0924 294.266 63.6604 294.722C63.2404 295.178 62.7304 295.538 62.1304 295.802C61.5424 296.054 60.8824 296.18 60.1504 296.18ZM57.3424 291.32C57.3424 291.92 57.4684 292.46 57.7204 292.94C57.9724 293.42 58.3084 293.798 58.7284 294.074C59.1484 294.35 59.6224 294.488 60.1504 294.488C60.6664 294.488 61.1344 294.35 61.5544 294.074C61.9864 293.786 62.3284 293.402 62.5804 292.922C62.8324 292.43 62.9584 291.89 62.9584 291.302C62.9584 290.702 62.8324 290.162 62.5804 289.682C62.3284 289.202 61.9864 288.824 61.5544 288.548C61.1344 288.26 60.6664 288.116 60.1504 288.116C59.6224 288.116 59.1484 288.26 58.7284 288.548C58.3084 288.836 57.9724 289.22 57.7204 289.7C57.4684 290.168 57.3424 290.708 57.3424 291.32ZM76.2718 296.18C75.5518 296.18 74.8978 296.012 74.3098 295.676C73.7338 295.328 73.2778 294.866 72.9418 294.29V296H71.1958V282.86H73.1758V288.368C73.5478 287.768 74.0098 287.294 74.5618 286.946C75.1258 286.598 75.7858 286.424 76.5418 286.424C77.1658 286.424 77.7358 286.556 78.2518 286.82C78.7678 287.084 79.2058 287.444 79.5658 287.9C79.9378 288.356 80.2198 288.878 80.4118 289.466C80.6158 290.054 80.7178 290.678 80.7178 291.338C80.7178 291.998 80.6038 292.622 80.3758 293.21C80.1598 293.798 79.8478 294.314 79.4398 294.758C79.0318 295.202 78.5578 295.55 78.0178 295.802C77.4898 296.054 76.9078 296.18 76.2718 296.18ZM75.7498 294.488C76.1818 294.488 76.5778 294.404 76.9378 294.236C77.2978 294.056 77.6098 293.822 77.8738 293.534C78.1378 293.246 78.3358 292.91 78.4678 292.526C78.6118 292.142 78.6838 291.746 78.6838 291.338C78.6838 290.774 78.5638 290.246 78.3238 289.754C78.0958 289.262 77.7718 288.866 77.3518 288.566C76.9318 288.266 76.4458 288.116 75.8938 288.116C75.4978 288.116 75.1258 288.212 74.7778 288.404C74.4298 288.584 74.1178 288.83 73.8418 289.142C73.5778 289.442 73.3558 289.778 73.1758 290.15V292.634C73.2478 292.91 73.3738 293.162 73.5538 293.39C73.7338 293.606 73.9438 293.798 74.1838 293.966C74.4238 294.122 74.6818 294.248 74.9578 294.344C75.2338 294.44 75.4978 294.488 75.7498 294.488ZM82.4085 292.346V286.586H84.3885V291.95C84.3885 292.79 84.5385 293.426 84.8385 293.858C85.1505 294.278 85.6005 294.488 86.1885 294.488C86.5605 294.488 86.9205 294.41 87.2685 294.254C87.6285 294.098 87.9525 293.87 88.2405 293.57C88.5405 293.258 88.7805 292.886 88.9605 292.454V286.586H90.9405V293.768C90.9405 293.996 90.9825 294.158 91.0665 294.254C91.1505 294.35 91.2885 294.404 91.4805 294.416V296C91.2765 296.036 91.1085 296.06 90.9765 296.072C90.8445 296.084 90.7185 296.09 90.5985 296.09C90.2385 296.09 89.9385 295.994 89.6985 295.802C89.4585 295.598 89.3205 295.34 89.2845 295.028L89.2485 294.092C88.8285 294.776 88.2825 295.298 87.6105 295.658C86.9385 296.006 86.2005 296.18 85.3965 296.18C84.4125 296.18 83.6685 295.856 83.1645 295.208C82.6605 294.56 82.4085 293.606 82.4085 292.346ZM93.4673 296V286.586H95.4473V296H93.4673ZM93.4673 285.038V282.86H95.4473V285.038H93.4673ZM97.8447 282.86H99.8247V293.282C99.8247 293.762 99.8967 294.068 100.041 294.2C100.185 294.332 100.365 294.398 100.581 294.398C100.821 294.398 101.043 294.374 101.247 294.326C101.463 294.278 101.649 294.218 101.805 294.146L102.093 295.712C101.805 295.832 101.463 295.934 101.067 296.018C100.671 296.102 100.317 296.144 100.005 296.144C99.3327 296.144 98.8047 295.958 98.4207 295.586C98.0367 295.202 97.8447 294.674 97.8447 294.002V282.86ZM102.647 291.302C102.647 290.402 102.827 289.586 103.187 288.854C103.559 288.11 104.063 287.522 104.699 287.09C105.335 286.646 106.067 286.424 106.895 286.424C107.615 286.424 108.263 286.61 108.839 286.982C109.427 287.354 109.883 287.816 110.207 288.368V282.86H112.187V293.768C112.187 293.996 112.229 294.158 112.313 294.254C112.397 294.35 112.535 294.404 112.727 294.416V296C112.355 296.06 112.067 296.09 111.863 296.09C111.491 296.09 111.173 295.982 110.909 295.766C110.657 295.55 110.525 295.292 110.513 294.992L110.495 294.29C110.135 294.89 109.649 295.358 109.037 295.694C108.425 296.018 107.789 296.18 107.129 296.18C106.481 296.18 105.881 296.054 105.329 295.802C104.789 295.55 104.315 295.196 103.907 294.74C103.511 294.284 103.199 293.762 102.971 293.174C102.755 292.586 102.647 291.962 102.647 291.302ZM110.207 292.616V290.15C110.075 289.766 109.859 289.424 109.559 289.124C109.271 288.812 108.941 288.566 108.569 288.386C108.209 288.206 107.849 288.116 107.489 288.116C107.069 288.116 106.685 288.206 106.337 288.386C106.001 288.566 105.707 288.806 105.455 289.106C105.215 289.406 105.029 289.748 104.897 290.132C104.765 290.516 104.699 290.918 104.699 291.338C104.699 291.77 104.771 292.178 104.915 292.562C105.059 292.934 105.263 293.27 105.527 293.57C105.803 293.858 106.115 294.086 106.463 294.254C106.823 294.41 107.213 294.488 107.633 294.488C107.897 294.488 108.161 294.44 108.425 294.344C108.701 294.248 108.959 294.116 109.199 293.948C109.451 293.78 109.661 293.582 109.829 293.354C110.009 293.126 110.135 292.88 110.207 292.616ZM118.465 293.246C118.465 292.646 118.633 292.124 118.969 291.68C119.317 291.224 119.791 290.876 120.391 290.636C120.991 290.384 121.687 290.258 122.479 290.258C122.899 290.258 123.325 290.288 123.757 290.348C124.201 290.408 124.591 290.504 124.927 290.636V290.042C124.927 289.382 124.729 288.866 124.333 288.494C123.937 288.122 123.367 287.936 122.623 287.936C122.095 287.936 121.597 288.032 121.129 288.224C120.661 288.404 120.163 288.662 119.635 288.998L118.969 287.666C119.593 287.246 120.217 286.934 120.841 286.73C121.477 286.526 122.143 286.424 122.839 286.424C124.099 286.424 125.089 286.76 125.809 287.432C126.541 288.092 126.907 289.034 126.907 290.258V293.768C126.907 293.996 126.943 294.158 127.015 294.254C127.099 294.35 127.237 294.404 127.429 294.416V296C127.249 296.036 127.087 296.06 126.943 296.072C126.799 296.084 126.679 296.09 126.583 296.09C126.163 296.09 125.845 295.988 125.629 295.784C125.413 295.58 125.287 295.34 125.251 295.064L125.197 294.524C124.789 295.052 124.267 295.46 123.631 295.748C122.995 296.036 122.353 296.18 121.705 296.18C121.081 296.18 120.523 296.054 120.031 295.802C119.539 295.538 119.155 295.184 118.879 294.74C118.603 294.296 118.465 293.798 118.465 293.246ZM124.459 293.822C124.603 293.666 124.717 293.51 124.801 293.354C124.885 293.198 124.927 293.06 124.927 292.94V291.86C124.591 291.728 124.237 291.632 123.865 291.572C123.493 291.5 123.127 291.464 122.767 291.464C122.047 291.464 121.459 291.608 121.003 291.896C120.559 292.184 120.337 292.58 120.337 293.084C120.337 293.36 120.409 293.624 120.553 293.876C120.709 294.128 120.925 294.332 121.201 294.488C121.489 294.644 121.843 294.722 122.263 294.722C122.695 294.722 123.109 294.638 123.505 294.47C123.901 294.302 124.219 294.086 124.459 293.822ZM137.482 296.09C136.846 296.09 136.264 295.964 135.736 295.712C135.208 295.448 134.752 295.094 134.368 294.65C133.996 294.206 133.702 293.696 133.486 293.12C133.282 292.544 133.18 291.938 133.18 291.302C133.18 290.63 133.288 290 133.504 289.412C133.72 288.824 134.02 288.308 134.404 287.864C134.8 287.408 135.262 287.054 135.79 286.802C136.318 286.55 136.906 286.424 137.554 286.424C138.31 286.424 138.97 286.604 139.534 286.964C140.11 287.324 140.584 287.792 140.956 288.368V286.586H142.702V295.73C142.702 296.642 142.48 297.416 142.036 298.052C141.604 298.688 141.01 299.174 140.254 299.51C139.498 299.846 138.646 300.014 137.698 300.014C136.654 300.014 135.79 299.834 135.106 299.474C134.422 299.114 133.84 298.622 133.36 297.998L134.476 296.954C134.836 297.458 135.298 297.842 135.862 298.106C136.438 298.37 137.05 298.502 137.698 298.502C138.238 298.502 138.736 298.4 139.192 298.196C139.66 298.004 140.032 297.698 140.308 297.278C140.584 296.87 140.722 296.354 140.722 295.73V294.29C140.386 294.854 139.924 295.298 139.336 295.622C138.748 295.934 138.13 296.09 137.482 296.09ZM138.13 294.488C138.43 294.488 138.718 294.44 138.994 294.344C139.27 294.236 139.522 294.098 139.75 293.93C139.99 293.75 140.194 293.552 140.362 293.336C140.53 293.108 140.65 292.868 140.722 292.616V290.15C140.566 289.742 140.344 289.388 140.056 289.088C139.768 288.776 139.444 288.536 139.084 288.368C138.724 288.2 138.358 288.116 137.986 288.116C137.554 288.116 137.164 288.212 136.816 288.404C136.48 288.584 136.192 288.83 135.952 289.142C135.712 289.442 135.526 289.784 135.394 290.168C135.262 290.552 135.196 290.948 135.196 291.356C135.196 291.788 135.268 292.19 135.412 292.562C135.568 292.934 135.778 293.27 136.042 293.57C136.306 293.858 136.618 294.086 136.978 294.254C137.338 294.41 137.722 294.488 138.13 294.488ZM145.095 282.86H147.075V293.282C147.075 293.762 147.147 294.068 147.291 294.2C147.435 294.332 147.615 294.398 147.831 294.398C148.071 294.398 148.293 294.374 148.497 294.326C148.713 294.278 148.899 294.218 149.055 294.146L149.343 295.712C149.055 295.832 148.713 295.934 148.317 296.018C147.921 296.102 147.567 296.144 147.255 296.144C146.583 296.144 146.055 295.958 145.671 295.586C145.287 295.202 145.095 294.674 145.095 294.002V282.86ZM154.721 296.18C153.977 296.18 153.311 296.054 152.723 295.802C152.135 295.538 151.625 295.178 151.193 294.722C150.773 294.266 150.449 293.75 150.221 293.174C149.993 292.586 149.879 291.962 149.879 291.302C149.879 290.642 149.993 290.018 150.221 289.43C150.449 288.842 150.773 288.326 151.193 287.882C151.625 287.426 152.135 287.072 152.723 286.82C153.323 286.556 153.989 286.424 154.721 286.424C155.453 286.424 156.113 286.556 156.701 286.82C157.301 287.072 157.811 287.426 158.231 287.882C158.663 288.326 158.993 288.842 159.221 289.43C159.449 290.018 159.563 290.642 159.563 291.302C159.563 291.962 159.449 292.586 159.221 293.174C158.993 293.75 158.663 294.266 158.231 294.722C157.811 295.178 157.301 295.538 156.701 295.802C156.113 296.054 155.453 296.18 154.721 296.18ZM151.913 291.32C151.913 291.92 152.039 292.46 152.291 292.94C152.543 293.42 152.879 293.798 153.299 294.074C153.719 294.35 154.193 294.488 154.721 294.488C155.237 294.488 155.705 294.35 156.125 294.074C156.557 293.786 156.899 293.402 157.151 292.922C157.403 292.43 157.529 291.89 157.529 291.302C157.529 290.702 157.403 290.162 157.151 289.682C156.899 289.202 156.557 288.824 156.125 288.548C155.705 288.26 155.237 288.116 154.721 288.116C154.193 288.116 153.719 288.26 153.299 288.548C152.879 288.836 152.543 289.22 152.291 289.7C152.039 290.168 151.913 290.708 151.913 291.32ZM166.395 296.18C165.675 296.18 165.021 296.012 164.433 295.676C163.857 295.328 163.401 294.866 163.065 294.29V296H161.319V282.86H163.299V288.368C163.671 287.768 164.133 287.294 164.685 286.946C165.249 286.598 165.909 286.424 166.665 286.424C167.289 286.424 167.859 286.556 168.375 286.82C168.891 287.084 169.329 287.444 169.689 287.9C170.061 288.356 170.343 288.878 170.535 289.466C170.739 290.054 170.841 290.678 170.841 291.338C170.841 291.998 170.727 292.622 170.499 293.21C170.283 293.798 169.971 294.314 169.563 294.758C169.155 295.202 168.681 295.55 168.141 295.802C167.613 296.054 167.031 296.18 166.395 296.18ZM165.873 294.488C166.305 294.488 166.701 294.404 167.061 294.236C167.421 294.056 167.733 293.822 167.997 293.534C168.261 293.246 168.459 292.91 168.591 292.526C168.735 292.142 168.807 291.746 168.807 291.338C168.807 290.774 168.687 290.246 168.447 289.754C168.219 289.262 167.895 288.866 167.475 288.566C167.055 288.266 166.569 288.116 166.017 288.116C165.621 288.116 165.249 288.212 164.901 288.404C164.553 288.584 164.241 288.83 163.965 289.142C163.701 289.442 163.479 289.778 163.299 290.15V292.634C163.371 292.91 163.497 293.162 163.677 293.39C163.857 293.606 164.067 293.798 164.307 293.966C164.547 294.122 164.805 294.248 165.081 294.344C165.357 294.44 165.621 294.488 165.873 294.488ZM171.938 293.246C171.938 292.646 172.106 292.124 172.442 291.68C172.79 291.224 173.264 290.876 173.864 290.636C174.464 290.384 175.16 290.258 175.952 290.258C176.372 290.258 176.798 290.288 177.23 290.348C177.674 290.408 178.064 290.504 178.4 290.636V290.042C178.4 289.382 178.202 288.866 177.806 288.494C177.41 288.122 176.84 287.936 176.096 287.936C175.568 287.936 175.07 288.032 174.602 288.224C174.134 288.404 173.636 288.662 173.108 288.998L172.442 287.666C173.066 287.246 173.69 286.934 174.314 286.73C174.95 286.526 175.616 286.424 176.312 286.424C177.572 286.424 178.562 286.76 179.282 287.432C180.014 288.092 180.38 289.034 180.38 290.258V293.768C180.38 293.996 180.416 294.158 180.488 294.254C180.572 294.35 180.71 294.404 180.902 294.416V296C180.722 296.036 180.56 296.06 180.416 296.072C180.272 296.084 180.152 296.09 180.056 296.09C179.636 296.09 179.318 295.988 179.102 295.784C178.886 295.58 178.76 295.34 178.724 295.064L178.67 294.524C178.262 295.052 177.74 295.46 177.104 295.748C176.468 296.036 175.826 296.18 175.178 296.18C174.554 296.18 173.996 296.054 173.504 295.802C173.012 295.538 172.628 295.184 172.352 294.74C172.076 294.296 171.938 293.798 171.938 293.246ZM177.932 293.822C178.076 293.666 178.19 293.51 178.274 293.354C178.358 293.198 178.4 293.06 178.4 292.94V291.86C178.064 291.728 177.71 291.632 177.338 291.572C176.966 291.5 176.6 291.464 176.24 291.464C175.52 291.464 174.932 291.608 174.476 291.896C174.032 292.184 173.81 292.58 173.81 293.084C173.81 293.36 173.882 293.624 174.026 293.876C174.182 294.128 174.398 294.332 174.674 294.488C174.962 294.644 175.316 294.722 175.736 294.722C176.168 294.722 176.582 294.638 176.978 294.47C177.374 294.302 177.692 294.086 177.932 293.822ZM182.8 282.86H184.78V293.282C184.78 293.762 184.852 294.068 184.996 294.2C185.14 294.332 185.32 294.398 185.536 294.398C185.776 294.398 185.998 294.374 186.202 294.326C186.418 294.278 186.604 294.218 186.76 294.146L187.048 295.712C186.76 295.832 186.418 295.934 186.022 296.018C185.626 296.102 185.272 296.144 184.96 296.144C184.288 296.144 183.76 295.958 183.376 295.586C182.992 295.202 182.8 294.674 182.8 294.002V282.86ZM196.399 296.18C195.667 296.18 195.001 296.054 194.401 295.802C193.813 295.538 193.303 295.178 192.871 294.722C192.439 294.266 192.103 293.744 191.863 293.156C191.635 292.568 191.521 291.944 191.521 291.284C191.521 290.396 191.719 289.586 192.115 288.854C192.523 288.122 193.087 287.534 193.807 287.09C194.539 286.646 195.403 286.424 196.399 286.424C197.359 286.424 198.193 286.64 198.901 287.072C199.621 287.492 200.149 288.056 200.485 288.764L198.559 289.376C198.343 288.98 198.037 288.674 197.641 288.458C197.257 288.23 196.831 288.116 196.363 288.116C195.835 288.116 195.355 288.254 194.923 288.53C194.503 288.794 194.167 289.166 193.915 289.646C193.675 290.114 193.555 290.66 193.555 291.284C193.555 291.884 193.681 292.43 193.933 292.922C194.185 293.402 194.521 293.786 194.941 294.074C195.373 294.35 195.853 294.488 196.381 294.488C196.705 294.488 197.017 294.434 197.317 294.326C197.629 294.206 197.899 294.05 198.127 293.858C198.355 293.654 198.517 293.432 198.613 293.192L200.557 293.768C200.353 294.236 200.047 294.65 199.639 295.01C199.243 295.37 198.769 295.658 198.217 295.874C197.677 296.078 197.071 296.18 196.399 296.18ZM206.33 296.18C205.586 296.18 204.92 296.054 204.332 295.802C203.744 295.538 203.234 295.178 202.802 294.722C202.382 294.266 202.058 293.75 201.83 293.174C201.602 292.586 201.488 291.962 201.488 291.302C201.488 290.642 201.602 290.018 201.83 289.43C202.058 288.842 202.382 288.326 202.802 287.882C203.234 287.426 203.744 287.072 204.332 286.82C204.932 286.556 205.598 286.424 206.33 286.424C207.062 286.424 207.722 286.556 208.31 286.82C208.91 287.072 209.42 287.426 209.84 287.882C210.272 288.326 210.602 288.842 210.83 289.43C211.058 290.018 211.172 290.642 211.172 291.302C211.172 291.962 211.058 292.586 210.83 293.174C210.602 293.75 210.272 294.266 209.84 294.722C209.42 295.178 208.91 295.538 208.31 295.802C207.722 296.054 207.062 296.18 206.33 296.18ZM203.522 291.32C203.522 291.92 203.648 292.46 203.9 292.94C204.152 293.42 204.488 293.798 204.908 294.074C205.328 294.35 205.802 294.488 206.33 294.488C206.846 294.488 207.314 294.35 207.734 294.074C208.166 293.786 208.508 293.402 208.76 292.922C209.012 292.43 209.138 291.89 209.138 291.302C209.138 290.702 209.012 290.162 208.76 289.682C208.508 289.202 208.166 288.824 207.734 288.548C207.314 288.26 206.846 288.116 206.33 288.116C205.802 288.116 205.328 288.26 204.908 288.548C204.488 288.836 204.152 289.22 203.9 289.7C203.648 290.168 203.522 290.708 203.522 291.32ZM227.328 296H225.348V290.726C225.348 289.85 225.204 289.208 224.916 288.8C224.628 288.392 224.208 288.188 223.656 288.188C223.104 288.188 222.588 288.398 222.108 288.818C221.64 289.226 221.31 289.76 221.118 290.42V296H219.138V290.726C219.138 289.85 218.994 289.208 218.706 288.8C218.418 288.392 218.004 288.188 217.464 288.188C216.912 288.188 216.396 288.392 215.916 288.8C215.448 289.208 215.112 289.742 214.908 290.402V296H212.928V286.586H214.728V288.476C215.1 287.816 215.586 287.312 216.186 286.964C216.798 286.604 217.494 286.424 218.274 286.424C219.054 286.424 219.666 286.628 220.11 287.036C220.566 287.444 220.848 287.954 220.956 288.566C221.364 287.87 221.862 287.342 222.45 286.982C223.05 286.61 223.734 286.424 224.502 286.424C225.054 286.424 225.516 286.526 225.888 286.73C226.26 286.934 226.548 287.216 226.752 287.576C226.956 287.924 227.1 288.332 227.184 288.8C227.28 289.256 227.328 289.742 227.328 290.258V296ZM244.01 296H242.03V290.726C242.03 289.85 241.886 289.208 241.598 288.8C241.31 288.392 240.89 288.188 240.338 288.188C239.786 288.188 239.27 288.398 238.79 288.818C238.322 289.226 237.992 289.76 237.8 290.42V296H235.82V290.726C235.82 289.85 235.676 289.208 235.388 288.8C235.1 288.392 234.686 288.188 234.146 288.188C233.594 288.188 233.078 288.392 232.598 288.8C232.13 289.208 231.794 289.742 231.59 290.402V296H229.61V286.586H231.41V288.476C231.782 287.816 232.268 287.312 232.868 286.964C233.48 286.604 234.176 286.424 234.956 286.424C235.736 286.424 236.348 286.628 236.792 287.036C237.248 287.444 237.53 287.954 237.638 288.566C238.046 287.87 238.544 287.342 239.132 286.982C239.732 286.61 240.416 286.424 241.184 286.424C241.736 286.424 242.198 286.526 242.57 286.73C242.942 286.934 243.23 287.216 243.434 287.576C243.638 287.924 243.782 288.332 243.866 288.8C243.962 289.256 244.01 289.742 244.01 290.258V296ZM246.202 292.346V286.586H248.182V291.95C248.182 292.79 248.332 293.426 248.632 293.858C248.944 294.278 249.394 294.488 249.982 294.488C250.354 294.488 250.714 294.41 251.062 294.254C251.422 294.098 251.746 293.87 252.034 293.57C252.334 293.258 252.574 292.886 252.754 292.454V286.586H254.734V293.768C254.734 293.996 254.776 294.158 254.86 294.254C254.944 294.35 255.082 294.404 255.274 294.416V296C255.07 296.036 254.902 296.06 254.77 296.072C254.638 296.084 254.512 296.09 254.392 296.09C254.032 296.09 253.732 295.994 253.492 295.802C253.252 295.598 253.114 295.34 253.078 295.028L253.042 294.092C252.622 294.776 252.076 295.298 251.404 295.658C250.732 296.006 249.994 296.18 249.19 296.18C248.206 296.18 247.462 295.856 246.958 295.208C246.454 294.56 246.202 293.606 246.202 292.346ZM265.702 296H263.722V290.726C263.722 289.85 263.578 289.208 263.29 288.8C263.014 288.392 262.6 288.188 262.048 288.188C261.664 288.188 261.28 288.284 260.896 288.476C260.524 288.668 260.188 288.932 259.888 289.268C259.588 289.592 259.372 289.97 259.24 290.402V296H257.26V286.586H259.06V288.476C259.3 288.056 259.612 287.696 259.996 287.396C260.392 287.084 260.836 286.844 261.328 286.676C261.82 286.508 262.342 286.424 262.894 286.424C263.458 286.424 263.92 286.526 264.28 286.73C264.652 286.934 264.94 287.216 265.144 287.576C265.36 287.924 265.504 288.332 265.576 288.8C265.66 289.256 265.702 289.742 265.702 290.258V296ZM268 296V286.586H269.981V296H268ZM268 285.038V282.86H269.981V285.038H268ZM277.598 295.514C277.43 295.598 277.22 295.688 276.968 295.784C276.716 295.88 276.428 295.964 276.104 296.036C275.792 296.108 275.468 296.144 275.132 296.144C274.724 296.144 274.346 296.072 273.998 295.928C273.65 295.784 273.368 295.556 273.152 295.244C272.948 294.92 272.846 294.506 272.846 294.002V288.116H271.604V286.586H272.846V283.49H274.826V286.586H276.878V288.116H274.826V293.372C274.85 293.696 274.952 293.936 275.132 294.092C275.324 294.248 275.558 294.326 275.834 294.326C276.11 294.326 276.374 294.278 276.626 294.182C276.878 294.086 277.064 294.008 277.184 293.948L277.598 295.514ZM279.276 298.214C279.456 298.238 279.63 298.262 279.798 298.286C279.978 298.322 280.122 298.34 280.23 298.34C280.434 298.34 280.608 298.274 280.752 298.142C280.908 298.022 281.064 297.794 281.22 297.458C281.376 297.122 281.568 296.636 281.796 296L277.926 286.586H279.996L282.876 293.984L285.432 286.586H287.34L283.074 298.178C282.942 298.526 282.75 298.844 282.498 299.132C282.246 299.432 281.934 299.666 281.562 299.834C281.19 300.002 280.752 300.086 280.248 300.086C280.104 300.086 279.954 300.074 279.798 300.05C279.642 300.026 279.468 299.99 279.276 299.942V298.214ZM298.114 296.18C297.358 296.18 296.692 296 296.116 295.64C295.54 295.28 295.084 294.812 294.748 294.236V299.834H292.768V286.586H294.514V288.278C294.874 287.714 295.342 287.264 295.918 286.928C296.494 286.592 297.136 286.424 297.844 286.424C298.492 286.424 299.086 286.556 299.626 286.82C300.166 287.072 300.634 287.426 301.03 287.882C301.426 288.338 301.732 288.86 301.948 289.448C302.176 290.024 302.29 290.636 302.29 291.284C302.29 292.184 302.11 293.006 301.75 293.75C301.402 294.494 300.91 295.088 300.274 295.532C299.65 295.964 298.93 296.18 298.114 296.18ZM297.466 294.488C297.886 294.488 298.264 294.398 298.6 294.218C298.948 294.038 299.242 293.798 299.482 293.498C299.734 293.198 299.926 292.856 300.058 292.472C300.19 292.088 300.256 291.692 300.256 291.284C300.256 290.852 300.184 290.444 300.04 290.06C299.896 289.676 299.686 289.34 299.41 289.052C299.146 288.764 298.834 288.536 298.474 288.368C298.126 288.2 297.742 288.116 297.322 288.116C297.07 288.116 296.806 288.164 296.53 288.26C296.254 288.356 295.996 288.488 295.756 288.656C295.516 288.824 295.306 289.022 295.126 289.25C294.946 289.478 294.82 289.718 294.748 289.97V292.436C294.916 292.82 295.138 293.168 295.414 293.48C295.69 293.78 296.008 294.026 296.368 294.218C296.728 294.398 297.094 294.488 297.466 294.488ZM304.089 282.86H306.069V293.282C306.069 293.762 306.141 294.068 306.285 294.2C306.429 294.332 306.609 294.398 306.825 294.398C307.065 294.398 307.287 294.374 307.491 294.326C307.707 294.278 307.893 294.218 308.049 294.146L308.337 295.712C308.049 295.832 307.707 295.934 307.311 296.018C306.915 296.102 306.561 296.144 306.249 296.144C305.577 296.144 305.049 295.958 304.665 295.586C304.281 295.202 304.089 294.674 304.089 294.002V282.86ZM308.801 293.246C308.801 292.646 308.969 292.124 309.305 291.68C309.653 291.224 310.127 290.876 310.727 290.636C311.327 290.384 312.023 290.258 312.815 290.258C313.235 290.258 313.661 290.288 314.093 290.348C314.537 290.408 314.927 290.504 315.263 290.636V290.042C315.263 289.382 315.065 288.866 314.669 288.494C314.273 288.122 313.703 287.936 312.959 287.936C312.431 287.936 311.933 288.032 311.465 288.224C310.997 288.404 310.499 288.662 309.971 288.998L309.305 287.666C309.929 287.246 310.553 286.934 311.177 286.73C311.813 286.526 312.479 286.424 313.175 286.424C314.435 286.424 315.425 286.76 316.145 287.432C316.877 288.092 317.243 289.034 317.243 290.258V293.768C317.243 293.996 317.279 294.158 317.351 294.254C317.435 294.35 317.573 294.404 317.765 294.416V296C317.585 296.036 317.423 296.06 317.279 296.072C317.135 296.084 317.015 296.09 316.919 296.09C316.499 296.09 316.181 295.988 315.965 295.784C315.749 295.58 315.623 295.34 315.587 295.064L315.533 294.524C315.125 295.052 314.603 295.46 313.967 295.748C313.331 296.036 312.689 296.18 312.041 296.18C311.417 296.18 310.859 296.054 310.367 295.802C309.875 295.538 309.491 295.184 309.215 294.74C308.939 294.296 308.801 293.798 308.801 293.246ZM314.795 293.822C314.939 293.666 315.053 293.51 315.137 293.354C315.221 293.198 315.263 293.06 315.263 292.94V291.86C314.927 291.728 314.573 291.632 314.201 291.572C313.829 291.5 313.463 291.464 313.103 291.464C312.383 291.464 311.795 291.608 311.339 291.896C310.895 292.184 310.673 292.58 310.673 293.084C310.673 293.36 310.745 293.624 310.889 293.876C311.045 294.128 311.261 294.332 311.537 294.488C311.825 294.644 312.179 294.722 312.599 294.722C313.031 294.722 313.445 294.638 313.841 294.47C314.237 294.302 314.555 294.086 314.795 293.822ZM324.813 295.514C324.645 295.598 324.435 295.688 324.183 295.784C323.931 295.88 323.643 295.964 323.319 296.036C323.007 296.108 322.683 296.144 322.347 296.144C321.939 296.144 321.561 296.072 321.213 295.928C320.865 295.784 320.583 295.556 320.367 295.244C320.163 294.92 320.061 294.506 320.061 294.002V288.116H318.819V286.586H320.061V283.49H322.041V286.586H324.093V288.116H322.041V293.372C322.065 293.696 322.167 293.936 322.347 294.092C322.539 294.248 322.773 294.326 323.049 294.326C323.325 294.326 323.589 294.278 323.841 294.182C324.093 294.086 324.279 294.008 324.399 293.948L324.813 295.514ZM326.707 296V288.35H325.447V286.82H326.707V286.442C326.707 285.674 326.827 285.008 327.067 284.444C327.319 283.88 327.667 283.448 328.111 283.148C328.567 282.836 329.101 282.68 329.713 282.68C330.097 282.68 330.475 282.734 330.847 282.842C331.219 282.938 331.573 283.076 331.909 283.256L331.477 284.732C331.297 284.612 331.081 284.522 330.829 284.462C330.589 284.39 330.355 284.354 330.127 284.354C329.671 284.354 329.317 284.528 329.065 284.876C328.813 285.224 328.687 285.728 328.687 286.388V286.82H331.099V288.35H328.687V296H326.707ZM336.637 296.18C335.893 296.18 335.227 296.054 334.639 295.802C334.051 295.538 333.541 295.178 333.109 294.722C332.689 294.266 332.365 293.75 332.137 293.174C331.909 292.586 331.795 291.962 331.795 291.302C331.795 290.642 331.909 290.018 332.137 289.43C332.365 288.842 332.689 288.326 333.109 287.882C333.541 287.426 334.051 287.072 334.639 286.82C335.239 286.556 335.905 286.424 336.637 286.424C337.369 286.424 338.029 286.556 338.617 286.82C339.217 287.072 339.727 287.426 340.147 287.882C340.579 288.326 340.909 288.842 341.137 289.43C341.365 290.018 341.479 290.642 341.479 291.302C341.479 291.962 341.365 292.586 341.137 293.174C340.909 293.75 340.579 294.266 340.147 294.722C339.727 295.178 339.217 295.538 338.617 295.802C338.029 296.054 337.369 296.18 336.637 296.18ZM333.829 291.32C333.829 291.92 333.955 292.46 334.207 292.94C334.459 293.42 334.795 293.798 335.215 294.074C335.635 294.35 336.109 294.488 336.637 294.488C337.153 294.488 337.621 294.35 338.041 294.074C338.473 293.786 338.815 293.402 339.067 292.922C339.319 292.43 339.445 291.89 339.445 291.302C339.445 290.702 339.319 290.162 339.067 289.682C338.815 289.202 338.473 288.824 338.041 288.548C337.621 288.26 337.153 288.116 336.637 288.116C336.109 288.116 335.635 288.26 335.215 288.548C334.795 288.836 334.459 289.22 334.207 289.7C333.955 290.168 333.829 290.708 333.829 291.32ZM348.527 288.296C347.759 288.308 347.075 288.482 346.475 288.818C345.887 289.154 345.467 289.628 345.215 290.24V296H343.235V286.586H345.071V288.692C345.395 288.044 345.821 287.528 346.349 287.144C346.877 286.748 347.435 286.532 348.023 286.496C348.143 286.496 348.239 286.496 348.311 286.496C348.395 286.496 348.467 286.502 348.527 286.514V288.296ZM364.367 296H362.387V290.726C362.387 289.85 362.243 289.208 361.955 288.8C361.667 288.392 361.247 288.188 360.695 288.188C360.143 288.188 359.627 288.398 359.147 288.818C358.679 289.226 358.349 289.76 358.157 290.42V296H356.177V290.726C356.177 289.85 356.033 289.208 355.745 288.8C355.457 288.392 355.043 288.188 354.503 288.188C353.951 288.188 353.435 288.392 352.955 288.8C352.487 289.208 352.151 289.742 351.947 290.402V296H349.967V286.586H351.767V288.476C352.139 287.816 352.625 287.312 353.225 286.964C353.837 286.604 354.533 286.424 355.313 286.424C356.093 286.424 356.705 286.628 357.149 287.036C357.605 287.444 357.887 287.954 357.995 288.566C358.403 287.87 358.901 287.342 359.489 286.982C360.089 286.61 360.773 286.424 361.541 286.424C362.093 286.424 362.555 286.526 362.927 286.73C363.299 286.934 363.587 287.216 363.791 287.576C363.995 287.924 364.139 288.332 364.223 288.8C364.319 289.256 364.367 289.742 364.367 290.258V296ZM44.5148 314.586H46.4048L42.4448 324H40.7528L39.0608 319.752L37.3688 324H35.6768L31.6988 314.586H33.5888L36.6128 322.074L37.9448 318.6L36.3248 314.604H37.9988L39.0608 317.538L40.1048 314.604H41.7788L40.1768 318.6L41.5088 322.074L44.5148 314.586ZM56.1622 324H54.1822V318.726C54.1822 317.874 54.0262 317.238 53.7142 316.818C53.4022 316.398 52.9642 316.188 52.4002 316.188C52.0522 316.188 51.6922 316.284 51.3202 316.476C50.9482 316.668 50.6182 316.932 50.3302 317.268C50.0422 317.592 49.8322 317.97 49.7002 318.402V324H47.7202V310.86H49.7002V316.476C50.0602 315.84 50.5522 315.342 51.1762 314.982C51.8002 314.61 52.4722 314.424 53.1922 314.424C53.7802 314.424 54.2662 314.526 54.6502 314.73C55.0342 314.934 55.3342 315.216 55.5502 315.576C55.7782 315.924 55.9342 316.332 56.0182 316.8C56.1142 317.256 56.1622 317.742 56.1622 318.258V324ZM62.7265 324.18C61.9945 324.18 61.3285 324.054 60.7285 323.802C60.1405 323.538 59.6305 323.184 59.1985 322.74C58.7665 322.284 58.4305 321.768 58.1905 321.192C57.9625 320.604 57.8485 319.98 57.8485 319.32C57.8485 318.432 58.0525 317.622 58.4605 316.89C58.8685 316.146 59.4385 315.552 60.1705 315.108C60.9025 314.652 61.7605 314.424 62.7445 314.424C63.7285 314.424 64.5745 314.652 65.2825 315.108C66.0025 315.552 66.5605 316.14 66.9565 316.872C67.3525 317.604 67.5505 318.39 67.5505 319.23C67.5505 319.374 67.5445 319.512 67.5325 319.644C67.5205 319.764 67.5085 319.866 67.4965 319.95H59.9545C59.9905 320.502 60.1405 320.988 60.4045 321.408C60.6805 321.816 61.0285 322.14 61.4485 322.38C61.8685 322.608 62.3185 322.722 62.7985 322.722C63.3265 322.722 63.8245 322.59 64.2925 322.326C64.7725 322.062 65.0965 321.714 65.2645 321.282L66.9565 321.768C66.7525 322.224 66.4405 322.638 66.0205 323.01C65.6125 323.37 65.1265 323.658 64.5625 323.874C63.9985 324.078 63.3865 324.18 62.7265 324.18ZM59.9005 318.636H65.5885C65.5525 318.096 65.3965 317.622 65.1205 317.214C64.8565 316.794 64.5145 316.47 64.0945 316.242C63.6865 316.002 63.2305 315.882 62.7265 315.882C62.2345 315.882 61.7785 316.002 61.3585 316.242C60.9505 316.47 60.6145 316.794 60.3505 317.214C60.0865 317.622 59.9365 318.096 59.9005 318.636ZM74.4575 316.296C73.6895 316.308 73.0055 316.482 72.4055 316.818C71.8175 317.154 71.3975 317.628 71.1455 318.24V324H69.1655V314.586H71.0015V316.692C71.3255 316.044 71.7515 315.528 72.2795 315.144C72.8075 314.748 73.3655 314.532 73.9535 314.496C74.0735 314.496 74.1695 314.496 74.2415 314.496C74.3255 314.496 74.3975 314.502 74.4575 314.514V316.296ZM79.9882 324.18C79.2562 324.18 78.5902 324.054 77.9902 323.802C77.4022 323.538 76.8922 323.184 76.4602 322.74C76.0282 322.284 75.6922 321.768 75.4522 321.192C75.2242 320.604 75.1102 319.98 75.1102 319.32C75.1102 318.432 75.3142 317.622 75.7222 316.89C76.1302 316.146 76.7002 315.552 77.4322 315.108C78.1642 314.652 79.0222 314.424 80.0062 314.424C80.9902 314.424 81.8362 314.652 82.5442 315.108C83.2642 315.552 83.8222 316.14 84.2182 316.872C84.6142 317.604 84.8122 318.39 84.8122 319.23C84.8122 319.374 84.8062 319.512 84.7942 319.644C84.7822 319.764 84.7702 319.866 84.7582 319.95H77.2162C77.2522 320.502 77.4022 320.988 77.6662 321.408C77.9422 321.816 78.2902 322.14 78.7102 322.38C79.1302 322.608 79.5802 322.722 80.0602 322.722C80.5882 322.722 81.0862 322.59 81.5542 322.326C82.0342 322.062 82.3582 321.714 82.5262 321.282L84.2182 321.768C84.0142 322.224 83.7022 322.638 83.2822 323.01C82.8742 323.37 82.3882 323.658 81.8242 323.874C81.2602 324.078 80.6482 324.18 79.9882 324.18ZM77.1622 318.636H82.8502C82.8142 318.096 82.6582 317.622 82.3822 317.214C82.1182 316.794 81.7762 316.47 81.3562 316.242C80.9482 316.002 80.4922 315.882 79.9882 315.882C79.4962 315.882 79.0402 316.002 78.6202 316.242C78.2122 316.47 77.8762 316.794 77.6122 317.214C77.3482 317.622 77.1982 318.096 77.1622 318.636ZM96.1665 316.296C95.3985 316.308 94.7145 316.482 94.1145 316.818C93.5265 317.154 93.1065 317.628 92.8545 318.24V324H90.8745V314.586H92.7105V316.692C93.0345 316.044 93.4605 315.528 93.9885 315.144C94.5165 314.748 95.0745 314.532 95.6625 314.496C95.7825 314.496 95.8785 314.496 95.9505 314.496C96.0345 314.496 96.1065 314.502 96.1665 314.514V316.296ZM101.697 324.18C100.965 324.18 100.299 324.054 99.6992 323.802C99.1112 323.538 98.6012 323.184 98.1692 322.74C97.7372 322.284 97.4012 321.768 97.1612 321.192C96.9332 320.604 96.8192 319.98 96.8192 319.32C96.8192 318.432 97.0232 317.622 97.4312 316.89C97.8392 316.146 98.4092 315.552 99.1412 315.108C99.8732 314.652 100.731 314.424 101.715 314.424C102.699 314.424 103.545 314.652 104.253 315.108C104.973 315.552 105.531 316.14 105.927 316.872C106.323 317.604 106.521 318.39 106.521 319.23C106.521 319.374 106.515 319.512 106.503 319.644C106.491 319.764 106.479 319.866 106.467 319.95H98.9252C98.9612 320.502 99.1112 320.988 99.3752 321.408C99.6512 321.816 99.9992 322.14 100.419 322.38C100.839 322.608 101.289 322.722 101.769 322.722C102.297 322.722 102.795 322.59 103.263 322.326C103.743 322.062 104.067 321.714 104.235 321.282L105.927 321.768C105.723 322.224 105.411 322.638 104.991 323.01C104.583 323.37 104.097 323.658 103.533 323.874C102.969 324.078 102.357 324.18 101.697 324.18ZM98.8712 318.636H104.559C104.523 318.096 104.367 317.622 104.091 317.214C103.827 316.794 103.485 316.47 103.065 316.242C102.657 316.002 102.201 315.882 101.697 315.882C101.205 315.882 100.749 316.002 100.329 316.242C99.9212 316.47 99.5852 316.794 99.3212 317.214C99.0572 317.622 98.9072 318.096 98.8712 318.636ZM108.154 310.86H110.134V321.282C110.134 321.762 110.206 322.068 110.35 322.2C110.494 322.332 110.674 322.398 110.89 322.398C111.13 322.398 111.352 322.374 111.556 322.326C111.772 322.278 111.958 322.218 112.114 322.146L112.402 323.712C112.114 323.832 111.772 323.934 111.376 324.018C110.98 324.102 110.626 324.144 110.314 324.144C109.642 324.144 109.114 323.958 108.73 323.586C108.346 323.202 108.154 322.674 108.154 322.002V310.86ZM112.866 321.246C112.866 320.646 113.034 320.124 113.37 319.68C113.718 319.224 114.192 318.876 114.792 318.636C115.392 318.384 116.088 318.258 116.88 318.258C117.3 318.258 117.726 318.288 118.158 318.348C118.602 318.408 118.992 318.504 119.328 318.636V318.042C119.328 317.382 119.13 316.866 118.734 316.494C118.338 316.122 117.768 315.936 117.024 315.936C116.496 315.936 115.998 316.032 115.53 316.224C115.062 316.404 114.564 316.662 114.036 316.998L113.37 315.666C113.994 315.246 114.618 314.934 115.242 314.73C115.878 314.526 116.544 314.424 117.24 314.424C118.5 314.424 119.49 314.76 120.21 315.432C120.942 316.092 121.308 317.034 121.308 318.258V321.768C121.308 321.996 121.344 322.158 121.416 322.254C121.5 322.35 121.638 322.404 121.83 322.416V324C121.65 324.036 121.488 324.06 121.344 324.072C121.2 324.084 121.08 324.09 120.984 324.09C120.564 324.09 120.246 323.988 120.03 323.784C119.814 323.58 119.688 323.34 119.652 323.064L119.598 322.524C119.19 323.052 118.668 323.46 118.032 323.748C117.396 324.036 116.754 324.18 116.106 324.18C115.482 324.18 114.924 324.054 114.432 323.802C113.94 323.538 113.556 323.184 113.28 322.74C113.004 322.296 112.866 321.798 112.866 321.246ZM118.86 321.822C119.004 321.666 119.118 321.51 119.202 321.354C119.286 321.198 119.328 321.06 119.328 320.94V319.86C118.992 319.728 118.638 319.632 118.266 319.572C117.894 319.5 117.528 319.464 117.168 319.464C116.448 319.464 115.86 319.608 115.404 319.896C114.96 320.184 114.738 320.58 114.738 321.084C114.738 321.36 114.81 321.624 114.954 321.876C115.11 322.128 115.326 322.332 115.602 322.488C115.89 322.644 116.244 322.722 116.664 322.722C117.096 322.722 117.51 322.638 117.906 322.47C118.302 322.302 118.62 322.086 118.86 321.822ZM128.878 323.514C128.71 323.598 128.5 323.688 128.248 323.784C127.996 323.88 127.708 323.964 127.384 324.036C127.072 324.108 126.748 324.144 126.412 324.144C126.004 324.144 125.626 324.072 125.278 323.928C124.93 323.784 124.648 323.556 124.432 323.244C124.228 322.92 124.126 322.506 124.126 322.002V316.116H122.884V314.586H124.126V311.49H126.106V314.586H128.158V316.116H126.106V321.372C126.13 321.696 126.232 321.936 126.412 322.092C126.604 322.248 126.838 322.326 127.114 322.326C127.39 322.326 127.654 322.278 127.906 322.182C128.158 322.086 128.344 322.008 128.464 321.948L128.878 323.514ZM130.25 324V314.586H132.23V324H130.25ZM130.25 313.038V310.86H132.23V313.038H130.25ZM138.839 324.18C138.095 324.18 137.429 324.054 136.841 323.802C136.253 323.538 135.743 323.178 135.311 322.722C134.891 322.266 134.567 321.75 134.339 321.174C134.111 320.586 133.997 319.962 133.997 319.302C133.997 318.642 134.111 318.018 134.339 317.43C134.567 316.842 134.891 316.326 135.311 315.882C135.743 315.426 136.253 315.072 136.841 314.82C137.441 314.556 138.107 314.424 138.839 314.424C139.571 314.424 140.231 314.556 140.819 314.82C141.419 315.072 141.929 315.426 142.349 315.882C142.781 316.326 143.111 316.842 143.339 317.43C143.567 318.018 143.681 318.642 143.681 319.302C143.681 319.962 143.567 320.586 143.339 321.174C143.111 321.75 142.781 322.266 142.349 322.722C141.929 323.178 141.419 323.538 140.819 323.802C140.231 324.054 139.571 324.18 138.839 324.18ZM136.031 319.32C136.031 319.92 136.157 320.46 136.409 320.94C136.661 321.42 136.997 321.798 137.417 322.074C137.837 322.35 138.311 322.488 138.839 322.488C139.355 322.488 139.823 322.35 140.243 322.074C140.675 321.786 141.017 321.402 141.269 320.922C141.521 320.43 141.647 319.89 141.647 319.302C141.647 318.702 141.521 318.162 141.269 317.682C141.017 317.202 140.675 316.824 140.243 316.548C139.823 316.26 139.355 316.116 138.839 316.116C138.311 316.116 137.837 316.26 137.417 316.548C136.997 316.836 136.661 317.22 136.409 317.7C136.157 318.168 136.031 318.708 136.031 319.32ZM153.879 324H151.899V318.726C151.899 317.85 151.755 317.208 151.467 316.8C151.191 316.392 150.777 316.188 150.225 316.188C149.841 316.188 149.457 316.284 149.073 316.476C148.701 316.668 148.365 316.932 148.065 317.268C147.765 317.592 147.549 317.97 147.417 318.402V324H145.437V314.586H147.237V316.476C147.477 316.056 147.789 315.696 148.173 315.396C148.569 315.084 149.013 314.844 149.505 314.676C149.997 314.508 150.519 314.424 151.071 314.424C151.635 314.424 152.097 314.526 152.457 314.73C152.829 314.934 153.117 315.216 153.321 315.576C153.537 315.924 153.681 316.332 153.753 316.8C153.837 317.256 153.879 317.742 153.879 318.258V324ZM159.525 324.18C158.733 324.18 157.983 324.054 157.275 323.802C156.567 323.538 155.961 323.148 155.457 322.632L156.195 321.3C156.735 321.78 157.275 322.128 157.815 322.344C158.367 322.56 158.913 322.668 159.453 322.668C160.005 322.668 160.455 322.566 160.803 322.362C161.151 322.146 161.325 321.834 161.325 321.426C161.325 321.126 161.235 320.904 161.055 320.76C160.875 320.616 160.611 320.49 160.263 320.382C159.927 320.274 159.519 320.154 159.039 320.022C158.367 319.818 157.803 319.608 157.347 319.392C156.891 319.164 156.549 318.888 156.321 318.564C156.093 318.24 155.979 317.826 155.979 317.322C155.979 316.71 156.135 316.188 156.447 315.756C156.759 315.324 157.191 314.994 157.743 314.766C158.307 314.538 158.955 314.424 159.687 314.424C160.371 314.424 161.001 314.532 161.577 314.748C162.165 314.952 162.681 315.276 163.125 315.72L162.279 317.034C161.859 316.65 161.427 316.368 160.983 316.188C160.551 316.008 160.083 315.918 159.579 315.918C159.291 315.918 159.015 315.954 158.751 316.026C158.487 316.086 158.265 316.206 158.085 316.386C157.917 316.554 157.833 316.794 157.833 317.106C157.833 317.358 157.905 317.562 158.049 317.718C158.193 317.874 158.409 318.006 158.697 318.114C158.985 318.222 159.339 318.342 159.759 318.474C160.491 318.69 161.115 318.906 161.631 319.122C162.147 319.326 162.543 319.596 162.819 319.932C163.107 320.256 163.251 320.706 163.251 321.282C163.251 322.194 162.909 322.908 162.225 323.424C161.553 323.928 160.653 324.18 159.525 324.18ZM173.461 324H171.481V318.726C171.481 317.874 171.325 317.238 171.013 316.818C170.701 316.398 170.263 316.188 169.699 316.188C169.351 316.188 168.991 316.284 168.619 316.476C168.247 316.668 167.917 316.932 167.629 317.268C167.341 317.592 167.131 317.97 166.999 318.402V324H165.019V310.86H166.999V316.476C167.359 315.84 167.851 315.342 168.475 314.982C169.099 314.61 169.771 314.424 170.491 314.424C171.079 314.424 171.565 314.526 171.949 314.73C172.333 314.934 172.633 315.216 172.849 315.576C173.077 315.924 173.233 316.332 173.317 316.8C173.413 317.256 173.461 317.742 173.461 318.258V324ZM175.759 324V314.586H177.739V324H175.759ZM175.759 313.038V310.86H177.739V313.038H175.759ZM185.465 324.18C184.709 324.18 184.043 324 183.467 323.64C182.891 323.28 182.435 322.812 182.099 322.236V327.834H180.119V314.586H181.865V316.278C182.225 315.714 182.693 315.264 183.269 314.928C183.845 314.592 184.487 314.424 185.195 314.424C185.843 314.424 186.437 314.556 186.977 314.82C187.517 315.072 187.985 315.426 188.381 315.882C188.777 316.338 189.083 316.86 189.299 317.448C189.527 318.024 189.641 318.636 189.641 319.284C189.641 320.184 189.461 321.006 189.101 321.75C188.753 322.494 188.261 323.088 187.625 323.532C187.001 323.964 186.281 324.18 185.465 324.18ZM184.817 322.488C185.237 322.488 185.615 322.398 185.951 322.218C186.299 322.038 186.593 321.798 186.833 321.498C187.085 321.198 187.277 320.856 187.409 320.472C187.541 320.088 187.607 319.692 187.607 319.284C187.607 318.852 187.535 318.444 187.391 318.06C187.247 317.676 187.037 317.34 186.761 317.052C186.497 316.764 186.185 316.536 185.825 316.368C185.477 316.2 185.093 316.116 184.673 316.116C184.421 316.116 184.157 316.164 183.881 316.26C183.605 316.356 183.347 316.488 183.107 316.656C182.867 316.824 182.657 317.022 182.477 317.25C182.297 317.478 182.171 317.718 182.099 317.97V320.436C182.267 320.82 182.489 321.168 182.765 321.48C183.041 321.78 183.359 322.026 183.719 322.218C184.079 322.398 184.445 322.488 184.817 322.488ZM194.769 324.18C193.977 324.18 193.227 324.054 192.519 323.802C191.811 323.538 191.205 323.148 190.701 322.632L191.439 321.3C191.979 321.78 192.519 322.128 193.059 322.344C193.611 322.56 194.157 322.668 194.697 322.668C195.249 322.668 195.699 322.566 196.047 322.362C196.395 322.146 196.569 321.834 196.569 321.426C196.569 321.126 196.479 320.904 196.299 320.76C196.119 320.616 195.855 320.49 195.507 320.382C195.171 320.274 194.763 320.154 194.283 320.022C193.611 319.818 193.047 319.608 192.591 319.392C192.135 319.164 191.793 318.888 191.565 318.564C191.337 318.24 191.223 317.826 191.223 317.322C191.223 316.71 191.379 316.188 191.691 315.756C192.003 315.324 192.435 314.994 192.987 314.766C193.551 314.538 194.199 314.424 194.931 314.424C195.615 314.424 196.245 314.532 196.821 314.748C197.409 314.952 197.925 315.276 198.369 315.72L197.523 317.034C197.103 316.65 196.671 316.368 196.227 316.188C195.795 316.008 195.327 315.918 194.823 315.918C194.535 315.918 194.259 315.954 193.995 316.026C193.731 316.086 193.509 316.206 193.329 316.386C193.161 316.554 193.077 316.794 193.077 317.106C193.077 317.358 193.149 317.562 193.293 317.718C193.437 317.874 193.653 318.006 193.941 318.114C194.229 318.222 194.583 318.342 195.003 318.474C195.735 318.69 196.359 318.906 196.875 319.122C197.391 319.326 197.787 319.596 198.063 319.932C198.351 320.256 198.495 320.706 198.495 321.282C198.495 322.194 198.153 322.908 197.469 323.424C196.797 323.928 195.897 324.18 194.769 324.18ZM204.026 321.246C204.026 320.646 204.194 320.124 204.53 319.68C204.878 319.224 205.352 318.876 205.952 318.636C206.552 318.384 207.248 318.258 208.04 318.258C208.46 318.258 208.886 318.288 209.318 318.348C209.762 318.408 210.152 318.504 210.488 318.636V318.042C210.488 317.382 210.29 316.866 209.894 316.494C209.498 316.122 208.928 315.936 208.184 315.936C207.656 315.936 207.158 316.032 206.69 316.224C206.222 316.404 205.724 316.662 205.196 316.998L204.53 315.666C205.154 315.246 205.778 314.934 206.402 314.73C207.038 314.526 207.704 314.424 208.4 314.424C209.66 314.424 210.65 314.76 211.37 315.432C212.102 316.092 212.468 317.034 212.468 318.258V321.768C212.468 321.996 212.504 322.158 212.576 322.254C212.66 322.35 212.798 322.404 212.99 322.416V324C212.81 324.036 212.648 324.06 212.504 324.072C212.36 324.084 212.24 324.09 212.144 324.09C211.724 324.09 211.406 323.988 211.19 323.784C210.974 323.58 210.848 323.34 210.812 323.064L210.758 322.524C210.35 323.052 209.828 323.46 209.192 323.748C208.556 324.036 207.914 324.18 207.266 324.18C206.642 324.18 206.084 324.054 205.592 323.802C205.1 323.538 204.716 323.184 204.44 322.74C204.164 322.296 204.026 321.798 204.026 321.246ZM210.02 321.822C210.164 321.666 210.278 321.51 210.362 321.354C210.446 321.198 210.488 321.06 210.488 320.94V319.86C210.152 319.728 209.798 319.632 209.426 319.572C209.054 319.5 208.688 319.464 208.328 319.464C207.608 319.464 207.02 319.608 206.564 319.896C206.12 320.184 205.898 320.58 205.898 321.084C205.898 321.36 205.97 321.624 206.114 321.876C206.27 322.128 206.486 322.332 206.762 322.488C207.05 322.644 207.404 322.722 207.824 322.722C208.256 322.722 208.67 322.638 209.066 322.47C209.462 322.302 209.78 322.086 210.02 321.822ZM220.163 316.296C219.395 316.308 218.711 316.482 218.111 316.818C217.523 317.154 217.103 317.628 216.851 318.24V324H214.871V314.586H216.707V316.692C217.031 316.044 217.457 315.528 217.985 315.144C218.513 314.748 219.071 314.532 219.659 314.496C219.779 314.496 219.875 314.496 219.947 314.496C220.031 314.496 220.103 314.502 220.163 314.514V316.296ZM225.693 324.18C224.961 324.18 224.295 324.054 223.695 323.802C223.107 323.538 222.597 323.184 222.165 322.74C221.733 322.284 221.397 321.768 221.157 321.192C220.929 320.604 220.815 319.98 220.815 319.32C220.815 318.432 221.019 317.622 221.427 316.89C221.835 316.146 222.405 315.552 223.137 315.108C223.869 314.652 224.727 314.424 225.711 314.424C226.695 314.424 227.541 314.652 228.249 315.108C228.969 315.552 229.527 316.14 229.923 316.872C230.319 317.604 230.517 318.39 230.517 319.23C230.517 319.374 230.511 319.512 230.499 319.644C230.487 319.764 230.475 319.866 230.463 319.95H222.921C222.957 320.502 223.107 320.988 223.371 321.408C223.647 321.816 223.995 322.14 224.415 322.38C224.835 322.608 225.285 322.722 225.765 322.722C226.293 322.722 226.791 322.59 227.259 322.326C227.739 322.062 228.063 321.714 228.231 321.282L229.923 321.768C229.719 322.224 229.407 322.638 228.987 323.01C228.579 323.37 228.093 323.658 227.529 323.874C226.965 324.078 226.353 324.18 225.693 324.18ZM222.867 318.636H228.555C228.519 318.096 228.363 317.622 228.087 317.214C227.823 316.794 227.481 316.47 227.061 316.242C226.653 316.002 226.197 315.882 225.693 315.882C225.201 315.882 224.745 316.002 224.325 316.242C223.917 316.47 223.581 316.794 223.317 317.214C223.053 317.622 222.903 318.096 222.867 318.636ZM237.12 324V316.35H235.86V314.82H237.12V314.442C237.12 313.674 237.24 313.008 237.48 312.444C237.732 311.88 238.08 311.448 238.524 311.148C238.98 310.836 239.514 310.68 240.126 310.68C240.51 310.68 240.888 310.734 241.26 310.842C241.632 310.938 241.986 311.076 242.322 311.256L241.89 312.732C241.71 312.612 241.494 312.522 241.242 312.462C241.002 312.39 240.768 312.354 240.54 312.354C240.084 312.354 239.73 312.528 239.478 312.876C239.226 313.224 239.1 313.728 239.1 314.388V314.82H241.512V316.35H239.1V324H237.12ZM247.05 324.18C246.306 324.18 245.64 324.054 245.052 323.802C244.464 323.538 243.954 323.178 243.522 322.722C243.102 322.266 242.778 321.75 242.55 321.174C242.322 320.586 242.208 319.962 242.208 319.302C242.208 318.642 242.322 318.018 242.55 317.43C242.778 316.842 243.102 316.326 243.522 315.882C243.954 315.426 244.464 315.072 245.052 314.82C245.652 314.556 246.318 314.424 247.05 314.424C247.782 314.424 248.442 314.556 249.03 314.82C249.63 315.072 250.14 315.426 250.56 315.882C250.992 316.326 251.322 316.842 251.55 317.43C251.778 318.018 251.892 318.642 251.892 319.302C251.892 319.962 251.778 320.586 251.55 321.174C251.322 321.75 250.992 322.266 250.56 322.722C250.14 323.178 249.63 323.538 249.03 323.802C248.442 324.054 247.782 324.18 247.05 324.18ZM244.242 319.32C244.242 319.92 244.368 320.46 244.62 320.94C244.872 321.42 245.208 321.798 245.628 322.074C246.048 322.35 246.522 322.488 247.05 322.488C247.566 322.488 248.034 322.35 248.454 322.074C248.886 321.786 249.228 321.402 249.48 320.922C249.732 320.43 249.858 319.89 249.858 319.302C249.858 318.702 249.732 318.162 249.48 317.682C249.228 317.202 248.886 316.824 248.454 316.548C248.034 316.26 247.566 316.116 247.05 316.116C246.522 316.116 246.048 316.26 245.628 316.548C245.208 316.836 244.872 317.22 244.62 317.7C244.368 318.168 244.242 318.708 244.242 319.32ZM256.996 324.18C256.204 324.18 255.454 324.054 254.746 323.802C254.038 323.538 253.432 323.148 252.928 322.632L253.666 321.3C254.206 321.78 254.746 322.128 255.286 322.344C255.838 322.56 256.384 322.668 256.924 322.668C257.476 322.668 257.926 322.566 258.274 322.362C258.622 322.146 258.796 321.834 258.796 321.426C258.796 321.126 258.706 320.904 258.526 320.76C258.346 320.616 258.082 320.49 257.734 320.382C257.398 320.274 256.99 320.154 256.51 320.022C255.838 319.818 255.274 319.608 254.818 319.392C254.362 319.164 254.02 318.888 253.792 318.564C253.564 318.24 253.45 317.826 253.45 317.322C253.45 316.71 253.606 316.188 253.918 315.756C254.23 315.324 254.662 314.994 255.214 314.766C255.778 314.538 256.426 314.424 257.158 314.424C257.842 314.424 258.472 314.532 259.048 314.748C259.636 314.952 260.152 315.276 260.596 315.72L259.75 317.034C259.33 316.65 258.898 316.368 258.454 316.188C258.022 316.008 257.554 315.918 257.05 315.918C256.762 315.918 256.486 315.954 256.222 316.026C255.958 316.086 255.736 316.206 255.556 316.386C255.388 316.554 255.304 316.794 255.304 317.106C255.304 317.358 255.376 317.562 255.52 317.718C255.664 317.874 255.88 318.006 256.168 318.114C256.456 318.222 256.81 318.342 257.23 318.474C257.962 318.69 258.586 318.906 259.102 319.122C259.618 319.326 260.014 319.596 260.29 319.932C260.578 320.256 260.722 320.706 260.722 321.282C260.722 322.194 260.38 322.908 259.696 323.424C259.024 323.928 258.124 324.18 256.996 324.18ZM267.71 323.514C267.542 323.598 267.332 323.688 267.08 323.784C266.828 323.88 266.54 323.964 266.216 324.036C265.904 324.108 265.58 324.144 265.244 324.144C264.836 324.144 264.458 324.072 264.11 323.928C263.762 323.784 263.48 323.556 263.264 323.244C263.06 322.92 262.958 322.506 262.958 322.002V316.116H261.716V314.586H262.958V311.49H264.938V314.586H266.99V316.116H264.938V321.372C264.962 321.696 265.064 321.936 265.244 322.092C265.436 322.248 265.67 322.326 265.946 322.326C266.222 322.326 266.486 322.278 266.738 322.182C266.99 322.086 267.176 322.008 267.296 321.948L267.71 323.514ZM273.225 324.18C272.493 324.18 271.827 324.054 271.227 323.802C270.639 323.538 270.129 323.184 269.697 322.74C269.265 322.284 268.929 321.768 268.689 321.192C268.461 320.604 268.347 319.98 268.347 319.32C268.347 318.432 268.551 317.622 268.959 316.89C269.367 316.146 269.937 315.552 270.669 315.108C271.401 314.652 272.259 314.424 273.243 314.424C274.227 314.424 275.073 314.652 275.781 315.108C276.501 315.552 277.059 316.14 277.455 316.872C277.851 317.604 278.049 318.39 278.049 319.23C278.049 319.374 278.043 319.512 278.031 319.644C278.019 319.764 278.007 319.866 277.995 319.95H270.453C270.489 320.502 270.639 320.988 270.903 321.408C271.179 321.816 271.527 322.14 271.947 322.38C272.367 322.608 272.817 322.722 273.297 322.722C273.825 322.722 274.323 322.59 274.791 322.326C275.271 322.062 275.595 321.714 275.763 321.282L277.455 321.768C277.251 322.224 276.939 322.638 276.519 323.01C276.111 323.37 275.625 323.658 275.061 323.874C274.497 324.078 273.885 324.18 273.225 324.18ZM270.399 318.636H276.087C276.051 318.096 275.895 317.622 275.619 317.214C275.355 316.794 275.013 316.47 274.593 316.242C274.185 316.002 273.729 315.882 273.225 315.882C272.733 315.882 272.277 316.002 271.857 316.242C271.449 316.47 271.113 316.794 270.849 317.214C270.585 317.622 270.435 318.096 270.399 318.636ZM284.956 316.296C284.188 316.308 283.504 316.482 282.904 316.818C282.316 317.154 281.896 317.628 281.644 318.24V324H279.664V314.586H281.5V316.692C281.824 316.044 282.25 315.528 282.778 315.144C283.306 314.748 283.864 314.532 284.452 314.496C284.572 314.496 284.668 314.496 284.74 314.496C284.824 314.496 284.896 314.502 284.956 314.514V316.296ZM290.486 324.18C289.754 324.18 289.088 324.054 288.488 323.802C287.9 323.538 287.39 323.184 286.958 322.74C286.526 322.284 286.19 321.768 285.95 321.192C285.722 320.604 285.608 319.98 285.608 319.32C285.608 318.432 285.812 317.622 286.22 316.89C286.628 316.146 287.198 315.552 287.93 315.108C288.662 314.652 289.52 314.424 290.504 314.424C291.488 314.424 292.334 314.652 293.042 315.108C293.762 315.552 294.32 316.14 294.716 316.872C295.112 317.604 295.31 318.39 295.31 319.23C295.31 319.374 295.304 319.512 295.292 319.644C295.28 319.764 295.268 319.866 295.256 319.95H287.714C287.75 320.502 287.9 320.988 288.164 321.408C288.44 321.816 288.788 322.14 289.208 322.38C289.628 322.608 290.078 322.722 290.558 322.722C291.086 322.722 291.584 322.59 292.052 322.326C292.532 322.062 292.856 321.714 293.024 321.282L294.716 321.768C294.512 322.224 294.2 322.638 293.78 323.01C293.372 323.37 292.886 323.658 292.322 323.874C291.758 324.078 291.146 324.18 290.486 324.18ZM287.66 318.636H293.348C293.312 318.096 293.156 317.622 292.88 317.214C292.616 316.794 292.274 316.47 291.854 316.242C291.446 316.002 290.99 315.882 290.486 315.882C289.994 315.882 289.538 316.002 289.118 316.242C288.71 316.47 288.374 316.794 288.11 317.214C287.846 317.622 287.696 318.096 287.66 318.636ZM296.331 319.302C296.331 318.402 296.511 317.586 296.871 316.854C297.243 316.11 297.747 315.522 298.383 315.09C299.019 314.646 299.751 314.424 300.579 314.424C301.299 314.424 301.947 314.61 302.523 314.982C303.111 315.354 303.567 315.816 303.891 316.368V310.86H305.871V321.768C305.871 321.996 305.913 322.158 305.997 322.254C306.081 322.35 306.219 322.404 306.411 322.416V324C306.039 324.06 305.751 324.09 305.547 324.09C305.175 324.09 304.857 323.982 304.593 323.766C304.341 323.55 304.209 323.292 304.197 322.992L304.179 322.29C303.819 322.89 303.333 323.358 302.721 323.694C302.109 324.018 301.473 324.18 300.813 324.18C300.165 324.18 299.565 324.054 299.013 323.802C298.473 323.55 297.999 323.196 297.591 322.74C297.195 322.284 296.883 321.762 296.655 321.174C296.439 320.586 296.331 319.962 296.331 319.302ZM303.891 320.616V318.15C303.759 317.766 303.543 317.424 303.243 317.124C302.955 316.812 302.625 316.566 302.253 316.386C301.893 316.206 301.533 316.116 301.173 316.116C300.753 316.116 300.369 316.206 300.021 316.386C299.685 316.566 299.391 316.806 299.139 317.106C298.899 317.406 298.713 317.748 298.581 318.132C298.449 318.516 298.383 318.918 298.383 319.338C298.383 319.77 298.455 320.178 298.599 320.562C298.743 320.934 298.947 321.27 299.211 321.57C299.487 321.858 299.799 322.086 300.147 322.254C300.507 322.41 300.897 322.488 301.317 322.488C301.581 322.488 301.845 322.44 302.109 322.344C302.385 322.248 302.643 322.116 302.883 321.948C303.135 321.78 303.345 321.582 303.513 321.354C303.693 321.126 303.819 320.88 303.891 320.616ZM318.072 323.514C317.904 323.598 317.694 323.688 317.442 323.784C317.19 323.88 316.902 323.964 316.578 324.036C316.266 324.108 315.942 324.144 315.606 324.144C315.198 324.144 314.82 324.072 314.472 323.928C314.124 323.784 313.842 323.556 313.626 323.244C313.422 322.92 313.32 322.506 313.32 322.002V316.116H312.078V314.586H313.32V311.49H315.3V314.586H317.352V316.116H315.3V321.372C315.324 321.696 315.426 321.936 315.606 322.092C315.798 322.248 316.032 322.326 316.308 322.326C316.584 322.326 316.848 322.278 317.1 322.182C317.352 322.086 317.538 322.008 317.658 321.948L318.072 323.514ZM327.885 324H325.905V318.726C325.905 317.874 325.749 317.238 325.437 316.818C325.125 316.398 324.687 316.188 324.123 316.188C323.775 316.188 323.415 316.284 323.043 316.476C322.671 316.668 322.341 316.932 322.053 317.268C321.765 317.592 321.555 317.97 321.423 318.402V324H319.443V310.86H321.423V316.476C321.783 315.84 322.275 315.342 322.899 314.982C323.523 314.61 324.195 314.424 324.915 314.424C325.503 314.424 325.989 314.526 326.373 314.73C326.757 314.934 327.057 315.216 327.273 315.576C327.501 315.924 327.657 316.332 327.741 316.8C327.837 317.256 327.885 317.742 327.885 318.258V324ZM335.475 316.296C334.707 316.308 334.023 316.482 333.423 316.818C332.835 317.154 332.415 317.628 332.163 318.24V324H330.183V314.586H332.019V316.692C332.343 316.044 332.769 315.528 333.297 315.144C333.825 314.748 334.383 314.532 334.971 314.496C335.091 314.496 335.187 314.496 335.259 314.496C335.343 314.496 335.415 314.502 335.475 314.514V316.296ZM340.97 324.18C340.226 324.18 339.56 324.054 338.972 323.802C338.384 323.538 337.874 323.178 337.442 322.722C337.022 322.266 336.698 321.75 336.47 321.174C336.242 320.586 336.128 319.962 336.128 319.302C336.128 318.642 336.242 318.018 336.47 317.43C336.698 316.842 337.022 316.326 337.442 315.882C337.874 315.426 338.384 315.072 338.972 314.82C339.572 314.556 340.238 314.424 340.97 314.424C341.702 314.424 342.362 314.556 342.95 314.82C343.55 315.072 344.06 315.426 344.48 315.882C344.912 316.326 345.242 316.842 345.47 317.43C345.698 318.018 345.812 318.642 345.812 319.302C345.812 319.962 345.698 320.586 345.47 321.174C345.242 321.75 344.912 322.266 344.48 322.722C344.06 323.178 343.55 323.538 342.95 323.802C342.362 324.054 341.702 324.18 340.97 324.18ZM338.162 319.32C338.162 319.92 338.288 320.46 338.54 320.94C338.792 321.42 339.128 321.798 339.548 322.074C339.968 322.35 340.442 322.488 340.97 322.488C341.486 322.488 341.954 322.35 342.374 322.074C342.806 321.786 343.148 321.402 343.4 320.922C343.652 320.43 343.778 319.89 343.778 319.302C343.778 318.702 343.652 318.162 343.4 317.682C343.148 317.202 342.806 316.824 342.374 316.548C341.954 316.26 341.486 316.116 340.97 316.116C340.442 316.116 339.968 316.26 339.548 316.548C339.128 316.836 338.792 317.22 338.54 317.7C338.288 318.168 338.162 318.708 338.162 319.32ZM347.478 320.346V314.586H349.458V319.95C349.458 320.79 349.608 321.426 349.908 321.858C350.22 322.278 350.67 322.488 351.258 322.488C351.63 322.488 351.99 322.41 352.338 322.254C352.698 322.098 353.022 321.87 353.31 321.57C353.61 321.258 353.85 320.886 354.03 320.454V314.586H356.01V321.768C356.01 321.996 356.052 322.158 356.136 322.254C356.22 322.35 356.358 322.404 356.55 322.416V324C356.346 324.036 356.178 324.06 356.046 324.072C355.914 324.084 355.788 324.09 355.668 324.09C355.308 324.09 355.008 323.994 354.768 323.802C354.528 323.598 354.39 323.34 354.354 323.028L354.318 322.092C353.898 322.776 353.352 323.298 352.68 323.658C352.008 324.006 351.27 324.18 350.466 324.18C349.482 324.18 348.738 323.856 348.234 323.208C347.73 322.56 347.478 321.606 347.478 320.346ZM362.263 324.09C361.627 324.09 361.045 323.964 360.517 323.712C359.989 323.448 359.533 323.094 359.149 322.65C358.777 322.206 358.483 321.696 358.267 321.12C358.063 320.544 357.961 319.938 357.961 319.302C357.961 318.63 358.069 318 358.285 317.412C358.501 316.824 358.801 316.308 359.185 315.864C359.581 315.408 360.043 315.054 360.571 314.802C361.099 314.55 361.687 314.424 362.335 314.424C363.091 314.424 363.751 314.604 364.315 314.964C364.891 315.324 365.365 315.792 365.737 316.368V314.586H367.483V323.73C367.483 324.642 367.261 325.416 366.817 326.052C366.385 326.688 365.791 327.174 365.035 327.51C364.279 327.846 363.427 328.014 362.479 328.014C361.435 328.014 360.571 327.834 359.887 327.474C359.203 327.114 358.621 326.622 358.141 325.998L359.257 324.954C359.617 325.458 360.079 325.842 360.643 326.106C361.219 326.37 361.831 326.502 362.479 326.502C363.019 326.502 363.517 326.4 363.973 326.196C364.441 326.004 364.813 325.698 365.089 325.278C365.365 324.87 365.503 324.354 365.503 323.73V322.29C365.167 322.854 364.705 323.298 364.117 323.622C363.529 323.934 362.911 324.09 362.263 324.09ZM362.911 322.488C363.211 322.488 363.499 322.44 363.775 322.344C364.051 322.236 364.303 322.098 364.531 321.93C364.771 321.75 364.975 321.552 365.143 321.336C365.311 321.108 365.431 320.868 365.503 320.616V318.15C365.347 317.742 365.125 317.388 364.837 317.088C364.549 316.776 364.225 316.536 363.865 316.368C363.505 316.2 363.139 316.116 362.767 316.116C362.335 316.116 361.945 316.212 361.597 316.404C361.261 316.584 360.973 316.83 360.733 317.142C360.493 317.442 360.307 317.784 360.175 318.168C360.043 318.552 359.977 318.948 359.977 319.356C359.977 319.788 360.049 320.19 360.193 320.562C360.349 320.934 360.559 321.27 360.823 321.57C361.087 321.858 361.399 322.086 361.759 322.254C362.119 322.41 362.503 322.488 362.911 322.488ZM378.299 324H376.319V318.726C376.319 317.874 376.163 317.238 375.851 316.818C375.539 316.398 375.101 316.188 374.537 316.188C374.189 316.188 373.829 316.284 373.457 316.476C373.085 316.668 372.755 316.932 372.467 317.268C372.179 317.592 371.969 317.97 371.837 318.402V324H369.857V310.86H371.837V316.476C372.197 315.84 372.689 315.342 373.313 314.982C373.937 314.61 374.609 314.424 375.329 314.424C375.917 314.424 376.403 314.526 376.787 314.73C377.171 314.934 377.471 315.216 377.687 315.576C377.915 315.924 378.071 316.332 378.155 316.8C378.251 317.256 378.299 317.742 378.299 318.258V324ZM59.0948 349.246C59.0948 348.646 59.2628 348.124 59.5988 347.68C59.9468 347.224 60.4208 346.876 61.0208 346.636C61.6208 346.384 62.3168 346.258 63.1088 346.258C63.5288 346.258 63.9548 346.288 64.3868 346.348C64.8308 346.408 65.2208 346.504 65.5568 346.636V346.042C65.5568 345.382 65.3588 344.866 64.9628 344.494C64.5668 344.122 63.9968 343.936 63.2528 343.936C62.7248 343.936 62.2268 344.032 61.7588 344.224C61.2908 344.404 60.7928 344.662 60.2648 344.998L59.5988 343.666C60.2228 343.246 60.8468 342.934 61.4708 342.73C62.1068 342.526 62.7728 342.424 63.4688 342.424C64.7288 342.424 65.7188 342.76 66.4388 343.432C67.1708 344.092 67.5368 345.034 67.5368 346.258V349.768C67.5368 349.996 67.5728 350.158 67.6448 350.254C67.7288 350.35 67.8668 350.404 68.0588 350.416V352C67.8788 352.036 67.7168 352.06 67.5728 352.072C67.4288 352.084 67.3088 352.09 67.2128 352.09C66.7928 352.09 66.4748 351.988 66.2588 351.784C66.0428 351.58 65.9168 351.34 65.8808 351.064L65.8268 350.524C65.4188 351.052 64.8968 351.46 64.2608 351.748C63.6248 352.036 62.9828 352.18 62.3348 352.18C61.7108 352.18 61.1528 352.054 60.6608 351.802C60.1688 351.538 59.7848 351.184 59.5088 350.74C59.2328 350.296 59.0948 349.798 59.0948 349.246ZM65.0888 349.822C65.2328 349.666 65.3468 349.51 65.4308 349.354C65.5148 349.198 65.5568 349.06 65.5568 348.94V347.86C65.2208 347.728 64.8668 347.632 64.4948 347.572C64.1228 347.5 63.7568 347.464 63.3968 347.464C62.6768 347.464 62.0888 347.608 61.6328 347.896C61.1888 348.184 60.9668 348.58 60.9668 349.084C60.9668 349.36 61.0388 349.624 61.1828 349.876C61.3388 350.128 61.5548 350.332 61.8308 350.488C62.1188 350.644 62.4728 350.722 62.8928 350.722C63.3248 350.722 63.7388 350.638 64.1348 350.47C64.5308 350.302 64.8488 350.086 65.0888 349.822ZM69.849 348.346V342.586H71.829V347.95C71.829 348.79 71.979 349.426 72.279 349.858C72.591 350.278 73.041 350.488 73.629 350.488C74.001 350.488 74.361 350.41 74.709 350.254C75.069 350.098 75.393 349.87 75.681 349.57C75.981 349.258 76.221 348.886 76.401 348.454V342.586H78.381V349.768C78.381 349.996 78.423 350.158 78.507 350.254C78.591 350.35 78.729 350.404 78.921 350.416V352C78.717 352.036 78.549 352.06 78.417 352.072C78.285 352.084 78.159 352.09 78.039 352.09C77.679 352.09 77.379 351.994 77.139 351.802C76.899 351.598 76.761 351.34 76.725 351.028L76.689 350.092C76.269 350.776 75.723 351.298 75.051 351.658C74.379 352.006 73.641 352.18 72.837 352.18C71.853 352.18 71.109 351.856 70.605 351.208C70.101 350.56 69.849 349.606 69.849 348.346ZM86.1281 351.514C85.9601 351.598 85.7501 351.688 85.4981 351.784C85.2461 351.88 84.9581 351.964 84.6341 352.036C84.3221 352.108 83.9981 352.144 83.6621 352.144C83.2541 352.144 82.8761 352.072 82.5281 351.928C82.1801 351.784 81.8981 351.556 81.6821 351.244C81.4781 350.92 81.3761 350.506 81.3761 350.002V344.116H80.1341V342.586H81.3761V339.49H83.3561V342.586H85.4081V344.116H83.3561V349.372C83.3801 349.696 83.4821 349.936 83.6621 350.092C83.8541 350.248 84.0881 350.326 84.3641 350.326C84.6401 350.326 84.9041 350.278 85.1561 350.182C85.4081 350.086 85.5941 350.008 85.7141 349.948L86.1281 351.514ZM95.9415 352H93.9615V346.726C93.9615 345.874 93.8055 345.238 93.4935 344.818C93.1815 344.398 92.7435 344.188 92.1795 344.188C91.8315 344.188 91.4715 344.284 91.0995 344.476C90.7275 344.668 90.3975 344.932 90.1095 345.268C89.8215 345.592 89.6115 345.97 89.4795 346.402V352H87.4995V338.86H89.4795V344.476C89.8395 343.84 90.3315 343.342 90.9555 342.982C91.5795 342.61 92.2515 342.424 92.9715 342.424C93.5595 342.424 94.0455 342.526 94.4295 342.73C94.8135 342.934 95.1135 343.216 95.3295 343.576C95.5575 343.924 95.7135 344.332 95.7975 344.8C95.8935 345.256 95.9415 345.742 95.9415 346.258V352ZM102.506 352.18C101.774 352.18 101.108 352.054 100.508 351.802C99.9198 351.538 99.4098 351.184 98.9778 350.74C98.5458 350.284 98.2098 349.768 97.9698 349.192C97.7418 348.604 97.6278 347.98 97.6278 347.32C97.6278 346.432 97.8318 345.622 98.2398 344.89C98.6478 344.146 99.2178 343.552 99.9498 343.108C100.682 342.652 101.54 342.424 102.524 342.424C103.508 342.424 104.354 342.652 105.062 343.108C105.782 343.552 106.34 344.14 106.736 344.872C107.132 345.604 107.33 346.39 107.33 347.23C107.33 347.374 107.324 347.512 107.312 347.644C107.3 347.764 107.288 347.866 107.276 347.95H99.7338C99.7698 348.502 99.9198 348.988 100.184 349.408C100.46 349.816 100.808 350.14 101.228 350.38C101.648 350.608 102.098 350.722 102.578 350.722C103.106 350.722 103.604 350.59 104.072 350.326C104.552 350.062 104.876 349.714 105.044 349.282L106.736 349.768C106.532 350.224 106.22 350.638 105.8 351.01C105.392 351.37 104.906 351.658 104.342 351.874C103.778 352.078 103.166 352.18 102.506 352.18ZM99.6798 346.636H105.368C105.332 346.096 105.176 345.622 104.9 345.214C104.636 344.794 104.294 344.47 103.874 344.242C103.466 344.002 103.01 343.882 102.506 343.882C102.014 343.882 101.558 344.002 101.138 344.242C100.73 344.47 100.394 344.794 100.13 345.214C99.8658 345.622 99.7158 346.096 99.6798 346.636ZM117.387 352H115.407V346.726C115.407 345.85 115.263 345.208 114.975 344.8C114.699 344.392 114.285 344.188 113.733 344.188C113.349 344.188 112.965 344.284 112.581 344.476C112.209 344.668 111.873 344.932 111.573 345.268C111.273 345.592 111.057 345.97 110.925 346.402V352H108.945V342.586H110.745V344.476C110.985 344.056 111.297 343.696 111.681 343.396C112.077 343.084 112.521 342.844 113.013 342.676C113.505 342.508 114.027 342.424 114.579 342.424C115.143 342.424 115.605 342.526 115.965 342.73C116.337 342.934 116.625 343.216 116.829 343.576C117.045 343.924 117.189 344.332 117.261 344.8C117.345 345.256 117.387 345.742 117.387 346.258V352ZM124.853 351.514C124.685 351.598 124.475 351.688 124.223 351.784C123.971 351.88 123.683 351.964 123.359 352.036C123.047 352.108 122.723 352.144 122.387 352.144C121.979 352.144 121.601 352.072 121.253 351.928C120.905 351.784 120.623 351.556 120.407 351.244C120.203 350.92 120.101 350.506 120.101 350.002V344.116H118.859V342.586H120.101V339.49H122.081V342.586H124.133V344.116H122.081V349.372C122.105 349.696 122.207 349.936 122.387 350.092C122.579 350.248 122.813 350.326 123.089 350.326C123.365 350.326 123.629 350.278 123.881 350.182C124.133 350.086 124.319 350.008 124.439 349.948L124.853 351.514ZM126.224 352V342.586H128.204V352H126.224ZM126.224 341.038V338.86H128.204V341.038H126.224ZM134.85 352.18C134.118 352.18 133.452 352.054 132.852 351.802C132.264 351.538 131.754 351.178 131.322 350.722C130.89 350.266 130.554 349.744 130.314 349.156C130.086 348.568 129.972 347.944 129.972 347.284C129.972 346.396 130.17 345.586 130.566 344.854C130.974 344.122 131.538 343.534 132.258 343.09C132.99 342.646 133.854 342.424 134.85 342.424C135.81 342.424 136.644 342.64 137.352 343.072C138.072 343.492 138.6 344.056 138.936 344.764L137.01 345.376C136.794 344.98 136.488 344.674 136.092 344.458C135.708 344.23 135.282 344.116 134.814 344.116C134.286 344.116 133.806 344.254 133.374 344.53C132.954 344.794 132.618 345.166 132.366 345.646C132.126 346.114 132.006 346.66 132.006 347.284C132.006 347.884 132.132 348.43 132.384 348.922C132.636 349.402 132.972 349.786 133.392 350.074C133.824 350.35 134.304 350.488 134.832 350.488C135.156 350.488 135.468 350.434 135.768 350.326C136.08 350.206 136.35 350.05 136.578 349.858C136.806 349.654 136.968 349.432 137.064 349.192L139.008 349.768C138.804 350.236 138.498 350.65 138.09 351.01C137.694 351.37 137.22 351.658 136.668 351.874C136.128 352.078 135.522 352.18 134.85 352.18ZM153.527 352H151.547V346.726C151.547 345.85 151.403 345.208 151.115 344.8C150.839 344.392 150.425 344.188 149.873 344.188C149.489 344.188 149.105 344.284 148.721 344.476C148.349 344.668 148.013 344.932 147.713 345.268C147.413 345.592 147.197 345.97 147.065 346.402V352H145.085V342.586H146.885V344.476C147.125 344.056 147.437 343.696 147.821 343.396C148.217 343.084 148.661 342.844 149.153 342.676C149.645 342.508 150.167 342.424 150.719 342.424C151.283 342.424 151.745 342.526 152.105 342.73C152.477 342.934 152.765 343.216 152.969 343.576C153.185 343.924 153.329 344.332 153.401 344.8C153.485 345.256 153.527 345.742 153.527 346.258V352ZM160.092 352.18C159.36 352.18 158.694 352.054 158.094 351.802C157.506 351.538 156.996 351.184 156.564 350.74C156.132 350.284 155.796 349.768 155.556 349.192C155.328 348.604 155.214 347.98 155.214 347.32C155.214 346.432 155.418 345.622 155.826 344.89C156.234 344.146 156.804 343.552 157.536 343.108C158.268 342.652 159.126 342.424 160.11 342.424C161.094 342.424 161.94 342.652 162.648 343.108C163.368 343.552 163.926 344.14 164.322 344.872C164.718 345.604 164.916 346.39 164.916 347.23C164.916 347.374 164.91 347.512 164.898 347.644C164.886 347.764 164.874 347.866 164.862 347.95H157.32C157.356 348.502 157.506 348.988 157.77 349.408C158.046 349.816 158.394 350.14 158.814 350.38C159.234 350.608 159.684 350.722 160.164 350.722C160.692 350.722 161.19 350.59 161.658 350.326C162.138 350.062 162.462 349.714 162.63 349.282L164.322 349.768C164.118 350.224 163.806 350.638 163.386 351.01C162.978 351.37 162.492 351.658 161.928 351.874C161.364 352.078 160.752 352.18 160.092 352.18ZM157.266 346.636H162.954C162.918 346.096 162.762 345.622 162.486 345.214C162.222 344.794 161.88 344.47 161.46 344.242C161.052 344.002 160.596 343.882 160.092 343.882C159.6 343.882 159.144 344.002 158.724 344.242C158.316 344.47 157.98 344.794 157.716 345.214C157.452 345.622 157.302 346.096 157.266 346.636ZM171.681 351.514C171.513 351.598 171.303 351.688 171.051 351.784C170.799 351.88 170.511 351.964 170.187 352.036C169.875 352.108 169.551 352.144 169.215 352.144C168.807 352.144 168.429 352.072 168.081 351.928C167.733 351.784 167.451 351.556 167.235 351.244C167.031 350.92 166.929 350.506 166.929 350.002V344.116H165.687V342.586H166.929V339.49H168.909V342.586H170.961V344.116H168.909V349.372C168.933 349.696 169.035 349.936 169.215 350.092C169.407 350.248 169.641 350.326 169.917 350.326C170.193 350.326 170.457 350.278 170.709 350.182C170.961 350.086 171.147 350.008 171.267 349.948L171.681 351.514ZM184.771 342.586H186.661L182.701 352H181.009L179.317 347.752L177.625 352H175.933L171.955 342.586H173.845L176.869 350.074L178.201 346.6L176.581 342.604H178.255L179.317 345.538L180.361 342.604H182.035L180.433 346.6L181.765 350.074L184.771 342.586ZM191.89 352.18C191.146 352.18 190.48 352.054 189.892 351.802C189.304 351.538 188.794 351.178 188.362 350.722C187.942 350.266 187.618 349.75 187.39 349.174C187.162 348.586 187.048 347.962 187.048 347.302C187.048 346.642 187.162 346.018 187.39 345.43C187.618 344.842 187.942 344.326 188.362 343.882C188.794 343.426 189.304 343.072 189.892 342.82C190.492 342.556 191.158 342.424 191.89 342.424C192.622 342.424 193.282 342.556 193.87 342.82C194.47 343.072 194.98 343.426 195.4 343.882C195.832 344.326 196.162 344.842 196.39 345.43C196.618 346.018 196.732 346.642 196.732 347.302C196.732 347.962 196.618 348.586 196.39 349.174C196.162 349.75 195.832 350.266 195.4 350.722C194.98 351.178 194.47 351.538 193.87 351.802C193.282 352.054 192.622 352.18 191.89 352.18ZM189.082 347.32C189.082 347.92 189.208 348.46 189.46 348.94C189.712 349.42 190.048 349.798 190.468 350.074C190.888 350.35 191.362 350.488 191.89 350.488C192.406 350.488 192.874 350.35 193.294 350.074C193.726 349.786 194.068 349.402 194.32 348.922C194.572 348.43 194.698 347.89 194.698 347.302C194.698 346.702 194.572 346.162 194.32 345.682C194.068 345.202 193.726 344.824 193.294 344.548C192.874 344.26 192.406 344.116 191.89 344.116C191.362 344.116 190.888 344.26 190.468 344.548C190.048 344.836 189.712 345.22 189.46 345.7C189.208 346.168 189.082 346.708 189.082 347.32ZM203.78 344.296C203.012 344.308 202.328 344.482 201.728 344.818C201.14 345.154 200.72 345.628 200.468 346.24V352H198.488V342.586H200.324V344.692C200.648 344.044 201.074 343.528 201.602 343.144C202.13 342.748 202.688 342.532 203.276 342.496C203.396 342.496 203.492 342.496 203.564 342.496C203.648 342.496 203.72 342.502 203.78 342.514V344.296ZM211.772 352L208.748 347.662L207.2 349.138V352H205.22V338.86H207.2V347.14L211.556 342.604H213.68L210.026 346.546L213.878 352H211.772ZM215.082 352V342.586H217.062V352H215.082ZM215.082 341.038V338.86H217.062V341.038H215.082ZM227.883 352H225.903V346.726C225.903 345.85 225.759 345.208 225.471 344.8C225.195 344.392 224.781 344.188 224.229 344.188C223.845 344.188 223.461 344.284 223.077 344.476C222.705 344.668 222.369 344.932 222.069 345.268C221.769 345.592 221.553 345.97 221.421 346.402V352H219.441V342.586H221.241V344.476C221.481 344.056 221.793 343.696 222.177 343.396C222.573 343.084 223.017 342.844 223.509 342.676C224.001 342.508 224.523 342.424 225.075 342.424C225.639 342.424 226.101 342.526 226.461 342.73C226.833 342.934 227.121 343.216 227.325 343.576C227.541 343.924 227.685 344.332 227.757 344.8C227.841 345.256 227.883 345.742 227.883 346.258V352ZM233.907 352.09C233.271 352.09 232.689 351.964 232.161 351.712C231.633 351.448 231.177 351.094 230.793 350.65C230.421 350.206 230.127 349.696 229.911 349.12C229.707 348.544 229.605 347.938 229.605 347.302C229.605 346.63 229.713 346 229.929 345.412C230.145 344.824 230.445 344.308 230.829 343.864C231.225 343.408 231.687 343.054 232.215 342.802C232.743 342.55 233.331 342.424 233.979 342.424C234.735 342.424 235.395 342.604 235.959 342.964C236.535 343.324 237.009 343.792 237.381 344.368V342.586H239.127V351.73C239.127 352.642 238.905 353.416 238.461 354.052C238.029 354.688 237.435 355.174 236.679 355.51C235.923 355.846 235.071 356.014 234.123 356.014C233.079 356.014 232.215 355.834 231.531 355.474C230.847 355.114 230.265 354.622 229.785 353.998L230.901 352.954C231.261 353.458 231.723 353.842 232.287 354.106C232.863 354.37 233.475 354.502 234.123 354.502C234.663 354.502 235.161 354.4 235.617 354.196C236.085 354.004 236.457 353.698 236.733 353.278C237.009 352.87 237.147 352.354 237.147 351.73V350.29C236.811 350.854 236.349 351.298 235.761 351.622C235.173 351.934 234.555 352.09 233.907 352.09ZM234.555 350.488C234.855 350.488 235.143 350.44 235.419 350.344C235.695 350.236 235.947 350.098 236.175 349.93C236.415 349.75 236.619 349.552 236.787 349.336C236.955 349.108 237.075 348.868 237.147 348.616V346.15C236.991 345.742 236.769 345.388 236.481 345.088C236.193 344.776 235.869 344.536 235.509 344.368C235.149 344.2 234.783 344.116 234.411 344.116C233.979 344.116 233.589 344.212 233.241 344.404C232.905 344.584 232.617 344.83 232.377 345.142C232.137 345.442 231.951 345.784 231.819 346.168C231.687 346.552 231.621 346.948 231.621 347.356C231.621 347.788 231.693 348.19 231.837 348.562C231.993 348.934 232.203 349.27 232.467 349.57C232.731 349.858 233.043 350.086 233.403 350.254C233.763 350.41 234.147 350.488 234.555 350.488ZM250.215 352.18C249.483 352.18 248.817 352.054 248.217 351.802C247.629 351.538 247.119 351.184 246.687 350.74C246.255 350.284 245.919 349.768 245.679 349.192C245.451 348.604 245.337 347.98 245.337 347.32C245.337 346.432 245.541 345.622 245.949 344.89C246.357 344.146 246.927 343.552 247.659 343.108C248.391 342.652 249.249 342.424 250.233 342.424C251.217 342.424 252.063 342.652 252.771 343.108C253.491 343.552 254.049 344.14 254.445 344.872C254.841 345.604 255.039 346.39 255.039 347.23C255.039 347.374 255.033 347.512 255.021 347.644C255.009 347.764 254.997 347.866 254.985 347.95H247.443C247.479 348.502 247.629 348.988 247.893 349.408C248.169 349.816 248.517 350.14 248.937 350.38C249.357 350.608 249.807 350.722 250.287 350.722C250.815 350.722 251.313 350.59 251.781 350.326C252.261 350.062 252.585 349.714 252.753 349.282L254.445 349.768C254.241 350.224 253.929 350.638 253.509 351.01C253.101 351.37 252.615 351.658 252.051 351.874C251.487 352.078 250.875 352.18 250.215 352.18ZM247.389 346.636H253.077C253.041 346.096 252.885 345.622 252.609 345.214C252.345 344.794 252.003 344.47 251.583 344.242C251.175 344.002 250.719 343.882 250.215 343.882C249.723 343.882 249.267 344.002 248.847 344.242C248.439 344.47 248.103 344.794 247.839 345.214C247.575 345.622 247.425 346.096 247.389 346.636ZM257.418 342.586L259.65 345.808L259.812 346.114L259.974 345.808L262.188 342.586H264.33L260.946 347.302L264.366 352H262.224L259.974 348.796L259.812 348.508L259.65 348.796L257.4 352H255.258L258.678 347.32L255.294 342.586H257.418ZM271.053 352.18C270.297 352.18 269.631 352 269.055 351.64C268.479 351.28 268.023 350.812 267.687 350.236V355.834H265.707V342.586H267.453V344.278C267.813 343.714 268.281 343.264 268.857 342.928C269.433 342.592 270.075 342.424 270.783 342.424C271.431 342.424 272.025 342.556 272.565 342.82C273.105 343.072 273.573 343.426 273.969 343.882C274.365 344.338 274.671 344.86 274.887 345.448C275.115 346.024 275.229 346.636 275.229 347.284C275.229 348.184 275.049 349.006 274.689 349.75C274.341 350.494 273.849 351.088 273.213 351.532C272.589 351.964 271.869 352.18 271.053 352.18ZM270.405 350.488C270.825 350.488 271.203 350.398 271.539 350.218C271.887 350.038 272.181 349.798 272.421 349.498C272.673 349.198 272.865 348.856 272.997 348.472C273.129 348.088 273.195 347.692 273.195 347.284C273.195 346.852 273.123 346.444 272.979 346.06C272.835 345.676 272.625 345.34 272.349 345.052C272.085 344.764 271.773 344.536 271.413 344.368C271.065 344.2 270.681 344.116 270.261 344.116C270.009 344.116 269.745 344.164 269.469 344.26C269.193 344.356 268.935 344.488 268.695 344.656C268.455 344.824 268.245 345.022 268.065 345.25C267.885 345.478 267.759 345.718 267.687 345.97V348.436C267.855 348.82 268.077 349.168 268.353 349.48C268.629 349.78 268.947 350.026 269.307 350.218C269.667 350.398 270.033 350.488 270.405 350.488ZM281.275 352.18C280.543 352.18 279.877 352.054 279.277 351.802C278.689 351.538 278.179 351.184 277.747 350.74C277.315 350.284 276.979 349.768 276.739 349.192C276.511 348.604 276.397 347.98 276.397 347.32C276.397 346.432 276.601 345.622 277.009 344.89C277.417 344.146 277.987 343.552 278.719 343.108C279.451 342.652 280.309 342.424 281.293 342.424C282.277 342.424 283.123 342.652 283.831 343.108C284.551 343.552 285.109 344.14 285.505 344.872C285.901 345.604 286.099 346.39 286.099 347.23C286.099 347.374 286.093 347.512 286.081 347.644C286.069 347.764 286.057 347.866 286.045 347.95H278.503C278.539 348.502 278.689 348.988 278.953 349.408C279.229 349.816 279.577 350.14 279.997 350.38C280.417 350.608 280.867 350.722 281.347 350.722C281.875 350.722 282.373 350.59 282.841 350.326C283.321 350.062 283.645 349.714 283.813 349.282L285.505 349.768C285.301 350.224 284.989 350.638 284.569 351.01C284.161 351.37 283.675 351.658 283.111 351.874C282.547 352.078 281.935 352.18 281.275 352.18ZM278.449 346.636H284.137C284.101 346.096 283.945 345.622 283.669 345.214C283.405 344.794 283.063 344.47 282.643 344.242C282.235 344.002 281.779 343.882 281.275 343.882C280.783 343.882 280.327 344.002 279.907 344.242C279.499 344.47 279.163 344.794 278.899 345.214C278.635 345.622 278.485 346.096 278.449 346.636ZM293.006 344.296C292.238 344.308 291.554 344.482 290.954 344.818C290.366 345.154 289.946 345.628 289.694 346.24V352H287.714V342.586H289.55V344.692C289.874 344.044 290.3 343.528 290.828 343.144C291.356 342.748 291.914 342.532 292.502 342.496C292.622 342.496 292.718 342.496 292.79 342.496C292.874 342.496 292.946 342.502 293.006 342.514V344.296ZM294.447 352V342.586H296.427V352H294.447ZM294.447 341.038V338.86H296.427V341.038H294.447ZM303.072 352.18C302.34 352.18 301.674 352.054 301.074 351.802C300.486 351.538 299.976 351.184 299.544 350.74C299.112 350.284 298.776 349.768 298.536 349.192C298.308 348.604 298.194 347.98 298.194 347.32C298.194 346.432 298.398 345.622 298.806 344.89C299.214 344.146 299.784 343.552 300.516 343.108C301.248 342.652 302.106 342.424 303.09 342.424C304.074 342.424 304.92 342.652 305.628 343.108C306.348 343.552 306.906 344.14 307.302 344.872C307.698 345.604 307.896 346.39 307.896 347.23C307.896 347.374 307.89 347.512 307.878 347.644C307.866 347.764 307.854 347.866 307.842 347.95H300.3C300.336 348.502 300.486 348.988 300.75 349.408C301.026 349.816 301.374 350.14 301.794 350.38C302.214 350.608 302.664 350.722 303.144 350.722C303.672 350.722 304.17 350.59 304.638 350.326C305.118 350.062 305.442 349.714 305.61 349.282L307.302 349.768C307.098 350.224 306.786 350.638 306.366 351.01C305.958 351.37 305.472 351.658 304.908 351.874C304.344 352.078 303.732 352.18 303.072 352.18ZM300.246 346.636H305.934C305.898 346.096 305.742 345.622 305.466 345.214C305.202 344.794 304.86 344.47 304.44 344.242C304.032 344.002 303.576 343.882 303.072 343.882C302.58 343.882 302.124 344.002 301.704 344.242C301.296 344.47 300.96 344.794 300.696 345.214C300.432 345.622 300.282 346.096 300.246 346.636ZM317.953 352H315.973V346.726C315.973 345.85 315.829 345.208 315.541 344.8C315.265 344.392 314.851 344.188 314.299 344.188C313.915 344.188 313.531 344.284 313.147 344.476C312.775 344.668 312.439 344.932 312.139 345.268C311.839 345.592 311.623 345.97 311.491 346.402V352H309.511V342.586H311.311V344.476C311.551 344.056 311.863 343.696 312.247 343.396C312.643 343.084 313.087 342.844 313.579 342.676C314.071 342.508 314.593 342.424 315.145 342.424C315.709 342.424 316.171 342.526 316.531 342.73C316.903 342.934 317.191 343.216 317.395 343.576C317.611 343.924 317.755 344.332 317.827 344.8C317.911 345.256 317.953 345.742 317.953 346.258V352ZM324.517 352.18C323.785 352.18 323.119 352.054 322.519 351.802C321.931 351.538 321.421 351.178 320.989 350.722C320.557 350.266 320.221 349.744 319.981 349.156C319.753 348.568 319.639 347.944 319.639 347.284C319.639 346.396 319.837 345.586 320.233 344.854C320.641 344.122 321.205 343.534 321.925 343.09C322.657 342.646 323.521 342.424 324.517 342.424C325.477 342.424 326.311 342.64 327.019 343.072C327.739 343.492 328.267 344.056 328.603 344.764L326.677 345.376C326.461 344.98 326.155 344.674 325.759 344.458C325.375 344.23 324.949 344.116 324.481 344.116C323.953 344.116 323.473 344.254 323.041 344.53C322.621 344.794 322.285 345.166 322.033 345.646C321.793 346.114 321.673 346.66 321.673 347.284C321.673 347.884 321.799 348.43 322.051 348.922C322.303 349.402 322.639 349.786 323.059 350.074C323.491 350.35 323.971 350.488 324.499 350.488C324.823 350.488 325.135 350.434 325.435 350.326C325.747 350.206 326.017 350.05 326.245 349.858C326.473 349.654 326.635 349.432 326.731 349.192L328.675 349.768C328.471 350.236 328.165 350.65 327.757 351.01C327.361 351.37 326.887 351.658 326.335 351.874C325.795 352.078 325.189 352.18 324.517 352.18ZM334.484 352.18C333.752 352.18 333.086 352.054 332.486 351.802C331.898 351.538 331.388 351.184 330.956 350.74C330.524 350.284 330.188 349.768 329.948 349.192C329.72 348.604 329.606 347.98 329.606 347.32C329.606 346.432 329.81 345.622 330.218 344.89C330.626 344.146 331.196 343.552 331.928 343.108C332.66 342.652 333.518 342.424 334.502 342.424C335.486 342.424 336.332 342.652 337.04 343.108C337.76 343.552 338.318 344.14 338.714 344.872C339.11 345.604 339.308 346.39 339.308 347.23C339.308 347.374 339.302 347.512 339.29 347.644C339.278 347.764 339.266 347.866 339.254 347.95H331.712C331.748 348.502 331.898 348.988 332.162 349.408C332.438 349.816 332.786 350.14 333.206 350.38C333.626 350.608 334.076 350.722 334.556 350.722C335.084 350.722 335.582 350.59 336.05 350.326C336.53 350.062 336.854 349.714 337.022 349.282L338.714 349.768C338.51 350.224 338.198 350.638 337.778 351.01C337.37 351.37 336.884 351.658 336.32 351.874C335.756 352.078 335.144 352.18 334.484 352.18ZM331.658 346.636H337.346C337.31 346.096 337.154 345.622 336.878 345.214C336.614 344.794 336.272 344.47 335.852 344.242C335.444 344.002 334.988 343.882 334.484 343.882C333.992 343.882 333.536 344.002 333.116 344.242C332.708 344.47 332.372 344.794 332.108 345.214C331.844 345.622 331.694 346.096 331.658 346.636ZM344.271 352.18C343.479 352.18 342.729 352.054 342.021 351.802C341.313 351.538 340.707 351.148 340.203 350.632L340.941 349.3C341.481 349.78 342.021 350.128 342.561 350.344C343.113 350.56 343.659 350.668 344.199 350.668C344.751 350.668 345.201 350.566 345.549 350.362C345.897 350.146 346.071 349.834 346.071 349.426C346.071 349.126 345.981 348.904 345.801 348.76C345.621 348.616 345.357 348.49 345.009 348.382C344.673 348.274 344.265 348.154 343.785 348.022C343.113 347.818 342.549 347.608 342.093 347.392C341.637 347.164 341.295 346.888 341.067 346.564C340.839 346.24 340.725 345.826 340.725 345.322C340.725 344.71 340.881 344.188 341.193 343.756C341.505 343.324 341.937 342.994 342.489 342.766C343.053 342.538 343.701 342.424 344.433 342.424C345.117 342.424 345.747 342.532 346.323 342.748C346.911 342.952 347.427 343.276 347.871 343.72L347.025 345.034C346.605 344.65 346.173 344.368 345.729 344.188C345.297 344.008 344.829 343.918 344.325 343.918C344.037 343.918 343.761 343.954 343.497 344.026C343.233 344.086 343.011 344.206 342.831 344.386C342.663 344.554 342.579 344.794 342.579 345.106C342.579 345.358 342.651 345.562 342.795 345.718C342.939 345.874 343.155 346.006 343.443 346.114C343.731 346.222 344.085 346.342 344.505 346.474C345.237 346.69 345.861 346.906 346.377 347.122C346.893 347.326 347.289 347.596 347.565 347.932C347.853 348.256 347.997 348.706 347.997 349.282C347.997 350.194 347.655 350.908 346.971 351.424C346.299 351.928 345.399 352.18 344.271 352.18ZM349.675 352V349.696H351.313V352H349.675Z" fill="#FF9D00"/>
<path d="M411 216H255.297V171.369C255.297 168.511 253.772 165.87 251.297 164.44L209.5 140.31C207.025 138.881 203.975 138.881 201.5 140.31L159.703 164.44C157.228 165.87 155.704 168.511 155.704 171.369V216H0V0H411V216Z" fill="#F99D1C"/>
<path d="M157.72 95V76.784L150.196 90.608H147.82L140.26 76.784V95H136.228V69.44H140.548L149.008 85.064L157.468 69.44H161.788V95H157.72ZM166.832 95V69.44H170.864V95H166.832ZM191.04 75.452C190.8 75.188 190.452 74.912 189.996 74.624C189.54 74.312 189 74.024 188.376 73.76C187.752 73.496 187.08 73.28 186.36 73.112C185.64 72.944 184.896 72.86 184.128 72.86C182.448 72.86 181.2 73.172 180.384 73.796C179.568 74.42 179.16 75.284 179.16 76.388C179.16 77.204 179.388 77.852 179.844 78.332C180.3 78.788 180.996 79.172 181.932 79.484C182.868 79.796 184.044 80.132 185.46 80.492C187.188 80.9 188.688 81.392 189.96 81.968C191.232 82.52 192.204 83.264 192.876 84.2C193.548 85.136 193.884 86.372 193.884 87.908C193.884 89.204 193.644 90.32 193.164 91.256C192.684 92.192 192.012 92.96 191.148 93.56C190.284 94.136 189.288 94.568 188.16 94.856C187.032 95.12 185.82 95.252 184.524 95.252C183.252 95.252 181.98 95.12 180.708 94.856C179.46 94.592 178.26 94.208 177.108 93.704C175.98 93.176 174.936 92.54 173.976 91.796L175.812 88.34C176.124 88.652 176.568 89 177.144 89.384C177.744 89.744 178.428 90.092 179.196 90.428C179.988 90.764 180.84 91.052 181.752 91.292C182.688 91.508 183.636 91.616 184.596 91.616C186.204 91.616 187.428 91.34 188.268 90.788C189.132 90.212 189.564 89.396 189.564 88.34C189.564 87.476 189.288 86.792 188.736 86.288C188.184 85.76 187.38 85.316 186.324 84.956C185.268 84.596 184.008 84.236 182.544 83.876C180.864 83.42 179.46 82.928 178.332 82.4C177.204 81.848 176.352 81.152 175.776 80.312C175.224 79.448 174.948 78.356 174.948 77.036C174.948 75.356 175.356 73.94 176.172 72.788C176.988 71.612 178.092 70.736 179.484 70.16C180.9 69.56 182.484 69.26 184.236 69.26C185.388 69.26 186.48 69.392 187.512 69.656C188.544 69.896 189.504 70.232 190.392 70.664C191.304 71.096 192.132 71.588 192.876 72.14L191.04 75.452ZM212.328 75.452C212.088 75.188 211.74 74.912 211.284 74.624C210.828 74.312 210.288 74.024 209.664 73.76C209.04 73.496 208.368 73.28 207.648 73.112C206.928 72.944 206.184 72.86 205.416 72.86C203.736 72.86 202.488 73.172 201.672 73.796C200.856 74.42 200.448 75.284 200.448 76.388C200.448 77.204 200.676 77.852 201.132 78.332C201.588 78.788 202.284 79.172 203.22 79.484C204.156 79.796 205.332 80.132 206.748 80.492C208.476 80.9 209.976 81.392 211.248 81.968C212.52 82.52 213.492 83.264 214.164 84.2C214.836 85.136 215.172 86.372 215.172 87.908C215.172 89.204 214.932 90.32 214.452 91.256C213.972 92.192 213.3 92.96 212.436 93.56C211.572 94.136 210.576 94.568 209.448 94.856C208.32 95.12 207.108 95.252 205.812 95.252C204.54 95.252 203.268 95.12 201.996 94.856C200.748 94.592 199.548 94.208 198.396 93.704C197.268 93.176 196.224 92.54 195.264 91.796L197.1 88.34C197.412 88.652 197.856 89 198.432 89.384C199.032 89.744 199.716 90.092 200.484 90.428C201.276 90.764 202.128 91.052 203.04 91.292C203.976 91.508 204.924 91.616 205.884 91.616C207.492 91.616 208.716 91.34 209.556 90.788C210.42 90.212 210.852 89.396 210.852 88.34C210.852 87.476 210.576 86.792 210.024 86.288C209.472 85.76 208.668 85.316 207.612 84.956C206.556 84.596 205.296 84.236 203.832 83.876C202.152 83.42 200.748 82.928 199.62 82.4C198.492 81.848 197.64 81.152 197.064 80.312C196.512 79.448 196.236 78.356 196.236 77.036C196.236 75.356 196.644 73.94 197.46 72.788C198.276 71.612 199.38 70.736 200.772 70.16C202.188 69.56 203.772 69.26 205.524 69.26C206.676 69.26 207.768 69.392 208.8 69.656C209.832 69.896 210.792 70.232 211.68 70.664C212.592 71.096 213.42 71.588 214.164 72.14L212.328 75.452ZM218.496 95V69.44H222.528V95H218.496ZM238.205 95.18C236.357 95.18 234.689 94.82 233.201 94.1C231.713 93.38 230.429 92.408 229.349 91.184C228.269 89.936 227.429 88.544 226.829 87.008C226.253 85.448 225.965 83.852 225.965 82.22C225.965 80.516 226.277 78.896 226.901 77.36C227.525 75.8 228.389 74.42 229.493 73.22C230.597 71.996 231.893 71.036 233.381 70.34C234.893 69.62 236.525 69.26 238.277 69.26C240.101 69.26 241.757 69.632 243.245 70.376C244.757 71.12 246.041 72.116 247.097 73.364C248.177 74.612 249.005 76.004 249.581 77.54C250.181 79.076 250.481 80.648 250.481 82.256C250.481 83.96 250.169 85.592 249.545 87.152C248.945 88.688 248.093 90.068 246.989 91.292C245.885 92.492 244.577 93.44 243.065 94.136C241.577 94.832 239.957 95.18 238.205 95.18ZM230.069 82.22C230.069 83.42 230.261 84.584 230.645 85.712C231.029 86.84 231.569 87.848 232.265 88.736C232.985 89.6 233.849 90.284 234.857 90.788C235.865 91.292 236.993 91.544 238.241 91.544C239.537 91.544 240.689 91.28 241.697 90.752C242.705 90.224 243.545 89.516 244.217 88.628C244.913 87.716 245.441 86.708 245.801 85.604C246.161 84.476 246.341 83.348 246.341 82.22C246.341 81.02 246.149 79.868 245.765 78.764C245.405 77.636 244.865 76.64 244.145 75.776C243.425 74.888 242.561 74.192 241.553 73.688C240.569 73.184 239.465 72.932 238.241 72.932C236.945 72.932 235.793 73.196 234.785 73.724C233.777 74.252 232.925 74.96 232.229 75.848C231.533 76.736 230.993 77.732 230.609 78.836C230.249 79.94 230.069 81.068 230.069 82.22ZM257.967 76.928V95H253.935V69.44H257.247L271.719 87.908V69.476H275.787V95H272.259L257.967 76.928Z" fill="white"/>
<path d="M201.5 146.309C203.975 144.88 207.025 144.88 209.5 146.309L246.1 167.441C248.576 168.87 250.1 171.511 250.1 174.369V216.631C250.1 219.489 248.576 222.13 246.1 223.559L209.5 244.691C207.025 246.12 203.975 246.12 201.5 244.691L164.9 223.559C162.424 222.13 160.9 219.489 160.9 216.631V174.369C160.9 171.511 162.424 168.87 164.9 167.441L201.5 146.309Z" fill="#F99D1C"/>
<path d="M213.093 171.933C204.108 168.845 193.75 170.886 186.58 178.056C176.557 188.08 176.557 204.331 186.58 214.355C196.604 224.378 212.855 224.378 222.878 214.355C230.049 207.185 232.09 196.827 229.001 187.842M211.845 180.882C205.597 177.982 197.94 179.108 192.785 184.262C186.189 190.858 186.189 201.553 192.785 208.149C199.381 214.745 210.076 214.745 216.672 208.149C221.827 202.995 222.953 195.339 220.053 189.09M204.635 188.092C202.59 188.115 200.552 188.907 198.992 190.468C195.823 193.637 195.823 198.774 198.992 201.943C202.16 205.112 207.298 205.112 210.467 201.943C212.027 200.382 212.819 198.345 212.842 196.3M204.729 196.206L218.223 182.712M218.223 182.712L224.216 183.6L231.935 175.882L225.941 174.994L225.053 169L217.334 176.718L218.223 182.712Z" stroke="white" stroke-width="3" stroke-linecap="round" stroke-linejoin="round"/>
<defs>
<linearGradient id="paint0_linear_778_5073" x1="205.5" y1="0" x2="205.5" y2="232" gradientUnits="userSpaceOnUse">
<stop stop-color="white" stop-opacity="0.4"/>
<stop offset="1" stop-color="#F99D1C" stop-opacity="0.35"/>
</linearGradient>
</defs>
</svg>
