<svg width="410" height="448" viewBox="0 0 410 448" fill="none" xmlns="http://www.w3.org/2000/svg">
<rect width="410" height="232" transform="translate(0 216)" fill="url(#paint0_linear_778_5085)"/>
<path d="M55.0924 285.002H50.8444V296H48.8104V285.002H44.5444V283.22H55.0924V285.002ZM58.8858 296.18C58.1418 296.18 57.4758 296.054 56.8878 295.802C56.2998 295.538 55.7898 295.178 55.3578 294.722C54.9378 294.266 54.6138 293.75 54.3858 293.174C54.1578 292.586 54.0438 291.962 54.0438 291.302C54.0438 290.642 54.1578 290.018 54.3858 289.43C54.6138 288.842 54.9378 288.326 55.3578 287.882C55.7898 287.426 56.2998 287.072 56.8878 286.82C57.4878 286.556 58.1538 286.424 58.8858 286.424C59.6178 286.424 60.2778 286.556 60.8658 286.82C61.4658 287.072 61.9758 287.426 62.3958 287.882C62.8278 288.326 63.1578 288.842 63.3858 289.43C63.6138 290.018 63.7278 290.642 63.7278 291.302C63.7278 291.962 63.6138 292.586 63.3858 293.174C63.1578 293.75 62.8278 294.266 62.3958 294.722C61.9758 295.178 61.4658 295.538 60.8658 295.802C60.2778 296.054 59.6178 296.18 58.8858 296.18ZM56.0778 291.32C56.0778 291.92 56.2038 292.46 56.4558 292.94C56.7078 293.42 57.0438 293.798 57.4638 294.074C57.8838 294.35 58.3578 294.488 58.8858 294.488C59.4018 294.488 59.8698 294.35 60.2898 294.074C60.7218 293.786 61.0638 293.402 61.3158 292.922C61.5678 292.43 61.6938 291.89 61.6938 291.302C61.6938 290.702 61.5678 290.162 61.3158 289.682C61.0638 289.202 60.7218 288.824 60.2898 288.548C59.8698 288.26 59.4018 288.116 58.8858 288.116C58.3578 288.116 57.8838 288.26 57.4638 288.548C57.0438 288.836 56.7078 289.22 56.4558 289.7C56.2038 290.168 56.0778 290.708 56.0778 291.32ZM75.2772 296.18C74.5212 296.18 73.8552 296 73.2792 295.64C72.7032 295.28 72.2472 294.812 71.9112 294.236V299.834H69.9312V286.586H71.6772V288.278C72.0372 287.714 72.5052 287.264 73.0812 286.928C73.6572 286.592 74.2992 286.424 75.0072 286.424C75.6552 286.424 76.2492 286.556 76.7892 286.82C77.3292 287.072 77.7972 287.426 78.1932 287.882C78.5892 288.338 78.8952 288.86 79.1112 289.448C79.3392 290.024 79.4532 290.636 79.4532 291.284C79.4532 292.184 79.2732 293.006 78.9132 293.75C78.5652 294.494 78.0732 295.088 77.4372 295.532C76.8132 295.964 76.0932 296.18 75.2772 296.18ZM74.6292 294.488C75.0492 294.488 75.4272 294.398 75.7632 294.218C76.1112 294.038 76.4052 293.798 76.6452 293.498C76.8972 293.198 77.0892 292.856 77.2212 292.472C77.3532 292.088 77.4192 291.692 77.4192 291.284C77.4192 290.852 77.3472 290.444 77.2032 290.06C77.0592 289.676 76.8492 289.34 76.5732 289.052C76.3092 288.764 75.9972 288.536 75.6372 288.368C75.2892 288.2 74.9052 288.116 74.4852 288.116C74.2332 288.116 73.9692 288.164 73.6932 288.26C73.4172 288.356 73.1592 288.488 72.9192 288.656C72.6792 288.824 72.4692 289.022 72.2892 289.25C72.1092 289.478 71.9832 289.718 71.9112 289.97V292.436C72.0792 292.82 72.3012 293.168 72.5772 293.48C72.8532 293.78 73.1712 294.026 73.5312 294.218C73.8912 294.398 74.2572 294.488 74.6292 294.488ZM86.5259 288.296C85.7579 288.308 85.0739 288.482 84.4739 288.818C83.8859 289.154 83.4659 289.628 83.2139 290.24V296H81.2339V286.586H83.0699V288.692C83.3939 288.044 83.8199 287.528 84.3479 287.144C84.8759 286.748 85.4339 286.532 86.0219 286.496C86.1419 286.496 86.2379 286.496 86.3099 286.496C86.3939 286.496 86.4659 286.502 86.5259 286.514V288.296ZM92.0205 296.18C91.2765 296.18 90.6105 296.054 90.0225 295.802C89.4345 295.538 88.9245 295.178 88.4925 294.722C88.0725 294.266 87.7485 293.75 87.5205 293.174C87.2925 292.586 87.1785 291.962 87.1785 291.302C87.1785 290.642 87.2925 290.018 87.5205 289.43C87.7485 288.842 88.0725 288.326 88.4925 287.882C88.9245 287.426 89.4345 287.072 90.0225 286.82C90.6225 286.556 91.2885 286.424 92.0205 286.424C92.7525 286.424 93.4125 286.556 94.0005 286.82C94.6005 287.072 95.1105 287.426 95.5305 287.882C95.9625 288.326 96.2925 288.842 96.5205 289.43C96.7485 290.018 96.8625 290.642 96.8625 291.302C96.8625 291.962 96.7485 292.586 96.5205 293.174C96.2925 293.75 95.9625 294.266 95.5305 294.722C95.1105 295.178 94.6005 295.538 94.0005 295.802C93.4125 296.054 92.7525 296.18 92.0205 296.18ZM89.2125 291.32C89.2125 291.92 89.3385 292.46 89.5905 292.94C89.8425 293.42 90.1785 293.798 90.5985 294.074C91.0185 294.35 91.4925 294.488 92.0205 294.488C92.5365 294.488 93.0045 294.35 93.4245 294.074C93.8565 293.786 94.1985 293.402 94.4505 292.922C94.7025 292.43 94.8285 291.89 94.8285 291.302C94.8285 290.702 94.7025 290.162 94.4505 289.682C94.1985 289.202 93.8565 288.824 93.4245 288.548C93.0045 288.26 92.5365 288.116 92.0205 288.116C91.4925 288.116 91.0185 288.26 90.5985 288.548C90.1785 288.836 89.8425 289.22 89.5905 289.7C89.3385 290.168 89.2125 290.708 89.2125 291.32ZM100.93 296L97.3483 286.586H99.4003L102.082 294.164L104.764 286.586H106.672L103.09 296H100.93ZM108.093 296V286.586H110.073V296H108.093ZM108.093 285.038V282.86H110.073V285.038H108.093ZM111.859 291.302C111.859 290.402 112.039 289.586 112.399 288.854C112.771 288.11 113.275 287.522 113.911 287.09C114.547 286.646 115.279 286.424 116.107 286.424C116.827 286.424 117.475 286.61 118.051 286.982C118.639 287.354 119.095 287.816 119.419 288.368V282.86H121.399V293.768C121.399 293.996 121.441 294.158 121.525 294.254C121.609 294.35 121.747 294.404 121.939 294.416V296C121.567 296.06 121.279 296.09 121.075 296.09C120.703 296.09 120.385 295.982 120.121 295.766C119.869 295.55 119.737 295.292 119.725 294.992L119.707 294.29C119.347 294.89 118.861 295.358 118.249 295.694C117.637 296.018 117.001 296.18 116.341 296.18C115.693 296.18 115.093 296.054 114.541 295.802C114.001 295.55 113.527 295.196 113.119 294.74C112.723 294.284 112.411 293.762 112.183 293.174C111.967 292.586 111.859 291.962 111.859 291.302ZM119.419 292.616V290.15C119.287 289.766 119.071 289.424 118.771 289.124C118.483 288.812 118.153 288.566 117.781 288.386C117.421 288.206 117.061 288.116 116.701 288.116C116.281 288.116 115.897 288.206 115.549 288.386C115.213 288.566 114.919 288.806 114.667 289.106C114.427 289.406 114.241 289.748 114.109 290.132C113.977 290.516 113.911 290.918 113.911 291.338C113.911 291.77 113.983 292.178 114.127 292.562C114.271 292.934 114.475 293.27 114.739 293.57C115.015 293.858 115.327 294.086 115.675 294.254C116.035 294.41 116.425 294.488 116.845 294.488C117.109 294.488 117.373 294.44 117.637 294.344C117.913 294.248 118.171 294.116 118.411 293.948C118.663 293.78 118.873 293.582 119.041 293.354C119.221 293.126 119.347 292.88 119.419 292.616ZM128.18 296.18C127.448 296.18 126.782 296.054 126.182 295.802C125.594 295.538 125.084 295.184 124.652 294.74C124.22 294.284 123.884 293.768 123.644 293.192C123.416 292.604 123.302 291.98 123.302 291.32C123.302 290.432 123.506 289.622 123.914 288.89C124.322 288.146 124.892 287.552 125.624 287.108C126.356 286.652 127.214 286.424 128.198 286.424C129.182 286.424 130.028 286.652 130.736 287.108C131.456 287.552 132.014 288.14 132.41 288.872C132.806 289.604 133.004 290.39 133.004 291.23C133.004 291.374 132.998 291.512 132.986 291.644C132.974 291.764 132.962 291.866 132.95 291.95H125.408C125.444 292.502 125.594 292.988 125.858 293.408C126.134 293.816 126.482 294.14 126.902 294.38C127.322 294.608 127.772 294.722 128.252 294.722C128.78 294.722 129.278 294.59 129.746 294.326C130.226 294.062 130.55 293.714 130.718 293.282L132.41 293.768C132.206 294.224 131.894 294.638 131.474 295.01C131.066 295.37 130.58 295.658 130.016 295.874C129.452 296.078 128.84 296.18 128.18 296.18ZM125.354 290.636H131.042C131.006 290.096 130.85 289.622 130.574 289.214C130.31 288.794 129.968 288.47 129.548 288.242C129.14 288.002 128.684 287.882 128.18 287.882C127.688 287.882 127.232 288.002 126.812 288.242C126.404 288.47 126.068 288.794 125.804 289.214C125.54 289.622 125.39 290.096 125.354 290.636ZM138.382 293.246C138.382 292.646 138.55 292.124 138.886 291.68C139.234 291.224 139.708 290.876 140.308 290.636C140.908 290.384 141.604 290.258 142.396 290.258C142.816 290.258 143.242 290.288 143.674 290.348C144.118 290.408 144.508 290.504 144.844 290.636V290.042C144.844 289.382 144.646 288.866 144.25 288.494C143.854 288.122 143.284 287.936 142.54 287.936C142.012 287.936 141.514 288.032 141.046 288.224C140.578 288.404 140.08 288.662 139.552 288.998L138.886 287.666C139.51 287.246 140.134 286.934 140.758 286.73C141.394 286.526 142.06 286.424 142.756 286.424C144.016 286.424 145.006 286.76 145.726 287.432C146.458 288.092 146.824 289.034 146.824 290.258V293.768C146.824 293.996 146.86 294.158 146.932 294.254C147.016 294.35 147.154 294.404 147.346 294.416V296C147.166 296.036 147.004 296.06 146.86 296.072C146.716 296.084 146.596 296.09 146.5 296.09C146.08 296.09 145.762 295.988 145.546 295.784C145.33 295.58 145.204 295.34 145.168 295.064L145.114 294.524C144.706 295.052 144.184 295.46 143.548 295.748C142.912 296.036 142.27 296.18 141.622 296.18C140.998 296.18 140.44 296.054 139.948 295.802C139.456 295.538 139.072 295.184 138.796 294.74C138.52 294.296 138.382 293.798 138.382 293.246ZM144.376 293.822C144.52 293.666 144.634 293.51 144.718 293.354C144.802 293.198 144.844 293.06 144.844 292.94V291.86C144.508 291.728 144.154 291.632 143.782 291.572C143.41 291.5 143.044 291.464 142.684 291.464C141.964 291.464 141.376 291.608 140.92 291.896C140.476 292.184 140.254 292.58 140.254 293.084C140.254 293.36 140.326 293.624 140.47 293.876C140.626 294.128 140.842 294.332 141.118 294.488C141.406 294.644 141.76 294.722 142.18 294.722C142.612 294.722 143.026 294.638 143.422 294.47C143.818 294.302 144.136 294.086 144.376 293.822ZM162.115 296H160.135V290.726C160.135 289.85 159.991 289.208 159.703 288.8C159.427 288.392 159.013 288.188 158.461 288.188C158.077 288.188 157.693 288.284 157.309 288.476C156.937 288.668 156.601 288.932 156.301 289.268C156.001 289.592 155.785 289.97 155.653 290.402V296H153.673V286.586H155.473V288.476C155.713 288.056 156.025 287.696 156.409 287.396C156.805 287.084 157.249 286.844 157.741 286.676C158.233 286.508 158.755 286.424 159.307 286.424C159.871 286.424 160.333 286.526 160.693 286.73C161.065 286.934 161.353 287.216 161.557 287.576C161.773 287.924 161.917 288.332 161.989 288.8C162.073 289.256 162.115 289.742 162.115 290.258V296ZM168.68 296.18C167.948 296.18 167.282 296.054 166.682 295.802C166.094 295.538 165.584 295.184 165.152 294.74C164.72 294.284 164.384 293.768 164.144 293.192C163.916 292.604 163.802 291.98 163.802 291.32C163.802 290.432 164.006 289.622 164.414 288.89C164.822 288.146 165.392 287.552 166.124 287.108C166.856 286.652 167.714 286.424 168.698 286.424C169.682 286.424 170.528 286.652 171.236 287.108C171.956 287.552 172.514 288.14 172.91 288.872C173.306 289.604 173.504 290.39 173.504 291.23C173.504 291.374 173.498 291.512 173.486 291.644C173.474 291.764 173.462 291.866 173.45 291.95H165.908C165.944 292.502 166.094 292.988 166.358 293.408C166.634 293.816 166.982 294.14 167.402 294.38C167.822 294.608 168.272 294.722 168.752 294.722C169.28 294.722 169.778 294.59 170.246 294.326C170.726 294.062 171.05 293.714 171.218 293.282L172.91 293.768C172.706 294.224 172.394 294.638 171.974 295.01C171.566 295.37 171.08 295.658 170.516 295.874C169.952 296.078 169.34 296.18 168.68 296.18ZM165.854 290.636H171.542C171.506 290.096 171.35 289.622 171.074 289.214C170.81 288.794 170.468 288.47 170.048 288.242C169.64 288.002 169.184 287.882 168.68 287.882C168.188 287.882 167.732 288.002 167.312 288.242C166.904 288.47 166.568 288.794 166.304 289.214C166.04 289.622 165.89 290.096 165.854 290.636ZM180.269 295.514C180.101 295.598 179.891 295.688 179.639 295.784C179.387 295.88 179.099 295.964 178.775 296.036C178.463 296.108 178.139 296.144 177.803 296.144C177.395 296.144 177.017 296.072 176.669 295.928C176.321 295.784 176.039 295.556 175.823 295.244C175.619 294.92 175.517 294.506 175.517 294.002V288.116H174.275V286.586H175.517V283.49H177.497V286.586H179.549V288.116H177.497V293.372C177.521 293.696 177.623 293.936 177.803 294.092C177.995 294.248 178.229 294.326 178.505 294.326C178.781 294.326 179.045 294.278 179.297 294.182C179.549 294.086 179.735 294.008 179.855 293.948L180.269 295.514ZM193.359 286.586H195.249L191.289 296H189.597L187.905 291.752L186.213 296H184.521L180.543 286.586H182.433L185.457 294.074L186.789 290.6L185.169 286.604H186.843L187.905 289.538L188.949 286.604H190.623L189.021 290.6L190.353 294.074L193.359 286.586ZM200.478 296.18C199.734 296.18 199.068 296.054 198.48 295.802C197.892 295.538 197.382 295.178 196.95 294.722C196.53 294.266 196.206 293.75 195.978 293.174C195.75 292.586 195.636 291.962 195.636 291.302C195.636 290.642 195.75 290.018 195.978 289.43C196.206 288.842 196.53 288.326 196.95 287.882C197.382 287.426 197.892 287.072 198.48 286.82C199.08 286.556 199.746 286.424 200.478 286.424C201.21 286.424 201.87 286.556 202.458 286.82C203.058 287.072 203.568 287.426 203.988 287.882C204.42 288.326 204.75 288.842 204.978 289.43C205.206 290.018 205.32 290.642 205.32 291.302C205.32 291.962 205.206 292.586 204.978 293.174C204.75 293.75 204.42 294.266 203.988 294.722C203.568 295.178 203.058 295.538 202.458 295.802C201.87 296.054 201.21 296.18 200.478 296.18ZM197.67 291.32C197.67 291.92 197.796 292.46 198.048 292.94C198.3 293.42 198.636 293.798 199.056 294.074C199.476 294.35 199.95 294.488 200.478 294.488C200.994 294.488 201.462 294.35 201.882 294.074C202.314 293.786 202.656 293.402 202.908 292.922C203.16 292.43 203.286 291.89 203.286 291.302C203.286 290.702 203.16 290.162 202.908 289.682C202.656 289.202 202.314 288.824 201.882 288.548C201.462 288.26 200.994 288.116 200.478 288.116C199.95 288.116 199.476 288.26 199.056 288.548C198.636 288.836 198.3 289.22 198.048 289.7C197.796 290.168 197.67 290.708 197.67 291.32ZM212.368 288.296C211.6 288.308 210.916 288.482 210.316 288.818C209.728 289.154 209.308 289.628 209.056 290.24V296H207.076V286.586H208.912V288.692C209.236 288.044 209.662 287.528 210.19 287.144C210.718 286.748 211.276 286.532 211.864 286.496C211.984 286.496 212.08 286.496 212.152 286.496C212.236 286.496 212.308 286.502 212.368 286.514V288.296ZM220.36 296L217.336 291.662L215.788 293.138V296H213.808V282.86H215.788V291.14L220.144 286.604H222.268L218.614 290.546L222.466 296H220.36ZM223.669 296V286.586H225.649V296H223.669ZM223.669 285.038V282.86H225.649V285.038H223.669ZM236.471 296H234.491V290.726C234.491 289.85 234.347 289.208 234.059 288.8C233.783 288.392 233.369 288.188 232.817 288.188C232.433 288.188 232.049 288.284 231.665 288.476C231.293 288.668 230.957 288.932 230.657 289.268C230.357 289.592 230.141 289.97 230.009 290.402V296H228.029V286.586H229.829V288.476C230.069 288.056 230.381 287.696 230.765 287.396C231.161 287.084 231.605 286.844 232.097 286.676C232.589 286.508 233.111 286.424 233.663 286.424C234.227 286.424 234.689 286.526 235.049 286.73C235.421 286.934 235.709 287.216 235.913 287.576C236.129 287.924 236.273 288.332 236.345 288.8C236.429 289.256 236.471 289.742 236.471 290.258V296ZM242.495 296.09C241.859 296.09 241.277 295.964 240.749 295.712C240.221 295.448 239.765 295.094 239.381 294.65C239.009 294.206 238.715 293.696 238.499 293.12C238.295 292.544 238.193 291.938 238.193 291.302C238.193 290.63 238.301 290 238.517 289.412C238.733 288.824 239.033 288.308 239.417 287.864C239.813 287.408 240.275 287.054 240.803 286.802C241.331 286.55 241.919 286.424 242.567 286.424C243.323 286.424 243.983 286.604 244.547 286.964C245.123 287.324 245.597 287.792 245.969 288.368V286.586H247.715V295.73C247.715 296.642 247.493 297.416 247.049 298.052C246.617 298.688 246.023 299.174 245.267 299.51C244.511 299.846 243.659 300.014 242.711 300.014C241.667 300.014 240.803 299.834 240.119 299.474C239.435 299.114 238.853 298.622 238.373 297.998L239.489 296.954C239.849 297.458 240.311 297.842 240.875 298.106C241.451 298.37 242.063 298.502 242.711 298.502C243.251 298.502 243.749 298.4 244.205 298.196C244.673 298.004 245.045 297.698 245.321 297.278C245.597 296.87 245.735 296.354 245.735 295.73V294.29C245.399 294.854 244.937 295.298 244.349 295.622C243.761 295.934 243.143 296.09 242.495 296.09ZM243.143 294.488C243.443 294.488 243.731 294.44 244.007 294.344C244.283 294.236 244.535 294.098 244.763 293.93C245.003 293.75 245.207 293.552 245.375 293.336C245.543 293.108 245.663 292.868 245.735 292.616V290.15C245.579 289.742 245.357 289.388 245.069 289.088C244.781 288.776 244.457 288.536 244.097 288.368C243.737 288.2 243.371 288.116 242.999 288.116C242.567 288.116 242.177 288.212 241.829 288.404C241.493 288.584 241.205 288.83 240.965 289.142C240.725 289.442 240.539 289.784 240.407 290.168C240.275 290.552 240.209 290.948 240.209 291.356C240.209 291.788 240.281 292.19 240.425 292.562C240.581 292.934 240.791 293.27 241.055 293.57C241.319 293.858 241.631 294.086 241.991 294.254C242.351 294.41 242.735 294.488 243.143 294.488ZM259.883 296.18C259.127 296.18 258.461 296 257.885 295.64C257.309 295.28 256.853 294.812 256.517 294.236V299.834H254.537V286.586H256.283V288.278C256.643 287.714 257.111 287.264 257.687 286.928C258.263 286.592 258.905 286.424 259.613 286.424C260.261 286.424 260.855 286.556 261.395 286.82C261.935 287.072 262.403 287.426 262.799 287.882C263.195 288.338 263.501 288.86 263.717 289.448C263.945 290.024 264.059 290.636 264.059 291.284C264.059 292.184 263.879 293.006 263.519 293.75C263.171 294.494 262.679 295.088 262.043 295.532C261.419 295.964 260.699 296.18 259.883 296.18ZM259.235 294.488C259.655 294.488 260.033 294.398 260.369 294.218C260.717 294.038 261.011 293.798 261.251 293.498C261.503 293.198 261.695 292.856 261.827 292.472C261.959 292.088 262.025 291.692 262.025 291.284C262.025 290.852 261.953 290.444 261.809 290.06C261.665 289.676 261.455 289.34 261.179 289.052C260.915 288.764 260.603 288.536 260.243 288.368C259.895 288.2 259.511 288.116 259.091 288.116C258.839 288.116 258.575 288.164 258.299 288.26C258.023 288.356 257.765 288.488 257.525 288.656C257.285 288.824 257.075 289.022 256.895 289.25C256.715 289.478 256.589 289.718 256.517 289.97V292.436C256.685 292.82 256.907 293.168 257.183 293.48C257.459 293.78 257.777 294.026 258.137 294.218C258.497 294.398 258.863 294.488 259.235 294.488ZM265.857 282.86H267.837V293.282C267.837 293.762 267.909 294.068 268.053 294.2C268.197 294.332 268.377 294.398 268.593 294.398C268.833 294.398 269.055 294.374 269.259 294.326C269.475 294.278 269.661 294.218 269.817 294.146L270.105 295.712C269.817 295.832 269.475 295.934 269.079 296.018C268.683 296.102 268.329 296.144 268.017 296.144C267.345 296.144 266.817 295.958 266.433 295.586C266.049 295.202 265.857 294.674 265.857 294.002V282.86ZM270.569 293.246C270.569 292.646 270.737 292.124 271.073 291.68C271.421 291.224 271.895 290.876 272.495 290.636C273.095 290.384 273.791 290.258 274.583 290.258C275.003 290.258 275.429 290.288 275.861 290.348C276.305 290.408 276.695 290.504 277.031 290.636V290.042C277.031 289.382 276.833 288.866 276.437 288.494C276.041 288.122 275.471 287.936 274.727 287.936C274.199 287.936 273.701 288.032 273.233 288.224C272.765 288.404 272.267 288.662 271.739 288.998L271.073 287.666C271.697 287.246 272.321 286.934 272.945 286.73C273.581 286.526 274.247 286.424 274.943 286.424C276.203 286.424 277.193 286.76 277.913 287.432C278.645 288.092 279.011 289.034 279.011 290.258V293.768C279.011 293.996 279.047 294.158 279.119 294.254C279.203 294.35 279.341 294.404 279.533 294.416V296C279.353 296.036 279.191 296.06 279.047 296.072C278.903 296.084 278.783 296.09 278.687 296.09C278.267 296.09 277.949 295.988 277.733 295.784C277.517 295.58 277.391 295.34 277.355 295.064L277.301 294.524C276.893 295.052 276.371 295.46 275.735 295.748C275.099 296.036 274.457 296.18 273.809 296.18C273.185 296.18 272.627 296.054 272.135 295.802C271.643 295.538 271.259 295.184 270.983 294.74C270.707 294.296 270.569 293.798 270.569 293.246ZM276.563 293.822C276.707 293.666 276.821 293.51 276.905 293.354C276.989 293.198 277.031 293.06 277.031 292.94V291.86C276.695 291.728 276.341 291.632 275.969 291.572C275.597 291.5 275.231 291.464 274.871 291.464C274.151 291.464 273.563 291.608 273.107 291.896C272.663 292.184 272.441 292.58 272.441 293.084C272.441 293.36 272.513 293.624 272.657 293.876C272.813 294.128 273.029 294.332 273.305 294.488C273.593 294.644 273.947 294.722 274.367 294.722C274.799 294.722 275.213 294.638 275.609 294.47C276.005 294.302 276.323 294.086 276.563 293.822ZM286.581 295.514C286.413 295.598 286.203 295.688 285.951 295.784C285.699 295.88 285.411 295.964 285.087 296.036C284.775 296.108 284.451 296.144 284.115 296.144C283.707 296.144 283.329 296.072 282.981 295.928C282.633 295.784 282.351 295.556 282.135 295.244C281.931 294.92 281.829 294.506 281.829 294.002V288.116H280.587V286.586H281.829V283.49H283.809V286.586H285.861V288.116H283.809V293.372C283.833 293.696 283.935 293.936 284.115 294.092C284.307 294.248 284.541 294.326 284.817 294.326C285.093 294.326 285.357 294.278 285.609 294.182C285.861 294.086 286.047 294.008 286.167 293.948L286.581 295.514ZM288.475 296V288.35H287.215V286.82H288.475V286.442C288.475 285.674 288.595 285.008 288.835 284.444C289.087 283.88 289.435 283.448 289.879 283.148C290.335 282.836 290.869 282.68 291.481 282.68C291.865 282.68 292.243 282.734 292.615 282.842C292.987 282.938 293.341 283.076 293.677 283.256L293.245 284.732C293.065 284.612 292.849 284.522 292.597 284.462C292.357 284.39 292.123 284.354 291.895 284.354C291.439 284.354 291.085 284.528 290.833 284.876C290.581 285.224 290.455 285.728 290.455 286.388V286.82H292.867V288.35H290.455V296H288.475ZM298.405 296.18C297.661 296.18 296.995 296.054 296.407 295.802C295.819 295.538 295.309 295.178 294.877 294.722C294.457 294.266 294.133 293.75 293.905 293.174C293.677 292.586 293.563 291.962 293.563 291.302C293.563 290.642 293.677 290.018 293.905 289.43C294.133 288.842 294.457 288.326 294.877 287.882C295.309 287.426 295.819 287.072 296.407 286.82C297.007 286.556 297.673 286.424 298.405 286.424C299.137 286.424 299.797 286.556 300.385 286.82C300.985 287.072 301.495 287.426 301.915 287.882C302.347 288.326 302.677 288.842 302.905 289.43C303.133 290.018 303.247 290.642 303.247 291.302C303.247 291.962 303.133 292.586 302.905 293.174C302.677 293.75 302.347 294.266 301.915 294.722C301.495 295.178 300.985 295.538 300.385 295.802C299.797 296.054 299.137 296.18 298.405 296.18ZM295.597 291.32C295.597 291.92 295.723 292.46 295.975 292.94C296.227 293.42 296.563 293.798 296.983 294.074C297.403 294.35 297.877 294.488 298.405 294.488C298.921 294.488 299.389 294.35 299.809 294.074C300.241 293.786 300.583 293.402 300.835 292.922C301.087 292.43 301.213 291.89 301.213 291.302C301.213 290.702 301.087 290.162 300.835 289.682C300.583 289.202 300.241 288.824 299.809 288.548C299.389 288.26 298.921 288.116 298.405 288.116C297.877 288.116 297.403 288.26 296.983 288.548C296.563 288.836 296.227 289.22 295.975 289.7C295.723 290.168 295.597 290.708 295.597 291.32ZM310.295 288.296C309.527 288.308 308.843 288.482 308.243 288.818C307.655 289.154 307.235 289.628 306.983 290.24V296H305.003V286.586H306.839V288.692C307.163 288.044 307.589 287.528 308.117 287.144C308.645 286.748 309.203 286.532 309.791 286.496C309.911 286.496 310.007 286.496 310.079 286.496C310.163 286.496 310.235 286.502 310.295 286.514V288.296ZM326.136 296H324.156V290.726C324.156 289.85 324.012 289.208 323.724 288.8C323.436 288.392 323.016 288.188 322.464 288.188C321.912 288.188 321.396 288.398 320.916 288.818C320.448 289.226 320.118 289.76 319.926 290.42V296H317.946V290.726C317.946 289.85 317.802 289.208 317.514 288.8C317.226 288.392 316.812 288.188 316.272 288.188C315.72 288.188 315.204 288.392 314.724 288.8C314.256 289.208 313.92 289.742 313.716 290.402V296H311.736V286.586H313.536V288.476C313.908 287.816 314.394 287.312 314.994 286.964C315.606 286.604 316.302 286.424 317.082 286.424C317.862 286.424 318.474 286.628 318.918 287.036C319.374 287.444 319.656 287.954 319.764 288.566C320.172 287.87 320.67 287.342 321.258 286.982C321.858 286.61 322.542 286.424 323.31 286.424C323.862 286.424 324.324 286.526 324.696 286.73C325.068 286.934 325.356 287.216 325.56 287.576C325.764 287.924 325.908 288.332 325.992 288.8C326.088 289.256 326.136 289.742 326.136 290.258V296ZM338.103 295.514C337.935 295.598 337.725 295.688 337.473 295.784C337.221 295.88 336.933 295.964 336.609 296.036C336.297 296.108 335.973 296.144 335.637 296.144C335.229 296.144 334.851 296.072 334.503 295.928C334.155 295.784 333.873 295.556 333.657 295.244C333.453 294.92 333.351 294.506 333.351 294.002V288.116H332.109V286.586H333.351V283.49H335.331V286.586H337.383V288.116H335.331V293.372C335.355 293.696 335.457 293.936 335.637 294.092C335.829 294.248 336.063 294.326 336.339 294.326C336.615 294.326 336.879 294.278 337.131 294.182C337.383 294.086 337.569 294.008 337.689 293.948L338.103 295.514ZM347.916 296H345.936V290.726C345.936 289.874 345.78 289.238 345.468 288.818C345.156 288.398 344.718 288.188 344.154 288.188C343.806 288.188 343.446 288.284 343.074 288.476C342.702 288.668 342.372 288.932 342.084 289.268C341.796 289.592 341.586 289.97 341.454 290.402V296H339.474V282.86H341.454V288.476C341.814 287.84 342.306 287.342 342.93 286.982C343.554 286.61 344.226 286.424 344.946 286.424C345.534 286.424 346.02 286.526 346.404 286.73C346.788 286.934 347.088 287.216 347.304 287.576C347.532 287.924 347.688 288.332 347.772 288.8C347.868 289.256 347.916 289.742 347.916 290.258V296ZM349.53 293.246C349.53 292.646 349.698 292.124 350.034 291.68C350.382 291.224 350.856 290.876 351.456 290.636C352.056 290.384 352.752 290.258 353.544 290.258C353.964 290.258 354.39 290.288 354.822 290.348C355.266 290.408 355.656 290.504 355.992 290.636V290.042C355.992 289.382 355.794 288.866 355.398 288.494C355.002 288.122 354.432 287.936 353.688 287.936C353.16 287.936 352.662 288.032 352.194 288.224C351.726 288.404 351.228 288.662 350.7 288.998L350.034 287.666C350.658 287.246 351.282 286.934 351.906 286.73C352.542 286.526 353.208 286.424 353.904 286.424C355.164 286.424 356.154 286.76 356.874 287.432C357.606 288.092 357.972 289.034 357.972 290.258V293.768C357.972 293.996 358.008 294.158 358.08 294.254C358.164 294.35 358.302 294.404 358.494 294.416V296C358.314 296.036 358.152 296.06 358.008 296.072C357.864 296.084 357.744 296.09 357.648 296.09C357.228 296.09 356.91 295.988 356.694 295.784C356.478 295.58 356.352 295.34 356.316 295.064L356.262 294.524C355.854 295.052 355.332 295.46 354.696 295.748C354.06 296.036 353.418 296.18 352.77 296.18C352.146 296.18 351.588 296.054 351.096 295.802C350.604 295.538 350.22 295.184 349.944 294.74C349.668 294.296 349.53 293.798 349.53 293.246ZM355.524 293.822C355.668 293.666 355.782 293.51 355.866 293.354C355.95 293.198 355.992 293.06 355.992 292.94V291.86C355.656 291.728 355.302 291.632 354.93 291.572C354.558 291.5 354.192 291.464 353.832 291.464C353.112 291.464 352.524 291.608 352.068 291.896C351.624 292.184 351.402 292.58 351.402 293.084C351.402 293.36 351.474 293.624 351.618 293.876C351.774 294.128 351.99 294.332 352.266 294.488C352.554 294.644 352.908 294.722 353.328 294.722C353.76 294.722 354.174 294.638 354.57 294.47C354.966 294.302 355.284 294.086 355.524 293.822ZM365.542 295.514C365.374 295.598 365.164 295.688 364.912 295.784C364.66 295.88 364.372 295.964 364.048 296.036C363.736 296.108 363.412 296.144 363.076 296.144C362.668 296.144 362.29 296.072 361.942 295.928C361.594 295.784 361.312 295.556 361.096 295.244C360.892 294.92 360.79 294.506 360.79 294.002V288.116H359.548V286.586H360.79V283.49H362.77V286.586H364.822V288.116H362.77V293.372C362.794 293.696 362.896 293.936 363.076 294.092C363.268 294.248 363.502 294.326 363.778 294.326C364.054 294.326 364.318 294.278 364.57 294.182C364.822 294.086 365.008 294.008 365.128 293.948L365.542 295.514ZM73.538 324.18C72.806 324.18 72.14 324.054 71.54 323.802C70.952 323.538 70.442 323.184 70.01 322.74C69.578 322.284 69.242 321.768 69.002 321.192C68.774 320.604 68.66 319.98 68.66 319.32C68.66 318.432 68.864 317.622 69.272 316.89C69.68 316.146 70.25 315.552 70.982 315.108C71.714 314.652 72.572 314.424 73.556 314.424C74.54 314.424 75.386 314.652 76.094 315.108C76.814 315.552 77.372 316.14 77.768 316.872C78.164 317.604 78.362 318.39 78.362 319.23C78.362 319.374 78.356 319.512 78.344 319.644C78.332 319.764 78.32 319.866 78.308 319.95H70.766C70.802 320.502 70.952 320.988 71.216 321.408C71.492 321.816 71.84 322.14 72.26 322.38C72.68 322.608 73.13 322.722 73.61 322.722C74.138 322.722 74.636 322.59 75.104 322.326C75.584 322.062 75.908 321.714 76.076 321.282L77.768 321.768C77.564 322.224 77.252 322.638 76.832 323.01C76.424 323.37 75.938 323.658 75.374 323.874C74.81 324.078 74.198 324.18 73.538 324.18ZM70.712 318.636H76.4C76.364 318.096 76.208 317.622 75.932 317.214C75.668 316.794 75.326 316.47 74.906 316.242C74.498 316.002 74.042 315.882 73.538 315.882C73.046 315.882 72.59 316.002 72.17 316.242C71.762 316.47 71.426 316.794 71.162 317.214C70.898 317.622 70.748 318.096 70.712 318.636ZM88.4191 324H86.4391V318.726C86.4391 317.85 86.2951 317.208 86.0071 316.8C85.7311 316.392 85.3171 316.188 84.7651 316.188C84.3811 316.188 83.9971 316.284 83.6131 316.476C83.2411 316.668 82.9051 316.932 82.6051 317.268C82.3051 317.592 82.0891 317.97 81.9571 318.402V324H79.9771V314.586H81.7771V316.476C82.0171 316.056 82.3291 315.696 82.7131 315.396C83.1091 315.084 83.5531 314.844 84.0451 314.676C84.5371 314.508 85.0591 314.424 85.6111 314.424C86.1751 314.424 86.6371 314.526 86.9971 314.73C87.3691 314.934 87.6571 315.216 87.8611 315.576C88.0771 315.924 88.2211 316.332 88.2931 316.8C88.3771 317.256 88.4191 317.742 88.4191 318.258V324ZM90.0333 321.246C90.0333 320.646 90.2013 320.124 90.5373 319.68C90.8853 319.224 91.3593 318.876 91.9593 318.636C92.5593 318.384 93.2553 318.258 94.0473 318.258C94.4673 318.258 94.8933 318.288 95.3253 318.348C95.7693 318.408 96.1593 318.504 96.4953 318.636V318.042C96.4953 317.382 96.2973 316.866 95.9013 316.494C95.5053 316.122 94.9353 315.936 94.1913 315.936C93.6633 315.936 93.1653 316.032 92.6973 316.224C92.2293 316.404 91.7313 316.662 91.2033 316.998L90.5373 315.666C91.1613 315.246 91.7853 314.934 92.4093 314.73C93.0453 314.526 93.7113 314.424 94.4073 314.424C95.6673 314.424 96.6573 314.76 97.3773 315.432C98.1093 316.092 98.4753 317.034 98.4753 318.258V321.768C98.4753 321.996 98.5113 322.158 98.5833 322.254C98.6673 322.35 98.8053 322.404 98.9973 322.416V324C98.8173 324.036 98.6553 324.06 98.5113 324.072C98.3673 324.084 98.2473 324.09 98.1513 324.09C97.7313 324.09 97.4133 323.988 97.1973 323.784C96.9813 323.58 96.8553 323.34 96.8193 323.064L96.7653 322.524C96.3573 323.052 95.8353 323.46 95.1993 323.748C94.5633 324.036 93.9213 324.18 93.2733 324.18C92.6493 324.18 92.0913 324.054 91.5993 323.802C91.1073 323.538 90.7233 323.184 90.4473 322.74C90.1713 322.296 90.0333 321.798 90.0333 321.246ZM96.0273 321.822C96.1713 321.666 96.2853 321.51 96.3693 321.354C96.4533 321.198 96.4953 321.06 96.4953 320.94V319.86C96.1593 319.728 95.8053 319.632 95.4333 319.572C95.0613 319.5 94.6953 319.464 94.3353 319.464C93.6153 319.464 93.0273 319.608 92.5713 319.896C92.1273 320.184 91.9053 320.58 91.9053 321.084C91.9053 321.36 91.9773 321.624 92.1213 321.876C92.2773 322.128 92.4933 322.332 92.7693 322.488C93.0573 322.644 93.4113 322.722 93.8313 322.722C94.2633 322.722 94.6773 322.638 95.0733 322.47C95.4693 322.302 95.7873 322.086 96.0273 321.822ZM105.953 324.18C105.233 324.18 104.579 324.012 103.991 323.676C103.415 323.328 102.959 322.866 102.623 322.29V324H100.877V310.86H102.857V316.368C103.229 315.768 103.691 315.294 104.243 314.946C104.807 314.598 105.467 314.424 106.223 314.424C106.847 314.424 107.417 314.556 107.933 314.82C108.449 315.084 108.887 315.444 109.247 315.9C109.619 316.356 109.901 316.878 110.093 317.466C110.297 318.054 110.399 318.678 110.399 319.338C110.399 319.998 110.285 320.622 110.057 321.21C109.841 321.798 109.529 322.314 109.121 322.758C108.713 323.202 108.239 323.55 107.699 323.802C107.171 324.054 106.589 324.18 105.953 324.18ZM105.431 322.488C105.863 322.488 106.259 322.404 106.619 322.236C106.979 322.056 107.291 321.822 107.555 321.534C107.819 321.246 108.017 320.91 108.149 320.526C108.293 320.142 108.365 319.746 108.365 319.338C108.365 318.774 108.245 318.246 108.005 317.754C107.777 317.262 107.453 316.866 107.033 316.566C106.613 316.266 106.127 316.116 105.575 316.116C105.179 316.116 104.807 316.212 104.459 316.404C104.111 316.584 103.799 316.83 103.523 317.142C103.259 317.442 103.037 317.778 102.857 318.15V320.634C102.929 320.91 103.055 321.162 103.235 321.39C103.415 321.606 103.625 321.798 103.865 321.966C104.105 322.122 104.363 322.248 104.639 322.344C104.915 322.44 105.179 322.488 105.431 322.488ZM112.198 310.86H114.178V321.282C114.178 321.762 114.25 322.068 114.394 322.2C114.538 322.332 114.718 322.398 114.934 322.398C115.174 322.398 115.396 322.374 115.6 322.326C115.816 322.278 116.002 322.218 116.158 322.146L116.446 323.712C116.158 323.832 115.816 323.934 115.42 324.018C115.024 324.102 114.67 324.144 114.358 324.144C113.686 324.144 113.158 323.958 112.774 323.586C112.39 323.202 112.198 322.674 112.198 322.002V310.86ZM121.86 324.18C121.128 324.18 120.462 324.054 119.862 323.802C119.274 323.538 118.764 323.184 118.332 322.74C117.9 322.284 117.564 321.768 117.324 321.192C117.096 320.604 116.982 319.98 116.982 319.32C116.982 318.432 117.186 317.622 117.594 316.89C118.002 316.146 118.572 315.552 119.304 315.108C120.036 314.652 120.894 314.424 121.878 314.424C122.862 314.424 123.708 314.652 124.416 315.108C125.136 315.552 125.694 316.14 126.09 316.872C126.486 317.604 126.684 318.39 126.684 319.23C126.684 319.374 126.678 319.512 126.666 319.644C126.654 319.764 126.642 319.866 126.63 319.95H119.088C119.124 320.502 119.274 320.988 119.538 321.408C119.814 321.816 120.162 322.14 120.582 322.38C121.002 322.608 121.452 322.722 121.932 322.722C122.46 322.722 122.958 322.59 123.426 322.326C123.906 322.062 124.23 321.714 124.398 321.282L126.09 321.768C125.886 322.224 125.574 322.638 125.154 323.01C124.746 323.37 124.26 323.658 123.696 323.874C123.132 324.078 122.52 324.18 121.86 324.18ZM119.034 318.636H124.722C124.686 318.096 124.53 317.622 124.254 317.214C123.99 316.794 123.648 316.47 123.228 316.242C122.82 316.002 122.364 315.882 121.86 315.882C121.368 315.882 120.912 316.002 120.492 316.242C120.084 316.47 119.748 316.794 119.484 317.214C119.22 317.622 119.07 318.096 119.034 318.636ZM131.647 324.18C130.855 324.18 130.105 324.054 129.397 323.802C128.689 323.538 128.083 323.148 127.579 322.632L128.317 321.3C128.857 321.78 129.397 322.128 129.937 322.344C130.489 322.56 131.035 322.668 131.575 322.668C132.127 322.668 132.577 322.566 132.925 322.362C133.273 322.146 133.447 321.834 133.447 321.426C133.447 321.126 133.357 320.904 133.177 320.76C132.997 320.616 132.733 320.49 132.385 320.382C132.049 320.274 131.641 320.154 131.161 320.022C130.489 319.818 129.925 319.608 129.469 319.392C129.013 319.164 128.671 318.888 128.443 318.564C128.215 318.24 128.101 317.826 128.101 317.322C128.101 316.71 128.257 316.188 128.569 315.756C128.881 315.324 129.313 314.994 129.865 314.766C130.429 314.538 131.077 314.424 131.809 314.424C132.493 314.424 133.123 314.532 133.699 314.748C134.287 314.952 134.803 315.276 135.247 315.72L134.401 317.034C133.981 316.65 133.549 316.368 133.105 316.188C132.673 316.008 132.205 315.918 131.701 315.918C131.413 315.918 131.137 315.954 130.873 316.026C130.609 316.086 130.387 316.206 130.207 316.386C130.039 316.554 129.955 316.794 129.955 317.106C129.955 317.358 130.027 317.562 130.171 317.718C130.315 317.874 130.531 318.006 130.819 318.114C131.107 318.222 131.461 318.342 131.881 318.474C132.613 318.69 133.237 318.906 133.753 319.122C134.269 319.326 134.665 319.596 134.941 319.932C135.229 320.256 135.373 320.706 135.373 321.282C135.373 322.194 135.031 322.908 134.347 323.424C133.675 323.928 132.775 324.18 131.647 324.18ZM145.854 324.18C145.122 324.18 144.456 324.054 143.856 323.802C143.268 323.538 142.758 323.178 142.326 322.722C141.894 322.266 141.558 321.744 141.318 321.156C141.09 320.568 140.976 319.944 140.976 319.284C140.976 318.396 141.174 317.586 141.57 316.854C141.978 316.122 142.542 315.534 143.262 315.09C143.994 314.646 144.858 314.424 145.854 314.424C146.814 314.424 147.648 314.64 148.356 315.072C149.076 315.492 149.604 316.056 149.94 316.764L148.014 317.376C147.798 316.98 147.492 316.674 147.096 316.458C146.712 316.23 146.286 316.116 145.818 316.116C145.29 316.116 144.81 316.254 144.378 316.53C143.958 316.794 143.622 317.166 143.37 317.646C143.13 318.114 143.01 318.66 143.01 319.284C143.01 319.884 143.136 320.43 143.388 320.922C143.64 321.402 143.976 321.786 144.396 322.074C144.828 322.35 145.308 322.488 145.836 322.488C146.16 322.488 146.472 322.434 146.772 322.326C147.084 322.206 147.354 322.05 147.582 321.858C147.81 321.654 147.972 321.432 148.068 321.192L150.012 321.768C149.808 322.236 149.502 322.65 149.094 323.01C148.698 323.37 148.224 323.658 147.672 323.874C147.132 324.078 146.526 324.18 145.854 324.18ZM155.785 324.18C155.041 324.18 154.375 324.054 153.787 323.802C153.199 323.538 152.689 323.178 152.257 322.722C151.837 322.266 151.513 321.75 151.285 321.174C151.057 320.586 150.943 319.962 150.943 319.302C150.943 318.642 151.057 318.018 151.285 317.43C151.513 316.842 151.837 316.326 152.257 315.882C152.689 315.426 153.199 315.072 153.787 314.82C154.387 314.556 155.053 314.424 155.785 314.424C156.517 314.424 157.177 314.556 157.765 314.82C158.365 315.072 158.875 315.426 159.295 315.882C159.727 316.326 160.057 316.842 160.285 317.43C160.513 318.018 160.627 318.642 160.627 319.302C160.627 319.962 160.513 320.586 160.285 321.174C160.057 321.75 159.727 322.266 159.295 322.722C158.875 323.178 158.365 323.538 157.765 323.802C157.177 324.054 156.517 324.18 155.785 324.18ZM152.977 319.32C152.977 319.92 153.103 320.46 153.355 320.94C153.607 321.42 153.943 321.798 154.363 322.074C154.783 322.35 155.257 322.488 155.785 322.488C156.301 322.488 156.769 322.35 157.189 322.074C157.621 321.786 157.963 321.402 158.215 320.922C158.467 320.43 158.593 319.89 158.593 319.302C158.593 318.702 158.467 318.162 158.215 317.682C157.963 317.202 157.621 316.824 157.189 316.548C156.769 316.26 156.301 316.116 155.785 316.116C155.257 316.116 154.783 316.26 154.363 316.548C153.943 316.836 153.607 317.22 153.355 317.7C153.103 318.168 152.977 318.708 152.977 319.32ZM162.401 310.86H164.381V321.282C164.381 321.762 164.453 322.068 164.597 322.2C164.741 322.332 164.921 322.398 165.137 322.398C165.377 322.398 165.599 322.374 165.803 322.326C166.019 322.278 166.205 322.218 166.361 322.146L166.649 323.712C166.361 323.832 166.019 323.934 165.623 324.018C165.227 324.102 164.873 324.144 164.561 324.144C163.889 324.144 163.361 323.958 162.977 323.586C162.593 323.202 162.401 322.674 162.401 322.002V310.86ZM167.815 310.86H169.795V321.282C169.795 321.762 169.867 322.068 170.011 322.2C170.155 322.332 170.335 322.398 170.551 322.398C170.791 322.398 171.013 322.374 171.217 322.326C171.433 322.278 171.619 322.218 171.775 322.146L172.063 323.712C171.775 323.832 171.433 323.934 171.037 324.018C170.641 324.102 170.287 324.144 169.975 324.144C169.303 324.144 168.775 323.958 168.391 323.586C168.007 323.202 167.815 322.674 167.815 322.002V310.86ZM172.527 321.246C172.527 320.646 172.695 320.124 173.031 319.68C173.379 319.224 173.853 318.876 174.453 318.636C175.053 318.384 175.749 318.258 176.541 318.258C176.961 318.258 177.387 318.288 177.819 318.348C178.263 318.408 178.653 318.504 178.989 318.636V318.042C178.989 317.382 178.791 316.866 178.395 316.494C177.999 316.122 177.429 315.936 176.685 315.936C176.157 315.936 175.659 316.032 175.191 316.224C174.723 316.404 174.225 316.662 173.697 316.998L173.031 315.666C173.655 315.246 174.279 314.934 174.903 314.73C175.539 314.526 176.205 314.424 176.901 314.424C178.161 314.424 179.151 314.76 179.871 315.432C180.603 316.092 180.969 317.034 180.969 318.258V321.768C180.969 321.996 181.005 322.158 181.077 322.254C181.161 322.35 181.299 322.404 181.491 322.416V324C181.311 324.036 181.149 324.06 181.005 324.072C180.861 324.084 180.741 324.09 180.645 324.09C180.225 324.09 179.907 323.988 179.691 323.784C179.475 323.58 179.349 323.34 179.313 323.064L179.259 322.524C178.851 323.052 178.329 323.46 177.693 323.748C177.057 324.036 176.415 324.18 175.767 324.18C175.143 324.18 174.585 324.054 174.093 323.802C173.601 323.538 173.217 323.184 172.941 322.74C172.665 322.296 172.527 321.798 172.527 321.246ZM178.521 321.822C178.665 321.666 178.779 321.51 178.863 321.354C178.947 321.198 178.989 321.06 178.989 320.94V319.86C178.653 319.728 178.299 319.632 177.927 319.572C177.555 319.5 177.189 319.464 176.829 319.464C176.109 319.464 175.521 319.608 175.065 319.896C174.621 320.184 174.399 320.58 174.399 321.084C174.399 321.36 174.471 321.624 174.615 321.876C174.771 322.128 174.987 322.332 175.263 322.488C175.551 322.644 175.905 322.722 176.325 322.722C176.757 322.722 177.171 322.638 177.567 322.47C177.963 322.302 178.281 322.086 178.521 321.822ZM188.448 324.18C187.728 324.18 187.074 324.012 186.486 323.676C185.91 323.328 185.454 322.866 185.118 322.29V324H183.372V310.86H185.352V316.368C185.724 315.768 186.186 315.294 186.738 314.946C187.302 314.598 187.962 314.424 188.718 314.424C189.342 314.424 189.912 314.556 190.428 314.82C190.944 315.084 191.382 315.444 191.742 315.9C192.114 316.356 192.396 316.878 192.588 317.466C192.792 318.054 192.894 318.678 192.894 319.338C192.894 319.998 192.78 320.622 192.552 321.21C192.336 321.798 192.024 322.314 191.616 322.758C191.208 323.202 190.734 323.55 190.194 323.802C189.666 324.054 189.084 324.18 188.448 324.18ZM187.926 322.488C188.358 322.488 188.754 322.404 189.114 322.236C189.474 322.056 189.786 321.822 190.05 321.534C190.314 321.246 190.512 320.91 190.644 320.526C190.788 320.142 190.86 319.746 190.86 319.338C190.86 318.774 190.74 318.246 190.5 317.754C190.272 317.262 189.948 316.866 189.528 316.566C189.108 316.266 188.622 316.116 188.07 316.116C187.674 316.116 187.302 316.212 186.954 316.404C186.606 316.584 186.294 316.83 186.018 317.142C185.754 317.442 185.532 317.778 185.352 318.15V320.634C185.424 320.91 185.55 321.162 185.73 321.39C185.91 321.606 186.12 321.798 186.36 321.966C186.6 322.122 186.858 322.248 187.134 322.344C187.41 322.44 187.674 322.488 187.926 322.488ZM198.904 324.18C198.16 324.18 197.494 324.054 196.906 323.802C196.318 323.538 195.808 323.178 195.376 322.722C194.956 322.266 194.632 321.75 194.404 321.174C194.176 320.586 194.062 319.962 194.062 319.302C194.062 318.642 194.176 318.018 194.404 317.43C194.632 316.842 194.956 316.326 195.376 315.882C195.808 315.426 196.318 315.072 196.906 314.82C197.506 314.556 198.172 314.424 198.904 314.424C199.636 314.424 200.296 314.556 200.884 314.82C201.484 315.072 201.994 315.426 202.414 315.882C202.846 316.326 203.176 316.842 203.404 317.43C203.632 318.018 203.746 318.642 203.746 319.302C203.746 319.962 203.632 320.586 203.404 321.174C203.176 321.75 202.846 322.266 202.414 322.722C201.994 323.178 201.484 323.538 200.884 323.802C200.296 324.054 199.636 324.18 198.904 324.18ZM196.096 319.32C196.096 319.92 196.222 320.46 196.474 320.94C196.726 321.42 197.062 321.798 197.482 322.074C197.902 322.35 198.376 322.488 198.904 322.488C199.42 322.488 199.888 322.35 200.308 322.074C200.74 321.786 201.082 321.402 201.334 320.922C201.586 320.43 201.712 319.89 201.712 319.302C201.712 318.702 201.586 318.162 201.334 317.682C201.082 317.202 200.74 316.824 200.308 316.548C199.888 316.26 199.42 316.116 198.904 316.116C198.376 316.116 197.902 316.26 197.482 316.548C197.062 316.836 196.726 317.22 196.474 317.7C196.222 318.168 196.096 318.708 196.096 319.32ZM210.794 316.296C210.026 316.308 209.342 316.482 208.742 316.818C208.154 317.154 207.734 317.628 207.482 318.24V324H205.502V314.586H207.338V316.692C207.662 316.044 208.088 315.528 208.616 315.144C209.144 314.748 209.702 314.532 210.29 314.496C210.41 314.496 210.506 314.496 210.578 314.496C210.662 314.496 210.734 314.502 210.794 314.514V316.296ZM211.533 321.246C211.533 320.646 211.701 320.124 212.037 319.68C212.385 319.224 212.859 318.876 213.459 318.636C214.059 318.384 214.755 318.258 215.547 318.258C215.967 318.258 216.393 318.288 216.825 318.348C217.269 318.408 217.659 318.504 217.995 318.636V318.042C217.995 317.382 217.797 316.866 217.401 316.494C217.005 316.122 216.435 315.936 215.691 315.936C215.163 315.936 214.665 316.032 214.197 316.224C213.729 316.404 213.231 316.662 212.703 316.998L212.037 315.666C212.661 315.246 213.285 314.934 213.909 314.73C214.545 314.526 215.211 314.424 215.907 314.424C217.167 314.424 218.157 314.76 218.877 315.432C219.609 316.092 219.975 317.034 219.975 318.258V321.768C219.975 321.996 220.011 322.158 220.083 322.254C220.167 322.35 220.305 322.404 220.497 322.416V324C220.317 324.036 220.155 324.06 220.011 324.072C219.867 324.084 219.747 324.09 219.651 324.09C219.231 324.09 218.913 323.988 218.697 323.784C218.481 323.58 218.355 323.34 218.319 323.064L218.265 322.524C217.857 323.052 217.335 323.46 216.699 323.748C216.063 324.036 215.421 324.18 214.773 324.18C214.149 324.18 213.591 324.054 213.099 323.802C212.607 323.538 212.223 323.184 211.947 322.74C211.671 322.296 211.533 321.798 211.533 321.246ZM217.527 321.822C217.671 321.666 217.785 321.51 217.869 321.354C217.953 321.198 217.995 321.06 217.995 320.94V319.86C217.659 319.728 217.305 319.632 216.933 319.572C216.561 319.5 216.195 319.464 215.835 319.464C215.115 319.464 214.527 319.608 214.071 319.896C213.627 320.184 213.405 320.58 213.405 321.084C213.405 321.36 213.477 321.624 213.621 321.876C213.777 322.128 213.993 322.332 214.269 322.488C214.557 322.644 214.911 322.722 215.331 322.722C215.763 322.722 216.177 322.638 216.573 322.47C216.969 322.302 217.287 322.086 217.527 321.822ZM227.545 323.514C227.377 323.598 227.167 323.688 226.915 323.784C226.663 323.88 226.375 323.964 226.051 324.036C225.739 324.108 225.415 324.144 225.079 324.144C224.671 324.144 224.293 324.072 223.945 323.928C223.597 323.784 223.315 323.556 223.099 323.244C222.895 322.92 222.793 322.506 222.793 322.002V316.116H221.551V314.586H222.793V311.49H224.773V314.586H226.825V316.116H224.773V321.372C224.797 321.696 224.899 321.936 225.079 322.092C225.271 322.248 225.505 322.326 225.781 322.326C226.057 322.326 226.321 322.278 226.573 322.182C226.825 322.086 227.011 322.008 227.131 321.948L227.545 323.514ZM228.917 324V314.586H230.897V324H228.917ZM228.917 313.038V310.86H230.897V313.038H228.917ZM237.506 324.18C236.762 324.18 236.096 324.054 235.508 323.802C234.92 323.538 234.41 323.178 233.978 322.722C233.558 322.266 233.234 321.75 233.006 321.174C232.778 320.586 232.664 319.962 232.664 319.302C232.664 318.642 232.778 318.018 233.006 317.43C233.234 316.842 233.558 316.326 233.978 315.882C234.41 315.426 234.92 315.072 235.508 314.82C236.108 314.556 236.774 314.424 237.506 314.424C238.238 314.424 238.898 314.556 239.486 314.82C240.086 315.072 240.596 315.426 241.016 315.882C241.448 316.326 241.778 316.842 242.006 317.43C242.234 318.018 242.348 318.642 242.348 319.302C242.348 319.962 242.234 320.586 242.006 321.174C241.778 321.75 241.448 322.266 241.016 322.722C240.596 323.178 240.086 323.538 239.486 323.802C238.898 324.054 238.238 324.18 237.506 324.18ZM234.698 319.32C234.698 319.92 234.824 320.46 235.076 320.94C235.328 321.42 235.664 321.798 236.084 322.074C236.504 322.35 236.978 322.488 237.506 322.488C238.022 322.488 238.49 322.35 238.91 322.074C239.342 321.786 239.684 321.402 239.936 320.922C240.188 320.43 240.314 319.89 240.314 319.302C240.314 318.702 240.188 318.162 239.936 317.682C239.684 317.202 239.342 316.824 238.91 316.548C238.49 316.26 238.022 316.116 237.506 316.116C236.978 316.116 236.504 316.26 236.084 316.548C235.664 316.836 235.328 317.22 235.076 317.7C234.824 318.168 234.698 318.708 234.698 319.32ZM252.546 324H250.566V318.726C250.566 317.85 250.422 317.208 250.134 316.8C249.858 316.392 249.444 316.188 248.892 316.188C248.508 316.188 248.124 316.284 247.74 316.476C247.368 316.668 247.032 316.932 246.732 317.268C246.432 317.592 246.216 317.97 246.084 318.402V324H244.104V314.586H245.904V316.476C246.144 316.056 246.456 315.696 246.84 315.396C247.236 315.084 247.68 314.844 248.172 314.676C248.664 314.508 249.186 314.424 249.738 314.424C250.302 314.424 250.764 314.526 251.124 314.73C251.496 314.934 251.784 315.216 251.988 315.576C252.204 315.924 252.348 316.332 252.42 316.8C252.504 317.256 252.546 317.742 252.546 318.258V324ZM258.608 321.246C258.608 320.646 258.776 320.124 259.112 319.68C259.46 319.224 259.934 318.876 260.534 318.636C261.134 318.384 261.83 318.258 262.622 318.258C263.042 318.258 263.468 318.288 263.9 318.348C264.344 318.408 264.734 318.504 265.07 318.636V318.042C265.07 317.382 264.872 316.866 264.476 316.494C264.08 316.122 263.51 315.936 262.766 315.936C262.238 315.936 261.74 316.032 261.272 316.224C260.804 316.404 260.306 316.662 259.778 316.998L259.112 315.666C259.736 315.246 260.36 314.934 260.984 314.73C261.62 314.526 262.286 314.424 262.982 314.424C264.242 314.424 265.232 314.76 265.952 315.432C266.684 316.092 267.05 317.034 267.05 318.258V321.768C267.05 321.996 267.086 322.158 267.158 322.254C267.242 322.35 267.38 322.404 267.572 322.416V324C267.392 324.036 267.23 324.06 267.086 324.072C266.942 324.084 266.822 324.09 266.726 324.09C266.306 324.09 265.988 323.988 265.772 323.784C265.556 323.58 265.43 323.34 265.394 323.064L265.34 322.524C264.932 323.052 264.41 323.46 263.774 323.748C263.138 324.036 262.496 324.18 261.848 324.18C261.224 324.18 260.666 324.054 260.174 323.802C259.682 323.538 259.298 323.184 259.022 322.74C258.746 322.296 258.608 321.798 258.608 321.246ZM264.602 321.822C264.746 321.666 264.86 321.51 264.944 321.354C265.028 321.198 265.07 321.06 265.07 320.94V319.86C264.734 319.728 264.38 319.632 264.008 319.572C263.636 319.5 263.27 319.464 262.91 319.464C262.19 319.464 261.602 319.608 261.146 319.896C260.702 320.184 260.48 320.58 260.48 321.084C260.48 321.36 260.552 321.624 260.696 321.876C260.852 322.128 261.068 322.332 261.344 322.488C261.632 322.644 261.986 322.722 262.406 322.722C262.838 322.722 263.252 322.638 263.648 322.47C264.044 322.302 264.362 322.086 264.602 321.822ZM277.894 324H275.914V318.726C275.914 317.85 275.77 317.208 275.482 316.8C275.206 316.392 274.792 316.188 274.24 316.188C273.856 316.188 273.472 316.284 273.088 316.476C272.716 316.668 272.38 316.932 272.08 317.268C271.78 317.592 271.564 317.97 271.432 318.402V324H269.452V314.586H271.252V316.476C271.492 316.056 271.804 315.696 272.188 315.396C272.584 315.084 273.028 314.844 273.52 314.676C274.012 314.508 274.534 314.424 275.086 314.424C275.65 314.424 276.112 314.526 276.472 314.73C276.844 314.934 277.132 315.216 277.336 315.576C277.552 315.924 277.696 316.332 277.768 316.8C277.852 317.256 277.894 317.742 277.894 318.258V324ZM279.598 319.302C279.598 318.402 279.778 317.586 280.138 316.854C280.51 316.11 281.014 315.522 281.65 315.09C282.286 314.646 283.018 314.424 283.846 314.424C284.566 314.424 285.214 314.61 285.79 314.982C286.378 315.354 286.834 315.816 287.158 316.368V310.86H289.138V321.768C289.138 321.996 289.18 322.158 289.264 322.254C289.348 322.35 289.486 322.404 289.678 322.416V324C289.306 324.06 289.018 324.09 288.814 324.09C288.442 324.09 288.124 323.982 287.86 323.766C287.608 323.55 287.476 323.292 287.464 322.992L287.446 322.29C287.086 322.89 286.6 323.358 285.988 323.694C285.376 324.018 284.74 324.18 284.08 324.18C283.432 324.18 282.832 324.054 282.28 323.802C281.74 323.55 281.266 323.196 280.858 322.74C280.462 322.284 280.15 321.762 279.922 321.174C279.706 320.586 279.598 319.962 279.598 319.302ZM287.158 320.616V318.15C287.026 317.766 286.81 317.424 286.51 317.124C286.222 316.812 285.892 316.566 285.52 316.386C285.16 316.206 284.8 316.116 284.44 316.116C284.02 316.116 283.636 316.206 283.288 316.386C282.952 316.566 282.658 316.806 282.406 317.106C282.166 317.406 281.98 317.748 281.848 318.132C281.716 318.516 281.65 318.918 281.65 319.338C281.65 319.77 281.722 320.178 281.866 320.562C282.01 320.934 282.214 321.27 282.478 321.57C282.754 321.858 283.066 322.086 283.414 322.254C283.774 322.41 284.164 322.488 284.584 322.488C284.848 322.488 285.112 322.44 285.376 322.344C285.652 322.248 285.91 322.116 286.15 321.948C286.402 321.78 286.612 321.582 286.78 321.354C286.96 321.126 287.086 320.88 287.158 320.616ZM304.542 324H302.562V318.726C302.562 317.874 302.406 317.238 302.094 316.818C301.782 316.398 301.344 316.188 300.78 316.188C300.432 316.188 300.072 316.284 299.7 316.476C299.328 316.668 298.998 316.932 298.71 317.268C298.422 317.592 298.212 317.97 298.08 318.402V324H296.1V310.86H298.08V316.476C298.44 315.84 298.932 315.342 299.556 314.982C300.18 314.61 300.852 314.424 301.572 314.424C302.16 314.424 302.646 314.526 303.03 314.73C303.414 314.934 303.714 315.216 303.93 315.576C304.158 315.924 304.314 316.332 304.398 316.8C304.494 317.256 304.542 317.742 304.542 318.258V324ZM311.106 324.18C310.374 324.18 309.708 324.054 309.108 323.802C308.52 323.538 308.01 323.184 307.578 322.74C307.146 322.284 306.81 321.768 306.57 321.192C306.342 320.604 306.228 319.98 306.228 319.32C306.228 318.432 306.432 317.622 306.84 316.89C307.248 316.146 307.818 315.552 308.55 315.108C309.282 314.652 310.14 314.424 311.124 314.424C312.108 314.424 312.954 314.652 313.662 315.108C314.382 315.552 314.94 316.14 315.336 316.872C315.732 317.604 315.93 318.39 315.93 319.23C315.93 319.374 315.924 319.512 315.912 319.644C315.9 319.764 315.888 319.866 315.876 319.95H308.334C308.37 320.502 308.52 320.988 308.784 321.408C309.06 321.816 309.408 322.14 309.828 322.38C310.248 322.608 310.698 322.722 311.178 322.722C311.706 322.722 312.204 322.59 312.672 322.326C313.152 322.062 313.476 321.714 313.644 321.282L315.336 321.768C315.132 322.224 314.82 322.638 314.4 323.01C313.992 323.37 313.506 323.658 312.942 323.874C312.378 324.078 311.766 324.18 311.106 324.18ZM308.28 318.636H313.968C313.932 318.096 313.776 317.622 313.5 317.214C313.236 316.794 312.894 316.47 312.474 316.242C312.066 316.002 311.61 315.882 311.106 315.882C310.614 315.882 310.158 316.002 309.738 316.242C309.33 316.47 308.994 316.794 308.73 317.214C308.466 317.622 308.316 318.096 308.28 318.636ZM317.563 310.86H319.543V321.282C319.543 321.762 319.615 322.068 319.759 322.2C319.903 322.332 320.083 322.398 320.299 322.398C320.539 322.398 320.761 322.374 320.965 322.326C321.181 322.278 321.367 322.218 321.523 322.146L321.811 323.712C321.523 323.832 321.181 323.934 320.785 324.018C320.389 324.102 320.035 324.144 319.723 324.144C319.051 324.144 318.523 323.958 318.139 323.586C317.755 323.202 317.563 322.674 317.563 322.002V310.86ZM328.305 324.18C327.549 324.18 326.883 324 326.307 323.64C325.731 323.28 325.275 322.812 324.939 322.236V327.834H322.959V314.586H324.705V316.278C325.065 315.714 325.533 315.264 326.109 314.928C326.685 314.592 327.327 314.424 328.035 314.424C328.683 314.424 329.277 314.556 329.817 314.82C330.357 315.072 330.825 315.426 331.221 315.882C331.617 316.338 331.923 316.86 332.139 317.448C332.367 318.024 332.481 318.636 332.481 319.284C332.481 320.184 332.301 321.006 331.941 321.75C331.593 322.494 331.101 323.088 330.465 323.532C329.841 323.964 329.121 324.18 328.305 324.18ZM327.657 322.488C328.077 322.488 328.455 322.398 328.791 322.218C329.139 322.038 329.433 321.798 329.673 321.498C329.925 321.198 330.117 320.856 330.249 320.472C330.381 320.088 330.447 319.692 330.447 319.284C330.447 318.852 330.375 318.444 330.231 318.06C330.087 317.676 329.877 317.34 329.601 317.052C329.337 316.764 329.025 316.536 328.665 316.368C328.317 316.2 327.933 316.116 327.513 316.116C327.261 316.116 326.997 316.164 326.721 316.26C326.445 316.356 326.187 316.488 325.947 316.656C325.707 316.824 325.497 317.022 325.317 317.25C325.137 317.478 325.011 317.718 324.939 317.97V320.436C325.107 320.82 325.329 321.168 325.605 321.48C325.881 321.78 326.199 322.026 326.559 322.218C326.919 322.398 327.285 322.488 327.657 322.488ZM337.61 324.18C336.818 324.18 336.068 324.054 335.36 323.802C334.652 323.538 334.046 323.148 333.542 322.632L334.28 321.3C334.82 321.78 335.36 322.128 335.9 322.344C336.452 322.56 336.998 322.668 337.538 322.668C338.09 322.668 338.54 322.566 338.888 322.362C339.236 322.146 339.41 321.834 339.41 321.426C339.41 321.126 339.32 320.904 339.14 320.76C338.96 320.616 338.696 320.49 338.348 320.382C338.012 320.274 337.604 320.154 337.124 320.022C336.452 319.818 335.888 319.608 335.432 319.392C334.976 319.164 334.634 318.888 334.406 318.564C334.178 318.24 334.064 317.826 334.064 317.322C334.064 316.71 334.22 316.188 334.532 315.756C334.844 315.324 335.276 314.994 335.828 314.766C336.392 314.538 337.04 314.424 337.772 314.424C338.456 314.424 339.086 314.532 339.662 314.748C340.25 314.952 340.766 315.276 341.21 315.72L340.364 317.034C339.944 316.65 339.512 316.368 339.068 316.188C338.636 316.008 338.168 315.918 337.664 315.918C337.376 315.918 337.1 315.954 336.836 316.026C336.572 316.086 336.35 316.206 336.17 316.386C336.002 316.554 335.918 316.794 335.918 317.106C335.918 317.358 335.99 317.562 336.134 317.718C336.278 317.874 336.494 318.006 336.782 318.114C337.07 318.222 337.424 318.342 337.844 318.474C338.576 318.69 339.2 318.906 339.716 319.122C340.232 319.326 340.628 319.596 340.904 319.932C341.192 320.256 341.336 320.706 341.336 321.282C341.336 322.194 340.994 322.908 340.31 323.424C339.638 323.928 338.738 324.18 337.61 324.18ZM72.9945 352.18C72.2745 352.18 71.6205 352.012 71.0325 351.676C70.4565 351.328 70.0005 350.866 69.6645 350.29V352H67.9185V338.86H69.8985V344.368C70.2705 343.768 70.7325 343.294 71.2845 342.946C71.8485 342.598 72.5085 342.424 73.2645 342.424C73.8885 342.424 74.4585 342.556 74.9745 342.82C75.4905 343.084 75.9285 343.444 76.2885 343.9C76.6605 344.356 76.9425 344.878 77.1345 345.466C77.3385 346.054 77.4405 346.678 77.4405 347.338C77.4405 347.998 77.3265 348.622 77.0985 349.21C76.8825 349.798 76.5705 350.314 76.1625 350.758C75.7545 351.202 75.2805 351.55 74.7405 351.802C74.2125 352.054 73.6305 352.18 72.9945 352.18ZM72.4725 350.488C72.9045 350.488 73.3005 350.404 73.6605 350.236C74.0205 350.056 74.3325 349.822 74.5965 349.534C74.8605 349.246 75.0585 348.91 75.1905 348.526C75.3345 348.142 75.4065 347.746 75.4065 347.338C75.4065 346.774 75.2865 346.246 75.0465 345.754C74.8185 345.262 74.4945 344.866 74.0745 344.566C73.6545 344.266 73.1685 344.116 72.6165 344.116C72.2205 344.116 71.8485 344.212 71.5005 344.404C71.1525 344.584 70.8405 344.83 70.5645 345.142C70.3005 345.442 70.0785 345.778 69.8985 346.15V348.634C69.9705 348.91 70.0965 349.162 70.2765 349.39C70.4565 349.606 70.6665 349.798 70.9065 349.966C71.1465 350.122 71.4045 350.248 71.6805 350.344C71.9565 350.44 72.2205 350.488 72.4725 350.488ZM79.1312 348.346V342.586H81.1112V347.95C81.1112 348.79 81.2612 349.426 81.5612 349.858C81.8732 350.278 82.3232 350.488 82.9112 350.488C83.2832 350.488 83.6432 350.41 83.9912 350.254C84.3512 350.098 84.6752 349.87 84.9632 349.57C85.2632 349.258 85.5032 348.886 85.6832 348.454V342.586H87.6632V349.768C87.6632 349.996 87.7052 350.158 87.7892 350.254C87.8732 350.35 88.0112 350.404 88.2032 350.416V352C87.9992 352.036 87.8312 352.06 87.6992 352.072C87.5672 352.084 87.4412 352.09 87.3212 352.09C86.9612 352.09 86.6612 351.994 86.4212 351.802C86.1812 351.598 86.0432 351.34 86.0072 351.028L85.9712 350.092C85.5512 350.776 85.0052 351.298 84.3332 351.658C83.6612 352.006 82.9232 352.18 82.1192 352.18C81.1352 352.18 80.3912 351.856 79.8872 351.208C79.3832 350.56 79.1312 349.606 79.1312 348.346ZM93.538 352.18C92.746 352.18 91.996 352.054 91.288 351.802C90.58 351.538 89.974 351.148 89.47 350.632L90.208 349.3C90.748 349.78 91.288 350.128 91.828 350.344C92.38 350.56 92.926 350.668 93.466 350.668C94.018 350.668 94.468 350.566 94.816 350.362C95.164 350.146 95.338 349.834 95.338 349.426C95.338 349.126 95.248 348.904 95.068 348.76C94.888 348.616 94.624 348.49 94.276 348.382C93.94 348.274 93.532 348.154 93.052 348.022C92.38 347.818 91.816 347.608 91.36 347.392C90.904 347.164 90.562 346.888 90.334 346.564C90.106 346.24 89.992 345.826 89.992 345.322C89.992 344.71 90.148 344.188 90.46 343.756C90.772 343.324 91.204 342.994 91.756 342.766C92.32 342.538 92.968 342.424 93.7 342.424C94.384 342.424 95.014 342.532 95.59 342.748C96.178 342.952 96.694 343.276 97.138 343.72L96.292 345.034C95.872 344.65 95.44 344.368 94.996 344.188C94.564 344.008 94.096 343.918 93.592 343.918C93.304 343.918 93.028 343.954 92.764 344.026C92.5 344.086 92.278 344.206 92.098 344.386C91.93 344.554 91.846 344.794 91.846 345.106C91.846 345.358 91.918 345.562 92.062 345.718C92.206 345.874 92.422 346.006 92.71 346.114C92.998 346.222 93.352 346.342 93.772 346.474C94.504 346.69 95.128 346.906 95.644 347.122C96.16 347.326 96.556 347.596 96.832 347.932C97.12 348.256 97.264 348.706 97.264 349.282C97.264 350.194 96.922 350.908 96.238 351.424C95.566 351.928 94.666 352.18 93.538 352.18ZM99.0317 352V342.586H101.012V352H99.0317ZM99.0317 341.038V338.86H101.012V341.038H99.0317ZM111.833 352H109.853V346.726C109.853 345.85 109.709 345.208 109.421 344.8C109.145 344.392 108.731 344.188 108.179 344.188C107.795 344.188 107.411 344.284 107.027 344.476C106.655 344.668 106.319 344.932 106.019 345.268C105.719 345.592 105.503 345.97 105.371 346.402V352H103.391V342.586H105.191V344.476C105.431 344.056 105.743 343.696 106.127 343.396C106.523 343.084 106.967 342.844 107.459 342.676C107.951 342.508 108.473 342.424 109.025 342.424C109.589 342.424 110.051 342.526 110.411 342.73C110.783 342.934 111.071 343.216 111.275 343.576C111.491 343.924 111.635 344.332 111.707 344.8C111.791 345.256 111.833 345.742 111.833 346.258V352ZM118.397 352.18C117.665 352.18 116.999 352.054 116.399 351.802C115.811 351.538 115.301 351.184 114.869 350.74C114.437 350.284 114.101 349.768 113.861 349.192C113.633 348.604 113.519 347.98 113.519 347.32C113.519 346.432 113.723 345.622 114.131 344.89C114.539 344.146 115.109 343.552 115.841 343.108C116.573 342.652 117.431 342.424 118.415 342.424C119.399 342.424 120.245 342.652 120.953 343.108C121.673 343.552 122.231 344.14 122.627 344.872C123.023 345.604 123.221 346.39 123.221 347.23C123.221 347.374 123.215 347.512 123.203 347.644C123.191 347.764 123.179 347.866 123.167 347.95H115.625C115.661 348.502 115.811 348.988 116.075 349.408C116.351 349.816 116.699 350.14 117.119 350.38C117.539 350.608 117.989 350.722 118.469 350.722C118.997 350.722 119.495 350.59 119.963 350.326C120.443 350.062 120.767 349.714 120.935 349.282L122.627 349.768C122.423 350.224 122.111 350.638 121.691 351.01C121.283 351.37 120.797 351.658 120.233 351.874C119.669 352.078 119.057 352.18 118.397 352.18ZM115.571 346.636H121.259C121.223 346.096 121.067 345.622 120.791 345.214C120.527 344.794 120.185 344.47 119.765 344.242C119.357 344.002 118.901 343.882 118.397 343.882C117.905 343.882 117.449 344.002 117.029 344.242C116.621 344.47 116.285 344.794 116.021 345.214C115.757 345.622 115.607 346.096 115.571 346.636ZM128.184 352.18C127.392 352.18 126.642 352.054 125.934 351.802C125.226 351.538 124.62 351.148 124.116 350.632L124.854 349.3C125.394 349.78 125.934 350.128 126.474 350.344C127.026 350.56 127.572 350.668 128.112 350.668C128.664 350.668 129.114 350.566 129.462 350.362C129.81 350.146 129.984 349.834 129.984 349.426C129.984 349.126 129.894 348.904 129.714 348.76C129.534 348.616 129.27 348.49 128.922 348.382C128.586 348.274 128.178 348.154 127.698 348.022C127.026 347.818 126.462 347.608 126.006 347.392C125.55 347.164 125.208 346.888 124.98 346.564C124.752 346.24 124.638 345.826 124.638 345.322C124.638 344.71 124.794 344.188 125.106 343.756C125.418 343.324 125.85 342.994 126.402 342.766C126.966 342.538 127.614 342.424 128.346 342.424C129.03 342.424 129.66 342.532 130.236 342.748C130.824 342.952 131.34 343.276 131.784 343.72L130.938 345.034C130.518 344.65 130.086 344.368 129.642 344.188C129.21 344.008 128.742 343.918 128.238 343.918C127.95 343.918 127.674 343.954 127.41 344.026C127.146 344.086 126.924 344.206 126.744 344.386C126.576 344.554 126.492 344.794 126.492 345.106C126.492 345.358 126.564 345.562 126.708 345.718C126.852 345.874 127.068 346.006 127.356 346.114C127.644 346.222 127.998 346.342 128.418 346.474C129.15 346.69 129.774 346.906 130.29 347.122C130.806 347.326 131.202 347.596 131.478 347.932C131.766 348.256 131.91 348.706 131.91 349.282C131.91 350.194 131.568 350.908 130.884 351.424C130.212 351.928 129.312 352.18 128.184 352.18ZM137.026 352.18C136.234 352.18 135.484 352.054 134.776 351.802C134.068 351.538 133.462 351.148 132.958 350.632L133.696 349.3C134.236 349.78 134.776 350.128 135.316 350.344C135.868 350.56 136.414 350.668 136.954 350.668C137.506 350.668 137.956 350.566 138.304 350.362C138.652 350.146 138.826 349.834 138.826 349.426C138.826 349.126 138.736 348.904 138.556 348.76C138.376 348.616 138.112 348.49 137.764 348.382C137.428 348.274 137.02 348.154 136.54 348.022C135.868 347.818 135.304 347.608 134.848 347.392C134.392 347.164 134.05 346.888 133.822 346.564C133.594 346.24 133.48 345.826 133.48 345.322C133.48 344.71 133.636 344.188 133.948 343.756C134.26 343.324 134.692 342.994 135.244 342.766C135.808 342.538 136.456 342.424 137.188 342.424C137.872 342.424 138.502 342.532 139.078 342.748C139.666 342.952 140.182 343.276 140.626 343.72L139.78 345.034C139.36 344.65 138.928 344.368 138.484 344.188C138.052 344.008 137.584 343.918 137.08 343.918C136.792 343.918 136.516 343.954 136.252 344.026C135.988 344.086 135.766 344.206 135.586 344.386C135.418 344.554 135.334 344.794 135.334 345.106C135.334 345.358 135.406 345.562 135.55 345.718C135.694 345.874 135.91 346.006 136.198 346.114C136.486 346.222 136.84 346.342 137.26 346.474C137.992 346.69 138.616 346.906 139.132 347.122C139.648 347.326 140.044 347.596 140.32 347.932C140.608 348.256 140.752 348.706 140.752 349.282C140.752 350.194 140.41 350.908 139.726 351.424C139.054 351.928 138.154 352.18 137.026 352.18ZM146.786 352.18C146.054 352.18 145.388 352.054 144.788 351.802C144.2 351.538 143.69 351.184 143.258 350.74C142.826 350.284 142.49 349.768 142.25 349.192C142.022 348.604 141.908 347.98 141.908 347.32C141.908 346.432 142.112 345.622 142.52 344.89C142.928 344.146 143.498 343.552 144.23 343.108C144.962 342.652 145.82 342.424 146.804 342.424C147.788 342.424 148.634 342.652 149.342 343.108C150.062 343.552 150.62 344.14 151.016 344.872C151.412 345.604 151.61 346.39 151.61 347.23C151.61 347.374 151.604 347.512 151.592 347.644C151.58 347.764 151.568 347.866 151.556 347.95H144.014C144.05 348.502 144.2 348.988 144.464 349.408C144.74 349.816 145.088 350.14 145.508 350.38C145.928 350.608 146.378 350.722 146.858 350.722C147.386 350.722 147.884 350.59 148.352 350.326C148.832 350.062 149.156 349.714 149.324 349.282L151.016 349.768C150.812 350.224 150.5 350.638 150.08 351.01C149.672 351.37 149.186 351.658 148.622 351.874C148.058 352.078 147.446 352.18 146.786 352.18ZM143.96 346.636H149.648C149.612 346.096 149.456 345.622 149.18 345.214C148.916 344.794 148.574 344.47 148.154 344.242C147.746 344.002 147.29 343.882 146.786 343.882C146.294 343.882 145.838 344.002 145.418 344.242C145.01 344.47 144.674 344.794 144.41 345.214C144.146 345.622 143.996 346.096 143.96 346.636ZM156.573 352.18C155.781 352.18 155.031 352.054 154.323 351.802C153.615 351.538 153.009 351.148 152.505 350.632L153.243 349.3C153.783 349.78 154.323 350.128 154.863 350.344C155.415 350.56 155.961 350.668 156.501 350.668C157.053 350.668 157.503 350.566 157.851 350.362C158.199 350.146 158.373 349.834 158.373 349.426C158.373 349.126 158.283 348.904 158.103 348.76C157.923 348.616 157.659 348.49 157.311 348.382C156.975 348.274 156.567 348.154 156.087 348.022C155.415 347.818 154.851 347.608 154.395 347.392C153.939 347.164 153.597 346.888 153.369 346.564C153.141 346.24 153.027 345.826 153.027 345.322C153.027 344.71 153.183 344.188 153.495 343.756C153.807 343.324 154.239 342.994 154.791 342.766C155.355 342.538 156.003 342.424 156.735 342.424C157.419 342.424 158.049 342.532 158.625 342.748C159.213 342.952 159.729 343.276 160.173 343.72L159.327 345.034C158.907 344.65 158.475 344.368 158.031 344.188C157.599 344.008 157.131 343.918 156.627 343.918C156.339 343.918 156.063 343.954 155.799 344.026C155.535 344.086 155.313 344.206 155.133 344.386C154.965 344.554 154.881 344.794 154.881 345.106C154.881 345.358 154.953 345.562 155.097 345.718C155.241 345.874 155.457 346.006 155.745 346.114C156.033 346.222 156.387 346.342 156.807 346.474C157.539 346.69 158.163 346.906 158.679 347.122C159.195 347.326 159.591 347.596 159.867 347.932C160.155 348.256 160.299 348.706 160.299 349.282C160.299 350.194 159.957 350.908 159.273 351.424C158.601 351.928 157.701 352.18 156.573 352.18ZM170.24 352.09C169.604 352.09 169.022 351.964 168.494 351.712C167.966 351.448 167.51 351.094 167.126 350.65C166.754 350.206 166.46 349.696 166.244 349.12C166.04 348.544 165.938 347.938 165.938 347.302C165.938 346.63 166.046 346 166.262 345.412C166.478 344.824 166.778 344.308 167.162 343.864C167.558 343.408 168.02 343.054 168.548 342.802C169.076 342.55 169.664 342.424 170.312 342.424C171.068 342.424 171.728 342.604 172.292 342.964C172.868 343.324 173.342 343.792 173.714 344.368V342.586H175.46V351.73C175.46 352.642 175.238 353.416 174.794 354.052C174.362 354.688 173.768 355.174 173.012 355.51C172.256 355.846 171.404 356.014 170.456 356.014C169.412 356.014 168.548 355.834 167.864 355.474C167.18 355.114 166.598 354.622 166.118 353.998L167.234 352.954C167.594 353.458 168.056 353.842 168.62 354.106C169.196 354.37 169.808 354.502 170.456 354.502C170.996 354.502 171.494 354.4 171.95 354.196C172.418 354.004 172.79 353.698 173.066 353.278C173.342 352.87 173.48 352.354 173.48 351.73V350.29C173.144 350.854 172.682 351.298 172.094 351.622C171.506 351.934 170.888 352.09 170.24 352.09ZM170.888 350.488C171.188 350.488 171.476 350.44 171.752 350.344C172.028 350.236 172.28 350.098 172.508 349.93C172.748 349.75 172.952 349.552 173.12 349.336C173.288 349.108 173.408 348.868 173.48 348.616V346.15C173.324 345.742 173.102 345.388 172.814 345.088C172.526 344.776 172.202 344.536 171.842 344.368C171.482 344.2 171.116 344.116 170.744 344.116C170.312 344.116 169.922 344.212 169.574 344.404C169.238 344.584 168.95 344.83 168.71 345.142C168.47 345.442 168.284 345.784 168.152 346.168C168.02 346.552 167.954 346.948 167.954 347.356C167.954 347.788 168.026 348.19 168.17 348.562C168.326 348.934 168.536 349.27 168.8 349.57C169.064 349.858 169.376 350.086 169.736 350.254C170.096 350.41 170.48 350.488 170.888 350.488ZM183.126 344.296C182.358 344.308 181.674 344.482 181.074 344.818C180.486 345.154 180.066 345.628 179.814 346.24V352H177.834V342.586H179.67V344.692C179.994 344.044 180.42 343.528 180.948 343.144C181.476 342.748 182.034 342.532 182.622 342.496C182.742 342.496 182.838 342.496 182.91 342.496C182.994 342.496 183.066 342.502 183.126 342.514V344.296ZM188.621 352.18C187.877 352.18 187.211 352.054 186.623 351.802C186.035 351.538 185.525 351.178 185.093 350.722C184.673 350.266 184.349 349.75 184.121 349.174C183.893 348.586 183.779 347.962 183.779 347.302C183.779 346.642 183.893 346.018 184.121 345.43C184.349 344.842 184.673 344.326 185.093 343.882C185.525 343.426 186.035 343.072 186.623 342.82C187.223 342.556 187.889 342.424 188.621 342.424C189.353 342.424 190.013 342.556 190.601 342.82C191.201 343.072 191.711 343.426 192.131 343.882C192.563 344.326 192.893 344.842 193.121 345.43C193.349 346.018 193.463 346.642 193.463 347.302C193.463 347.962 193.349 348.586 193.121 349.174C192.893 349.75 192.563 350.266 192.131 350.722C191.711 351.178 191.201 351.538 190.601 351.802C190.013 352.054 189.353 352.18 188.621 352.18ZM185.813 347.32C185.813 347.92 185.939 348.46 186.191 348.94C186.443 349.42 186.779 349.798 187.199 350.074C187.619 350.35 188.093 350.488 188.621 350.488C189.137 350.488 189.605 350.35 190.025 350.074C190.457 349.786 190.799 349.402 191.051 348.922C191.303 348.43 191.429 347.89 191.429 347.302C191.429 346.702 191.303 346.162 191.051 345.682C190.799 345.202 190.457 344.824 190.025 344.548C189.605 344.26 189.137 344.116 188.621 344.116C188.093 344.116 187.619 344.26 187.199 344.548C186.779 344.836 186.443 345.22 186.191 345.7C185.939 346.168 185.813 346.708 185.813 347.32ZM206.639 342.586H208.529L204.569 352H202.877L201.185 347.752L199.493 352H197.801L193.823 342.586H195.713L198.737 350.074L200.069 346.6L198.449 342.604H200.123L201.185 345.538L202.229 342.604H203.903L202.301 346.6L203.633 350.074L206.639 342.586ZM219.02 351.514C218.852 351.598 218.642 351.688 218.39 351.784C218.138 351.88 217.85 351.964 217.526 352.036C217.214 352.108 216.89 352.144 216.554 352.144C216.146 352.144 215.768 352.072 215.42 351.928C215.072 351.784 214.79 351.556 214.574 351.244C214.37 350.92 214.268 350.506 214.268 350.002V344.116H213.026V342.586H214.268V339.49H216.248V342.586H218.3V344.116H216.248V349.372C216.272 349.696 216.374 349.936 216.554 350.092C216.746 350.248 216.98 350.326 217.256 350.326C217.532 350.326 217.796 350.278 218.048 350.182C218.3 350.086 218.486 350.008 218.606 349.948L219.02 351.514ZM228.833 352H226.853V346.726C226.853 345.874 226.697 345.238 226.385 344.818C226.073 344.398 225.635 344.188 225.071 344.188C224.723 344.188 224.363 344.284 223.991 344.476C223.619 344.668 223.289 344.932 223.001 345.268C222.713 345.592 222.503 345.97 222.371 346.402V352H220.391V338.86H222.371V344.476C222.731 343.84 223.223 343.342 223.847 342.982C224.471 342.61 225.143 342.424 225.863 342.424C226.451 342.424 226.937 342.526 227.321 342.73C227.705 342.934 228.005 343.216 228.221 343.576C228.449 343.924 228.605 344.332 228.689 344.8C228.785 345.256 228.833 345.742 228.833 346.258V352ZM236.423 344.296C235.655 344.308 234.971 344.482 234.371 344.818C233.783 345.154 233.363 345.628 233.111 346.24V352H231.131V342.586H232.967V344.692C233.291 344.044 233.717 343.528 234.245 343.144C234.773 342.748 235.331 342.532 235.919 342.496C236.039 342.496 236.135 342.496 236.207 342.496C236.291 342.496 236.363 342.502 236.423 342.514V344.296ZM241.918 352.18C241.174 352.18 240.508 352.054 239.92 351.802C239.332 351.538 238.822 351.178 238.39 350.722C237.97 350.266 237.646 349.75 237.418 349.174C237.19 348.586 237.076 347.962 237.076 347.302C237.076 346.642 237.19 346.018 237.418 345.43C237.646 344.842 237.97 344.326 238.39 343.882C238.822 343.426 239.332 343.072 239.92 342.82C240.52 342.556 241.186 342.424 241.918 342.424C242.65 342.424 243.31 342.556 243.898 342.82C244.498 343.072 245.008 343.426 245.428 343.882C245.86 344.326 246.19 344.842 246.418 345.43C246.646 346.018 246.76 346.642 246.76 347.302C246.76 347.962 246.646 348.586 246.418 349.174C246.19 349.75 245.86 350.266 245.428 350.722C245.008 351.178 244.498 351.538 243.898 351.802C243.31 352.054 242.65 352.18 241.918 352.18ZM239.11 347.32C239.11 347.92 239.236 348.46 239.488 348.94C239.74 349.42 240.076 349.798 240.496 350.074C240.916 350.35 241.39 350.488 241.918 350.488C242.434 350.488 242.902 350.35 243.322 350.074C243.754 349.786 244.096 349.402 244.348 348.922C244.6 348.43 244.726 347.89 244.726 347.302C244.726 346.702 244.6 346.162 244.348 345.682C244.096 345.202 243.754 344.824 243.322 344.548C242.902 344.26 242.434 344.116 241.918 344.116C241.39 344.116 240.916 344.26 240.496 344.548C240.076 344.836 239.74 345.22 239.488 345.7C239.236 346.168 239.11 346.708 239.11 347.32ZM248.426 348.346V342.586H250.406V347.95C250.406 348.79 250.556 349.426 250.856 349.858C251.168 350.278 251.618 350.488 252.206 350.488C252.578 350.488 252.938 350.41 253.286 350.254C253.646 350.098 253.97 349.87 254.258 349.57C254.558 349.258 254.798 348.886 254.978 348.454V342.586H256.958V349.768C256.958 349.996 257 350.158 257.084 350.254C257.168 350.35 257.306 350.404 257.498 350.416V352C257.294 352.036 257.126 352.06 256.994 352.072C256.862 352.084 256.736 352.09 256.616 352.09C256.256 352.09 255.956 351.994 255.716 351.802C255.476 351.598 255.338 351.34 255.302 351.028L255.266 350.092C254.846 350.776 254.3 351.298 253.628 351.658C252.956 352.006 252.218 352.18 251.414 352.18C250.43 352.18 249.686 351.856 249.182 351.208C248.678 350.56 248.426 349.606 248.426 348.346ZM263.211 352.09C262.575 352.09 261.993 351.964 261.465 351.712C260.937 351.448 260.481 351.094 260.097 350.65C259.725 350.206 259.431 349.696 259.215 349.12C259.011 348.544 258.909 347.938 258.909 347.302C258.909 346.63 259.017 346 259.233 345.412C259.449 344.824 259.749 344.308 260.133 343.864C260.529 343.408 260.991 343.054 261.519 342.802C262.047 342.55 262.635 342.424 263.283 342.424C264.039 342.424 264.699 342.604 265.263 342.964C265.839 343.324 266.313 343.792 266.685 344.368V342.586H268.431V351.73C268.431 352.642 268.209 353.416 267.765 354.052C267.333 354.688 266.739 355.174 265.983 355.51C265.227 355.846 264.375 356.014 263.427 356.014C262.383 356.014 261.519 355.834 260.835 355.474C260.151 355.114 259.569 354.622 259.089 353.998L260.205 352.954C260.565 353.458 261.027 353.842 261.591 354.106C262.167 354.37 262.779 354.502 263.427 354.502C263.967 354.502 264.465 354.4 264.921 354.196C265.389 354.004 265.761 353.698 266.037 353.278C266.313 352.87 266.451 352.354 266.451 351.73V350.29C266.115 350.854 265.653 351.298 265.065 351.622C264.477 351.934 263.859 352.09 263.211 352.09ZM263.859 350.488C264.159 350.488 264.447 350.44 264.723 350.344C264.999 350.236 265.251 350.098 265.479 349.93C265.719 349.75 265.923 349.552 266.091 349.336C266.259 349.108 266.379 348.868 266.451 348.616V346.15C266.295 345.742 266.073 345.388 265.785 345.088C265.497 344.776 265.173 344.536 264.813 344.368C264.453 344.2 264.087 344.116 263.715 344.116C263.283 344.116 262.893 344.212 262.545 344.404C262.209 344.584 261.921 344.83 261.681 345.142C261.441 345.442 261.255 345.784 261.123 346.168C260.991 346.552 260.925 346.948 260.925 347.356C260.925 347.788 260.997 348.19 261.141 348.562C261.297 348.934 261.507 349.27 261.771 349.57C262.035 349.858 262.347 350.086 262.707 350.254C263.067 350.41 263.451 350.488 263.859 350.488ZM279.247 352H277.267V346.726C277.267 345.874 277.111 345.238 276.799 344.818C276.487 344.398 276.049 344.188 275.485 344.188C275.137 344.188 274.777 344.284 274.405 344.476C274.033 344.668 273.703 344.932 273.415 345.268C273.127 345.592 272.917 345.97 272.785 346.402V352H270.805V338.86H272.785V344.476C273.145 343.84 273.637 343.342 274.261 342.982C274.885 342.61 275.557 342.424 276.277 342.424C276.865 342.424 277.351 342.526 277.735 342.73C278.119 342.934 278.419 343.216 278.635 343.576C278.863 343.924 279.019 344.332 279.103 344.8C279.199 345.256 279.247 345.742 279.247 346.258V352ZM289.341 352.18C288.549 352.18 287.799 352.054 287.091 351.802C286.383 351.538 285.777 351.148 285.273 350.632L286.011 349.3C286.551 349.78 287.091 350.128 287.631 350.344C288.183 350.56 288.729 350.668 289.269 350.668C289.821 350.668 290.271 350.566 290.619 350.362C290.967 350.146 291.141 349.834 291.141 349.426C291.141 349.126 291.051 348.904 290.871 348.76C290.691 348.616 290.427 348.49 290.079 348.382C289.743 348.274 289.335 348.154 288.855 348.022C288.183 347.818 287.619 347.608 287.163 347.392C286.707 347.164 286.365 346.888 286.137 346.564C285.909 346.24 285.795 345.826 285.795 345.322C285.795 344.71 285.951 344.188 286.263 343.756C286.575 343.324 287.007 342.994 287.559 342.766C288.123 342.538 288.771 342.424 289.503 342.424C290.187 342.424 290.817 342.532 291.393 342.748C291.981 342.952 292.497 343.276 292.941 343.72L292.095 345.034C291.675 344.65 291.243 344.368 290.799 344.188C290.367 344.008 289.899 343.918 289.395 343.918C289.107 343.918 288.831 343.954 288.567 344.026C288.303 344.086 288.081 344.206 287.901 344.386C287.733 344.554 287.649 344.794 287.649 345.106C287.649 345.358 287.721 345.562 287.865 345.718C288.009 345.874 288.225 346.006 288.513 346.114C288.801 346.222 289.155 346.342 289.575 346.474C290.307 346.69 290.931 346.906 291.447 347.122C291.963 347.326 292.359 347.596 292.635 347.932C292.923 348.256 293.067 348.706 293.067 349.282C293.067 350.194 292.725 350.908 292.041 351.424C291.369 351.928 290.469 352.18 289.341 352.18ZM303.276 352H301.296V346.726C301.296 345.874 301.14 345.238 300.828 344.818C300.516 344.398 300.078 344.188 299.514 344.188C299.166 344.188 298.806 344.284 298.434 344.476C298.062 344.668 297.732 344.932 297.444 345.268C297.156 345.592 296.946 345.97 296.814 346.402V352H294.834V338.86H296.814V344.476C297.174 343.84 297.666 343.342 298.29 342.982C298.914 342.61 299.586 342.424 300.306 342.424C300.894 342.424 301.38 342.526 301.764 342.73C302.148 342.934 302.448 343.216 302.664 343.576C302.892 343.924 303.048 344.332 303.132 344.8C303.228 345.256 303.276 345.742 303.276 346.258V352ZM304.891 349.246C304.891 348.646 305.059 348.124 305.395 347.68C305.743 347.224 306.217 346.876 306.817 346.636C307.417 346.384 308.113 346.258 308.905 346.258C309.325 346.258 309.751 346.288 310.183 346.348C310.627 346.408 311.017 346.504 311.353 346.636V346.042C311.353 345.382 311.155 344.866 310.759 344.494C310.363 344.122 309.793 343.936 309.049 343.936C308.521 343.936 308.023 344.032 307.555 344.224C307.087 344.404 306.589 344.662 306.061 344.998L305.395 343.666C306.019 343.246 306.643 342.934 307.267 342.73C307.903 342.526 308.569 342.424 309.265 342.424C310.525 342.424 311.515 342.76 312.235 343.432C312.967 344.092 313.333 345.034 313.333 346.258V349.768C313.333 349.996 313.369 350.158 313.441 350.254C313.525 350.35 313.663 350.404 313.855 350.416V352C313.675 352.036 313.513 352.06 313.369 352.072C313.225 352.084 313.105 352.09 313.009 352.09C312.589 352.09 312.271 351.988 312.055 351.784C311.839 351.58 311.713 351.34 311.677 351.064L311.623 350.524C311.215 351.052 310.693 351.46 310.057 351.748C309.421 352.036 308.779 352.18 308.131 352.18C307.507 352.18 306.949 352.054 306.457 351.802C305.965 351.538 305.581 351.184 305.305 350.74C305.029 350.296 304.891 349.798 304.891 349.246ZM310.885 349.822C311.029 349.666 311.143 349.51 311.227 349.354C311.311 349.198 311.353 349.06 311.353 348.94V347.86C311.017 347.728 310.663 347.632 310.291 347.572C309.919 347.5 309.553 347.464 309.193 347.464C308.473 347.464 307.885 347.608 307.429 347.896C306.985 348.184 306.763 348.58 306.763 349.084C306.763 349.36 306.835 349.624 306.979 349.876C307.135 350.128 307.351 350.332 307.627 350.488C307.915 350.644 308.269 350.722 308.689 350.722C309.121 350.722 309.535 350.638 309.931 350.47C310.327 350.302 310.645 350.086 310.885 349.822ZM321.027 344.296C320.259 344.308 319.575 344.482 318.975 344.818C318.387 345.154 317.967 345.628 317.715 346.24V352H315.735V342.586H317.571V344.692C317.895 344.044 318.321 343.528 318.849 343.144C319.377 342.748 319.935 342.532 320.523 342.496C320.643 342.496 320.739 342.496 320.811 342.496C320.895 342.496 320.967 342.502 321.027 342.514V344.296ZM326.558 352.18C325.826 352.18 325.16 352.054 324.56 351.802C323.972 351.538 323.462 351.184 323.03 350.74C322.598 350.284 322.262 349.768 322.022 349.192C321.794 348.604 321.68 347.98 321.68 347.32C321.68 346.432 321.884 345.622 322.292 344.89C322.7 344.146 323.27 343.552 324.002 343.108C324.734 342.652 325.592 342.424 326.576 342.424C327.56 342.424 328.406 342.652 329.114 343.108C329.834 343.552 330.392 344.14 330.788 344.872C331.184 345.604 331.382 346.39 331.382 347.23C331.382 347.374 331.376 347.512 331.364 347.644C331.352 347.764 331.34 347.866 331.328 347.95H323.786C323.822 348.502 323.972 348.988 324.236 349.408C324.512 349.816 324.86 350.14 325.28 350.38C325.7 350.608 326.15 350.722 326.63 350.722C327.158 350.722 327.656 350.59 328.124 350.326C328.604 350.062 328.928 349.714 329.096 349.282L330.788 349.768C330.584 350.224 330.272 350.638 329.852 351.01C329.444 351.37 328.958 351.658 328.394 351.874C327.83 352.078 327.218 352.18 326.558 352.18ZM323.732 346.636H329.42C329.384 346.096 329.228 345.622 328.952 345.214C328.688 344.794 328.346 344.47 327.926 344.242C327.518 344.002 327.062 343.882 326.558 343.882C326.066 343.882 325.61 344.002 325.19 344.242C324.782 344.47 324.446 344.794 324.182 345.214C323.918 345.622 323.768 346.096 323.732 346.636ZM332.403 347.302C332.403 346.402 332.583 345.586 332.943 344.854C333.315 344.11 333.819 343.522 334.455 343.09C335.091 342.646 335.823 342.424 336.651 342.424C337.371 342.424 338.019 342.61 338.595 342.982C339.183 343.354 339.639 343.816 339.963 344.368V338.86H341.943V349.768C341.943 349.996 341.985 350.158 342.069 350.254C342.153 350.35 342.291 350.404 342.483 350.416V352C342.111 352.06 341.823 352.09 341.619 352.09C341.247 352.09 340.929 351.982 340.665 351.766C340.413 351.55 340.281 351.292 340.269 350.992L340.251 350.29C339.891 350.89 339.405 351.358 338.793 351.694C338.181 352.018 337.545 352.18 336.885 352.18C336.237 352.18 335.637 352.054 335.085 351.802C334.545 351.55 334.071 351.196 333.663 350.74C333.267 350.284 332.955 349.762 332.727 349.174C332.511 348.586 332.403 347.962 332.403 347.302ZM339.963 348.616V346.15C339.831 345.766 339.615 345.424 339.315 345.124C339.027 344.812 338.697 344.566 338.325 344.386C337.965 344.206 337.605 344.116 337.245 344.116C336.825 344.116 336.441 344.206 336.093 344.386C335.757 344.566 335.463 344.806 335.211 345.106C334.971 345.406 334.785 345.748 334.653 346.132C334.521 346.516 334.455 346.918 334.455 347.338C334.455 347.77 334.527 348.178 334.671 348.562C334.815 348.934 335.019 349.27 335.283 349.57C335.559 349.858 335.871 350.086 336.219 350.254C336.579 350.41 336.969 350.488 337.389 350.488C337.653 350.488 337.917 350.44 338.181 350.344C338.457 350.248 338.715 350.116 338.955 349.948C339.207 349.78 339.417 349.582 339.585 349.354C339.765 349.126 339.891 348.88 339.963 348.616ZM162.994 380L159.97 375.662L158.422 377.138V380H156.442V366.86H158.422V375.14L162.778 370.604H164.902L161.248 374.546L165.1 380H162.994ZM174.745 380H172.765V374.726C172.765 373.85 172.621 373.208 172.333 372.8C172.057 372.392 171.643 372.188 171.091 372.188C170.707 372.188 170.323 372.284 169.939 372.476C169.567 372.668 169.231 372.932 168.931 373.268C168.631 373.592 168.415 373.97 168.283 374.402V380H166.303V370.586H168.103V372.476C168.343 372.056 168.655 371.696 169.039 371.396C169.435 371.084 169.879 370.844 170.371 370.676C170.863 370.508 171.385 370.424 171.937 370.424C172.501 370.424 172.963 370.526 173.323 370.73C173.695 370.934 173.983 371.216 174.187 371.576C174.403 371.924 174.547 372.332 174.619 372.8C174.703 373.256 174.745 373.742 174.745 374.258V380ZM181.273 380.18C180.529 380.18 179.863 380.054 179.275 379.802C178.687 379.538 178.177 379.178 177.745 378.722C177.325 378.266 177.001 377.75 176.773 377.174C176.545 376.586 176.431 375.962 176.431 375.302C176.431 374.642 176.545 374.018 176.773 373.43C177.001 372.842 177.325 372.326 177.745 371.882C178.177 371.426 178.687 371.072 179.275 370.82C179.875 370.556 180.541 370.424 181.273 370.424C182.005 370.424 182.665 370.556 183.253 370.82C183.853 371.072 184.363 371.426 184.783 371.882C185.215 372.326 185.545 372.842 185.773 373.43C186.001 374.018 186.115 374.642 186.115 375.302C186.115 375.962 186.001 376.586 185.773 377.174C185.545 377.75 185.215 378.266 184.783 378.722C184.363 379.178 183.853 379.538 183.253 379.802C182.665 380.054 182.005 380.18 181.273 380.18ZM178.465 375.32C178.465 375.92 178.591 376.46 178.843 376.94C179.095 377.42 179.431 377.798 179.851 378.074C180.271 378.35 180.745 378.488 181.273 378.488C181.789 378.488 182.257 378.35 182.677 378.074C183.109 377.786 183.451 377.402 183.703 376.922C183.955 376.43 184.081 375.89 184.081 375.302C184.081 374.702 183.955 374.162 183.703 373.682C183.451 373.202 183.109 372.824 182.677 372.548C182.257 372.26 181.789 372.116 181.273 372.116C180.745 372.116 180.271 372.26 179.851 372.548C179.431 372.836 179.095 373.22 178.843 373.7C178.591 374.168 178.465 374.708 178.465 375.32ZM199.291 370.586H201.181L197.221 380H195.529L193.837 375.752L192.145 380H190.453L186.475 370.586H188.365L191.389 378.074L192.721 374.6L191.101 370.604H192.775L193.837 373.538L194.881 370.604H196.555L194.953 374.6L196.285 378.074L199.291 370.586ZM202.515 366.86H204.495V377.282C204.495 377.762 204.567 378.068 204.711 378.2C204.855 378.332 205.035 378.398 205.251 378.398C205.491 378.398 205.713 378.374 205.917 378.326C206.133 378.278 206.319 378.218 206.475 378.146L206.763 379.712C206.475 379.832 206.133 379.934 205.737 380.018C205.341 380.102 204.987 380.144 204.675 380.144C204.003 380.144 203.475 379.958 203.091 379.586C202.707 379.202 202.515 378.674 202.515 378.002V366.86ZM212.177 380.18C211.445 380.18 210.779 380.054 210.179 379.802C209.591 379.538 209.081 379.184 208.649 378.74C208.217 378.284 207.881 377.768 207.641 377.192C207.413 376.604 207.299 375.98 207.299 375.32C207.299 374.432 207.503 373.622 207.911 372.89C208.319 372.146 208.889 371.552 209.621 371.108C210.353 370.652 211.211 370.424 212.195 370.424C213.179 370.424 214.025 370.652 214.733 371.108C215.453 371.552 216.011 372.14 216.407 372.872C216.803 373.604 217.001 374.39 217.001 375.23C217.001 375.374 216.995 375.512 216.983 375.644C216.971 375.764 216.959 375.866 216.947 375.95H209.405C209.441 376.502 209.591 376.988 209.855 377.408C210.131 377.816 210.479 378.14 210.899 378.38C211.319 378.608 211.769 378.722 212.249 378.722C212.777 378.722 213.275 378.59 213.743 378.326C214.223 378.062 214.547 377.714 214.715 377.282L216.407 377.768C216.203 378.224 215.891 378.638 215.471 379.01C215.063 379.37 214.577 379.658 214.013 379.874C213.449 380.078 212.837 380.18 212.177 380.18ZM209.351 374.636H215.039C215.003 374.096 214.847 373.622 214.571 373.214C214.307 372.794 213.965 372.47 213.545 372.242C213.137 372.002 212.681 371.882 212.177 371.882C211.685 371.882 211.229 372.002 210.809 372.242C210.401 372.47 210.065 372.794 209.801 373.214C209.537 373.622 209.387 374.096 209.351 374.636ZM218.022 375.302C218.022 374.402 218.202 373.586 218.562 372.854C218.934 372.11 219.438 371.522 220.074 371.09C220.71 370.646 221.442 370.424 222.27 370.424C222.99 370.424 223.638 370.61 224.214 370.982C224.802 371.354 225.258 371.816 225.582 372.368V366.86H227.562V377.768C227.562 377.996 227.604 378.158 227.688 378.254C227.772 378.35 227.91 378.404 228.102 378.416V380C227.73 380.06 227.442 380.09 227.238 380.09C226.866 380.09 226.548 379.982 226.284 379.766C226.032 379.55 225.9 379.292 225.888 378.992L225.87 378.29C225.51 378.89 225.024 379.358 224.412 379.694C223.8 380.018 223.164 380.18 222.504 380.18C221.856 380.18 221.256 380.054 220.704 379.802C220.164 379.55 219.69 379.196 219.282 378.74C218.886 378.284 218.574 377.762 218.346 377.174C218.13 376.586 218.022 375.962 218.022 375.302ZM225.582 376.616V374.15C225.45 373.766 225.234 373.424 224.934 373.124C224.646 372.812 224.316 372.566 223.944 372.386C223.584 372.206 223.224 372.116 222.864 372.116C222.444 372.116 222.06 372.206 221.712 372.386C221.376 372.566 221.082 372.806 220.83 373.106C220.59 373.406 220.404 373.748 220.272 374.132C220.14 374.516 220.074 374.918 220.074 375.338C220.074 375.77 220.146 376.178 220.29 376.562C220.434 376.934 220.638 377.27 220.902 377.57C221.178 377.858 221.49 378.086 221.838 378.254C222.198 378.41 222.588 378.488 223.008 378.488C223.272 378.488 223.536 378.44 223.8 378.344C224.076 378.248 224.334 378.116 224.574 377.948C224.826 377.78 225.036 377.582 225.204 377.354C225.384 377.126 225.51 376.88 225.582 376.616ZM233.803 380.09C233.167 380.09 232.585 379.964 232.057 379.712C231.529 379.448 231.073 379.094 230.689 378.65C230.317 378.206 230.023 377.696 229.807 377.12C229.603 376.544 229.501 375.938 229.501 375.302C229.501 374.63 229.609 374 229.825 373.412C230.041 372.824 230.341 372.308 230.725 371.864C231.121 371.408 231.583 371.054 232.111 370.802C232.639 370.55 233.227 370.424 233.875 370.424C234.631 370.424 235.291 370.604 235.855 370.964C236.431 371.324 236.905 371.792 237.277 372.368V370.586H239.023V379.73C239.023 380.642 238.801 381.416 238.357 382.052C237.925 382.688 237.331 383.174 236.575 383.51C235.819 383.846 234.967 384.014 234.019 384.014C232.975 384.014 232.111 383.834 231.427 383.474C230.743 383.114 230.161 382.622 229.681 381.998L230.797 380.954C231.157 381.458 231.619 381.842 232.183 382.106C232.759 382.37 233.371 382.502 234.019 382.502C234.559 382.502 235.057 382.4 235.513 382.196C235.981 382.004 236.353 381.698 236.629 381.278C236.905 380.87 237.043 380.354 237.043 379.73V378.29C236.707 378.854 236.245 379.298 235.657 379.622C235.069 379.934 234.451 380.09 233.803 380.09ZM234.451 378.488C234.751 378.488 235.039 378.44 235.315 378.344C235.591 378.236 235.843 378.098 236.071 377.93C236.311 377.75 236.515 377.552 236.683 377.336C236.851 377.108 236.971 376.868 237.043 376.616V374.15C236.887 373.742 236.665 373.388 236.377 373.088C236.089 372.776 235.765 372.536 235.405 372.368C235.045 372.2 234.679 372.116 234.307 372.116C233.875 372.116 233.485 372.212 233.137 372.404C232.801 372.584 232.513 372.83 232.273 373.142C232.033 373.442 231.847 373.784 231.715 374.168C231.583 374.552 231.517 374.948 231.517 375.356C231.517 375.788 231.589 376.19 231.733 376.562C231.889 376.934 232.099 377.27 232.363 377.57C232.627 377.858 232.939 378.086 233.299 378.254C233.659 378.41 234.043 378.488 234.451 378.488ZM245.663 380.18C244.931 380.18 244.265 380.054 243.665 379.802C243.077 379.538 242.567 379.184 242.135 378.74C241.703 378.284 241.367 377.768 241.127 377.192C240.899 376.604 240.785 375.98 240.785 375.32C240.785 374.432 240.989 373.622 241.397 372.89C241.805 372.146 242.375 371.552 243.107 371.108C243.839 370.652 244.697 370.424 245.681 370.424C246.665 370.424 247.511 370.652 248.219 371.108C248.939 371.552 249.497 372.14 249.893 372.872C250.289 373.604 250.487 374.39 250.487 375.23C250.487 375.374 250.481 375.512 250.469 375.644C250.457 375.764 250.445 375.866 250.433 375.95H242.891C242.927 376.502 243.077 376.988 243.341 377.408C243.617 377.816 243.965 378.14 244.385 378.38C244.805 378.608 245.255 378.722 245.735 378.722C246.263 378.722 246.761 378.59 247.229 378.326C247.709 378.062 248.033 377.714 248.201 377.282L249.893 377.768C249.689 378.224 249.377 378.638 248.957 379.01C248.549 379.37 248.063 379.658 247.499 379.874C246.935 380.078 246.323 380.18 245.663 380.18ZM242.837 374.636H248.525C248.489 374.096 248.333 373.622 248.057 373.214C247.793 372.794 247.451 372.47 247.031 372.242C246.623 372.002 246.167 371.882 245.663 371.882C245.171 371.882 244.715 372.002 244.295 372.242C243.887 372.47 243.551 372.794 243.287 373.214C243.023 373.622 242.873 374.096 242.837 374.636ZM252.012 380V377.696H253.65V380H252.012Z" fill="#3359FF"/>
<path d="M410 216H254.675V171.363C254.675 168.508 253.154 165.87 250.683 164.439L209.007 140.319C206.528 138.885 203.472 138.885 200.993 140.319L159.317 164.439C156.846 165.87 155.324 168.508 155.324 171.363V216H0V0H410V216Z" fill="#4A62AD"/>
<path d="M150.954 69.44L158.658 90.068L166.326 69.44H170.61L160.566 95H156.75L146.67 69.44H150.954ZM173.013 95V69.44H177.045V95H173.013ZM197.221 75.452C196.981 75.188 196.633 74.912 196.177 74.624C195.721 74.312 195.181 74.024 194.557 73.76C193.933 73.496 193.261 73.28 192.541 73.112C191.821 72.944 191.077 72.86 190.309 72.86C188.629 72.86 187.381 73.172 186.565 73.796C185.749 74.42 185.341 75.284 185.341 76.388C185.341 77.204 185.569 77.852 186.025 78.332C186.481 78.788 187.177 79.172 188.113 79.484C189.049 79.796 190.225 80.132 191.641 80.492C193.369 80.9 194.869 81.392 196.141 81.968C197.413 82.52 198.385 83.264 199.057 84.2C199.729 85.136 200.065 86.372 200.065 87.908C200.065 89.204 199.825 90.32 199.345 91.256C198.865 92.192 198.193 92.96 197.329 93.56C196.465 94.136 195.469 94.568 194.341 94.856C193.213 95.12 192.001 95.252 190.705 95.252C189.433 95.252 188.161 95.12 186.889 94.856C185.641 94.592 184.441 94.208 183.289 93.704C182.161 93.176 181.117 92.54 180.157 91.796L181.993 88.34C182.305 88.652 182.749 89 183.325 89.384C183.925 89.744 184.609 90.092 185.377 90.428C186.169 90.764 187.021 91.052 187.933 91.292C188.869 91.508 189.817 91.616 190.777 91.616C192.385 91.616 193.609 91.34 194.449 90.788C195.313 90.212 195.745 89.396 195.745 88.34C195.745 87.476 195.469 86.792 194.917 86.288C194.365 85.76 193.561 85.316 192.505 84.956C191.449 84.596 190.189 84.236 188.725 83.876C187.045 83.42 185.641 82.928 184.513 82.4C183.385 81.848 182.533 81.152 181.957 80.312C181.405 79.448 181.129 78.356 181.129 77.036C181.129 75.356 181.537 73.94 182.353 72.788C183.169 71.612 184.273 70.736 185.665 70.16C187.081 69.56 188.665 69.26 190.417 69.26C191.569 69.26 192.661 69.392 193.693 69.656C194.725 69.896 195.685 70.232 196.573 70.664C197.485 71.096 198.313 71.588 199.057 72.14L197.221 75.452ZM203.389 95V69.44H207.421V95H203.389ZM223.098 95.18C221.25 95.18 219.582 94.82 218.094 94.1C216.606 93.38 215.322 92.408 214.242 91.184C213.162 89.936 212.322 88.544 211.722 87.008C211.146 85.448 210.858 83.852 210.858 82.22C210.858 80.516 211.17 78.896 211.794 77.36C212.418 75.8 213.282 74.42 214.386 73.22C215.49 71.996 216.786 71.036 218.274 70.34C219.786 69.62 221.418 69.26 223.17 69.26C224.994 69.26 226.65 69.632 228.138 70.376C229.65 71.12 230.934 72.116 231.99 73.364C233.07 74.612 233.898 76.004 234.474 77.54C235.074 79.076 235.374 80.648 235.374 82.256C235.374 83.96 235.062 85.592 234.438 87.152C233.838 88.688 232.986 90.068 231.882 91.292C230.778 92.492 229.47 93.44 227.958 94.136C226.47 94.832 224.85 95.18 223.098 95.18ZM214.962 82.22C214.962 83.42 215.154 84.584 215.538 85.712C215.922 86.84 216.462 87.848 217.158 88.736C217.878 89.6 218.742 90.284 219.75 90.788C220.758 91.292 221.886 91.544 223.134 91.544C224.43 91.544 225.582 91.28 226.59 90.752C227.598 90.224 228.438 89.516 229.11 88.628C229.806 87.716 230.334 86.708 230.694 85.604C231.054 84.476 231.234 83.348 231.234 82.22C231.234 81.02 231.042 79.868 230.658 78.764C230.298 77.636 229.758 76.64 229.038 75.776C228.318 74.888 227.454 74.192 226.446 73.688C225.462 73.184 224.358 72.932 223.134 72.932C221.838 72.932 220.686 73.196 219.678 73.724C218.67 74.252 217.818 74.96 217.122 75.848C216.426 76.736 215.886 77.732 215.502 78.836C215.142 79.94 214.962 81.068 214.962 82.22ZM242.86 76.928V95H238.828V69.44H242.14L256.612 87.908V69.476H260.68V95H257.152L242.86 76.928Z" fill="white"/>
<path d="M200.5 146.309C202.975 144.88 206.025 144.88 208.5 146.309L245.1 167.441C247.576 168.87 249.1 171.511 249.1 174.369V216.631C249.1 219.489 247.576 222.13 245.1 223.559L208.5 244.691C206.025 246.12 202.975 246.12 200.5 244.691L163.9 223.559C161.424 222.13 159.9 219.489 159.9 216.631V174.369C159.9 171.511 161.424 168.87 163.9 167.441L200.5 146.309Z" fill="#4A62AD"/>
<path d="M205 209.07C212.533 209.07 218.64 202.994 218.64 195.498C218.64 188.002 212.533 181.925 205 181.925M205 209.07C197.467 209.07 191.36 202.994 191.36 195.498C191.36 188.002 197.467 181.925 205 181.925M205 209.07C216.968 209.07 227.702 203.815 235 195.498C227.702 187.18 216.968 181.925 205 181.925M205 209.07C193.032 209.07 182.298 203.815 175 195.498C182.298 187.18 193.032 181.925 205 181.925M205 175.03V167M205 224V215.97M193.934 176.427L190.68 170.818M219.32 220.182L216.184 214.776M219.32 170.818L216.186 176.22M193.936 214.57L190.68 220.182M211.778 195.498C211.778 199.223 208.743 202.242 205 202.242C201.257 202.242 198.222 199.223 198.222 195.498C198.222 191.773 201.257 188.753 205 188.753C208.743 188.753 211.778 191.773 211.778 195.498Z" stroke="white" stroke-width="3" stroke-linecap="round" stroke-linejoin="round"/>
<defs>
<linearGradient id="paint0_linear_778_5085" x1="205" y1="0" x2="205" y2="232" gradientUnits="userSpaceOnUse">
<stop stop-color="white" stop-opacity="0.4"/>
<stop offset="1" stop-color="#4A62AD" stop-opacity="0.35"/>
</linearGradient>
</defs>
</svg>
