<svg width="411" height="448" viewBox="0 0 411 448" fill="none" xmlns="http://www.w3.org/2000/svg">
<rect width="411" height="232" transform="translate(0 216)" fill="url(#paint0_linear_778_5097)"/>
<path d="M56.5254 296.09C55.6014 296.09 54.7674 295.91 54.0234 295.55C53.2794 295.19 52.6374 294.704 52.0974 294.092C51.5574 293.468 51.1374 292.772 50.8374 292.004C50.5494 291.224 50.4054 290.426 50.4054 289.61C50.4054 288.758 50.5614 287.948 50.8734 287.18C51.1854 286.4 51.6174 285.71 52.1694 285.11C52.7214 284.498 53.3694 284.018 54.1134 283.67C54.8694 283.31 55.6854 283.13 56.5614 283.13C57.4734 283.13 58.3014 283.316 59.0454 283.688C59.8014 284.06 60.4434 284.558 60.9714 285.182C61.5114 285.806 61.9254 286.502 62.2134 287.27C62.5134 288.038 62.6634 288.824 62.6634 289.628C62.6634 290.48 62.5074 291.296 62.1954 292.076C61.8954 292.844 61.4694 293.534 60.9174 294.146C60.3654 294.746 59.7114 295.22 58.9554 295.568C58.2114 295.916 57.4014 296.09 56.5254 296.09ZM52.4574 289.61C52.4574 290.21 52.5534 290.792 52.7454 291.356C52.9374 291.92 53.2074 292.424 53.5554 292.868C53.9154 293.3 54.3474 293.642 54.8514 293.894C55.3554 294.146 55.9194 294.272 56.5434 294.272C57.1914 294.272 57.7674 294.14 58.2714 293.876C58.7754 293.612 59.1954 293.258 59.5314 292.814C59.8794 292.358 60.1434 291.854 60.3234 291.302C60.5034 290.738 60.5934 290.174 60.5934 289.61C60.5934 289.01 60.4974 288.434 60.3054 287.882C60.1254 287.318 59.8554 286.82 59.4954 286.388C59.1354 285.944 58.7034 285.596 58.1994 285.344C57.7074 285.092 57.1554 284.966 56.5434 284.966C55.8954 284.966 55.3194 285.098 54.8154 285.362C54.3114 285.626 53.8854 285.98 53.5374 286.424C53.1894 286.868 52.9194 287.366 52.7274 287.918C52.5474 288.47 52.4574 289.034 52.4574 289.61ZM64.4085 292.346V286.586H66.3885V291.95C66.3885 292.79 66.5385 293.426 66.8385 293.858C67.1505 294.278 67.6005 294.488 68.1885 294.488C68.5605 294.488 68.9205 294.41 69.2685 294.254C69.6285 294.098 69.9525 293.87 70.2405 293.57C70.5405 293.258 70.7805 292.886 70.9605 292.454V286.586H72.9405V293.768C72.9405 293.996 72.9825 294.158 73.0665 294.254C73.1505 294.35 73.2885 294.404 73.4805 294.416V296C73.2765 296.036 73.1085 296.06 72.9765 296.072C72.8445 296.084 72.7185 296.09 72.5985 296.09C72.2385 296.09 71.9385 295.994 71.6985 295.802C71.4585 295.598 71.3205 295.34 71.2845 295.028L71.2485 294.092C70.8285 294.776 70.2825 295.298 69.6105 295.658C68.9385 296.006 68.2005 296.18 67.3965 296.18C66.4125 296.18 65.6685 295.856 65.1645 295.208C64.6605 294.56 64.4085 293.606 64.4085 292.346ZM80.7593 288.296C79.9913 288.308 79.3073 288.482 78.7073 288.818C78.1193 289.154 77.6993 289.628 77.4473 290.24V296H75.4673V286.586H77.3033V288.692C77.6273 288.044 78.0533 287.528 78.5813 287.144C79.1093 286.748 79.6673 286.532 80.2553 286.496C80.3753 286.496 80.4713 286.496 80.5433 286.496C80.6273 286.496 80.6993 286.502 80.7593 286.514V288.296ZM91.5887 296.18C90.8327 296.18 90.1667 296 89.5907 295.64C89.0147 295.28 88.5587 294.812 88.2227 294.236V299.834H86.2427V286.586H87.9887V288.278C88.3487 287.714 88.8167 287.264 89.3927 286.928C89.9687 286.592 90.6107 286.424 91.3187 286.424C91.9667 286.424 92.5607 286.556 93.1007 286.82C93.6407 287.072 94.1087 287.426 94.5047 287.882C94.9007 288.338 95.2067 288.86 95.4227 289.448C95.6507 290.024 95.7647 290.636 95.7647 291.284C95.7647 292.184 95.5847 293.006 95.2247 293.75C94.8767 294.494 94.3847 295.088 93.7487 295.532C93.1247 295.964 92.4047 296.18 91.5887 296.18ZM90.9407 294.488C91.3607 294.488 91.7387 294.398 92.0747 294.218C92.4227 294.038 92.7167 293.798 92.9567 293.498C93.2087 293.198 93.4007 292.856 93.5327 292.472C93.6647 292.088 93.7307 291.692 93.7307 291.284C93.7307 290.852 93.6587 290.444 93.5147 290.06C93.3707 289.676 93.1607 289.34 92.8847 289.052C92.6207 288.764 92.3087 288.536 91.9487 288.368C91.6007 288.2 91.2167 288.116 90.7967 288.116C90.5447 288.116 90.2807 288.164 90.0047 288.26C89.7287 288.356 89.4707 288.488 89.2307 288.656C88.9907 288.824 88.7807 289.022 88.6007 289.25C88.4207 289.478 88.2947 289.718 88.2227 289.97V292.436C88.3907 292.82 88.6127 293.168 88.8887 293.48C89.1647 293.78 89.4827 294.026 89.8427 294.218C90.2027 294.398 90.5687 294.488 90.9407 294.488ZM102.837 288.296C102.069 288.308 101.385 288.482 100.785 288.818C100.197 289.154 99.7774 289.628 99.5254 290.24V296H97.5454V286.586H99.3814V288.692C99.7054 288.044 100.131 287.528 100.659 287.144C101.187 286.748 101.745 286.532 102.333 286.496C102.453 286.496 102.549 286.496 102.621 286.496C102.705 286.496 102.777 286.502 102.837 286.514V288.296ZM104.278 296V286.586H106.258V296H104.278ZM104.278 285.038V282.86H106.258V285.038H104.278ZM117.079 296H115.099V290.726C115.099 289.85 114.955 289.208 114.667 288.8C114.391 288.392 113.977 288.188 113.425 288.188C113.041 288.188 112.657 288.284 112.273 288.476C111.901 288.668 111.565 288.932 111.265 289.268C110.965 289.592 110.749 289.97 110.617 290.402V296H108.637V286.586H110.437V288.476C110.677 288.056 110.989 287.696 111.373 287.396C111.769 287.084 112.213 286.844 112.705 286.676C113.197 286.508 113.719 286.424 114.271 286.424C114.835 286.424 115.297 286.526 115.657 286.73C116.029 286.934 116.317 287.216 116.521 287.576C116.737 287.924 116.881 288.332 116.953 288.8C117.037 289.256 117.079 289.742 117.079 290.258V296ZM123.643 296.18C122.911 296.18 122.245 296.054 121.645 295.802C121.057 295.538 120.547 295.178 120.115 294.722C119.683 294.266 119.347 293.744 119.107 293.156C118.879 292.568 118.765 291.944 118.765 291.284C118.765 290.396 118.963 289.586 119.359 288.854C119.767 288.122 120.331 287.534 121.051 287.09C121.783 286.646 122.647 286.424 123.643 286.424C124.603 286.424 125.437 286.64 126.145 287.072C126.865 287.492 127.393 288.056 127.729 288.764L125.803 289.376C125.587 288.98 125.281 288.674 124.885 288.458C124.501 288.23 124.075 288.116 123.607 288.116C123.079 288.116 122.599 288.254 122.167 288.53C121.747 288.794 121.411 289.166 121.159 289.646C120.919 290.114 120.799 290.66 120.799 291.284C120.799 291.884 120.925 292.43 121.177 292.922C121.429 293.402 121.765 293.786 122.185 294.074C122.617 294.35 123.097 294.488 123.625 294.488C123.949 294.488 124.261 294.434 124.561 294.326C124.873 294.206 125.143 294.05 125.371 293.858C125.599 293.654 125.761 293.432 125.857 293.192L127.801 293.768C127.597 294.236 127.291 294.65 126.883 295.01C126.487 295.37 126.013 295.658 125.461 295.874C124.921 296.078 124.315 296.18 123.643 296.18ZM129.432 296V286.586H131.412V296H129.432ZM129.432 285.038V282.86H131.412V285.038H129.432ZM139.138 296.18C138.382 296.18 137.716 296 137.14 295.64C136.564 295.28 136.108 294.812 135.772 294.236V299.834H133.792V286.586H135.538V288.278C135.898 287.714 136.366 287.264 136.942 286.928C137.518 286.592 138.16 286.424 138.868 286.424C139.516 286.424 140.11 286.556 140.65 286.82C141.19 287.072 141.658 287.426 142.054 287.882C142.45 288.338 142.756 288.86 142.972 289.448C143.2 290.024 143.314 290.636 143.314 291.284C143.314 292.184 143.134 293.006 142.774 293.75C142.426 294.494 141.934 295.088 141.298 295.532C140.674 295.964 139.954 296.18 139.138 296.18ZM138.49 294.488C138.91 294.488 139.288 294.398 139.624 294.218C139.972 294.038 140.266 293.798 140.506 293.498C140.758 293.198 140.95 292.856 141.082 292.472C141.214 292.088 141.28 291.692 141.28 291.284C141.28 290.852 141.208 290.444 141.064 290.06C140.92 289.676 140.71 289.34 140.434 289.052C140.17 288.764 139.858 288.536 139.498 288.368C139.15 288.2 138.766 288.116 138.346 288.116C138.094 288.116 137.83 288.164 137.554 288.26C137.278 288.356 137.02 288.488 136.78 288.656C136.54 288.824 136.33 289.022 136.15 289.25C135.97 289.478 135.844 289.718 135.772 289.97V292.436C135.94 292.82 136.162 293.168 136.438 293.48C136.714 293.78 137.032 294.026 137.392 294.218C137.752 294.398 138.118 294.488 138.49 294.488ZM145.112 282.86H147.092V293.282C147.092 293.762 147.164 294.068 147.308 294.2C147.452 294.332 147.632 294.398 147.848 294.398C148.088 294.398 148.31 294.374 148.514 294.326C148.73 294.278 148.916 294.218 149.072 294.146L149.36 295.712C149.072 295.832 148.73 295.934 148.334 296.018C147.938 296.102 147.584 296.144 147.272 296.144C146.6 296.144 146.072 295.958 145.688 295.586C145.304 295.202 145.112 294.674 145.112 294.002V282.86ZM154.774 296.18C154.042 296.18 153.376 296.054 152.776 295.802C152.188 295.538 151.678 295.184 151.246 294.74C150.814 294.284 150.478 293.768 150.238 293.192C150.01 292.604 149.896 291.98 149.896 291.32C149.896 290.432 150.1 289.622 150.508 288.89C150.916 288.146 151.486 287.552 152.218 287.108C152.95 286.652 153.808 286.424 154.792 286.424C155.776 286.424 156.622 286.652 157.33 287.108C158.05 287.552 158.608 288.14 159.004 288.872C159.4 289.604 159.598 290.39 159.598 291.23C159.598 291.374 159.592 291.512 159.58 291.644C159.568 291.764 159.556 291.866 159.544 291.95H152.002C152.038 292.502 152.188 292.988 152.452 293.408C152.728 293.816 153.076 294.14 153.496 294.38C153.916 294.608 154.366 294.722 154.846 294.722C155.374 294.722 155.872 294.59 156.34 294.326C156.82 294.062 157.144 293.714 157.312 293.282L159.004 293.768C158.8 294.224 158.488 294.638 158.068 295.01C157.66 295.37 157.174 295.658 156.61 295.874C156.046 296.078 155.434 296.18 154.774 296.18ZM151.948 290.636H157.636C157.6 290.096 157.444 289.622 157.168 289.214C156.904 288.794 156.562 288.47 156.142 288.242C155.734 288.002 155.278 287.882 154.774 287.882C154.282 287.882 153.826 288.002 153.406 288.242C152.998 288.47 152.662 288.794 152.398 289.214C152.134 289.622 151.984 290.096 151.948 290.636ZM164.561 296.18C163.769 296.18 163.019 296.054 162.311 295.802C161.603 295.538 160.997 295.148 160.493 294.632L161.231 293.3C161.771 293.78 162.311 294.128 162.851 294.344C163.403 294.56 163.949 294.668 164.489 294.668C165.041 294.668 165.491 294.566 165.839 294.362C166.187 294.146 166.361 293.834 166.361 293.426C166.361 293.126 166.271 292.904 166.091 292.76C165.911 292.616 165.647 292.49 165.299 292.382C164.963 292.274 164.555 292.154 164.075 292.022C163.403 291.818 162.839 291.608 162.383 291.392C161.927 291.164 161.585 290.888 161.357 290.564C161.129 290.24 161.015 289.826 161.015 289.322C161.015 288.71 161.171 288.188 161.483 287.756C161.795 287.324 162.227 286.994 162.779 286.766C163.343 286.538 163.991 286.424 164.723 286.424C165.407 286.424 166.037 286.532 166.613 286.748C167.201 286.952 167.717 287.276 168.161 287.72L167.315 289.034C166.895 288.65 166.463 288.368 166.019 288.188C165.587 288.008 165.119 287.918 164.615 287.918C164.327 287.918 164.051 287.954 163.787 288.026C163.523 288.086 163.301 288.206 163.121 288.386C162.953 288.554 162.869 288.794 162.869 289.106C162.869 289.358 162.941 289.562 163.085 289.718C163.229 289.874 163.445 290.006 163.733 290.114C164.021 290.222 164.375 290.342 164.795 290.474C165.527 290.69 166.151 290.906 166.667 291.122C167.183 291.326 167.579 291.596 167.855 291.932C168.143 292.256 168.287 292.706 168.287 293.282C168.287 294.194 167.945 294.908 167.261 295.424C166.589 295.928 165.689 296.18 164.561 296.18ZM178.228 296.09C177.592 296.09 177.01 295.964 176.482 295.712C175.954 295.448 175.498 295.094 175.114 294.65C174.742 294.206 174.448 293.696 174.232 293.12C174.028 292.544 173.926 291.938 173.926 291.302C173.926 290.63 174.034 290 174.25 289.412C174.466 288.824 174.766 288.308 175.15 287.864C175.546 287.408 176.008 287.054 176.536 286.802C177.064 286.55 177.652 286.424 178.3 286.424C179.056 286.424 179.716 286.604 180.28 286.964C180.856 287.324 181.33 287.792 181.702 288.368V286.586H183.448V295.73C183.448 296.642 183.226 297.416 182.782 298.052C182.35 298.688 181.756 299.174 181 299.51C180.244 299.846 179.392 300.014 178.444 300.014C177.4 300.014 176.536 299.834 175.852 299.474C175.168 299.114 174.586 298.622 174.106 297.998L175.222 296.954C175.582 297.458 176.044 297.842 176.608 298.106C177.184 298.37 177.796 298.502 178.444 298.502C178.984 298.502 179.482 298.4 179.938 298.196C180.406 298.004 180.778 297.698 181.054 297.278C181.33 296.87 181.468 296.354 181.468 295.73V294.29C181.132 294.854 180.67 295.298 180.082 295.622C179.494 295.934 178.876 296.09 178.228 296.09ZM178.876 294.488C179.176 294.488 179.464 294.44 179.74 294.344C180.016 294.236 180.268 294.098 180.496 293.93C180.736 293.75 180.94 293.552 181.108 293.336C181.276 293.108 181.396 292.868 181.468 292.616V290.15C181.312 289.742 181.09 289.388 180.802 289.088C180.514 288.776 180.19 288.536 179.83 288.368C179.47 288.2 179.104 288.116 178.732 288.116C178.3 288.116 177.91 288.212 177.562 288.404C177.226 288.584 176.938 288.83 176.698 289.142C176.458 289.442 176.272 289.784 176.14 290.168C176.008 290.552 175.942 290.948 175.942 291.356C175.942 291.788 176.014 292.19 176.158 292.562C176.314 292.934 176.524 293.27 176.788 293.57C177.052 293.858 177.364 294.086 177.724 294.254C178.084 294.41 178.468 294.488 178.876 294.488ZM185.733 292.346V286.586H187.713V291.95C187.713 292.79 187.863 293.426 188.163 293.858C188.475 294.278 188.925 294.488 189.513 294.488C189.885 294.488 190.245 294.41 190.593 294.254C190.953 294.098 191.277 293.87 191.565 293.57C191.865 293.258 192.105 292.886 192.285 292.454V286.586H194.265V293.768C194.265 293.996 194.307 294.158 194.391 294.254C194.475 294.35 194.613 294.404 194.805 294.416V296C194.601 296.036 194.433 296.06 194.301 296.072C194.169 296.084 194.043 296.09 193.923 296.09C193.563 296.09 193.263 295.994 193.023 295.802C192.783 295.598 192.645 295.34 192.609 295.028L192.573 294.092C192.153 294.776 191.607 295.298 190.935 295.658C190.263 296.006 189.525 296.18 188.721 296.18C187.737 296.18 186.993 295.856 186.489 295.208C185.985 294.56 185.733 293.606 185.733 292.346ZM196.792 296V286.586H198.772V296H196.792ZM196.792 285.038V282.86H198.772V285.038H196.792ZM200.557 291.302C200.557 290.402 200.737 289.586 201.097 288.854C201.469 288.11 201.973 287.522 202.609 287.09C203.245 286.646 203.977 286.424 204.805 286.424C205.525 286.424 206.173 286.61 206.749 286.982C207.337 287.354 207.793 287.816 208.117 288.368V282.86H210.097V293.768C210.097 293.996 210.139 294.158 210.223 294.254C210.307 294.35 210.445 294.404 210.637 294.416V296C210.265 296.06 209.977 296.09 209.773 296.09C209.401 296.09 209.083 295.982 208.819 295.766C208.567 295.55 208.435 295.292 208.423 294.992L208.405 294.29C208.045 294.89 207.559 295.358 206.947 295.694C206.335 296.018 205.699 296.18 205.039 296.18C204.391 296.18 203.791 296.054 203.239 295.802C202.699 295.55 202.225 295.196 201.817 294.74C201.421 294.284 201.109 293.762 200.881 293.174C200.665 292.586 200.557 291.962 200.557 291.302ZM208.117 292.616V290.15C207.985 289.766 207.769 289.424 207.469 289.124C207.181 288.812 206.851 288.566 206.479 288.386C206.119 288.206 205.759 288.116 205.399 288.116C204.979 288.116 204.595 288.206 204.247 288.386C203.911 288.566 203.617 288.806 203.365 289.106C203.125 289.406 202.939 289.748 202.807 290.132C202.675 290.516 202.609 290.918 202.609 291.338C202.609 291.77 202.681 292.178 202.825 292.562C202.969 292.934 203.173 293.27 203.437 293.57C203.713 293.858 204.025 294.086 204.373 294.254C204.733 294.41 205.123 294.488 205.543 294.488C205.807 294.488 206.071 294.44 206.335 294.344C206.611 294.248 206.869 294.116 207.109 293.948C207.361 293.78 207.571 293.582 207.739 293.354C207.919 293.126 208.045 292.88 208.117 292.616ZM216.878 296.18C216.146 296.18 215.48 296.054 214.88 295.802C214.292 295.538 213.782 295.184 213.35 294.74C212.918 294.284 212.582 293.768 212.342 293.192C212.114 292.604 212 291.98 212 291.32C212 290.432 212.204 289.622 212.612 288.89C213.02 288.146 213.59 287.552 214.322 287.108C215.054 286.652 215.912 286.424 216.896 286.424C217.88 286.424 218.726 286.652 219.434 287.108C220.154 287.552 220.712 288.14 221.108 288.872C221.504 289.604 221.702 290.39 221.702 291.23C221.702 291.374 221.696 291.512 221.684 291.644C221.672 291.764 221.66 291.866 221.648 291.95H214.106C214.142 292.502 214.292 292.988 214.556 293.408C214.832 293.816 215.18 294.14 215.6 294.38C216.02 294.608 216.47 294.722 216.95 294.722C217.478 294.722 217.976 294.59 218.444 294.326C218.924 294.062 219.248 293.714 219.416 293.282L221.108 293.768C220.904 294.224 220.592 294.638 220.172 295.01C219.764 295.37 219.278 295.658 218.714 295.874C218.15 296.078 217.538 296.18 216.878 296.18ZM214.052 290.636H219.74C219.704 290.096 219.548 289.622 219.272 289.214C219.008 288.794 218.666 288.47 218.246 288.242C217.838 288.002 217.382 287.882 216.878 287.882C216.386 287.882 215.93 288.002 215.51 288.242C215.102 288.47 214.766 288.794 214.502 289.214C214.238 289.622 214.088 290.096 214.052 290.636ZM227.674 292.346V286.586H229.654V291.95C229.654 292.79 229.804 293.426 230.104 293.858C230.416 294.278 230.866 294.488 231.454 294.488C231.826 294.488 232.186 294.41 232.534 294.254C232.894 294.098 233.218 293.87 233.506 293.57C233.806 293.258 234.046 292.886 234.226 292.454V286.586H236.206V293.768C236.206 293.996 236.248 294.158 236.332 294.254C236.416 294.35 236.554 294.404 236.746 294.416V296C236.542 296.036 236.374 296.06 236.242 296.072C236.11 296.084 235.984 296.09 235.864 296.09C235.504 296.09 235.204 295.994 234.964 295.802C234.724 295.598 234.586 295.34 234.55 295.028L234.514 294.092C234.094 294.776 233.548 295.298 232.876 295.658C232.204 296.006 231.466 296.18 230.662 296.18C229.678 296.18 228.934 295.856 228.43 295.208C227.926 294.56 227.674 293.606 227.674 292.346ZM242.081 296.18C241.289 296.18 240.539 296.054 239.831 295.802C239.123 295.538 238.517 295.148 238.013 294.632L238.751 293.3C239.291 293.78 239.831 294.128 240.371 294.344C240.923 294.56 241.469 294.668 242.009 294.668C242.561 294.668 243.011 294.566 243.359 294.362C243.707 294.146 243.881 293.834 243.881 293.426C243.881 293.126 243.791 292.904 243.611 292.76C243.431 292.616 243.167 292.49 242.819 292.382C242.483 292.274 242.075 292.154 241.595 292.022C240.923 291.818 240.359 291.608 239.903 291.392C239.447 291.164 239.105 290.888 238.877 290.564C238.649 290.24 238.535 289.826 238.535 289.322C238.535 288.71 238.691 288.188 239.003 287.756C239.315 287.324 239.747 286.994 240.299 286.766C240.863 286.538 241.511 286.424 242.243 286.424C242.927 286.424 243.557 286.532 244.133 286.748C244.721 286.952 245.237 287.276 245.681 287.72L244.835 289.034C244.415 288.65 243.983 288.368 243.539 288.188C243.107 288.008 242.639 287.918 242.135 287.918C241.847 287.918 241.571 287.954 241.307 288.026C241.043 288.086 240.821 288.206 240.641 288.386C240.473 288.554 240.389 288.794 240.389 289.106C240.389 289.358 240.461 289.562 240.605 289.718C240.749 289.874 240.965 290.006 241.253 290.114C241.541 290.222 241.895 290.342 242.315 290.474C243.047 290.69 243.671 290.906 244.187 291.122C244.703 291.326 245.099 291.596 245.375 291.932C245.663 292.256 245.807 292.706 245.807 293.282C245.807 294.194 245.465 294.908 244.781 295.424C244.109 295.928 243.209 296.18 242.081 296.18ZM252.022 296V286.586H254.002V296H252.022ZM252.022 285.038V282.86H254.002V285.038H252.022ZM264.823 296H262.843V290.726C262.843 289.85 262.699 289.208 262.411 288.8C262.135 288.392 261.721 288.188 261.169 288.188C260.785 288.188 260.401 288.284 260.017 288.476C259.645 288.668 259.309 288.932 259.009 289.268C258.709 289.592 258.493 289.97 258.361 290.402V296H256.381V286.586H258.181V288.476C258.421 288.056 258.733 287.696 259.117 287.396C259.513 287.084 259.957 286.844 260.449 286.676C260.941 286.508 261.463 286.424 262.015 286.424C262.579 286.424 263.041 286.526 263.401 286.73C263.773 286.934 264.061 287.216 264.265 287.576C264.481 287.924 264.625 288.332 264.697 288.8C264.781 289.256 264.823 289.742 264.823 290.258V296ZM272.109 296V288.35H270.849V286.82H272.109V286.442C272.109 285.674 272.229 285.008 272.469 284.444C272.721 283.88 273.069 283.448 273.513 283.148C273.969 282.836 274.503 282.68 275.115 282.68C275.499 282.68 275.877 282.734 276.249 282.842C276.621 282.938 276.975 283.076 277.311 283.256L276.879 284.732C276.699 284.612 276.483 284.522 276.231 284.462C275.991 284.39 275.757 284.354 275.529 284.354C275.073 284.354 274.719 284.528 274.467 284.876C274.215 285.224 274.089 285.728 274.089 286.388V286.82H276.501V288.35H274.089V296H272.109ZM282.039 296.18C281.295 296.18 280.629 296.054 280.041 295.802C279.453 295.538 278.943 295.178 278.511 294.722C278.091 294.266 277.767 293.75 277.539 293.174C277.311 292.586 277.197 291.962 277.197 291.302C277.197 290.642 277.311 290.018 277.539 289.43C277.767 288.842 278.091 288.326 278.511 287.882C278.943 287.426 279.453 287.072 280.041 286.82C280.641 286.556 281.307 286.424 282.039 286.424C282.771 286.424 283.431 286.556 284.019 286.82C284.619 287.072 285.129 287.426 285.549 287.882C285.981 288.326 286.311 288.842 286.539 289.43C286.767 290.018 286.881 290.642 286.881 291.302C286.881 291.962 286.767 292.586 286.539 293.174C286.311 293.75 285.981 294.266 285.549 294.722C285.129 295.178 284.619 295.538 284.019 295.802C283.431 296.054 282.771 296.18 282.039 296.18ZM279.231 291.32C279.231 291.92 279.357 292.46 279.609 292.94C279.861 293.42 280.197 293.798 280.617 294.074C281.037 294.35 281.511 294.488 282.039 294.488C282.555 294.488 283.023 294.35 283.443 294.074C283.875 293.786 284.217 293.402 284.469 292.922C284.721 292.43 284.847 291.89 284.847 291.302C284.847 290.702 284.721 290.162 284.469 289.682C284.217 289.202 283.875 288.824 283.443 288.548C283.023 288.26 282.555 288.116 282.039 288.116C281.511 288.116 281.037 288.26 280.617 288.548C280.197 288.836 279.861 289.22 279.609 289.7C279.357 290.168 279.231 290.708 279.231 291.32ZM291.985 296.18C291.193 296.18 290.443 296.054 289.735 295.802C289.027 295.538 288.421 295.148 287.917 294.632L288.655 293.3C289.195 293.78 289.735 294.128 290.275 294.344C290.827 294.56 291.373 294.668 291.913 294.668C292.465 294.668 292.915 294.566 293.263 294.362C293.611 294.146 293.785 293.834 293.785 293.426C293.785 293.126 293.695 292.904 293.515 292.76C293.335 292.616 293.071 292.49 292.723 292.382C292.387 292.274 291.979 292.154 291.499 292.022C290.827 291.818 290.263 291.608 289.807 291.392C289.351 291.164 289.009 290.888 288.781 290.564C288.553 290.24 288.439 289.826 288.439 289.322C288.439 288.71 288.595 288.188 288.907 287.756C289.219 287.324 289.651 286.994 290.203 286.766C290.767 286.538 291.415 286.424 292.147 286.424C292.831 286.424 293.461 286.532 294.037 286.748C294.625 286.952 295.141 287.276 295.585 287.72L294.739 289.034C294.319 288.65 293.887 288.368 293.443 288.188C293.011 288.008 292.543 287.918 292.039 287.918C291.751 287.918 291.475 287.954 291.211 288.026C290.947 288.086 290.725 288.206 290.545 288.386C290.377 288.554 290.293 288.794 290.293 289.106C290.293 289.358 290.365 289.562 290.509 289.718C290.653 289.874 290.869 290.006 291.157 290.114C291.445 290.222 291.799 290.342 292.219 290.474C292.951 290.69 293.575 290.906 294.091 291.122C294.607 291.326 295.003 291.596 295.279 291.932C295.567 292.256 295.711 292.706 295.711 293.282C295.711 294.194 295.369 294.908 294.685 295.424C294.013 295.928 293.113 296.18 291.985 296.18ZM302.699 295.514C302.531 295.598 302.321 295.688 302.069 295.784C301.817 295.88 301.529 295.964 301.205 296.036C300.893 296.108 300.569 296.144 300.233 296.144C299.825 296.144 299.447 296.072 299.099 295.928C298.751 295.784 298.469 295.556 298.253 295.244C298.049 294.92 297.947 294.506 297.947 294.002V288.116H296.705V286.586H297.947V283.49H299.927V286.586H301.979V288.116H299.927V293.372C299.951 293.696 300.053 293.936 300.233 294.092C300.425 294.248 300.659 294.326 300.935 294.326C301.211 294.326 301.475 294.278 301.727 294.182C301.979 294.086 302.165 294.008 302.285 293.948L302.699 295.514ZM308.214 296.18C307.482 296.18 306.816 296.054 306.216 295.802C305.628 295.538 305.118 295.184 304.686 294.74C304.254 294.284 303.918 293.768 303.678 293.192C303.45 292.604 303.336 291.98 303.336 291.32C303.336 290.432 303.54 289.622 303.948 288.89C304.356 288.146 304.926 287.552 305.658 287.108C306.39 286.652 307.248 286.424 308.232 286.424C309.216 286.424 310.062 286.652 310.77 287.108C311.49 287.552 312.048 288.14 312.444 288.872C312.84 289.604 313.038 290.39 313.038 291.23C313.038 291.374 313.032 291.512 313.02 291.644C313.008 291.764 312.996 291.866 312.984 291.95H305.442C305.478 292.502 305.628 292.988 305.892 293.408C306.168 293.816 306.516 294.14 306.936 294.38C307.356 294.608 307.806 294.722 308.286 294.722C308.814 294.722 309.312 294.59 309.78 294.326C310.26 294.062 310.584 293.714 310.752 293.282L312.444 293.768C312.24 294.224 311.928 294.638 311.508 295.01C311.1 295.37 310.614 295.658 310.05 295.874C309.486 296.078 308.874 296.18 308.214 296.18ZM305.388 290.636H311.076C311.04 290.096 310.884 289.622 310.608 289.214C310.344 288.794 310.002 288.47 309.582 288.242C309.174 288.002 308.718 287.882 308.214 287.882C307.722 287.882 307.266 288.002 306.846 288.242C306.438 288.47 306.102 288.794 305.838 289.214C305.574 289.622 305.424 290.096 305.388 290.636ZM319.945 288.296C319.177 288.308 318.493 288.482 317.893 288.818C317.305 289.154 316.885 289.628 316.633 290.24V296H314.653V286.586H316.489V288.692C316.813 288.044 317.239 287.528 317.767 287.144C318.295 286.748 318.853 286.532 319.441 286.496C319.561 286.496 319.657 286.496 319.729 286.496C319.813 286.496 319.885 286.502 319.945 286.514V288.296ZM321.385 296V286.586H323.365V296H321.385ZM321.385 285.038V282.86H323.365V285.038H321.385ZM334.187 296H332.207V290.726C332.207 289.85 332.063 289.208 331.775 288.8C331.499 288.392 331.085 288.188 330.533 288.188C330.149 288.188 329.765 288.284 329.381 288.476C329.009 288.668 328.673 288.932 328.373 289.268C328.073 289.592 327.857 289.97 327.725 290.402V296H325.745V286.586H327.545V288.476C327.785 288.056 328.097 287.696 328.481 287.396C328.877 287.084 329.321 286.844 329.813 286.676C330.305 286.508 330.827 286.424 331.379 286.424C331.943 286.424 332.405 286.526 332.765 286.73C333.137 286.934 333.425 287.216 333.629 287.576C333.845 287.924 333.989 288.332 334.061 288.8C334.145 289.256 334.187 289.742 334.187 290.258V296ZM340.211 296.09C339.575 296.09 338.993 295.964 338.465 295.712C337.937 295.448 337.481 295.094 337.097 294.65C336.725 294.206 336.431 293.696 336.215 293.12C336.011 292.544 335.909 291.938 335.909 291.302C335.909 290.63 336.017 290 336.233 289.412C336.449 288.824 336.749 288.308 337.133 287.864C337.529 287.408 337.991 287.054 338.519 286.802C339.047 286.55 339.635 286.424 340.283 286.424C341.039 286.424 341.699 286.604 342.263 286.964C342.839 287.324 343.313 287.792 343.685 288.368V286.586H345.431V295.73C345.431 296.642 345.209 297.416 344.765 298.052C344.333 298.688 343.739 299.174 342.983 299.51C342.227 299.846 341.375 300.014 340.427 300.014C339.383 300.014 338.519 299.834 337.835 299.474C337.151 299.114 336.569 298.622 336.089 297.998L337.205 296.954C337.565 297.458 338.027 297.842 338.591 298.106C339.167 298.37 339.779 298.502 340.427 298.502C340.967 298.502 341.465 298.4 341.921 298.196C342.389 298.004 342.761 297.698 343.037 297.278C343.313 296.87 343.451 296.354 343.451 295.73V294.29C343.115 294.854 342.653 295.298 342.065 295.622C341.477 295.934 340.859 296.09 340.211 296.09ZM340.859 294.488C341.159 294.488 341.447 294.44 341.723 294.344C341.999 294.236 342.251 294.098 342.479 293.93C342.719 293.75 342.923 293.552 343.091 293.336C343.259 293.108 343.379 292.868 343.451 292.616V290.15C343.295 289.742 343.073 289.388 342.785 289.088C342.497 288.776 342.173 288.536 341.813 288.368C341.453 288.2 341.087 288.116 340.715 288.116C340.283 288.116 339.893 288.212 339.545 288.404C339.209 288.584 338.921 288.83 338.681 289.142C338.441 289.442 338.255 289.784 338.123 290.168C337.991 290.552 337.925 290.948 337.925 291.356C337.925 291.788 337.997 292.19 338.141 292.562C338.297 292.934 338.507 293.27 338.771 293.57C339.035 293.858 339.347 294.086 339.707 294.254C340.067 294.41 340.451 294.488 340.859 294.488ZM351.568 293.246C351.568 292.646 351.736 292.124 352.072 291.68C352.42 291.224 352.894 290.876 353.494 290.636C354.094 290.384 354.79 290.258 355.582 290.258C356.002 290.258 356.428 290.288 356.86 290.348C357.304 290.408 357.694 290.504 358.03 290.636V290.042C358.03 289.382 357.832 288.866 357.436 288.494C357.04 288.122 356.47 287.936 355.726 287.936C355.198 287.936 354.7 288.032 354.232 288.224C353.764 288.404 353.266 288.662 352.738 288.998L352.072 287.666C352.696 287.246 353.32 286.934 353.944 286.73C354.58 286.526 355.246 286.424 355.942 286.424C357.202 286.424 358.192 286.76 358.912 287.432C359.644 288.092 360.01 289.034 360.01 290.258V293.768C360.01 293.996 360.046 294.158 360.118 294.254C360.202 294.35 360.34 294.404 360.532 294.416V296C360.352 296.036 360.19 296.06 360.046 296.072C359.902 296.084 359.782 296.09 359.686 296.09C359.266 296.09 358.948 295.988 358.732 295.784C358.516 295.58 358.39 295.34 358.354 295.064L358.3 294.524C357.892 295.052 357.37 295.46 356.734 295.748C356.098 296.036 355.456 296.18 354.808 296.18C354.184 296.18 353.626 296.054 353.134 295.802C352.642 295.538 352.258 295.184 351.982 294.74C351.706 294.296 351.568 293.798 351.568 293.246ZM357.562 293.822C357.706 293.666 357.82 293.51 357.904 293.354C357.988 293.198 358.03 293.06 358.03 292.94V291.86C357.694 291.728 357.34 291.632 356.968 291.572C356.596 291.5 356.23 291.464 355.87 291.464C355.15 291.464 354.562 291.608 354.106 291.896C353.662 292.184 353.44 292.58 353.44 293.084C353.44 293.36 353.512 293.624 353.656 293.876C353.812 294.128 354.028 294.332 354.304 294.488C354.592 294.644 354.946 294.722 355.366 294.722C355.798 294.722 356.212 294.638 356.608 294.47C357.004 294.302 357.322 294.086 357.562 293.822ZM55.4891 324.18C54.6971 324.18 53.9471 324.054 53.2391 323.802C52.5311 323.538 51.9251 323.148 51.4211 322.632L52.1591 321.3C52.6991 321.78 53.2391 322.128 53.7791 322.344C54.3311 322.56 54.8771 322.668 55.4171 322.668C55.9691 322.668 56.4191 322.566 56.7671 322.362C57.1151 322.146 57.2891 321.834 57.2891 321.426C57.2891 321.126 57.1991 320.904 57.0191 320.76C56.8391 320.616 56.5751 320.49 56.2271 320.382C55.8911 320.274 55.4831 320.154 55.0031 320.022C54.3311 319.818 53.7671 319.608 53.3111 319.392C52.8551 319.164 52.5131 318.888 52.2851 318.564C52.0571 318.24 51.9431 317.826 51.9431 317.322C51.9431 316.71 52.0991 316.188 52.4111 315.756C52.7231 315.324 53.1551 314.994 53.7071 314.766C54.2711 314.538 54.9191 314.424 55.6511 314.424C56.3351 314.424 56.9651 314.532 57.5411 314.748C58.1291 314.952 58.6451 315.276 59.0891 315.72L58.2431 317.034C57.8231 316.65 57.3911 316.368 56.9471 316.188C56.5151 316.008 56.0471 315.918 55.5431 315.918C55.2551 315.918 54.9791 315.954 54.7151 316.026C54.4511 316.086 54.2291 316.206 54.0491 316.386C53.8811 316.554 53.7971 316.794 53.7971 317.106C53.7971 317.358 53.8691 317.562 54.0131 317.718C54.1571 317.874 54.3731 318.006 54.6611 318.114C54.9491 318.222 55.3031 318.342 55.7231 318.474C56.4551 318.69 57.0791 318.906 57.5951 319.122C58.1111 319.326 58.5071 319.596 58.7831 319.932C59.0711 320.256 59.2151 320.706 59.2151 321.282C59.2151 322.194 58.8731 322.908 58.1891 323.424C57.5171 323.928 56.6171 324.18 55.4891 324.18ZM66.2033 323.514C66.0353 323.598 65.8253 323.688 65.5733 323.784C65.3213 323.88 65.0333 323.964 64.7093 324.036C64.3973 324.108 64.0733 324.144 63.7373 324.144C63.3293 324.144 62.9513 324.072 62.6033 323.928C62.2553 323.784 61.9733 323.556 61.7573 323.244C61.5533 322.92 61.4513 322.506 61.4513 322.002V316.116H60.2093V314.586H61.4513V311.49H63.4313V314.586H65.4833V316.116H63.4313V321.372C63.4553 321.696 63.5573 321.936 63.7373 322.092C63.9293 322.248 64.1633 322.326 64.4393 322.326C64.7153 322.326 64.9793 322.278 65.2313 322.182C65.4833 322.086 65.6693 322.008 65.7893 321.948L66.2033 323.514ZM72.8667 316.296C72.0987 316.308 71.4147 316.482 70.8147 316.818C70.2267 317.154 69.8067 317.628 69.5547 318.24V324H67.5747V314.586H69.4107V316.692C69.7347 316.044 70.1607 315.528 70.6887 315.144C71.2167 314.748 71.7747 314.532 72.3627 314.496C72.4827 314.496 72.5787 314.496 72.6507 314.496C72.7347 314.496 72.8067 314.502 72.8667 314.514V316.296ZM78.3614 324.18C77.6174 324.18 76.9514 324.054 76.3634 323.802C75.7754 323.538 75.2654 323.178 74.8334 322.722C74.4134 322.266 74.0894 321.75 73.8614 321.174C73.6334 320.586 73.5194 319.962 73.5194 319.302C73.5194 318.642 73.6334 318.018 73.8614 317.43C74.0894 316.842 74.4134 316.326 74.8334 315.882C75.2654 315.426 75.7754 315.072 76.3634 314.82C76.9634 314.556 77.6294 314.424 78.3614 314.424C79.0934 314.424 79.7534 314.556 80.3414 314.82C80.9414 315.072 81.4514 315.426 81.8714 315.882C82.3034 316.326 82.6334 316.842 82.8614 317.43C83.0894 318.018 83.2034 318.642 83.2034 319.302C83.2034 319.962 83.0894 320.586 82.8614 321.174C82.6334 321.75 82.3034 322.266 81.8714 322.722C81.4514 323.178 80.9414 323.538 80.3414 323.802C79.7534 324.054 79.0934 324.18 78.3614 324.18ZM75.5534 319.32C75.5534 319.92 75.6794 320.46 75.9314 320.94C76.1834 321.42 76.5194 321.798 76.9394 322.074C77.3594 322.35 77.8334 322.488 78.3614 322.488C78.8774 322.488 79.3454 322.35 79.7654 322.074C80.1974 321.786 80.5394 321.402 80.7914 320.922C81.0434 320.43 81.1694 319.89 81.1694 319.302C81.1694 318.702 81.0434 318.162 80.7914 317.682C80.5394 317.202 80.1974 316.824 79.7654 316.548C79.3454 316.26 78.8774 316.116 78.3614 316.116C77.8334 316.116 77.3594 316.26 76.9394 316.548C76.5194 316.836 76.1834 317.22 75.9314 317.7C75.6794 318.168 75.5534 318.708 75.5534 319.32ZM93.4015 324H91.4215V318.726C91.4215 317.85 91.2775 317.208 90.9895 316.8C90.7135 316.392 90.2995 316.188 89.7475 316.188C89.3635 316.188 88.9795 316.284 88.5955 316.476C88.2235 316.668 87.8875 316.932 87.5875 317.268C87.2875 317.592 87.0715 317.97 86.9395 318.402V324H84.9595V314.586H86.7595V316.476C86.9995 316.056 87.3115 315.696 87.6955 315.396C88.0915 315.084 88.5355 314.844 89.0275 314.676C89.5195 314.508 90.0415 314.424 90.5935 314.424C91.1575 314.424 91.6195 314.526 91.9795 314.73C92.3515 314.934 92.6395 315.216 92.8435 315.576C93.0595 315.924 93.2035 316.332 93.2755 316.8C93.3595 317.256 93.4015 317.742 93.4015 318.258V324ZM99.4257 324.09C98.7897 324.09 98.2077 323.964 97.6797 323.712C97.1517 323.448 96.6957 323.094 96.3117 322.65C95.9397 322.206 95.6457 321.696 95.4297 321.12C95.2257 320.544 95.1237 319.938 95.1237 319.302C95.1237 318.63 95.2317 318 95.4477 317.412C95.6637 316.824 95.9637 316.308 96.3477 315.864C96.7437 315.408 97.2057 315.054 97.7337 314.802C98.2617 314.55 98.8497 314.424 99.4977 314.424C100.254 314.424 100.914 314.604 101.478 314.964C102.054 315.324 102.528 315.792 102.9 316.368V314.586H104.646V323.73C104.646 324.642 104.424 325.416 103.98 326.052C103.548 326.688 102.954 327.174 102.198 327.51C101.442 327.846 100.59 328.014 99.6417 328.014C98.5977 328.014 97.7337 327.834 97.0497 327.474C96.3657 327.114 95.7837 326.622 95.3037 325.998L96.4197 324.954C96.7797 325.458 97.2417 325.842 97.8057 326.106C98.3817 326.37 98.9937 326.502 99.6417 326.502C100.182 326.502 100.68 326.4 101.136 326.196C101.604 326.004 101.976 325.698 102.252 325.278C102.528 324.87 102.666 324.354 102.666 323.73V322.29C102.33 322.854 101.868 323.298 101.28 323.622C100.692 323.934 100.074 324.09 99.4257 324.09ZM100.074 322.488C100.374 322.488 100.662 322.44 100.938 322.344C101.214 322.236 101.466 322.098 101.694 321.93C101.934 321.75 102.138 321.552 102.306 321.336C102.474 321.108 102.594 320.868 102.666 320.616V318.15C102.51 317.742 102.288 317.388 102 317.088C101.712 316.776 101.388 316.536 101.028 316.368C100.668 316.2 100.302 316.116 99.9297 316.116C99.4977 316.116 99.1077 316.212 98.7597 316.404C98.4237 316.584 98.1357 316.83 97.8957 317.142C97.6557 317.442 97.4697 317.784 97.3377 318.168C97.2057 318.552 97.1397 318.948 97.1397 319.356C97.1397 319.788 97.2117 320.19 97.3557 320.562C97.5117 320.934 97.7217 321.27 97.9857 321.57C98.2497 321.858 98.5617 322.086 98.9217 322.254C99.2817 322.41 99.6657 322.488 100.074 322.488ZM111.467 324V314.586H113.447V324H111.467ZM111.467 313.038V310.86H113.447V313.038H111.467ZM115.233 319.302C115.233 318.402 115.413 317.586 115.773 316.854C116.145 316.11 116.649 315.522 117.285 315.09C117.921 314.646 118.653 314.424 119.481 314.424C120.201 314.424 120.849 314.61 121.425 314.982C122.013 315.354 122.469 315.816 122.793 316.368V310.86H124.773V321.768C124.773 321.996 124.815 322.158 124.899 322.254C124.983 322.35 125.121 322.404 125.313 322.416V324C124.941 324.06 124.653 324.09 124.449 324.09C124.077 324.09 123.759 323.982 123.495 323.766C123.243 323.55 123.111 323.292 123.099 322.992L123.081 322.29C122.721 322.89 122.235 323.358 121.623 323.694C121.011 324.018 120.375 324.18 119.715 324.18C119.067 324.18 118.467 324.054 117.915 323.802C117.375 323.55 116.901 323.196 116.493 322.74C116.097 322.284 115.785 321.762 115.557 321.174C115.341 320.586 115.233 319.962 115.233 319.302ZM122.793 320.616V318.15C122.661 317.766 122.445 317.424 122.145 317.124C121.857 316.812 121.527 316.566 121.155 316.386C120.795 316.206 120.435 316.116 120.075 316.116C119.655 316.116 119.271 316.206 118.923 316.386C118.587 316.566 118.293 316.806 118.041 317.106C117.801 317.406 117.615 317.748 117.483 318.132C117.351 318.516 117.285 318.918 117.285 319.338C117.285 319.77 117.357 320.178 117.501 320.562C117.645 320.934 117.849 321.27 118.113 321.57C118.389 321.858 118.701 322.086 119.049 322.254C119.409 322.41 119.799 322.488 120.219 322.488C120.483 322.488 120.747 322.44 121.011 322.344C121.287 322.248 121.545 322.116 121.785 321.948C122.037 321.78 122.247 321.582 122.415 321.354C122.595 321.126 122.721 320.88 122.793 320.616ZM131.554 324.18C130.822 324.18 130.156 324.054 129.556 323.802C128.968 323.538 128.458 323.184 128.026 322.74C127.594 322.284 127.258 321.768 127.018 321.192C126.79 320.604 126.676 319.98 126.676 319.32C126.676 318.432 126.88 317.622 127.288 316.89C127.696 316.146 128.266 315.552 128.998 315.108C129.73 314.652 130.588 314.424 131.572 314.424C132.556 314.424 133.402 314.652 134.11 315.108C134.83 315.552 135.388 316.14 135.784 316.872C136.18 317.604 136.378 318.39 136.378 319.23C136.378 319.374 136.372 319.512 136.36 319.644C136.348 319.764 136.336 319.866 136.324 319.95H128.782C128.818 320.502 128.968 320.988 129.232 321.408C129.508 321.816 129.856 322.14 130.276 322.38C130.696 322.608 131.146 322.722 131.626 322.722C132.154 322.722 132.652 322.59 133.12 322.326C133.6 322.062 133.924 321.714 134.092 321.282L135.784 321.768C135.58 322.224 135.268 322.638 134.848 323.01C134.44 323.37 133.954 323.658 133.39 323.874C132.826 324.078 132.214 324.18 131.554 324.18ZM128.728 318.636H134.416C134.38 318.096 134.224 317.622 133.948 317.214C133.684 316.794 133.342 316.47 132.922 316.242C132.514 316.002 132.058 315.882 131.554 315.882C131.062 315.882 130.606 316.002 130.186 316.242C129.778 316.47 129.442 316.794 129.178 317.214C128.914 317.622 128.764 318.096 128.728 318.636ZM146.435 324H144.455V318.726C144.455 317.85 144.311 317.208 144.023 316.8C143.747 316.392 143.333 316.188 142.781 316.188C142.397 316.188 142.013 316.284 141.629 316.476C141.257 316.668 140.921 316.932 140.621 317.268C140.321 317.592 140.105 317.97 139.973 318.402V324H137.993V314.586H139.793V316.476C140.033 316.056 140.345 315.696 140.729 315.396C141.125 315.084 141.569 314.844 142.061 314.676C142.553 314.508 143.075 314.424 143.627 314.424C144.191 314.424 144.653 314.526 145.013 314.73C145.385 314.934 145.673 315.216 145.877 315.576C146.093 315.924 146.237 316.332 146.309 316.8C146.393 317.256 146.435 317.742 146.435 318.258V324ZM153.901 323.514C153.733 323.598 153.523 323.688 153.271 323.784C153.019 323.88 152.731 323.964 152.407 324.036C152.095 324.108 151.771 324.144 151.435 324.144C151.027 324.144 150.649 324.072 150.301 323.928C149.953 323.784 149.671 323.556 149.455 323.244C149.251 322.92 149.149 322.506 149.149 322.002V316.116H147.907V314.586H149.149V311.49H151.129V314.586H153.181V316.116H151.129V321.372C151.153 321.696 151.255 321.936 151.435 322.092C151.627 322.248 151.861 322.326 152.137 322.326C152.413 322.326 152.677 322.278 152.929 322.182C153.181 322.086 153.367 322.008 153.487 321.948L153.901 323.514ZM155.272 324V314.586H157.252V324H155.272ZM155.272 313.038V310.86H157.252V313.038H155.272ZM164.869 323.514C164.701 323.598 164.491 323.688 164.239 323.784C163.987 323.88 163.699 323.964 163.375 324.036C163.063 324.108 162.739 324.144 162.403 324.144C161.995 324.144 161.617 324.072 161.269 323.928C160.921 323.784 160.639 323.556 160.423 323.244C160.219 322.92 160.117 322.506 160.117 322.002V316.116H158.875V314.586H160.117V311.49H162.097V314.586H164.149V316.116H162.097V321.372C162.121 321.696 162.223 321.936 162.403 322.092C162.595 322.248 162.829 322.326 163.105 322.326C163.381 322.326 163.645 322.278 163.897 322.182C164.149 322.086 164.335 322.008 164.455 321.948L164.869 323.514ZM166.547 326.214C166.727 326.238 166.901 326.262 167.069 326.286C167.249 326.322 167.393 326.34 167.501 326.34C167.705 326.34 167.879 326.274 168.023 326.142C168.179 326.022 168.335 325.794 168.491 325.458C168.647 325.122 168.839 324.636 169.067 324L165.197 314.586H167.267L170.147 321.984L172.703 314.586H174.611L170.345 326.178C170.213 326.526 170.021 326.844 169.769 327.132C169.517 327.432 169.205 327.666 168.833 327.834C168.461 328.002 168.023 328.086 167.519 328.086C167.375 328.086 167.225 328.074 167.069 328.05C166.913 328.026 166.739 327.99 166.547 327.942V326.214ZM179.356 321.246C179.356 320.646 179.524 320.124 179.86 319.68C180.208 319.224 180.682 318.876 181.282 318.636C181.882 318.384 182.578 318.258 183.37 318.258C183.79 318.258 184.216 318.288 184.648 318.348C185.092 318.408 185.482 318.504 185.818 318.636V318.042C185.818 317.382 185.62 316.866 185.224 316.494C184.828 316.122 184.258 315.936 183.514 315.936C182.986 315.936 182.488 316.032 182.02 316.224C181.552 316.404 181.054 316.662 180.526 316.998L179.86 315.666C180.484 315.246 181.108 314.934 181.732 314.73C182.368 314.526 183.034 314.424 183.73 314.424C184.99 314.424 185.98 314.76 186.7 315.432C187.432 316.092 187.798 317.034 187.798 318.258V321.768C187.798 321.996 187.834 322.158 187.906 322.254C187.99 322.35 188.128 322.404 188.32 322.416V324C188.14 324.036 187.978 324.06 187.834 324.072C187.69 324.084 187.57 324.09 187.474 324.09C187.054 324.09 186.736 323.988 186.52 323.784C186.304 323.58 186.178 323.34 186.142 323.064L186.088 322.524C185.68 323.052 185.158 323.46 184.522 323.748C183.886 324.036 183.244 324.18 182.596 324.18C181.972 324.18 181.414 324.054 180.922 323.802C180.43 323.538 180.046 323.184 179.77 322.74C179.494 322.296 179.356 321.798 179.356 321.246ZM185.35 321.822C185.494 321.666 185.608 321.51 185.692 321.354C185.776 321.198 185.818 321.06 185.818 320.94V319.86C185.482 319.728 185.128 319.632 184.756 319.572C184.384 319.5 184.018 319.464 183.658 319.464C182.938 319.464 182.35 319.608 181.894 319.896C181.45 320.184 181.228 320.58 181.228 321.084C181.228 321.36 181.3 321.624 181.444 321.876C181.6 322.128 181.816 322.332 182.092 322.488C182.38 322.644 182.734 322.722 183.154 322.722C183.586 322.722 184 322.638 184.396 322.47C184.792 322.302 185.11 322.086 185.35 321.822ZM198.642 324H196.662V318.726C196.662 317.85 196.518 317.208 196.23 316.8C195.954 316.392 195.54 316.188 194.988 316.188C194.604 316.188 194.22 316.284 193.836 316.476C193.464 316.668 193.128 316.932 192.828 317.268C192.528 317.592 192.312 317.97 192.18 318.402V324H190.2V314.586H192V316.476C192.24 316.056 192.552 315.696 192.936 315.396C193.332 315.084 193.776 314.844 194.268 314.676C194.76 314.508 195.282 314.424 195.834 314.424C196.398 314.424 196.86 314.526 197.22 314.73C197.592 314.934 197.88 315.216 198.084 315.576C198.3 315.924 198.444 316.332 198.516 316.8C198.6 317.256 198.642 317.742 198.642 318.258V324ZM200.346 319.302C200.346 318.402 200.526 317.586 200.886 316.854C201.258 316.11 201.762 315.522 202.398 315.09C203.034 314.646 203.766 314.424 204.594 314.424C205.314 314.424 205.962 314.61 206.538 314.982C207.126 315.354 207.582 315.816 207.906 316.368V310.86H209.886V321.768C209.886 321.996 209.928 322.158 210.012 322.254C210.096 322.35 210.234 322.404 210.426 322.416V324C210.054 324.06 209.766 324.09 209.562 324.09C209.19 324.09 208.872 323.982 208.608 323.766C208.356 323.55 208.224 323.292 208.212 322.992L208.194 322.29C207.834 322.89 207.348 323.358 206.736 323.694C206.124 324.018 205.488 324.18 204.828 324.18C204.18 324.18 203.58 324.054 203.028 323.802C202.488 323.55 202.014 323.196 201.606 322.74C201.21 322.284 200.898 321.762 200.67 321.174C200.454 320.586 200.346 319.962 200.346 319.302ZM207.906 320.616V318.15C207.774 317.766 207.558 317.424 207.258 317.124C206.97 316.812 206.64 316.566 206.268 316.386C205.908 316.206 205.548 316.116 205.188 316.116C204.768 316.116 204.384 316.206 204.036 316.386C203.7 316.566 203.406 316.806 203.154 317.106C202.914 317.406 202.728 317.748 202.596 318.132C202.464 318.516 202.398 318.918 202.398 319.338C202.398 319.77 202.47 320.178 202.614 320.562C202.758 320.934 202.962 321.27 203.226 321.57C203.502 321.858 203.814 322.086 204.162 322.254C204.522 322.41 204.912 322.488 205.332 322.488C205.596 322.488 205.86 322.44 206.124 322.344C206.4 322.248 206.658 322.116 206.898 321.948C207.15 321.78 207.36 321.582 207.528 321.354C207.708 321.126 207.834 320.88 207.906 320.616ZM221.114 324.18C220.382 324.18 219.716 324.054 219.116 323.802C218.528 323.538 218.018 323.178 217.586 322.722C217.154 322.266 216.818 321.744 216.578 321.156C216.35 320.568 216.236 319.944 216.236 319.284C216.236 318.396 216.434 317.586 216.83 316.854C217.238 316.122 217.802 315.534 218.522 315.09C219.254 314.646 220.118 314.424 221.114 314.424C222.074 314.424 222.908 314.64 223.616 315.072C224.336 315.492 224.864 316.056 225.2 316.764L223.274 317.376C223.058 316.98 222.752 316.674 222.356 316.458C221.972 316.23 221.546 316.116 221.078 316.116C220.55 316.116 220.07 316.254 219.638 316.53C219.218 316.794 218.882 317.166 218.63 317.646C218.39 318.114 218.27 318.66 218.27 319.284C218.27 319.884 218.396 320.43 218.648 320.922C218.9 321.402 219.236 321.786 219.656 322.074C220.088 322.35 220.568 322.488 221.096 322.488C221.42 322.488 221.732 322.434 222.032 322.326C222.344 322.206 222.614 322.05 222.842 321.858C223.07 321.654 223.232 321.432 223.328 321.192L225.272 321.768C225.068 322.236 224.762 322.65 224.354 323.01C223.958 323.37 223.484 323.658 222.932 323.874C222.392 324.078 221.786 324.18 221.114 324.18ZM226.813 320.346V314.586H228.793V319.95C228.793 320.79 228.943 321.426 229.243 321.858C229.555 322.278 230.005 322.488 230.593 322.488C230.965 322.488 231.325 322.41 231.673 322.254C232.033 322.098 232.357 321.87 232.645 321.57C232.945 321.258 233.185 320.886 233.365 320.454V314.586H235.345V321.768C235.345 321.996 235.387 322.158 235.471 322.254C235.555 322.35 235.693 322.404 235.885 322.416V324C235.681 324.036 235.513 324.06 235.381 324.072C235.249 324.084 235.123 324.09 235.003 324.09C234.643 324.09 234.343 323.994 234.103 323.802C233.863 323.598 233.725 323.34 233.689 323.028L233.653 322.092C233.233 322.776 232.687 323.298 232.015 323.658C231.343 324.006 230.605 324.18 229.801 324.18C228.817 324.18 228.073 323.856 227.569 323.208C227.065 322.56 226.813 321.606 226.813 320.346ZM237.89 310.86H239.87V321.282C239.87 321.762 239.942 322.068 240.086 322.2C240.23 322.332 240.41 322.398 240.626 322.398C240.866 322.398 241.088 322.374 241.292 322.326C241.508 322.278 241.694 322.218 241.85 322.146L242.138 323.712C241.85 323.832 241.508 323.934 241.112 324.018C240.716 324.102 240.362 324.144 240.05 324.144C239.378 324.144 238.85 323.958 238.466 323.586C238.082 323.202 237.89 322.674 237.89 322.002V310.86ZM248.471 323.514C248.303 323.598 248.093 323.688 247.841 323.784C247.589 323.88 247.301 323.964 246.977 324.036C246.665 324.108 246.341 324.144 246.005 324.144C245.597 324.144 245.219 324.072 244.871 323.928C244.523 323.784 244.241 323.556 244.025 323.244C243.821 322.92 243.719 322.506 243.719 322.002V316.116H242.477V314.586H243.719V311.49H245.699V314.586H247.751V316.116H245.699V321.372C245.723 321.696 245.825 321.936 246.005 322.092C246.197 322.248 246.431 322.326 246.707 322.326C246.983 322.326 247.247 322.278 247.499 322.182C247.751 322.086 247.937 322.008 248.057 321.948L248.471 323.514ZM249.752 320.346V314.586H251.732V319.95C251.732 320.79 251.882 321.426 252.182 321.858C252.494 322.278 252.944 322.488 253.532 322.488C253.904 322.488 254.264 322.41 254.612 322.254C254.972 322.098 255.296 321.87 255.584 321.57C255.884 321.258 256.124 320.886 256.304 320.454V314.586H258.284V321.768C258.284 321.996 258.326 322.158 258.41 322.254C258.494 322.35 258.632 322.404 258.824 322.416V324C258.62 324.036 258.452 324.06 258.32 324.072C258.188 324.084 258.062 324.09 257.942 324.09C257.582 324.09 257.282 323.994 257.042 323.802C256.802 323.598 256.664 323.34 256.628 323.028L256.592 322.092C256.172 322.776 255.626 323.298 254.954 323.658C254.282 324.006 253.544 324.18 252.74 324.18C251.756 324.18 251.012 323.856 250.508 323.208C250.004 322.56 249.752 321.606 249.752 320.346ZM266.103 316.296C265.335 316.308 264.651 316.482 264.051 316.818C263.463 317.154 263.043 317.628 262.791 318.24V324H260.811V314.586H262.647V316.692C262.971 316.044 263.397 315.528 263.925 315.144C264.453 314.748 265.011 314.532 265.599 314.496C265.719 314.496 265.815 314.496 265.887 314.496C265.971 314.496 266.043 314.502 266.103 314.514V316.296ZM271.634 324.18C270.902 324.18 270.236 324.054 269.636 323.802C269.048 323.538 268.538 323.184 268.106 322.74C267.674 322.284 267.338 321.768 267.098 321.192C266.87 320.604 266.756 319.98 266.756 319.32C266.756 318.432 266.96 317.622 267.368 316.89C267.776 316.146 268.346 315.552 269.078 315.108C269.81 314.652 270.668 314.424 271.652 314.424C272.636 314.424 273.482 314.652 274.19 315.108C274.91 315.552 275.468 316.14 275.864 316.872C276.26 317.604 276.458 318.39 276.458 319.23C276.458 319.374 276.452 319.512 276.44 319.644C276.428 319.764 276.416 319.866 276.404 319.95H268.862C268.898 320.502 269.048 320.988 269.312 321.408C269.588 321.816 269.936 322.14 270.356 322.38C270.776 322.608 271.226 322.722 271.706 322.722C272.234 322.722 272.732 322.59 273.2 322.326C273.68 322.062 274.004 321.714 274.172 321.282L275.864 321.768C275.66 322.224 275.348 322.638 274.928 323.01C274.52 323.37 274.034 323.658 273.47 323.874C272.906 324.078 272.294 324.18 271.634 324.18ZM268.808 318.636H274.496C274.46 318.096 274.304 317.622 274.028 317.214C273.764 316.794 273.422 316.47 273.002 316.242C272.594 316.002 272.138 315.882 271.634 315.882C271.142 315.882 270.686 316.002 270.266 316.242C269.858 316.47 269.522 316.794 269.258 317.214C268.994 317.622 268.844 318.096 268.808 318.636ZM278.199 325.746L278.631 323.892H277.983V321.696H279.765V323.892L279.135 325.746H278.199ZM290.759 324.18C290.027 324.18 289.361 324.054 288.761 323.802C288.173 323.538 287.663 323.184 287.231 322.74C286.799 322.284 286.463 321.768 286.223 321.192C285.995 320.604 285.881 319.98 285.881 319.32C285.881 318.432 286.085 317.622 286.493 316.89C286.901 316.146 287.471 315.552 288.203 315.108C288.935 314.652 289.793 314.424 290.777 314.424C291.761 314.424 292.607 314.652 293.315 315.108C294.035 315.552 294.593 316.14 294.989 316.872C295.385 317.604 295.583 318.39 295.583 319.23C295.583 319.374 295.577 319.512 295.565 319.644C295.553 319.764 295.541 319.866 295.529 319.95H287.987C288.023 320.502 288.173 320.988 288.437 321.408C288.713 321.816 289.061 322.14 289.481 322.38C289.901 322.608 290.351 322.722 290.831 322.722C291.359 322.722 291.857 322.59 292.325 322.326C292.805 322.062 293.129 321.714 293.297 321.282L294.989 321.768C294.785 322.224 294.473 322.638 294.053 323.01C293.645 323.37 293.159 323.658 292.595 323.874C292.031 324.078 291.419 324.18 290.759 324.18ZM287.933 318.636H293.621C293.585 318.096 293.429 317.622 293.153 317.214C292.889 316.794 292.547 316.47 292.127 316.242C291.719 316.002 291.263 315.882 290.759 315.882C290.267 315.882 289.811 316.002 289.391 316.242C288.983 316.47 288.647 316.794 288.383 317.214C288.119 317.622 287.969 318.096 287.933 318.636ZM305.64 324H303.66V318.726C303.66 317.85 303.516 317.208 303.228 316.8C302.952 316.392 302.538 316.188 301.986 316.188C301.602 316.188 301.218 316.284 300.834 316.476C300.462 316.668 300.126 316.932 299.826 317.268C299.526 317.592 299.31 317.97 299.178 318.402V324H297.198V314.586H298.998V316.476C299.238 316.056 299.55 315.696 299.934 315.396C300.33 315.084 300.774 314.844 301.266 314.676C301.758 314.508 302.28 314.424 302.832 314.424C303.396 314.424 303.858 314.526 304.218 314.73C304.59 314.934 304.878 315.216 305.082 315.576C305.298 315.924 305.442 316.332 305.514 316.8C305.598 317.256 305.64 317.742 305.64 318.258V324ZM307.254 321.246C307.254 320.646 307.422 320.124 307.758 319.68C308.106 319.224 308.58 318.876 309.18 318.636C309.78 318.384 310.476 318.258 311.268 318.258C311.688 318.258 312.114 318.288 312.546 318.348C312.99 318.408 313.38 318.504 313.716 318.636V318.042C313.716 317.382 313.518 316.866 313.122 316.494C312.726 316.122 312.156 315.936 311.412 315.936C310.884 315.936 310.386 316.032 309.918 316.224C309.45 316.404 308.952 316.662 308.424 316.998L307.758 315.666C308.382 315.246 309.006 314.934 309.63 314.73C310.266 314.526 310.932 314.424 311.628 314.424C312.888 314.424 313.878 314.76 314.598 315.432C315.33 316.092 315.696 317.034 315.696 318.258V321.768C315.696 321.996 315.732 322.158 315.804 322.254C315.888 322.35 316.026 322.404 316.218 322.416V324C316.038 324.036 315.876 324.06 315.732 324.072C315.588 324.084 315.468 324.09 315.372 324.09C314.952 324.09 314.634 323.988 314.418 323.784C314.202 323.58 314.076 323.34 314.04 323.064L313.986 322.524C313.578 323.052 313.056 323.46 312.42 323.748C311.784 324.036 311.142 324.18 310.494 324.18C309.87 324.18 309.312 324.054 308.82 323.802C308.328 323.538 307.944 323.184 307.668 322.74C307.392 322.296 307.254 321.798 307.254 321.246ZM313.248 321.822C313.392 321.666 313.506 321.51 313.59 321.354C313.674 321.198 313.716 321.06 313.716 320.94V319.86C313.38 319.728 313.026 319.632 312.654 319.572C312.282 319.5 311.916 319.464 311.556 319.464C310.836 319.464 310.248 319.608 309.792 319.896C309.348 320.184 309.126 320.58 309.126 321.084C309.126 321.36 309.198 321.624 309.342 321.876C309.498 322.128 309.714 322.332 309.99 322.488C310.278 322.644 310.632 322.722 311.052 322.722C311.484 322.722 311.898 322.638 312.294 322.47C312.69 322.302 313.008 322.086 313.248 321.822ZM323.174 324.18C322.454 324.18 321.8 324.012 321.212 323.676C320.636 323.328 320.18 322.866 319.844 322.29V324H318.098V310.86H320.078V316.368C320.45 315.768 320.912 315.294 321.464 314.946C322.028 314.598 322.688 314.424 323.444 314.424C324.068 314.424 324.638 314.556 325.154 314.82C325.67 315.084 326.108 315.444 326.468 315.9C326.84 316.356 327.122 316.878 327.314 317.466C327.518 318.054 327.62 318.678 327.62 319.338C327.62 319.998 327.506 320.622 327.278 321.21C327.062 321.798 326.75 322.314 326.342 322.758C325.934 323.202 325.46 323.55 324.92 323.802C324.392 324.054 323.81 324.18 323.174 324.18ZM322.652 322.488C323.084 322.488 323.48 322.404 323.84 322.236C324.2 322.056 324.512 321.822 324.776 321.534C325.04 321.246 325.238 320.91 325.37 320.526C325.514 320.142 325.586 319.746 325.586 319.338C325.586 318.774 325.466 318.246 325.226 317.754C324.998 317.262 324.674 316.866 324.254 316.566C323.834 316.266 323.348 316.116 322.796 316.116C322.4 316.116 322.028 316.212 321.68 316.404C321.332 316.584 321.02 316.83 320.744 317.142C320.48 317.442 320.258 317.778 320.078 318.15V320.634C320.15 320.91 320.276 321.162 320.456 321.39C320.636 321.606 320.846 321.798 321.086 321.966C321.326 322.122 321.584 322.248 321.86 322.344C322.136 322.44 322.4 322.488 322.652 322.488ZM329.419 310.86H331.399V321.282C331.399 321.762 331.471 322.068 331.615 322.2C331.759 322.332 331.939 322.398 332.155 322.398C332.395 322.398 332.617 322.374 332.821 322.326C333.037 322.278 333.223 322.218 333.379 322.146L333.667 323.712C333.379 323.832 333.037 323.934 332.641 324.018C332.245 324.102 331.891 324.144 331.579 324.144C330.907 324.144 330.379 323.958 329.995 323.586C329.611 323.202 329.419 322.674 329.419 322.002V310.86ZM334.815 324V314.586H336.795V324H334.815ZM334.815 313.038V310.86H336.795V313.038H334.815ZM347.616 324H345.636V318.726C345.636 317.85 345.492 317.208 345.204 316.8C344.928 316.392 344.514 316.188 343.962 316.188C343.578 316.188 343.194 316.284 342.81 316.476C342.438 316.668 342.102 316.932 341.802 317.268C341.502 317.592 341.286 317.97 341.154 318.402V324H339.174V314.586H340.974V316.476C341.214 316.056 341.526 315.696 341.91 315.396C342.306 315.084 342.75 314.844 343.242 314.676C343.734 314.508 344.256 314.424 344.808 314.424C345.372 314.424 345.834 314.526 346.194 314.73C346.566 314.934 346.854 315.216 347.058 315.576C347.274 315.924 347.418 316.332 347.49 316.8C347.574 317.256 347.616 317.742 347.616 318.258V324ZM353.641 324.09C353.005 324.09 352.423 323.964 351.895 323.712C351.367 323.448 350.911 323.094 350.527 322.65C350.155 322.206 349.861 321.696 349.645 321.12C349.441 320.544 349.339 319.938 349.339 319.302C349.339 318.63 349.447 318 349.663 317.412C349.879 316.824 350.179 316.308 350.563 315.864C350.959 315.408 351.421 315.054 351.949 314.802C352.477 314.55 353.065 314.424 353.713 314.424C354.469 314.424 355.129 314.604 355.693 314.964C356.269 315.324 356.743 315.792 357.115 316.368V314.586H358.861V323.73C358.861 324.642 358.639 325.416 358.195 326.052C357.763 326.688 357.169 327.174 356.413 327.51C355.657 327.846 354.805 328.014 353.857 328.014C352.813 328.014 351.949 327.834 351.265 327.474C350.581 327.114 349.999 326.622 349.519 325.998L350.635 324.954C350.995 325.458 351.457 325.842 352.021 326.106C352.597 326.37 353.209 326.502 353.857 326.502C354.397 326.502 354.895 326.4 355.351 326.196C355.819 326.004 356.191 325.698 356.467 325.278C356.743 324.87 356.881 324.354 356.881 323.73V322.29C356.545 322.854 356.083 323.298 355.495 323.622C354.907 323.934 354.289 324.09 353.641 324.09ZM354.289 322.488C354.589 322.488 354.877 322.44 355.153 322.344C355.429 322.236 355.681 322.098 355.909 321.93C356.149 321.75 356.353 321.552 356.521 321.336C356.689 321.108 356.809 320.868 356.881 320.616V318.15C356.725 317.742 356.503 317.388 356.215 317.088C355.927 316.776 355.603 316.536 355.243 316.368C354.883 316.2 354.517 316.116 354.145 316.116C353.713 316.116 353.323 316.212 352.975 316.404C352.639 316.584 352.351 316.83 352.111 317.142C351.871 317.442 351.685 317.784 351.553 318.168C351.421 318.552 351.355 318.948 351.355 319.356C351.355 319.788 351.427 320.19 351.571 320.562C351.727 320.934 351.937 321.27 352.201 321.57C352.465 321.858 352.777 322.086 353.137 322.254C353.497 322.41 353.881 322.488 354.289 322.488ZM64.2296 352H62.2496V346.726C62.2496 345.85 62.1056 345.208 61.8176 344.8C61.5296 344.392 61.1096 344.188 60.5576 344.188C60.0056 344.188 59.4896 344.398 59.0096 344.818C58.5416 345.226 58.2116 345.76 58.0196 346.42V352H56.0396V346.726C56.0396 345.85 55.8956 345.208 55.6076 344.8C55.3196 344.392 54.9056 344.188 54.3656 344.188C53.8136 344.188 53.2976 344.392 52.8176 344.8C52.3496 345.208 52.0136 345.742 51.8096 346.402V352H49.8296V342.586H51.6296V344.476C52.0016 343.816 52.4876 343.312 53.0876 342.964C53.6996 342.604 54.3956 342.424 55.1756 342.424C55.9556 342.424 56.5676 342.628 57.0116 343.036C57.4676 343.444 57.7496 343.954 57.8576 344.566C58.2656 343.87 58.7636 343.342 59.3516 342.982C59.9516 342.61 60.6356 342.424 61.4036 342.424C61.9556 342.424 62.4176 342.526 62.7896 342.73C63.1616 342.934 63.4496 343.216 63.6536 343.576C63.8576 343.924 64.0016 344.332 64.0856 344.8C64.1816 345.256 64.2296 345.742 64.2296 346.258V352ZM70.7772 352.18C70.0452 352.18 69.3792 352.054 68.7792 351.802C68.1912 351.538 67.6812 351.184 67.2492 350.74C66.8172 350.284 66.4812 349.768 66.2412 349.192C66.0132 348.604 65.8992 347.98 65.8992 347.32C65.8992 346.432 66.1032 345.622 66.5112 344.89C66.9192 344.146 67.4892 343.552 68.2212 343.108C68.9532 342.652 69.8112 342.424 70.7952 342.424C71.7792 342.424 72.6252 342.652 73.3332 343.108C74.0532 343.552 74.6112 344.14 75.0072 344.872C75.4032 345.604 75.6012 346.39 75.6012 347.23C75.6012 347.374 75.5952 347.512 75.5832 347.644C75.5712 347.764 75.5592 347.866 75.5472 347.95H68.0052C68.0412 348.502 68.1912 348.988 68.4552 349.408C68.7312 349.816 69.0792 350.14 69.4992 350.38C69.9192 350.608 70.3692 350.722 70.8492 350.722C71.3772 350.722 71.8752 350.59 72.3432 350.326C72.8232 350.062 73.1472 349.714 73.3152 349.282L75.0072 349.768C74.8032 350.224 74.4912 350.638 74.0712 351.01C73.6632 351.37 73.1772 351.658 72.6132 351.874C72.0492 352.078 71.4372 352.18 70.7772 352.18ZM67.9512 346.636H73.6392C73.6032 346.096 73.4472 345.622 73.1712 345.214C72.9072 344.794 72.5652 344.47 72.1452 344.242C71.7372 344.002 71.2812 343.882 70.7772 343.882C70.2852 343.882 69.8292 344.002 69.4092 344.242C69.0012 344.47 68.6652 344.794 68.4012 345.214C68.1372 345.622 67.9872 346.096 67.9512 346.636ZM76.5323 349.246C76.5323 348.646 76.7003 348.124 77.0363 347.68C77.3843 347.224 77.8583 346.876 78.4583 346.636C79.0583 346.384 79.7543 346.258 80.5463 346.258C80.9663 346.258 81.3923 346.288 81.8243 346.348C82.2683 346.408 82.6583 346.504 82.9943 346.636V346.042C82.9943 345.382 82.7963 344.866 82.4003 344.494C82.0043 344.122 81.4343 343.936 80.6903 343.936C80.1623 343.936 79.6643 344.032 79.1963 344.224C78.7283 344.404 78.2303 344.662 77.7023 344.998L77.0363 343.666C77.6603 343.246 78.2843 342.934 78.9083 342.73C79.5443 342.526 80.2103 342.424 80.9063 342.424C82.1663 342.424 83.1563 342.76 83.8763 343.432C84.6083 344.092 84.9743 345.034 84.9743 346.258V349.768C84.9743 349.996 85.0103 350.158 85.0823 350.254C85.1663 350.35 85.3043 350.404 85.4963 350.416V352C85.3163 352.036 85.1543 352.06 85.0103 352.072C84.8663 352.084 84.7463 352.09 84.6503 352.09C84.2303 352.09 83.9123 351.988 83.6963 351.784C83.4803 351.58 83.3543 351.34 83.3183 351.064L83.2643 350.524C82.8563 351.052 82.3343 351.46 81.6983 351.748C81.0623 352.036 80.4203 352.18 79.7723 352.18C79.1483 352.18 78.5903 352.054 78.0983 351.802C77.6063 351.538 77.2223 351.184 76.9463 350.74C76.6703 350.296 76.5323 349.798 76.5323 349.246ZM82.5263 349.822C82.6703 349.666 82.7843 349.51 82.8683 349.354C82.9523 349.198 82.9943 349.06 82.9943 348.94V347.86C82.6583 347.728 82.3043 347.632 81.9323 347.572C81.5603 347.5 81.1943 347.464 80.8343 347.464C80.1143 347.464 79.5263 347.608 79.0703 347.896C78.6263 348.184 78.4043 348.58 78.4043 349.084C78.4043 349.36 78.4763 349.624 78.6203 349.876C78.7763 350.128 78.9923 350.332 79.2683 350.488C79.5563 350.644 79.9103 350.722 80.3303 350.722C80.7623 350.722 81.1763 350.638 81.5723 350.47C81.9683 350.302 82.2863 350.086 82.5263 349.822ZM95.8185 352H93.8385V346.726C93.8385 345.85 93.6945 345.208 93.4065 344.8C93.1305 344.392 92.7165 344.188 92.1645 344.188C91.7805 344.188 91.3965 344.284 91.0125 344.476C90.6405 344.668 90.3045 344.932 90.0045 345.268C89.7045 345.592 89.4885 345.97 89.3565 346.402V352H87.3765V342.586H89.1765V344.476C89.4165 344.056 89.7285 343.696 90.1125 343.396C90.5085 343.084 90.9525 342.844 91.4445 342.676C91.9365 342.508 92.4585 342.424 93.0105 342.424C93.5745 342.424 94.0365 342.526 94.3965 342.73C94.7685 342.934 95.0565 343.216 95.2605 343.576C95.4765 343.924 95.6205 344.332 95.6925 344.8C95.7765 345.256 95.8185 345.742 95.8185 346.258V352ZM98.1167 352V342.586H100.097V352H98.1167ZM98.1167 341.038V338.86H100.097V341.038H98.1167ZM110.918 352H108.938V346.726C108.938 345.85 108.794 345.208 108.506 344.8C108.23 344.392 107.816 344.188 107.264 344.188C106.88 344.188 106.496 344.284 106.112 344.476C105.74 344.668 105.404 344.932 105.104 345.268C104.804 345.592 104.588 345.97 104.456 346.402V352H102.476V342.586H104.276V344.476C104.516 344.056 104.828 343.696 105.212 343.396C105.608 343.084 106.052 342.844 106.544 342.676C107.036 342.508 107.558 342.424 108.11 342.424C108.674 342.424 109.136 342.526 109.496 342.73C109.868 342.934 110.156 343.216 110.36 343.576C110.576 343.924 110.72 344.332 110.792 344.8C110.876 345.256 110.918 345.742 110.918 346.258V352ZM116.942 352.09C116.306 352.09 115.724 351.964 115.196 351.712C114.668 351.448 114.212 351.094 113.828 350.65C113.456 350.206 113.162 349.696 112.946 349.12C112.742 348.544 112.64 347.938 112.64 347.302C112.64 346.63 112.748 346 112.964 345.412C113.18 344.824 113.48 344.308 113.864 343.864C114.26 343.408 114.722 343.054 115.25 342.802C115.778 342.55 116.366 342.424 117.014 342.424C117.77 342.424 118.43 342.604 118.994 342.964C119.57 343.324 120.044 343.792 120.416 344.368V342.586H122.162V351.73C122.162 352.642 121.94 353.416 121.496 354.052C121.064 354.688 120.47 355.174 119.714 355.51C118.958 355.846 118.106 356.014 117.158 356.014C116.114 356.014 115.25 355.834 114.566 355.474C113.882 355.114 113.3 354.622 112.82 353.998L113.936 352.954C114.296 353.458 114.758 353.842 115.322 354.106C115.898 354.37 116.51 354.502 117.158 354.502C117.698 354.502 118.196 354.4 118.652 354.196C119.12 354.004 119.492 353.698 119.768 353.278C120.044 352.87 120.182 352.354 120.182 351.73V350.29C119.846 350.854 119.384 351.298 118.796 351.622C118.208 351.934 117.59 352.09 116.942 352.09ZM117.59 350.488C117.89 350.488 118.178 350.44 118.454 350.344C118.73 350.236 118.982 350.098 119.21 349.93C119.45 349.75 119.654 349.552 119.822 349.336C119.99 349.108 120.11 348.868 120.182 348.616V346.15C120.026 345.742 119.804 345.388 119.516 345.088C119.228 344.776 118.904 344.536 118.544 344.368C118.184 344.2 117.818 344.116 117.446 344.116C117.014 344.116 116.624 344.212 116.276 344.404C115.94 344.584 115.652 344.83 115.412 345.142C115.172 345.442 114.986 345.784 114.854 346.168C114.722 346.552 114.656 346.948 114.656 347.356C114.656 347.788 114.728 348.19 114.872 348.562C115.028 348.934 115.238 349.27 115.502 349.57C115.766 349.858 116.078 350.086 116.438 350.254C116.798 350.41 117.182 350.488 117.59 350.488ZM125.077 352V344.35H123.817V342.82H125.077V342.442C125.077 341.674 125.197 341.008 125.437 340.444C125.689 339.88 126.037 339.448 126.481 339.148C126.937 338.836 127.471 338.68 128.083 338.68C128.467 338.68 128.845 338.734 129.217 338.842C129.589 338.938 129.943 339.076 130.279 339.256L129.847 340.732C129.667 340.612 129.451 340.522 129.199 340.462C128.959 340.39 128.725 340.354 128.497 340.354C128.041 340.354 127.687 340.528 127.435 340.876C127.183 341.224 127.057 341.728 127.057 342.388V342.82H129.469V344.35H127.057V352H125.077ZM130.863 348.346V342.586H132.843V347.95C132.843 348.79 132.993 349.426 133.293 349.858C133.605 350.278 134.055 350.488 134.643 350.488C135.015 350.488 135.375 350.41 135.723 350.254C136.083 350.098 136.407 349.87 136.695 349.57C136.995 349.258 137.235 348.886 137.415 348.454V342.586H139.395V349.768C139.395 349.996 139.437 350.158 139.521 350.254C139.605 350.35 139.743 350.404 139.935 350.416V352C139.731 352.036 139.563 352.06 139.431 352.072C139.299 352.084 139.173 352.09 139.053 352.09C138.693 352.09 138.393 351.994 138.153 351.802C137.913 351.598 137.775 351.34 137.739 351.028L137.703 350.092C137.283 350.776 136.737 351.298 136.065 351.658C135.393 352.006 134.655 352.18 133.851 352.18C132.867 352.18 132.123 351.856 131.619 351.208C131.115 350.56 130.863 349.606 130.863 348.346ZM141.939 338.86H143.919V349.282C143.919 349.762 143.991 350.068 144.135 350.2C144.279 350.332 144.459 350.398 144.675 350.398C144.915 350.398 145.137 350.374 145.341 350.326C145.557 350.278 145.743 350.218 145.899 350.146L146.187 351.712C145.899 351.832 145.557 351.934 145.161 352.018C144.765 352.102 144.411 352.144 144.099 352.144C143.427 352.144 142.899 351.958 142.515 351.586C142.131 351.202 141.939 350.674 141.939 350.002V338.86ZM159.715 352H157.735V346.726C157.735 345.85 157.591 345.208 157.303 344.8C157.027 344.392 156.613 344.188 156.061 344.188C155.677 344.188 155.293 344.284 154.909 344.476C154.537 344.668 154.201 344.932 153.901 345.268C153.601 345.592 153.385 345.97 153.253 346.402V352H151.273V342.586H153.073V344.476C153.313 344.056 153.625 343.696 154.009 343.396C154.405 343.084 154.849 342.844 155.341 342.676C155.833 342.508 156.355 342.424 156.907 342.424C157.471 342.424 157.933 342.526 158.293 342.73C158.665 342.934 158.953 343.216 159.157 343.576C159.373 343.924 159.517 344.332 159.589 344.8C159.673 345.256 159.715 345.742 159.715 346.258V352ZM166.279 352.18C165.547 352.18 164.881 352.054 164.281 351.802C163.693 351.538 163.183 351.184 162.751 350.74C162.319 350.284 161.983 349.768 161.743 349.192C161.515 348.604 161.401 347.98 161.401 347.32C161.401 346.432 161.605 345.622 162.013 344.89C162.421 344.146 162.991 343.552 163.723 343.108C164.455 342.652 165.313 342.424 166.297 342.424C167.281 342.424 168.127 342.652 168.835 343.108C169.555 343.552 170.113 344.14 170.509 344.872C170.905 345.604 171.103 346.39 171.103 347.23C171.103 347.374 171.097 347.512 171.085 347.644C171.073 347.764 171.061 347.866 171.049 347.95H163.507C163.543 348.502 163.693 348.988 163.957 349.408C164.233 349.816 164.581 350.14 165.001 350.38C165.421 350.608 165.871 350.722 166.351 350.722C166.879 350.722 167.377 350.59 167.845 350.326C168.325 350.062 168.649 349.714 168.817 349.282L170.509 349.768C170.305 350.224 169.993 350.638 169.573 351.01C169.165 351.37 168.679 351.658 168.115 351.874C167.551 352.078 166.939 352.18 166.279 352.18ZM163.453 346.636H169.141C169.105 346.096 168.949 345.622 168.673 345.214C168.409 344.794 168.067 344.47 167.647 344.242C167.239 344.002 166.783 343.882 166.279 343.882C165.787 343.882 165.331 344.002 164.911 344.242C164.503 344.47 164.167 344.794 163.903 345.214C163.639 345.622 163.489 346.096 163.453 346.636ZM177.868 351.514C177.7 351.598 177.49 351.688 177.238 351.784C176.986 351.88 176.698 351.964 176.374 352.036C176.062 352.108 175.738 352.144 175.402 352.144C174.994 352.144 174.616 352.072 174.268 351.928C173.92 351.784 173.638 351.556 173.422 351.244C173.218 350.92 173.116 350.506 173.116 350.002V344.116H171.874V342.586H173.116V339.49H175.096V342.586H177.148V344.116H175.096V349.372C175.12 349.696 175.222 349.936 175.402 350.092C175.594 350.248 175.828 350.326 176.104 350.326C176.38 350.326 176.644 350.278 176.896 350.182C177.148 350.086 177.334 350.008 177.454 349.948L177.868 351.514ZM190.958 342.586H192.848L188.888 352H187.196L185.504 347.752L183.812 352H182.12L178.142 342.586H180.032L183.056 350.074L184.388 346.6L182.768 342.604H184.442L185.504 345.538L186.548 342.604H188.222L186.62 346.6L187.952 350.074L190.958 342.586ZM198.077 352.18C197.333 352.18 196.667 352.054 196.079 351.802C195.491 351.538 194.981 351.178 194.549 350.722C194.129 350.266 193.805 349.75 193.577 349.174C193.349 348.586 193.235 347.962 193.235 347.302C193.235 346.642 193.349 346.018 193.577 345.43C193.805 344.842 194.129 344.326 194.549 343.882C194.981 343.426 195.491 343.072 196.079 342.82C196.679 342.556 197.345 342.424 198.077 342.424C198.809 342.424 199.469 342.556 200.057 342.82C200.657 343.072 201.167 343.426 201.587 343.882C202.019 344.326 202.349 344.842 202.577 345.43C202.805 346.018 202.919 346.642 202.919 347.302C202.919 347.962 202.805 348.586 202.577 349.174C202.349 349.75 202.019 350.266 201.587 350.722C201.167 351.178 200.657 351.538 200.057 351.802C199.469 352.054 198.809 352.18 198.077 352.18ZM195.269 347.32C195.269 347.92 195.395 348.46 195.647 348.94C195.899 349.42 196.235 349.798 196.655 350.074C197.075 350.35 197.549 350.488 198.077 350.488C198.593 350.488 199.061 350.35 199.481 350.074C199.913 349.786 200.255 349.402 200.507 348.922C200.759 348.43 200.885 347.89 200.885 347.302C200.885 346.702 200.759 346.162 200.507 345.682C200.255 345.202 199.913 344.824 199.481 344.548C199.061 344.26 198.593 344.116 198.077 344.116C197.549 344.116 197.075 344.26 196.655 344.548C196.235 344.836 195.899 345.22 195.647 345.7C195.395 346.168 195.269 346.708 195.269 347.32ZM209.967 344.296C209.199 344.308 208.515 344.482 207.915 344.818C207.327 345.154 206.907 345.628 206.655 346.24V352H204.675V342.586H206.511V344.692C206.835 344.044 207.261 343.528 207.789 343.144C208.317 342.748 208.875 342.532 209.463 342.496C209.583 342.496 209.679 342.496 209.751 342.496C209.835 342.496 209.907 342.502 209.967 342.514V344.296ZM217.96 352L214.936 347.662L213.388 349.138V352H211.408V338.86H213.388V347.14L217.744 342.604H219.868L216.214 346.546L220.066 352H217.96ZM221.269 352V342.586H223.249V352H221.269ZM221.269 341.038V338.86H223.249V341.038H221.269ZM234.07 352H232.09V346.726C232.09 345.85 231.946 345.208 231.658 344.8C231.382 344.392 230.968 344.188 230.416 344.188C230.032 344.188 229.648 344.284 229.264 344.476C228.892 344.668 228.556 344.932 228.256 345.268C227.956 345.592 227.74 345.97 227.608 346.402V352H225.628V342.586H227.428V344.476C227.668 344.056 227.98 343.696 228.364 343.396C228.76 343.084 229.204 342.844 229.696 342.676C230.188 342.508 230.71 342.424 231.262 342.424C231.826 342.424 232.288 342.526 232.648 342.73C233.02 342.934 233.308 343.216 233.512 343.576C233.728 343.924 233.872 344.332 233.944 344.8C234.028 345.256 234.07 345.742 234.07 346.258V352ZM240.095 352.09C239.459 352.09 238.877 351.964 238.349 351.712C237.821 351.448 237.365 351.094 236.981 350.65C236.609 350.206 236.315 349.696 236.099 349.12C235.895 348.544 235.793 347.938 235.793 347.302C235.793 346.63 235.901 346 236.117 345.412C236.333 344.824 236.633 344.308 237.017 343.864C237.413 343.408 237.875 343.054 238.403 342.802C238.931 342.55 239.519 342.424 240.167 342.424C240.923 342.424 241.583 342.604 242.147 342.964C242.723 343.324 243.197 343.792 243.569 344.368V342.586H245.315V351.73C245.315 352.642 245.093 353.416 244.649 354.052C244.217 354.688 243.623 355.174 242.867 355.51C242.111 355.846 241.259 356.014 240.311 356.014C239.267 356.014 238.403 355.834 237.719 355.474C237.035 355.114 236.453 354.622 235.973 353.998L237.089 352.954C237.449 353.458 237.911 353.842 238.475 354.106C239.051 354.37 239.663 354.502 240.311 354.502C240.851 354.502 241.349 354.4 241.805 354.196C242.273 354.004 242.645 353.698 242.921 353.278C243.197 352.87 243.335 352.354 243.335 351.73V350.29C242.999 350.854 242.537 351.298 241.949 351.622C241.361 351.934 240.743 352.09 240.095 352.09ZM240.743 350.488C241.043 350.488 241.331 350.44 241.607 350.344C241.883 350.236 242.135 350.098 242.363 349.93C242.603 349.75 242.807 349.552 242.975 349.336C243.143 349.108 243.263 348.868 243.335 348.616V346.15C243.179 345.742 242.957 345.388 242.669 345.088C242.381 344.776 242.057 344.536 241.697 344.368C241.337 344.2 240.971 344.116 240.599 344.116C240.167 344.116 239.777 344.212 239.429 344.404C239.093 344.584 238.805 344.83 238.565 345.142C238.325 345.442 238.139 345.784 238.007 346.168C237.875 346.552 237.809 346.948 237.809 347.356C237.809 347.788 237.881 348.19 238.025 348.562C238.181 348.934 238.391 349.27 238.655 349.57C238.919 349.858 239.231 350.086 239.591 350.254C239.951 350.41 240.335 350.488 240.743 350.488ZM251.452 349.246C251.452 348.646 251.62 348.124 251.956 347.68C252.304 347.224 252.778 346.876 253.378 346.636C253.978 346.384 254.674 346.258 255.466 346.258C255.886 346.258 256.312 346.288 256.744 346.348C257.188 346.408 257.578 346.504 257.914 346.636V346.042C257.914 345.382 257.716 344.866 257.32 344.494C256.924 344.122 256.354 343.936 255.61 343.936C255.082 343.936 254.584 344.032 254.116 344.224C253.648 344.404 253.15 344.662 252.622 344.998L251.956 343.666C252.58 343.246 253.204 342.934 253.828 342.73C254.464 342.526 255.13 342.424 255.826 342.424C257.086 342.424 258.076 342.76 258.796 343.432C259.528 344.092 259.894 345.034 259.894 346.258V349.768C259.894 349.996 259.93 350.158 260.002 350.254C260.086 350.35 260.224 350.404 260.416 350.416V352C260.236 352.036 260.074 352.06 259.93 352.072C259.786 352.084 259.666 352.09 259.57 352.09C259.15 352.09 258.832 351.988 258.616 351.784C258.4 351.58 258.274 351.34 258.238 351.064L258.184 350.524C257.776 351.052 257.254 351.46 256.618 351.748C255.982 352.036 255.34 352.18 254.692 352.18C254.068 352.18 253.51 352.054 253.018 351.802C252.526 351.538 252.142 351.184 251.866 350.74C251.59 350.296 251.452 349.798 251.452 349.246ZM257.446 349.822C257.59 349.666 257.704 349.51 257.788 349.354C257.872 349.198 257.914 349.06 257.914 348.94V347.86C257.578 347.728 257.224 347.632 256.852 347.572C256.48 347.5 256.114 347.464 255.754 347.464C255.034 347.464 254.446 347.608 253.99 347.896C253.546 348.184 253.324 348.58 253.324 349.084C253.324 349.36 253.396 349.624 253.54 349.876C253.696 350.128 253.912 350.332 254.188 350.488C254.476 350.644 254.83 350.722 255.25 350.722C255.682 350.722 256.096 350.638 256.492 350.47C256.888 350.302 257.206 350.086 257.446 349.822ZM270.738 352H268.758V346.726C268.758 345.85 268.614 345.208 268.326 344.8C268.05 344.392 267.636 344.188 267.084 344.188C266.7 344.188 266.316 344.284 265.932 344.476C265.56 344.668 265.224 344.932 264.924 345.268C264.624 345.592 264.408 345.97 264.276 346.402V352H262.296V342.586H264.096V344.476C264.336 344.056 264.648 343.696 265.032 343.396C265.428 343.084 265.872 342.844 266.364 342.676C266.856 342.508 267.378 342.424 267.93 342.424C268.494 342.424 268.956 342.526 269.316 342.73C269.688 342.934 269.976 343.216 270.18 343.576C270.396 343.924 270.54 344.332 270.612 344.8C270.696 345.256 270.738 345.742 270.738 346.258V352ZM272.443 347.302C272.443 346.402 272.623 345.586 272.983 344.854C273.355 344.11 273.859 343.522 274.495 343.09C275.131 342.646 275.863 342.424 276.691 342.424C277.411 342.424 278.059 342.61 278.635 342.982C279.223 343.354 279.679 343.816 280.003 344.368V338.86H281.983V349.768C281.983 349.996 282.025 350.158 282.109 350.254C282.193 350.35 282.331 350.404 282.523 350.416V352C282.151 352.06 281.863 352.09 281.659 352.09C281.287 352.09 280.969 351.982 280.705 351.766C280.453 351.55 280.321 351.292 280.309 350.992L280.291 350.29C279.931 350.89 279.445 351.358 278.833 351.694C278.221 352.018 277.585 352.18 276.925 352.18C276.277 352.18 275.677 352.054 275.125 351.802C274.585 351.55 274.111 351.196 273.703 350.74C273.307 350.284 272.995 349.762 272.767 349.174C272.551 348.586 272.443 347.962 272.443 347.302ZM280.003 348.616V346.15C279.871 345.766 279.655 345.424 279.355 345.124C279.067 344.812 278.737 344.566 278.365 344.386C278.005 344.206 277.645 344.116 277.285 344.116C276.865 344.116 276.481 344.206 276.133 344.386C275.797 344.566 275.503 344.806 275.251 345.106C275.011 345.406 274.825 345.748 274.693 346.132C274.561 346.516 274.495 346.918 274.495 347.338C274.495 347.77 274.567 348.178 274.711 348.562C274.855 348.934 275.059 349.27 275.323 349.57C275.599 349.858 275.911 350.086 276.259 350.254C276.619 350.41 277.009 350.488 277.429 350.488C277.693 350.488 277.957 350.44 278.221 350.344C278.497 350.248 278.755 350.116 278.995 349.948C279.247 349.78 279.457 349.582 279.625 349.354C279.805 349.126 279.931 348.88 280.003 348.616ZM294.021 352.18C293.301 352.18 292.647 352.012 292.059 351.676C291.483 351.328 291.027 350.866 290.691 350.29V352H288.945V338.86H290.925V344.368C291.297 343.768 291.759 343.294 292.311 342.946C292.875 342.598 293.535 342.424 294.291 342.424C294.915 342.424 295.485 342.556 296.001 342.82C296.517 343.084 296.955 343.444 297.315 343.9C297.687 344.356 297.969 344.878 298.161 345.466C298.365 346.054 298.467 346.678 298.467 347.338C298.467 347.998 298.353 348.622 298.125 349.21C297.909 349.798 297.597 350.314 297.189 350.758C296.781 351.202 296.307 351.55 295.767 351.802C295.239 352.054 294.657 352.18 294.021 352.18ZM293.499 350.488C293.931 350.488 294.327 350.404 294.687 350.236C295.047 350.056 295.359 349.822 295.623 349.534C295.887 349.246 296.085 348.91 296.217 348.526C296.361 348.142 296.433 347.746 296.433 347.338C296.433 346.774 296.313 346.246 296.073 345.754C295.845 345.262 295.521 344.866 295.101 344.566C294.681 344.266 294.195 344.116 293.643 344.116C293.247 344.116 292.875 344.212 292.527 344.404C292.179 344.584 291.867 344.83 291.591 345.142C291.327 345.442 291.105 345.778 290.925 346.15V348.634C290.997 348.91 291.123 349.162 291.303 349.39C291.483 349.606 291.693 349.798 291.933 349.966C292.173 350.122 292.431 350.248 292.707 350.344C292.983 350.44 293.247 350.488 293.499 350.488ZM300.158 348.346V342.586H302.138V347.95C302.138 348.79 302.288 349.426 302.588 349.858C302.9 350.278 303.35 350.488 303.938 350.488C304.31 350.488 304.67 350.41 305.018 350.254C305.378 350.098 305.702 349.87 305.99 349.57C306.29 349.258 306.53 348.886 306.71 348.454V342.586H308.69V349.768C308.69 349.996 308.732 350.158 308.816 350.254C308.9 350.35 309.038 350.404 309.23 350.416V352C309.026 352.036 308.858 352.06 308.726 352.072C308.594 352.084 308.468 352.09 308.348 352.09C307.988 352.09 307.688 351.994 307.448 351.802C307.208 351.598 307.07 351.34 307.034 351.028L306.998 350.092C306.578 350.776 306.032 351.298 305.36 351.658C304.688 352.006 303.95 352.18 303.146 352.18C302.162 352.18 301.418 351.856 300.914 351.208C300.41 350.56 300.158 349.606 300.158 348.346ZM314.564 352.18C313.772 352.18 313.022 352.054 312.314 351.802C311.606 351.538 311 351.148 310.496 350.632L311.234 349.3C311.774 349.78 312.314 350.128 312.854 350.344C313.406 350.56 313.952 350.668 314.492 350.668C315.044 350.668 315.494 350.566 315.842 350.362C316.19 350.146 316.364 349.834 316.364 349.426C316.364 349.126 316.274 348.904 316.094 348.76C315.914 348.616 315.65 348.49 315.302 348.382C314.966 348.274 314.558 348.154 314.078 348.022C313.406 347.818 312.842 347.608 312.386 347.392C311.93 347.164 311.588 346.888 311.36 346.564C311.132 346.24 311.018 345.826 311.018 345.322C311.018 344.71 311.174 344.188 311.486 343.756C311.798 343.324 312.23 342.994 312.782 342.766C313.346 342.538 313.994 342.424 314.726 342.424C315.41 342.424 316.04 342.532 316.616 342.748C317.204 342.952 317.72 343.276 318.164 343.72L317.318 345.034C316.898 344.65 316.466 344.368 316.022 344.188C315.59 344.008 315.122 343.918 314.618 343.918C314.33 343.918 314.054 343.954 313.79 344.026C313.526 344.086 313.304 344.206 313.124 344.386C312.956 344.554 312.872 344.794 312.872 345.106C312.872 345.358 312.944 345.562 313.088 345.718C313.232 345.874 313.448 346.006 313.736 346.114C314.024 346.222 314.378 346.342 314.798 346.474C315.53 346.69 316.154 346.906 316.67 347.122C317.186 347.326 317.582 347.596 317.858 347.932C318.146 348.256 318.29 348.706 318.29 349.282C318.29 350.194 317.948 350.908 317.264 351.424C316.592 351.928 315.692 352.18 314.564 352.18ZM320.058 352V342.586H322.038V352H320.058ZM320.058 341.038V338.86H322.038V341.038H320.058ZM332.859 352H330.879V346.726C330.879 345.85 330.735 345.208 330.447 344.8C330.171 344.392 329.757 344.188 329.205 344.188C328.821 344.188 328.437 344.284 328.053 344.476C327.681 344.668 327.345 344.932 327.045 345.268C326.745 345.592 326.529 345.97 326.397 346.402V352H324.417V342.586H326.217V344.476C326.457 344.056 326.769 343.696 327.153 343.396C327.549 343.084 327.993 342.844 328.485 342.676C328.977 342.508 329.499 342.424 330.051 342.424C330.615 342.424 331.077 342.526 331.437 342.73C331.809 342.934 332.097 343.216 332.301 343.576C332.517 343.924 332.661 344.332 332.733 344.8C332.817 345.256 332.859 345.742 332.859 346.258V352ZM339.424 352.18C338.692 352.18 338.026 352.054 337.426 351.802C336.838 351.538 336.328 351.184 335.896 350.74C335.464 350.284 335.128 349.768 334.888 349.192C334.66 348.604 334.546 347.98 334.546 347.32C334.546 346.432 334.75 345.622 335.158 344.89C335.566 344.146 336.136 343.552 336.868 343.108C337.6 342.652 338.458 342.424 339.442 342.424C340.426 342.424 341.272 342.652 341.98 343.108C342.7 343.552 343.258 344.14 343.654 344.872C344.05 345.604 344.248 346.39 344.248 347.23C344.248 347.374 344.242 347.512 344.23 347.644C344.218 347.764 344.206 347.866 344.194 347.95H336.652C336.688 348.502 336.838 348.988 337.102 349.408C337.378 349.816 337.726 350.14 338.146 350.38C338.566 350.608 339.016 350.722 339.496 350.722C340.024 350.722 340.522 350.59 340.99 350.326C341.47 350.062 341.794 349.714 341.962 349.282L343.654 349.768C343.45 350.224 343.138 350.638 342.718 351.01C342.31 351.37 341.824 351.658 341.26 351.874C340.696 352.078 340.084 352.18 339.424 352.18ZM336.598 346.636H342.286C342.25 346.096 342.094 345.622 341.818 345.214C341.554 344.794 341.212 344.47 340.792 344.242C340.384 344.002 339.928 343.882 339.424 343.882C338.932 343.882 338.476 344.002 338.056 344.242C337.648 344.47 337.312 344.794 337.048 345.214C336.784 345.622 336.634 346.096 336.598 346.636ZM349.211 352.18C348.419 352.18 347.669 352.054 346.961 351.802C346.253 351.538 345.647 351.148 345.143 350.632L345.881 349.3C346.421 349.78 346.961 350.128 347.501 350.344C348.053 350.56 348.599 350.668 349.139 350.668C349.691 350.668 350.141 350.566 350.489 350.362C350.837 350.146 351.011 349.834 351.011 349.426C351.011 349.126 350.921 348.904 350.741 348.76C350.561 348.616 350.297 348.49 349.949 348.382C349.613 348.274 349.205 348.154 348.725 348.022C348.053 347.818 347.489 347.608 347.033 347.392C346.577 347.164 346.235 346.888 346.007 346.564C345.779 346.24 345.665 345.826 345.665 345.322C345.665 344.71 345.821 344.188 346.133 343.756C346.445 343.324 346.877 342.994 347.429 342.766C347.993 342.538 348.641 342.424 349.373 342.424C350.057 342.424 350.687 342.532 351.263 342.748C351.851 342.952 352.367 343.276 352.811 343.72L351.965 345.034C351.545 344.65 351.113 344.368 350.669 344.188C350.237 344.008 349.769 343.918 349.265 343.918C348.977 343.918 348.701 343.954 348.437 344.026C348.173 344.086 347.951 344.206 347.771 344.386C347.603 344.554 347.519 344.794 347.519 345.106C347.519 345.358 347.591 345.562 347.735 345.718C347.879 345.874 348.095 346.006 348.383 346.114C348.671 346.222 349.025 346.342 349.445 346.474C350.177 346.69 350.801 346.906 351.317 347.122C351.833 347.326 352.229 347.596 352.505 347.932C352.793 348.256 352.937 348.706 352.937 349.282C352.937 350.194 352.595 350.908 351.911 351.424C351.239 351.928 350.339 352.18 349.211 352.18ZM358.053 352.18C357.261 352.18 356.511 352.054 355.803 351.802C355.095 351.538 354.489 351.148 353.985 350.632L354.723 349.3C355.263 349.78 355.803 350.128 356.343 350.344C356.895 350.56 357.441 350.668 357.981 350.668C358.533 350.668 358.983 350.566 359.331 350.362C359.679 350.146 359.853 349.834 359.853 349.426C359.853 349.126 359.763 348.904 359.583 348.76C359.403 348.616 359.139 348.49 358.791 348.382C358.455 348.274 358.047 348.154 357.567 348.022C356.895 347.818 356.331 347.608 355.875 347.392C355.419 347.164 355.077 346.888 354.849 346.564C354.621 346.24 354.507 345.826 354.507 345.322C354.507 344.71 354.663 344.188 354.975 343.756C355.287 343.324 355.719 342.994 356.271 342.766C356.835 342.538 357.483 342.424 358.215 342.424C358.899 342.424 359.529 342.532 360.105 342.748C360.693 342.952 361.209 343.276 361.653 343.72L360.807 345.034C360.387 344.65 359.955 344.368 359.511 344.188C359.079 344.008 358.611 343.918 358.107 343.918C357.819 343.918 357.543 343.954 357.279 344.026C357.015 344.086 356.793 344.206 356.613 344.386C356.445 344.554 356.361 344.794 356.361 345.106C356.361 345.358 356.433 345.562 356.577 345.718C356.721 345.874 356.937 346.006 357.225 346.114C357.513 346.222 357.867 346.342 358.287 346.474C359.019 346.69 359.643 346.906 360.159 347.122C360.675 347.326 361.071 347.596 361.347 347.932C361.635 348.256 361.779 348.706 361.779 349.282C361.779 350.194 361.437 350.908 360.753 351.424C360.081 351.928 359.181 352.18 358.053 352.18ZM160.501 380V370.586H162.481V380H160.501ZM160.501 369.038V366.86H162.481V369.038H160.501ZM173.303 380H171.323V374.726C171.323 373.85 171.179 373.208 170.891 372.8C170.615 372.392 170.201 372.188 169.649 372.188C169.265 372.188 168.881 372.284 168.497 372.476C168.125 372.668 167.789 372.932 167.489 373.268C167.189 373.592 166.973 373.97 166.841 374.402V380H164.861V370.586H166.661V372.476C166.901 372.056 167.213 371.696 167.597 371.396C167.993 371.084 168.437 370.844 168.929 370.676C169.421 370.508 169.943 370.424 170.495 370.424C171.059 370.424 171.521 370.526 171.881 370.73C172.253 370.934 172.541 371.216 172.745 371.576C172.961 371.924 173.105 372.332 173.177 372.8C173.261 373.256 173.303 373.742 173.303 374.258V380ZM184.043 380H182.063V374.726C182.063 373.85 181.919 373.208 181.631 372.8C181.355 372.392 180.941 372.188 180.389 372.188C180.005 372.188 179.621 372.284 179.237 372.476C178.865 372.668 178.529 372.932 178.229 373.268C177.929 373.592 177.713 373.97 177.581 374.402V380H175.601V370.586H177.401V372.476C177.641 372.056 177.953 371.696 178.337 371.396C178.733 371.084 179.177 370.844 179.669 370.676C180.161 370.508 180.683 370.424 181.235 370.424C181.799 370.424 182.261 370.526 182.621 370.73C182.993 370.934 183.281 371.216 183.485 371.576C183.701 371.924 183.845 372.332 183.917 372.8C184.001 373.256 184.043 373.742 184.043 374.258V380ZM190.571 380.18C189.827 380.18 189.161 380.054 188.573 379.802C187.985 379.538 187.475 379.178 187.043 378.722C186.623 378.266 186.299 377.75 186.071 377.174C185.843 376.586 185.729 375.962 185.729 375.302C185.729 374.642 185.843 374.018 186.071 373.43C186.299 372.842 186.623 372.326 187.043 371.882C187.475 371.426 187.985 371.072 188.573 370.82C189.173 370.556 189.839 370.424 190.571 370.424C191.303 370.424 191.963 370.556 192.551 370.82C193.151 371.072 193.661 371.426 194.081 371.882C194.513 372.326 194.843 372.842 195.071 373.43C195.299 374.018 195.413 374.642 195.413 375.302C195.413 375.962 195.299 376.586 195.071 377.174C194.843 377.75 194.513 378.266 194.081 378.722C193.661 379.178 193.151 379.538 192.551 379.802C191.963 380.054 191.303 380.18 190.571 380.18ZM187.763 375.32C187.763 375.92 187.889 376.46 188.141 376.94C188.393 377.42 188.729 377.798 189.149 378.074C189.569 378.35 190.043 378.488 190.571 378.488C191.087 378.488 191.555 378.35 191.975 378.074C192.407 377.786 192.749 377.402 193.001 376.922C193.253 376.43 193.379 375.89 193.379 375.302C193.379 374.702 193.253 374.162 193.001 373.682C192.749 373.202 192.407 372.824 191.975 372.548C191.555 372.26 191.087 372.116 190.571 372.116C190.043 372.116 189.569 372.26 189.149 372.548C188.729 372.836 188.393 373.22 188.141 373.7C187.889 374.168 187.763 374.708 187.763 375.32ZM199.481 380L195.899 370.586H197.951L200.633 378.164L203.315 370.586H205.223L201.641 380H199.481ZM205.732 377.246C205.732 376.646 205.9 376.124 206.236 375.68C206.584 375.224 207.058 374.876 207.658 374.636C208.258 374.384 208.954 374.258 209.746 374.258C210.166 374.258 210.592 374.288 211.024 374.348C211.468 374.408 211.858 374.504 212.194 374.636V374.042C212.194 373.382 211.996 372.866 211.6 372.494C211.204 372.122 210.634 371.936 209.89 371.936C209.362 371.936 208.864 372.032 208.396 372.224C207.928 372.404 207.43 372.662 206.902 372.998L206.236 371.666C206.86 371.246 207.484 370.934 208.108 370.73C208.744 370.526 209.41 370.424 210.106 370.424C211.366 370.424 212.356 370.76 213.076 371.432C213.808 372.092 214.174 373.034 214.174 374.258V377.768C214.174 377.996 214.21 378.158 214.282 378.254C214.366 378.35 214.504 378.404 214.696 378.416V380C214.516 380.036 214.354 380.06 214.21 380.072C214.066 380.084 213.946 380.09 213.85 380.09C213.43 380.09 213.112 379.988 212.896 379.784C212.68 379.58 212.554 379.34 212.518 379.064L212.464 378.524C212.056 379.052 211.534 379.46 210.898 379.748C210.262 380.036 209.62 380.18 208.972 380.18C208.348 380.18 207.79 380.054 207.298 379.802C206.806 379.538 206.422 379.184 206.146 378.74C205.87 378.296 205.732 377.798 205.732 377.246ZM211.726 377.822C211.87 377.666 211.984 377.51 212.068 377.354C212.152 377.198 212.194 377.06 212.194 376.94V375.86C211.858 375.728 211.504 375.632 211.132 375.572C210.76 375.5 210.394 375.464 210.034 375.464C209.314 375.464 208.726 375.608 208.27 375.896C207.826 376.184 207.604 376.58 207.604 377.084C207.604 377.36 207.676 377.624 207.82 377.876C207.976 378.128 208.192 378.332 208.468 378.488C208.756 378.644 209.11 378.722 209.53 378.722C209.962 378.722 210.376 378.638 210.772 378.47C211.168 378.302 211.486 378.086 211.726 377.822ZM221.743 379.514C221.575 379.598 221.365 379.688 221.113 379.784C220.861 379.88 220.573 379.964 220.249 380.036C219.937 380.108 219.613 380.144 219.277 380.144C218.869 380.144 218.491 380.072 218.143 379.928C217.795 379.784 217.513 379.556 217.297 379.244C217.093 378.92 216.991 378.506 216.991 378.002V372.116H215.749V370.586H216.991V367.49H218.971V370.586H221.023V372.116H218.971V377.372C218.995 377.696 219.097 377.936 219.277 378.092C219.469 378.248 219.703 378.326 219.979 378.326C220.255 378.326 220.519 378.278 220.771 378.182C221.023 378.086 221.209 378.008 221.329 377.948L221.743 379.514ZM223.115 380V370.586H225.095V380H223.115ZM223.115 369.038V366.86H225.095V369.038H223.115ZM231.704 380.18C230.96 380.18 230.294 380.054 229.706 379.802C229.118 379.538 228.608 379.178 228.176 378.722C227.756 378.266 227.432 377.75 227.204 377.174C226.976 376.586 226.862 375.962 226.862 375.302C226.862 374.642 226.976 374.018 227.204 373.43C227.432 372.842 227.756 372.326 228.176 371.882C228.608 371.426 229.118 371.072 229.706 370.82C230.306 370.556 230.972 370.424 231.704 370.424C232.436 370.424 233.096 370.556 233.684 370.82C234.284 371.072 234.794 371.426 235.214 371.882C235.646 372.326 235.976 372.842 236.204 373.43C236.432 374.018 236.546 374.642 236.546 375.302C236.546 375.962 236.432 376.586 236.204 377.174C235.976 377.75 235.646 378.266 235.214 378.722C234.794 379.178 234.284 379.538 233.684 379.802C233.096 380.054 232.436 380.18 231.704 380.18ZM228.896 375.32C228.896 375.92 229.022 376.46 229.274 376.94C229.526 377.42 229.862 377.798 230.282 378.074C230.702 378.35 231.176 378.488 231.704 378.488C232.22 378.488 232.688 378.35 233.108 378.074C233.54 377.786 233.882 377.402 234.134 376.922C234.386 376.43 234.512 375.89 234.512 375.302C234.512 374.702 234.386 374.162 234.134 373.682C233.882 373.202 233.54 372.824 233.108 372.548C232.688 372.26 232.22 372.116 231.704 372.116C231.176 372.116 230.702 372.26 230.282 372.548C229.862 372.836 229.526 373.22 229.274 373.7C229.022 374.168 228.896 374.708 228.896 375.32ZM246.744 380H244.764V374.726C244.764 373.85 244.62 373.208 244.332 372.8C244.056 372.392 243.642 372.188 243.09 372.188C242.706 372.188 242.322 372.284 241.938 372.476C241.566 372.668 241.23 372.932 240.93 373.268C240.63 373.592 240.414 373.97 240.282 374.402V380H238.302V370.586H240.102V372.476C240.342 372.056 240.654 371.696 241.038 371.396C241.434 371.084 241.878 370.844 242.37 370.676C242.862 370.508 243.384 370.424 243.936 370.424C244.5 370.424 244.962 370.526 245.322 370.73C245.694 370.934 245.982 371.216 246.186 371.576C246.402 371.924 246.546 372.332 246.618 372.8C246.702 373.256 246.744 373.742 246.744 374.258V380ZM248.952 380V377.696H250.59V380H248.952Z" fill="#1DB212"/>
<path d="M411 216H255.297V171.369C255.297 168.511 253.772 165.87 251.297 164.44L209.5 140.31C207.025 138.881 203.975 138.881 201.5 140.31L159.703 164.44C157.228 165.87 155.704 168.511 155.704 171.369V216H0V0H411V216Z" fill="#24B34B"/>
<path d="M143.482 69.44L151.186 90.068L158.854 69.44H163.138L153.094 95H149.278L139.198 69.44H143.482ZM170.846 69.44H174.662L184.598 95H180.35L177.65 88.052H167.786L165.122 95H160.838L170.846 69.44ZM176.858 85.064L172.754 73.868L168.506 85.064H176.858ZM187.039 95V69.44H191.071V91.436H204.787V95H187.039ZM217.225 95.18C215.185 95.18 213.457 94.832 212.041 94.136C210.649 93.44 209.521 92.492 208.657 91.292C207.817 90.092 207.193 88.724 206.785 87.188C206.401 85.652 206.209 84.056 206.209 82.4V69.44H210.241V82.4C210.241 83.576 210.361 84.716 210.601 85.82C210.841 86.9 211.225 87.872 211.753 88.736C212.281 89.6 212.989 90.284 213.877 90.788C214.789 91.292 215.905 91.544 217.225 91.544C218.569 91.544 219.685 91.292 220.573 90.788C221.485 90.26 222.193 89.564 222.697 88.7C223.225 87.812 223.609 86.828 223.849 85.748C224.089 84.668 224.209 83.552 224.209 82.4V69.44H228.277V82.4C228.277 84.152 228.061 85.808 227.629 87.368C227.221 88.904 226.573 90.26 225.685 91.436C224.821 92.588 223.693 93.5 222.301 94.172C220.909 94.844 219.217 95.18 217.225 95.18ZM250.451 91.436V95H232.919V69.44H250.127V73.004H236.951V80.276H248.363V83.624H236.951V91.436H250.451ZM269.011 75.452C268.771 75.188 268.423 74.912 267.967 74.624C267.511 74.312 266.971 74.024 266.347 73.76C265.723 73.496 265.051 73.28 264.331 73.112C263.611 72.944 262.867 72.86 262.099 72.86C260.419 72.86 259.171 73.172 258.355 73.796C257.539 74.42 257.131 75.284 257.131 76.388C257.131 77.204 257.359 77.852 257.815 78.332C258.271 78.788 258.967 79.172 259.903 79.484C260.839 79.796 262.015 80.132 263.431 80.492C265.159 80.9 266.659 81.392 267.931 81.968C269.203 82.52 270.175 83.264 270.847 84.2C271.519 85.136 271.855 86.372 271.855 87.908C271.855 89.204 271.615 90.32 271.135 91.256C270.655 92.192 269.983 92.96 269.119 93.56C268.255 94.136 267.259 94.568 266.131 94.856C265.003 95.12 263.791 95.252 262.495 95.252C261.223 95.252 259.951 95.12 258.679 94.856C257.431 94.592 256.231 94.208 255.079 93.704C253.951 93.176 252.907 92.54 251.947 91.796L253.783 88.34C254.095 88.652 254.539 89 255.115 89.384C255.715 89.744 256.399 90.092 257.167 90.428C257.959 90.764 258.811 91.052 259.723 91.292C260.659 91.508 261.607 91.616 262.567 91.616C264.175 91.616 265.399 91.34 266.239 90.788C267.103 90.212 267.535 89.396 267.535 88.34C267.535 87.476 267.259 86.792 266.707 86.288C266.155 85.76 265.351 85.316 264.295 84.956C263.239 84.596 261.979 84.236 260.515 83.876C258.835 83.42 257.431 82.928 256.303 82.4C255.175 81.848 254.323 81.152 253.747 80.312C253.195 79.448 252.919 78.356 252.919 77.036C252.919 75.356 253.327 73.94 254.143 72.788C254.959 71.612 256.063 70.736 257.455 70.16C258.871 69.56 260.455 69.26 262.207 69.26C263.359 69.26 264.451 69.392 265.483 69.656C266.515 69.896 267.475 70.232 268.363 70.664C269.275 71.096 270.103 71.588 270.847 72.14L269.011 75.452Z" fill="white"/>
<path d="M201.5 146.309C203.975 144.88 207.025 144.88 209.5 146.309L246.1 167.441C248.576 168.87 250.1 171.511 250.1 174.369V216.631C250.1 219.489 248.576 222.13 246.1 223.559L209.5 244.691C207.025 246.12 203.975 246.12 201.5 244.691L164.9 223.559C162.424 222.13 160.9 219.489 160.9 216.631V174.369C160.9 171.511 162.424 168.87 164.9 167.441L201.5 146.309Z" fill="#24B34B"/>
<path d="M206 168V181.345M219.008 220.548L221 224M191 172.02L196.382 181.345M228.376 210.934L231.981 213.015M180.019 183.005L186.957 187.012M232.53 198.01H236M176 198.01H179.471M225.043 187.012L231.981 183.005M180.019 213.015L183.624 210.934M215.619 181.345L221 172.02M191 224L192.992 220.548M206 223.711L184.733 202.561M206 223.711L196.945 199.551M206 223.711L227.267 202.561M206 223.711L215.055 199.551M184.733 202.561L196.945 199.551M184.733 202.561L194.433 188.752H202.217M196.945 199.551L202.217 188.752M196.945 199.551H215.055M202.217 188.752H209.783M227.267 202.561L215.055 199.551M227.267 202.561L217.566 188.752H209.783M215.055 199.551L209.783 188.752" stroke="white" stroke-width="3" stroke-linecap="round" stroke-linejoin="round"/>
<defs>
<linearGradient id="paint0_linear_778_5097" x1="205.5" y1="0" x2="205.5" y2="232" gradientUnits="userSpaceOnUse">
<stop stop-color="white" stop-opacity="0.4"/>
<stop offset="1" stop-color="#24B34B" stop-opacity="0.35"/>
</linearGradient>
</defs>
</svg>
