<svg width="1440" height="638" viewBox="0 0 1440 638" fill="none" xmlns="http://www.w3.org/2000/svg">
<path d="M1447.5 610.22C1501.95 604.198 1542.12 552.672 1557.11 500.733C1584.38 406.09 1545.62 298.914 1464.68 245.125C1431.8 223.266 1387.39 210.156 1351.26 229.098C1346.97 231.354 1342.76 234.134 1340.12 238.142C1332.02 250.538 1345.94 267.736 1360.67 265.944C1375.4 264.153 1386.05 249.155 1387.09 234.654C1388.14 220.186 1381.76 206.473 1374.39 194.167C1331.63 122.867 1249.93 78.4548 1164.72 71.6381C1079.54 64.8019 992.169 93.2756 920.889 142.537C901.798 155.739 883.613 170.51 869.002 188.404C849.266 212.528 836.703 241.445 818.176 266.483C799.649 291.521 771.864 313.665 740.873 312.944C726.244 312.629 711.195 306.235 704.405 293.766C697.614 281.296 702.223 262.681 715.815 256.795C729.597 250.843 745.491 259.801 753.178 272.014C766.673 293.341 762.49 322.608 748.653 344.676C734.836 366.776 712.904 382.926 690.502 396.689C639.882 427.832 583.708 450.064 525.701 461.803C485.68 469.914 444.836 473.138 405.27 483.297C306.055 508.802 218.593 580.003 174.413 671.245" stroke="white" stroke-miterlimit="10" stroke-linecap="round" stroke-dasharray="5.26 5.26"/>
<path d="M-38.0522 192.236C-58.0189 164.613 -49.8896 124.817 -30.9733 96.478C3.51391 44.8587 71.8438 18.5564 131.988 33.7472C156.426 39.9161 181.463 55.0172 187.456 79.5108C188.162 82.4199 188.582 85.5102 187.746 88.381C185.135 97.2365 170.93 97.8978 165.607 90.3576C160.284 82.8174 163.089 71.7158 169.696 65.2594C176.279 58.8079 185.616 56.0954 194.692 54.4273C247.286 44.7667 303.199 64.1775 342.332 100.712C381.462 137.222 404.369 189.305 410.418 242.531C412.034 256.79 412.508 271.278 409.962 285.404C406.547 304.464 397.788 322.189 393.421 341.069C389.053 359.948 389.983 381.909 403.362 395.922C409.665 402.546 419.096 406.858 428.005 404.852C436.914 402.845 444.015 393.041 441.158 384.337C438.254 375.519 427.223 371.875 418.061 373.362C402.033 375.926 389.582 389.926 384.684 405.414C379.762 420.908 381.142 437.695 383.878 453.714C390.038 489.929 402.861 525.034 421.548 556.659C434.435 578.483 450.041 598.671 461.743 621.129C491.071 677.458 493.271 747.203 467.545 805.228" stroke="white" stroke-miterlimit="10" stroke-linecap="round" stroke-dasharray="5.26 5.26"/>
<path d="M1162.07 87.1245C1162.29 86.7908 1162.52 86.497 1162.74 86.2167L1162.49 85.9764C1162.42 85.923 1162.52 85.8162 1162.58 85.8562C1162.68 85.923 1162.78 85.9764 1162.88 86.0431C1167.16 80.9167 1172.77 84.628 1178 86.9242C1180.54 88.0323 1182.83 88.9802 1185.62 88.4195C1188.08 87.9255 1189.74 86.5771 1191.78 85.1887C1193.29 84.1608 1194.93 83.1595 1196.65 82.4252C1197.31 81.9046 1198.01 81.4373 1198.75 81.0368C1194.85 77.6993 1190.96 74.335 1187.15 70.9041C1184.54 68.5544 1180.44 65.9779 1179.55 62.3333C1178.95 59.8902 1180.28 57.8343 1182.59 56.8597C1185.73 55.5381 1189.23 57.0867 1192.11 58.3282C1196.6 60.2507 1201.19 61.9729 1205.61 64.0555C1209.68 65.9779 1214.05 67.8068 1217.92 70.0497C1219.05 69.4356 1220.21 68.8882 1221.27 68.3943C1221.46 68.3008 1221.66 68.3141 1221.83 68.3675C1222.07 68.3275 1222.34 68.3275 1222.62 68.3809C1222.66 68.3275 1222.7 68.2741 1222.76 68.234C1227.85 64.8297 1233.2 61.9194 1238.86 59.5965C1243.02 57.8877 1247.7 55.6983 1252.28 56.0988C1253.26 56.1789 1254.2 56.4058 1255.18 56.5393C1257.13 56.8063 1258.89 56.3791 1260.84 56.4058C1261.95 56.4192 1263.07 56.4592 1264.04 57.06C1264.86 57.5673 1265.32 58.2882 1265.44 59.0358C1265.56 59.1159 1265.65 59.2494 1265.59 59.4096C1265.55 59.5298 1265.5 59.6499 1265.46 59.77C1265.42 60.0638 1265.3 60.3441 1265.15 60.6111C1262.19 68.1139 1254.86 73.0802 1248.22 77.1386C1244.22 79.5817 1240.08 81.7978 1235.87 83.8938C1236.03 84.2542 1236.21 84.6013 1236.38 84.9618C1237.01 85.9096 1237.46 87.0578 1237.96 88.0323C1239.37 86.7774 1240.93 85.696 1242.23 84.9084C1242.4 84.3076 1242.76 83.787 1243.34 83.3998C1244.35 82.719 1245.29 82.8391 1246.13 83.3598C1249.64 83.5467 1254.96 92.1575 1250.64 94.0933C1250.39 94.2134 1250.11 94.2802 1249.83 94.3069C1247.8 95.989 1244.73 97.0837 1242.6 97.8313C1242.59 97.8313 1242.56 97.8447 1242.55 97.8447C1244.78 100.288 1243.64 103.999 1239.72 103.398C1237.14 103.011 1234.89 100.622 1232.84 99.1797C1229.28 96.6565 1225.63 94.2668 1221.87 92.064C1221.84 92.0507 1221.83 92.0507 1221.8 92.0374C1221.78 92.024 1221.76 91.9973 1221.74 91.9839C1221.66 92.0106 1221.56 91.9973 1221.48 91.9439C1221.38 91.8771 1221.28 91.7837 1221.18 91.7169C1220.88 91.5167 1220.55 91.3832 1220.27 91.1696C1219.71 91.4233 1219.16 91.6636 1218.6 91.9172C1208.81 96.2694 1198.72 100.301 1188.09 102.037C1185.73 102.424 1183.34 102.704 1180.95 102.838C1179.19 102.944 1176.64 103.465 1174.94 102.704C1174.05 102.304 1173.56 101.663 1173.53 100.955C1171.89 101.756 1170.19 102.571 1168.56 102.918C1166 103.465 1165.43 101.569 1166.95 99.5268C1167.95 98.1918 1169.6 97.2039 1171.22 96.3762C1170.03 95.3348 1168.87 94.2535 1167.74 93.1588C1167.49 93.3457 1167.24 93.5192 1167 93.6928C1166.91 93.7595 1166.8 93.5993 1166.88 93.5326C1167.11 93.3457 1167.33 93.1721 1167.56 92.9986C1165.76 91.2631 1163.98 89.4875 1162.14 87.8053C1161.98 87.6051 1161.95 87.3114 1162.07 87.1245Z" fill="white"/>
<path d="M1259.26 57.3802C1259.41 57.2467 1259.56 57.1398 1259.73 57.0731C1260.05 56.8728 1260.44 56.7927 1260.81 56.9129C1260.87 56.9262 1260.92 56.9663 1260.97 56.993C1261.2 57.0464 1261.41 57.1265 1261.61 57.2333C1261.83 57.3401 1262.03 57.4869 1262.22 57.6471H1262.23C1263.19 57.9275 1263.92 58.7419 1264.1 59.7431C1264.18 60.2104 1264.14 60.7043 1263.95 61.1449C1263.75 61.6388 1262.98 62.3063 1263.04 62.8537C1263.16 63.6947 1262.18 64.0152 1261.68 63.5746C1261.23 63.4011 1260.77 62.9872 1260.51 62.7202C1259.76 61.986 1259.25 60.9713 1258.93 59.9834C1258.69 59.1424 1258.56 58.0744 1259.26 57.3802Z" fill="#FF9933"/>
<path d="M1236.69 100.408C1236.23 100.101 1236.39 99.4866 1236.81 99.2597C1238.21 98.4453 1239.73 97.938 1241.35 97.7244C1241.83 97.6576 1242.09 98.0448 1242.07 98.4186C1242.37 98.4052 1242.67 98.6589 1242.52 99.0193C1242.51 99.0594 1242.48 99.0861 1242.47 99.1261C1242.04 100.047 1241.37 100.742 1240.51 101.209C1240.48 101.222 1240.47 101.249 1240.44 101.262C1240.32 101.449 1240.12 101.596 1239.83 101.596C1239.37 101.596 1238.93 101.609 1238.48 101.609C1238.33 102.023 1237.84 102.277 1237.4 101.97C1237.18 101.823 1236.98 101.649 1236.78 101.489C1236.38 101.169 1236.42 100.688 1236.69 100.408Z" fill="#FF9933"/>
<path d="M1181.05 62.8668C1181.09 62.8268 1181.13 62.8001 1181.18 62.7734C1181.07 62.7066 1180.99 62.6132 1180.94 62.493C1180.47 61.4918 1180.57 60.5306 1181.18 59.6228C1181.25 59.516 1181.34 59.4492 1181.43 59.3958C1181.79 58.8618 1182.33 58.4346 1182.96 58.0875C1182.82 57.7137 1182.96 57.2865 1183.46 57.2331C1185.26 57.0595 1187.05 57.0729 1188.84 57.3399C1189.4 57.42 1189.78 58.2343 1189.23 58.6081C1187.96 59.4625 1186.71 60.317 1185.44 61.1714C1185.1 61.3983 1183.68 62.1726 1182.7 62.8802C1182.8 63.0003 1182.84 63.1739 1182.77 63.294C1182.45 63.9082 1182.05 64.2419 1181.38 64.4288C1181.14 64.4956 1180.9 64.2686 1180.85 64.055C1180.78 63.7747 1180.82 63.5076 1180.91 63.2673C1180.86 63.1338 1180.9 62.9736 1181.05 62.8668Z" fill="#FF9933"/>
<path d="M1164.08 86.3233C1165.45 84.6946 1167.84 84.2941 1169.82 84.0671C1170.11 84.0271 1170.35 84.1739 1170.5 84.3875C1171.46 84.6011 1172.35 84.9482 1173.22 85.4689C1173.41 85.5757 1173.42 85.8694 1173.29 86.0296C1173.3 86.0697 1173.3 86.1097 1173.26 86.1498C1171.78 87.7251 1170.14 89.1001 1168.41 90.3817C1168.43 90.5419 1168.36 90.7155 1168.15 90.8089C1167.65 90.9825 1167.2 91.2362 1166.79 91.5699C1166.41 91.8236 1166 91.4898 1166.02 91.1427C1165.96 91.1026 1165.89 91.0626 1165.84 91.0092C1164.62 89.7409 1162.59 88.0722 1164.08 86.3233Z" fill="#FF9933"/>
<path d="M1162.14 87.7516C1163.98 89.4337 1165.76 91.2093 1167.56 92.9448C1167.33 93.1184 1167.11 93.2919 1166.88 93.4788C1166.8 93.5455 1166.91 93.7057 1167 93.639C1167.25 93.4654 1167.49 93.2919 1167.74 93.105C1168.88 94.1997 1170.03 95.2944 1171.22 96.3224C1169.6 97.1501 1167.95 98.138 1166.95 99.473C1165.43 101.502 1166 103.398 1168.56 102.864C1170.19 102.517 1171.89 101.702 1173.53 100.901C1173.57 101.609 1174.05 102.25 1174.94 102.65C1176.64 103.411 1179.19 102.891 1180.95 102.784C1183.34 102.65 1185.73 102.37 1188.09 101.983C1198.72 100.247 1208.81 96.2156 1218.6 91.8634C1219.16 91.6231 1219.71 91.3695 1220.27 91.1158C1220.56 91.3294 1220.88 91.4629 1221.18 91.6632C1221.28 91.7433 1221.38 91.8234 1221.48 91.8901C1221.56 91.9435 1221.66 91.9569 1221.74 91.9302C1221.76 91.9435 1221.78 91.9702 1221.8 91.9836C1221.83 91.9969 1221.84 91.9969 1221.87 92.0103C1225.63 94.213 1229.28 96.6161 1232.84 99.1259C1234.89 100.568 1237.14 102.957 1239.72 103.345C1243.63 103.932 1244.77 100.234 1242.55 97.7909C1242.56 97.7909 1242.59 97.7775 1242.6 97.7775C1244.73 97.0299 1247.8 95.9486 1249.83 94.2531C1250.11 94.2264 1250.37 94.1597 1250.64 94.0395C1254.96 92.1171 1249.64 83.5062 1246.13 83.306C1245.29 82.7987 1244.34 82.6785 1243.34 83.346C1242.75 83.7332 1242.4 84.2539 1242.23 84.8546C1240.95 85.6556 1239.39 86.737 1237.96 87.9785C1237.46 87.004 1237.02 85.8559 1236.38 84.908C1236.21 84.5476 1236.05 84.2004 1235.87 83.84C1240.08 81.744 1244.22 79.5279 1248.22 77.0848C1254.87 73.0264 1262.19 68.0601 1265.15 60.5573C1265.31 60.2903 1265.42 59.9967 1265.46 59.7163C1265.5 59.5962 1265.55 59.476 1265.59 59.3558C1265.65 59.1956 1265.56 59.0621 1265.44 58.982C1265.32 58.2344 1264.86 57.5135 1264.04 57.0062C1263.06 56.3921 1261.95 56.3654 1260.84 56.3521C1258.9 56.3254 1257.13 56.7526 1255.18 56.4856C1254.2 56.3521 1253.26 56.1251 1252.28 56.045C1247.7 55.6579 1243.02 57.8473 1238.86 59.5428C1233.2 61.8657 1227.84 64.776 1222.76 68.1803C1222.7 68.2204 1222.66 68.2737 1222.62 68.3271C1222.32 68.2737 1222.07 68.2737 1221.83 68.3138C1221.66 68.247 1221.46 68.247 1221.27 68.3405C1220.21 68.8478 1219.05 69.3818 1217.92 69.9959C1214.05 67.7531 1209.67 65.9241 1205.61 64.0017C1201.19 61.9191 1196.6 60.1969 1192.11 58.2745C1189.23 57.0329 1185.74 55.4843 1182.59 56.806C1180.28 57.7805 1178.95 59.8364 1179.55 62.2795C1180.44 65.9241 1184.53 68.5007 1187.15 70.8503C1190.96 74.2813 1194.85 77.6455 1198.75 80.9831C1198.01 81.3969 1197.31 81.8508 1196.65 82.3715C1194.93 83.1057 1193.29 84.107 1191.78 85.135C1189.75 86.5234 1188.09 87.8718 1185.62 88.3657C1182.82 88.9264 1180.52 87.9919 1178 86.8705C1172.77 84.5743 1167.16 80.8763 1162.88 85.9894C1162.78 85.9226 1162.68 85.8692 1162.58 85.8025C1162.52 85.7624 1162.42 85.8559 1162.49 85.9226L1162.74 86.1629C1162.52 86.4433 1162.3 86.737 1162.07 87.0707C1161.95 87.311 1161.98 87.6048 1162.14 87.7516ZM1182.41 65.8707C1182.23 65.6438 1182.09 65.4168 1181.94 65.1898C1181.95 65.1631 1181.97 65.1498 1181.98 65.1231C1183.46 61.1715 1194.76 69.3818 1197.16 71.0773C1197.15 71.0639 1197.13 71.0506 1197.12 71.0639C1195.41 72.1186 1193.67 73.1599 1192.05 74.308C1191.94 74.3748 1192.03 74.5483 1192.14 74.4816C1193.85 73.4403 1195.5 72.2654 1197.15 71.1173C1197.16 71.104 1197.16 71.0906 1197.16 71.0773C1197.25 71.144 1197.33 71.1974 1197.4 71.2508C1199.66 72.7994 1202.09 74.3614 1203.95 76.3639C1204.81 77.2717 1206.26 79.2209 1205.38 80.5959C1205.1 81.0231 1203.46 81.8508 1202.63 82.3181C1201.63 81.8375 1200.64 81.2501 1199.66 80.5559C1196.53 78.3931 1193.62 75.8833 1190.71 73.4269C1188 71.1307 1184.58 68.7143 1182.41 65.8707ZM1214.58 69.5954C1215.27 69.9959 1216 70.3697 1216.68 70.7569C1214.93 71.8382 1213.34 73.1599 1212.43 74.9087C1211.35 76.9914 1211.27 79.9685 1213.17 81.6372C1213.75 82.1579 1214.91 82.3314 1216.32 82.278C1214.75 82.7453 1213.17 83.1725 1211.59 83.4796C1208.35 84.1204 1205.61 83.7065 1202.95 82.4917C1204.23 81.8909 1205.46 81.1967 1206.7 80.5025C1206.84 80.4224 1206.88 80.2755 1206.81 80.142C1203.95 74.1879 1197 70.5967 1191.58 67.3259C1190 66.378 1182.93 60.8244 1181.51 64.469C1179.62 60.6508 1181.78 57.2465 1186.19 57.2999C1188.17 57.3266 1190.12 58.1143 1191.95 58.7952C1195.25 60.0234 1198.55 61.4251 1201.7 63.0004C1205.68 64.9362 1210.07 68.2203 1214.58 69.5954ZM1223.63 69.8357C1224.57 71.1707 1225.46 72.439 1226.05 73.9609C1226.22 74.348 1226.36 74.7485 1226.45 75.1624C1226.5 75.2959 1226.56 75.4161 1226.58 75.5229C1226.61 75.8566 1226.56 76.137 1226.37 76.3372C1226.88 74.7219 1224.07 71.4778 1223.35 70.65C1223.07 70.3296 1222.74 70.0894 1222.42 69.9959C1222.87 69.6488 1223.25 69.542 1223.57 69.6888C1223.58 69.7289 1223.59 69.7823 1223.63 69.8357ZM1223.41 75.5496C1223.51 75.7632 1223.63 75.9634 1223.75 76.177C1223.81 76.2705 1223.9 76.3506 1223.99 76.404C1224.19 76.6443 1224.41 76.8445 1224.63 76.978C1223.53 77.3385 1223.47 77.0982 1222.59 76.0569C1221.94 75.2692 1221.43 74.4682 1221.07 73.5204C1220.88 73.1199 1220.75 72.706 1220.67 72.2654C1220.19 71.1974 1220.48 70.57 1221.54 70.3831C1221.47 70.5566 1221.44 70.7836 1221.47 71.0773C1221.55 72.3856 1222.32 74.1745 1223.41 75.5496ZM1224.26 78.5667C1222.66 79.4745 1220.6 79.9952 1219.13 80.3823C1216.89 80.9564 1213.7 82.278 1212.93 79.0206C1212.24 76.1904 1214.61 73.8274 1216.73 72.439C1217.09 72.1987 1218.83 71.0372 1220.15 70.343C1220.07 70.7702 1220.04 71.2241 1220.08 71.6647C1220.29 74.1211 1222.03 77.1115 1224.09 78.4866C1224.14 78.5267 1224.19 78.54 1224.26 78.5667ZM1217.64 70.1828C1217.58 70.2095 1217.52 70.2496 1217.46 70.2896C1217.4 70.2362 1217.33 70.1961 1217.26 70.1561C1217.38 70.1561 1217.52 70.1695 1217.64 70.1828ZM1248.61 93.2118C1247.2 93.0783 1245.91 91.9969 1244.99 90.9957C1243.92 89.8209 1242.54 87.6581 1242.59 85.8158C1242.76 85.6957 1242.94 85.5755 1243.1 85.442C1243.52 86.777 1244.67 88.3657 1245.19 89.1934C1245.63 89.8743 1246.13 90.6619 1246.79 91.1959C1247.36 91.8501 1248.02 92.3708 1248.81 92.4108C1251.29 92.531 1250.64 90.208 1249.68 88.3123C1249.58 88.072 1249.49 87.8451 1249.38 87.6582C1249.09 87.0574 1248.65 86.2163 1248.12 85.4153C1249.38 86.7637 1250.36 88.7529 1250.67 89.7942C1251.15 91.4095 1250.76 93.4121 1248.61 93.2118ZM1241.17 97.11C1238.69 97.7508 1238.49 97.871 1236.43 95.9619C1234.31 95.0274 1233.99 93.6257 1235.47 91.7567C1235.91 91.236 1236.35 90.7287 1236.8 90.208C1237.57 89.4337 1238.49 88.7528 1239.37 88.0987C1240.27 87.4312 1241.19 86.8037 1242.1 86.1763C1242.3 89.2201 1245.53 93.2519 1248.45 94.1196C1247.34 94.6803 1246.18 95.1609 1245.11 95.6415C1243.8 96.1889 1242.52 96.7496 1241.17 97.11ZM1237.58 98.632C1237.6 98.632 1237.61 98.6319 1237.64 98.6453C1237.57 98.7654 1237.5 98.8856 1237.41 99.0191C1237.41 98.9924 1237.42 98.9791 1237.42 98.9524C1237.46 98.899 1237.49 98.8589 1237.49 98.8322C1237.5 98.7521 1237.54 98.6854 1237.58 98.632ZM1236.21 100.755C1237.06 100.314 1237.58 99.6332 1237.82 98.6587C1239.23 98.7922 1240.75 98.405 1242.08 97.9645C1243.12 99.7 1241.75 100.995 1237.94 101.863C1237.34 101.529 1236.77 101.155 1236.21 100.755ZM1221.28 90.6753C1225.92 88.606 1230.56 86.4967 1235.13 84.2405C1235.27 84.5209 1235.42 84.8012 1235.57 85.0949C1235.93 86.2964 1236.65 87.4712 1237.16 88.5526C1237.18 88.5926 1237.21 88.6327 1237.24 88.6594C1235.22 90.5818 1233.68 92.8246 1233.95 94.974C1233.59 94.6937 1233.22 94.4133 1232.83 94.133C1232.83 94.133 1232.83 94.133 1232.84 94.1196C1232.91 94.0262 1232.76 93.9461 1232.7 94.0262C1230.93 92.6778 1229.05 91.2627 1227.09 90.475C1225.92 90.0078 1224.89 89.9944 1223.82 90.6619C1223.69 90.742 1223.81 90.969 1223.94 90.8755C1226.45 89.2068 1230.27 92.5443 1232.5 94.2398C1231.64 95.1876 1230.57 95.4947 1229.31 95.6015C1229.15 95.6148 1229.13 95.8284 1229.29 95.8551C1230.56 96.0287 1231.83 95.3211 1232.64 94.3599C1232.72 94.4267 1232.82 94.4934 1232.9 94.5468C1233.23 94.7871 1233.62 95.0408 1234.01 95.3078C1234.15 95.9886 1234.49 96.6695 1235.07 97.3236C1235.62 97.9377 1236.26 98.2982 1236.96 98.4985C1236.93 98.5252 1236.92 98.5519 1236.9 98.5919C1236.88 98.7388 1236.84 98.8856 1236.8 99.0191C1236.74 99.0858 1236.7 99.1393 1236.68 99.1793C1236.49 99.3929 1236.3 99.6065 1236.09 99.7801C1235.89 99.9403 1235.66 100.034 1235.5 100.234C1235.49 100.247 1235.49 100.261 1235.49 100.261C1234.11 99.3262 1232.76 98.3382 1231.39 97.4037C1228.38 95.3612 1225.33 93.412 1222.27 91.4362C1222.24 91.3962 1222.22 91.3561 1222.16 91.3161C1221.87 91.1025 1221.58 90.8889 1221.28 90.6753ZM1174.97 100.207C1175.34 100.034 1175.72 99.8602 1176.08 99.7133C1178.58 98.672 1182.53 97.5239 1184.17 95.1743C1185.34 93.4922 1184.82 91.3828 1182.46 91.8768C1182.39 91.8902 1182.34 91.9169 1182.31 91.9569C1179.67 92.4509 1177.15 93.4387 1174.72 94.6002C1172.02 91.3561 1167.88 89.0599 1164.18 86.8438C1165.19 84.8146 1169.26 84.5476 1171.05 85.0282C1172.11 85.3085 1173.28 85.936 1174.29 86.3765C1176.2 87.2042 1178.08 88.1788 1180.04 88.8863C1183.68 90.1813 1186.91 89.9276 1190.28 88.0453C1192.42 86.8571 1194.3 85.3085 1196.5 84.2272C1197.83 83.5864 1199.15 83.0791 1200.39 82.4116C1200.52 82.505 1200.66 82.6118 1200.79 82.7052C1200.62 82.812 1200.47 82.9589 1200.38 83.1725C1200.07 83.84 1199.91 84.6543 1200.55 85.2151C1200.88 85.5088 1201.36 85.7624 1201.82 85.5889C1202.29 85.4153 1202.66 85.135 1202.86 84.7478C1203.03 84.5476 1203.14 84.2539 1203.17 83.9735C1208.52 86.1362 1214.11 83.8133 1219.81 81.7173C1222.31 81.1032 1224.78 80.0352 1225.96 78.8471C1226.74 78.6334 1227.4 77.9526 1227.62 76.9513C1228.05 75.0556 1226.98 72.7861 1225.67 71.0506C1225.18 70.2095 1224.57 69.4619 1223.89 68.9546C1230.16 64.8561 1236.82 61.5052 1243.94 59.1422C1246.78 58.1944 1249.18 57.6871 1251.87 57.7138C1251.55 58.2211 1251.41 58.8352 1251.59 59.4226C1251.77 60.0367 1252.35 60.2503 1252.92 60.0233C1253.92 59.6228 1254.98 59.3291 1255.97 58.8886C1256.47 58.6616 1256.95 58.3946 1257.41 58.1143C1257.76 58.1143 1258.1 58.1009 1258.46 58.0876C1258.93 58.0475 1259.41 57.9808 1259.88 57.8873C1262.12 57.2198 1263.5 58.2344 1264.03 60.8778C1256.65 74.308 1239.69 81.0632 1226.48 87.1642C1218.31 90.9289 1210.11 94.7204 1201.55 97.5506C1197.52 98.8856 1193.39 100.007 1189.22 100.781C1186.72 101.235 1184.2 101.569 1181.66 101.756C1180.71 101.823 1179.78 101.863 1178.83 101.889C1178.12 101.916 1177.41 101.916 1176.69 101.903C1176.15 101.315 1175.56 100.768 1174.97 100.207ZM1172.46 97.3904C1172.54 97.4571 1172.61 97.5239 1172.69 97.5773C1173.08 97.8844 1173.58 97.2703 1173.26 96.9232C1176.39 95.1609 1180.59 93.4655 1182.54 92.5309C1183.38 94.5468 1182.74 95.8685 1180.58 96.4693C1180.18 96.6962 1179.78 96.9232 1179.38 97.1368C1178.16 97.7909 1176.88 98.3249 1175.63 98.8856C1175.32 99.0191 1175.01 99.1526 1174.7 99.2861C1174.54 99.1927 1174.33 99.206 1174.16 99.3796C1174.09 99.4463 1174.05 99.5264 1174 99.5932C1173.32 99.8869 1172.63 100.194 1171.94 100.488C1170.79 100.982 1169.62 102.33 1169.43 100.594C1169.42 100.528 1169.43 100.448 1169.43 100.381C1173.74 98.939 1177.77 96.5761 1181.77 94.4667C1181.81 94.44 1181.78 94.3866 1181.73 94.4C1177.68 96.3357 1173.76 98.4717 1169.54 99.9803C1169.9 99.166 1171.01 98.2715 1172.46 97.3904ZM1168.16 92.7846C1168.88 92.2372 1169.58 91.6498 1170.29 91.1025C1171.85 92.1571 1173.34 93.2652 1174.65 94.6403C1174.26 94.8272 1173.89 95.0141 1173.52 95.201C1173.06 95.4279 1172.58 95.6682 1172.07 95.9085C1171.01 95.0808 1169.55 93.9728 1168.16 92.7846ZM1164.05 87.1775C1164.74 87.5914 1165.53 87.9652 1166.05 88.2989C1167 88.9264 1167.95 89.5539 1168.88 90.1813C1169.31 90.4617 1169.74 90.7554 1170.16 91.0357C1169.43 91.5697 1168.68 92.0771 1167.95 92.6244C1165.69 90.6753 1163.68 88.5526 1164.05 87.1775Z" fill="#201306"/>
<path d="M1247.37 59.2893C1247.58 59.2493 1247.8 59.2225 1248.02 59.2359C1248.74 59.316 1249.16 59.7165 1249.4 60.3707C1249.37 60.2906 1249.35 60.2105 1249.31 60.1304C1249.4 60.2772 1249.44 60.4374 1249.44 60.611C1249.47 60.8913 1249.41 61.1316 1249.27 61.3719C1249.24 61.412 1249.23 61.4387 1249.21 61.4787C1248.97 61.9326 1248.4 62.1996 1247.9 62.1729C1247.69 62.1596 1247.48 62.1329 1247.28 62.0661C1246.69 61.8659 1246.21 61.2785 1246.26 60.6243C1246.3 60.0236 1246.73 59.4095 1247.37 59.2893Z" fill="#201306"/>
<path d="M1242.74 61.7858C1242.86 61.8125 1242.96 61.8392 1243.07 61.8793C1243.56 62.0662 1243.86 62.48 1243.87 63.014C1243.88 63.4813 1243.68 63.7884 1243.4 64.1221C1242.83 64.7763 1241.61 64.5359 1241.25 63.775C1241.24 63.7349 1241.21 63.6949 1241.2 63.6548C1240.68 62.6002 1241.6 61.5322 1242.74 61.7858Z" fill="#201306"/>
<path d="M1238.19 63.6677C1238.95 63.8413 1239.43 64.5622 1239.23 65.3231C1239.15 65.6302 1238.99 65.8705 1238.75 66.0707C1238.07 66.6181 1236.94 66.6047 1236.52 65.7103C1236.4 65.4566 1236.34 65.2564 1236.34 64.976C1236.33 64.0014 1237.35 63.4675 1238.19 63.6677Z" fill="#201306"/>
<path d="M1232.82 65.8571C1233.52 65.8838 1233.94 66.4712 1233.98 67.1254C1234 67.4057 1233.91 67.7662 1233.8 68.0332C1233.54 68.6873 1232.96 69.1145 1232.23 68.9944C1231.59 68.8876 1230.97 68.2601 1231.05 67.5659C1231.16 66.6447 1231.83 65.8304 1232.82 65.8571Z" fill="#201306"/>
<path d="M1227.17 69.4491C1227.62 69.2088 1228.1 69.3423 1228.45 69.6627C1228.5 69.6894 1228.54 69.7028 1228.6 69.7295C1228.88 69.8897 1228.89 70.1834 1228.76 70.397C1228.76 70.7842 1228.58 71.1579 1228.21 71.3582C1227.69 71.6385 1227.02 71.4383 1226.74 70.9177C1226.45 70.4104 1226.65 69.7295 1227.17 69.4491Z" fill="#201306"/>
<path d="M1195.62 85.6819C1196.36 85.5084 1197.2 85.989 1197.35 86.75C1197.49 87.5109 1197.05 88.2852 1196.28 88.4721C1195.54 88.6457 1194.7 88.1651 1194.56 87.4041C1194.41 86.6432 1194.84 85.8688 1195.62 85.6819Z" fill="#201306"/>
<path d="M1189.99 91.1429C1189.61 90.916 1189.44 90.4354 1189.56 90.0082C1189.73 89.4608 1190.22 89.3273 1190.71 89.3273C1190.74 89.314 1190.75 89.2873 1190.78 89.2739C1191.02 89.0603 1191.4 89.2873 1191.31 89.6077C1191.3 89.6344 1191.3 89.6611 1191.28 89.6878C1191.5 90.1016 1191.59 90.5155 1191.26 90.916C1190.96 91.2898 1190.4 91.3966 1189.99 91.1429Z" fill="#201306"/>
<path d="M1190.98 97.1771C1190.97 97.0169 1190.91 96.8967 1190.95 96.7365C1190.97 96.6698 1191.03 96.6164 1191.1 96.603C1191.34 96.5363 1191.66 96.7365 1191.82 96.8967C1192.09 97.1637 1192.19 97.5375 1192.22 97.898C1192.27 98.7124 1190.83 98.659 1190.95 97.8446C1190.97 97.631 1191.01 97.4174 1190.98 97.1771Z" fill="#201306"/>
<path d="M1193.06 96.2556C1193.51 96.3624 1194.02 96.8564 1193.74 97.337C1193.65 97.4972 1193.43 97.4972 1193.3 97.377C1193.13 97.2168 1193.1 96.9498 1192.86 96.8564C1192.48 96.7095 1192.65 96.1488 1193.06 96.2556Z" fill="#201306"/>
<path d="M1194.77 96.0426C1194.97 96.0827 1195.1 96.0159 1195.29 95.9758C1195.42 95.9491 1195.53 96.096 1195.45 96.2028C1195.28 96.4832 1194.94 96.5099 1194.65 96.4431C1194.38 96.4031 1194.5 95.9892 1194.77 96.0426Z" fill="#201306"/>
<path d="M1222.35 86.4706C1222.63 86.3237 1222.88 86.5373 1222.91 86.8177C1222.92 86.8844 1222.92 86.9646 1222.9 87.0313C1222.87 87.1782 1222.76 87.2716 1222.6 87.2315C1222.5 87.2048 1222.43 87.1648 1222.32 87.1114C1222.08 86.9779 1222.11 86.5907 1222.35 86.4706Z" fill="#201306"/>
<path d="M1223.47 85.0287C1223.6 85.0153 1223.66 85.0019 1223.79 85.0153C1224.13 85.042 1223.99 85.5627 1223.72 85.4425C1223.6 85.3891 1223.55 85.3624 1223.44 85.2823C1223.34 85.2156 1223.34 85.042 1223.47 85.0287Z" fill="#201306"/>
<path d="M1220.08 76.8979C1220.48 76.8846 1220.8 77.1516 1221.11 77.3919C1221.27 77.5254 1221.18 77.8591 1220.93 77.7657C1220.56 77.6188 1220.16 77.4586 1219.96 77.0848C1219.91 77.0047 1219.97 76.8979 1220.08 76.8979Z" fill="#201306"/>
<path d="M1219.23 77.7927C1219.51 77.7794 1219.72 77.8461 1219.99 77.9396C1220.23 78.0197 1220.12 78.3801 1219.87 78.3134C1219.6 78.2466 1219.39 78.1799 1219.16 78.0197C1219.07 77.9396 1219.11 77.7927 1219.23 77.7927Z" fill="#201306"/>
<path d="M1218.56 78.6864C1218.23 78.5529 1217.84 78.4461 1217.53 78.2458C1217.4 78.1657 1217.49 77.9788 1217.64 78.0055C1217.99 78.0856 1218.32 78.2725 1218.64 78.4194C1218.8 78.4995 1218.73 78.7531 1218.56 78.6864Z" fill="#201306"/>
<path d="M1244.42 93.8524C1244.84 93.7857 1245.31 93.9326 1245.75 93.9192C1245.98 93.9059 1245.98 94.2263 1245.79 94.293C1245.33 94.4532 1244.74 94.5199 1244.32 94.1862C1244.2 94.0927 1244.27 93.8791 1244.42 93.8524Z" fill="#201306"/>
<path d="M1243.43 94.7068C1243.58 94.6801 1243.71 94.6935 1243.86 94.7068C1244.07 94.7202 1244.06 95.0672 1243.85 95.0539C1243.7 95.0405 1243.57 95.0272 1243.42 94.9738C1243.31 94.9204 1243.3 94.7202 1243.43 94.7068Z" fill="#201306"/>
<path d="M1241.96 94.9608C1242.2 94.9475 1242.38 95.0943 1242.47 95.2946C1242.52 95.388 1242.38 95.4681 1242.32 95.3747C1242.22 95.2011 1242.1 95.1744 1241.92 95.121C1241.84 95.0943 1241.88 94.9742 1241.96 94.9608Z" fill="#201306"/>
<path d="M1255.15 67.914C1255.07 68.1543 1254.97 68.3145 1254.79 68.5014C1254.74 68.5548 1254.63 68.5014 1254.65 68.4347C1254.67 68.1677 1254.71 68.0075 1254.85 67.7672C1254.94 67.5936 1255.22 67.7271 1255.15 67.914Z" fill="#201306"/>
<path d="M1253.3 69.3418C1253.39 69.3418 1253.48 69.3551 1253.58 69.3551C1253.79 69.3684 1253.7 69.7022 1253.54 69.6221C1253.46 69.582 1253.36 69.542 1253.28 69.5019C1253.19 69.4619 1253.2 69.3284 1253.3 69.3418Z" fill="#201306"/>
<path d="M1252 69.982C1252.16 69.942 1252.21 70.1823 1252.05 70.2224C1251.91 70.2624 1251.85 70.0221 1252 69.982Z" fill="#201306"/>
<path d="M1238.14 77.9659C1238.42 77.9525 1238.64 78.0726 1238.84 78.2462C1238.99 78.3797 1238.77 78.6467 1238.61 78.5132C1238.45 78.3797 1238.28 78.3263 1238.09 78.2462C1237.94 78.1928 1237.98 77.9792 1238.14 77.9659Z" fill="#201306"/>
<path d="M1237.29 79.074C1237.56 79.1541 1237.81 79.3009 1238.06 79.4211C1238.24 79.5145 1238.1 79.8216 1237.92 79.7415C1237.66 79.6214 1237.38 79.5279 1237.16 79.3677C1237.01 79.2609 1237.12 79.034 1237.29 79.074Z" fill="#201306"/>
<path d="M1236.45 79.6081C1236.58 79.5947 1236.72 79.608 1236.85 79.6214C1237 79.6347 1237 79.8751 1236.84 79.8617C1236.69 79.8484 1236.56 79.835 1236.41 79.8083C1236.29 79.7683 1236.34 79.6081 1236.45 79.6081Z" fill="#201306"/>
<path d="M1232.06 79.595C1232.02 79.9688 1231.99 80.3293 1231.87 80.6897C1231.83 80.7965 1231.68 80.7698 1231.67 80.6497C1231.64 80.2892 1231.72 79.9421 1231.78 79.5817C1231.82 79.4081 1232.08 79.4081 1232.06 79.595Z" fill="#201306"/>
<path d="M1230.2 80.2757C1230.12 80.0755 1230.41 79.9019 1230.51 80.1155C1230.67 80.5027 1230.74 80.8631 1230.56 81.2503C1230.53 81.317 1230.41 81.2903 1230.4 81.2236C1230.33 80.9165 1230.32 80.5828 1230.2 80.2757Z" fill="#201306"/>
<path d="M1205.5 74.0949C1205.39 74.1884 1205.23 74.0549 1205.3 73.9347C1205.43 73.6944 1205.61 73.4941 1205.78 73.2939C1205.9 73.147 1206.17 73.2939 1206.04 73.4541C1205.86 73.681 1205.7 73.908 1205.5 74.0949Z" fill="#201306"/>
<path d="M1203.57 72.2258C1203.42 72.2659 1203.37 72.0256 1203.51 71.9989C1203.66 71.9588 1203.71 72.1858 1203.57 72.2258Z" fill="#201306"/>
<path d="M1200.11 69.9428C1200.08 69.7292 1200.07 69.529 1200.04 69.3154C1200.03 69.1285 1200.31 69.1018 1200.3 69.2887C1200.28 69.5023 1200.28 69.7159 1200.27 69.9295C1200.27 70.0096 1200.12 70.0363 1200.11 69.9428Z" fill="#201306"/>
<path d="M1205.98 92.424C1205.94 92.6109 1205.9 92.7844 1205.83 92.9713C1205.78 93.0915 1205.58 93.0781 1205.59 92.9313C1205.61 92.731 1205.66 92.5441 1205.71 92.3439C1205.75 92.1703 1206.02 92.2505 1205.98 92.424Z" fill="#201306"/>
<path d="M1203.53 92.05C1203.61 91.8498 1203.93 91.9433 1203.85 92.1569C1203.72 92.5173 1203.56 92.7176 1203.23 92.9178C1203.17 92.9579 1203.09 92.8778 1203.13 92.811C1203.29 92.5841 1203.43 92.3037 1203.53 92.05Z" fill="#201306"/>
</svg>
