<svg width="60" height="70" viewBox="0 0 60 70" fill="none" xmlns="http://www.w3.org/2000/svg">
<path d="M30.0003 10.0818C19.0326 10.0818 10.1416 18.7378 10.1416 29.4157C10.1416 40.0935 19.0326 48.7495 30.0003 48.7495C40.968 48.7495 49.859 40.0934 49.859 29.4157C49.8589 18.7378 40.9679 10.0818 30.0003 10.0818ZM43.3705 23.67L29.6392 39.0948C29.0351 39.7735 27.9764 39.8374 27.2908 39.2366L16.7729 30.0205C16.0963 29.4277 16.0414 28.413 16.6504 27.7542L18.5718 25.6756C19.1808 25.0168 20.2231 24.9634 20.8997 25.5563L26.7457 30.6787C27.4314 31.2795 28.4899 31.2155 29.0941 30.5369L38.7085 19.7365C39.3047 19.0667 40.3457 18.9943 41.0338 19.5748L43.2043 21.4061C43.8924 21.9867 43.9666 23.0002 43.3705 23.67Z" fill="#F99D1C"/>
<path d="M59.6328 33.0404C58.9008 32.5447 58.2254 31.9747 57.5509 31.4058C57.1472 31.0653 56.8893 30.6849 56.9369 30.1324C56.9778 29.6585 56.9648 29.1795 56.9648 28.7027C56.9648 28.3746 57.1056 28.1362 57.3593 27.9186C58.0741 27.3052 58.822 26.7314 59.5915 26.188C59.963 25.9257 60.0587 25.6471 59.9674 25.229C59.7606 24.2829 59.5437 23.3355 59.4115 22.3782C59.2993 21.5647 59.2808 21.6246 58.5328 21.4085C57.7056 21.1694 56.8767 20.9361 56.0493 20.6977C55.7566 20.6134 55.5005 20.4799 55.3465 20.2034C54.9634 19.5153 54.6459 18.8005 54.3863 18.0601C54.2888 17.7821 54.3164 17.5311 54.4546 17.2693C54.9026 16.4209 55.3362 15.565 55.8351 14.7432C55.9363 14.5766 55.9793 14.4416 55.8624 14.268C55.2436 13.3489 54.6263 12.4288 54.0191 11.5025C53.8532 11.2493 53.6355 11.1591 53.3412 11.1975C53.2234 11.2129 53.1033 11.2124 52.9858 11.2293C52.2206 11.3395 51.4523 11.434 50.6926 11.573C50.3684 11.6323 50.108 11.5617 49.8495 11.402C49.3792 11.1112 49.0106 10.7184 48.6446 10.3149C48.3283 9.96612 48.2559 9.59243 48.3328 9.15202C48.4817 8.29843 48.6062 7.44085 48.7507 6.58648C48.7873 6.37088 48.7211 6.22581 48.5331 6.11314C48.3308 5.99177 48.1361 5.85833 47.9394 5.72817C47.2383 5.26427 46.5378 4.79967 45.8372 4.33516C45.6716 4.22536 45.5097 4.13662 45.3086 4.27704C44.7981 4.63358 44.2224 4.87344 43.6581 5.1341C42.5163 5.66143 42.6895 5.71903 41.2399 5.32395C41.1969 5.31221 41.1541 5.29906 41.1105 5.28984C40.839 5.23276 40.6614 5.07094 40.5718 4.82107C40.4937 4.60321 40.4183 4.3838 40.3576 4.1609C40.1786 3.5042 40.0276 2.83906 39.9405 2.16696C39.8906 1.78197 39.6976 1.61561 39.347 1.51843C38.6745 1.33215 38.0049 1.13378 37.3572 0.874949C37.1876 0.807173 37.0457 0.829104 36.8974 0.929071C36.5797 1.14327 36.2509 1.34199 35.9348 1.55819C35.5576 1.81615 35.1968 2.09708 34.8149 2.34791C34.1999 2.75169 33.5105 2.67191 33.0063 2.15485C32.4822 1.61726 32.0466 1.01266 31.6314 0.395984C31.4386 0.109569 31.2027 -0.0119546 30.8528 0.00092192C30.2876 0.0218897 29.7211 0.0257886 29.1558 0.0124771C28.8688 0.00569079 28.6858 0.1141 28.5247 0.335001C28.0863 0.936369 27.63 1.52556 27.1826 2.12093C26.8529 2.55969 26.4079 2.67323 25.8801 2.56682C25.4758 2.4853 25.1387 2.275 24.8087 2.04975C24.2972 1.70069 23.7825 1.35626 23.2758 1.00076C23.0505 0.842675 22.8419 0.818735 22.5704 0.915222C21.9281 1.14352 21.2726 1.33754 20.6187 1.53391C20.1797 1.66572 20.1912 1.6591 20.1245 2.07794C19.9813 2.97729 19.7967 3.86865 19.54 4.74547C19.4594 5.02084 19.3062 5.20764 19.0187 5.28185C18.6737 5.37086 18.3312 5.4721 17.9822 5.54231C17.6389 5.61139 17.311 5.56584 16.9913 5.39384C16.2883 5.01581 15.5688 4.66699 14.8631 4.29357C14.6093 4.15932 14.4094 4.17438 14.1691 4.34143C13.3463 4.91321 12.5177 5.47875 11.6683 6.01199C11.3964 6.18269 11.3144 6.35319 11.3636 6.6477C11.5115 7.53095 11.6338 8.41821 11.7812 9.30155C11.8347 9.62173 11.7892 9.90127 11.5729 10.1534C11.2578 10.5207 10.9127 10.8578 10.538 11.1683C10.1356 11.5018 9.6889 11.5906 9.16584 11.5069C8.38855 11.3824 7.60188 11.3145 6.82145 11.2067C6.45667 11.1562 6.20879 11.2511 6.00521 11.5713C5.45043 12.4441 4.86928 13.3012 4.28733 14.1574C4.12675 14.3937 4.13092 14.5882 4.28293 14.8324C4.7831 15.636 5.23566 16.4661 5.68811 17.2962C5.86577 17.6223 5.85807 17.9275 5.72027 18.2517C5.49883 18.7724 5.26454 19.2887 5.0657 19.8176C4.87464 20.3258 4.52387 20.6131 3.98464 20.7416C3.08884 20.955 2.20568 21.219 1.30809 21.4242C0.944646 21.5073 0.79156 21.6851 0.73106 22.0261C0.539372 23.1075 0.346333 24.1896 0.109694 25.2622C0.0208652 25.6647 0.12579 25.9039 0.4593 26.1353C1.24652 26.6813 1.99717 27.2746 2.73292 27.8852C2.95365 28.0685 3.1479 28.2612 3.1454 28.5694C3.1404 29.205 3.14388 29.8408 3.12851 30.4762C3.12127 30.7738 3.01136 31.0327 2.76329 31.2363C1.97857 31.8803 1.16564 32.4899 0.334721 33.0749C0.041872 33.2812 -0.0624446 33.2531 0.036125 33.7426C0.264274 34.8762 0.51158 36.0063 0.742231 37.1395C0.798442 37.4158 0.935338 37.5616 1.23417 37.6088C2.1163 37.7483 2.97116 38.0088 3.84256 38.1933C4.49421 38.3314 4.89116 38.6843 5.13307 39.2627C5.32324 39.7175 5.52108 40.1715 5.75379 40.6065C5.90696 40.8928 5.91617 41.1458 5.76997 41.4269C5.28722 42.3548 4.87444 43.3187 4.27158 44.1843C4.10885 44.4178 4.09324 44.6303 4.25535 44.8637C4.83774 45.7022 5.39364 46.5579 6.04235 47.3522C6.26093 47.6199 6.49483 47.7023 6.85274 47.6421C7.73129 47.4945 8.6185 47.3959 9.50223 47.2776C9.92725 47.2149 10.2519 47.3781 10.5569 47.6502C10.8306 47.8945 11.0953 48.1509 11.3797 48.3803C11.7894 48.711 11.8553 49.0986 11.7762 49.5803C11.6379 50.4211 11.5481 51.2692 11.4283 52.113C11.4012 52.3034 11.4255 52.4493 11.6038 52.5609C12.4797 53.1083 13.3155 53.7144 14.2101 54.2354C14.4504 54.3754 14.6595 54.3936 14.9192 54.2743C15.5916 53.9655 16.2876 53.7037 16.9533 53.3824C17.2653 53.2319 17.5605 53.178 17.8621 53.2331L17.741 53.4928C17.7595 53.4913 17.778 53.4898 17.7973 53.4895C17.9121 53.4885 18.0267 53.4908 18.1414 53.4913L12.4656 65.6627L19.18 63.8672L21.932 69.8474L29.1717 54.3228C29.4453 54.329 29.7191 54.3322 29.9933 54.3309C30.2484 54.3296 30.5036 54.3276 30.7589 54.3247L38.0679 70L40.8199 64.0198L47.5345 65.8153L41.6683 53.2354C41.7638 53.2312 41.8594 53.2273 41.9551 53.2258C42.0121 53.2249 42.065 53.2301 42.1143 53.2401C42.4375 53.1827 42.7431 53.2322 43.0605 53.3849C43.7267 53.7057 44.4202 53.9728 45.0882 54.2902C45.3962 54.4368 45.6322 54.3907 45.9169 54.2297C46.8061 53.7264 47.6241 53.1211 48.4905 52.5863C48.6856 52.4658 48.7345 52.33 48.6935 52.1159C48.6229 51.7473 48.5756 51.374 48.529 51.0015C48.4535 50.3999 48.3207 49.8059 48.2899 49.198C48.2757 48.9184 48.3592 48.6911 48.556 48.4911C48.9275 48.1133 49.3406 47.7835 49.7756 47.4785C49.9925 47.3264 50.2372 47.2893 50.4983 47.3244C50.8223 47.368 51.1463 47.4131 51.4713 47.4499C52.1065 47.5217 52.7423 47.5887 53.378 47.657C53.6162 47.6826 53.7969 47.6145 53.958 47.4198C54.6305 46.6076 55.2182 45.7376 55.8309 44.8843C55.9738 44.6853 55.9969 44.4902 55.8558 44.2815C55.7824 44.1729 55.7199 44.0574 55.6523 43.9452C55.193 43.184 54.7736 42.4037 54.4137 41.5926C54.2564 41.2382 54.2515 40.897 54.4016 40.5432C54.6284 40.0087 54.8687 39.4805 55.126 38.959C55.2647 38.6779 55.4769 38.5061 55.7811 38.4168C56.7641 38.1281 57.7484 37.8441 58.7481 37.6146C59.2161 37.5071 59.2173 37.5179 59.3047 37.0781C59.5161 36.0148 59.6957 34.9441 59.9583 33.8929C60.0621 33.4794 59.9787 33.2747 59.6328 33.0404ZM52.4449 30.7182C52.2509 33.9089 51.3519 36.9071 49.7518 39.7094C48.4987 41.9042 46.9163 43.8468 45.0191 45.5382C43.4314 46.9536 41.6299 48.0795 39.6746 48.966C37.7076 49.8579 35.6534 50.4784 33.5053 50.7923C32.7555 50.9018 32 50.9617 31.2425 51.0137C30.2144 51.0842 29.1899 51.0465 28.1659 50.9913C26.6002 50.9066 25.0703 50.6164 23.5628 50.1967C20.4151 49.3205 17.647 47.7752 15.1975 45.6927C13.2559 44.042 11.6801 42.0931 10.4059 39.9118C8.99962 37.5043 8.15381 34.9171 7.76659 32.187C7.51208 30.3925 7.51964 28.5922 7.71606 26.7875C8.2014 22.3283 10.1196 18.4853 13.0257 15.0654C16.1292 11.4131 20.1282 9.14262 24.8183 7.98826C26.5379 7.56499 28.3011 7.3775 29.7253 7.40804C32.4676 7.40169 34.8041 7.7236 37.0574 8.48653C39.6817 9.3751 42.0587 10.7001 44.1974 12.4308C46.0653 13.9425 47.6631 15.6843 48.9515 17.6817C50.6289 20.2822 51.7689 23.0833 52.2128 26.1394C52.434 27.6612 52.5378 29.1883 52.4449 30.7182Z" fill="#F99D1C"/>
</svg>
