<svg width="139" height="95" viewBox="0 0 139 95" fill="none" xmlns="http://www.w3.org/2000/svg">
<path d="M101.626 0.411375C108.027 -1.30393 114.608 2.49513 116.323 8.89673C117.763 14.2726 115.314 19.7725 110.701 22.4133L123.458 18.9954C129.859 17.2801 136.44 21.0791 138.155 27.4807C139.87 33.8823 136.071 40.4626 129.67 42.178L116.906 45.5979C122.225 45.5747 127.101 49.1146 128.542 54.4934C130.257 60.8949 126.458 67.4753 120.056 69.1907L27.3269 94.0374C20.9256 95.7523 14.346 91.9532 12.6306 85.552C10.9153 79.1504 14.7144 72.57 21.116 70.8547L33.8787 67.4338C28.5604 67.4568 23.6852 63.9178 22.2439 58.5393C20.8036 53.1641 23.2515 47.664 27.863 45.0227L15.1082 48.4407C8.70681 50.1556 2.12726 46.3566 0.411863 39.9553C-1.30344 33.5537 2.49562 26.9734 8.89721 25.2581L101.626 0.411375Z" fill="#EDEFF7"/>
<path d="M73.2031 6C50.5056 6 32.0391 24.4658 32.0391 47.164C32.0391 69.8615 50.5056 88.3273 73.2031 88.3273C95.9006 88.3273 114.367 69.8615 114.367 47.164C114.367 24.4658 95.9006 6 73.2031 6ZM71.2603 45.0045H54.7698C54.9414 39.4793 55.7572 34.785 56.9736 30.8212C61.5004 31.9735 66.2851 32.6229 71.2603 32.7577V45.0045ZM71.2603 49.4451V62.0167C66.3133 62.1502 61.5638 62.7903 57.0802 63.9252C55.8146 59.9044 54.9555 55.1197 54.7717 49.4451H71.2603ZM75.7009 49.4451H92.1894C92.0056 55.1191 91.1468 59.9034 89.8814 63.924C85.3959 62.7895 80.6469 62.1497 75.701 62.0166V49.4451H75.7009ZM75.7009 45.0045V32.7577C80.6624 32.6235 85.4355 31.9775 89.9526 30.8312C91.1857 34.7975 92.0158 39.4881 92.1904 45.0044H75.7009V45.0045ZM75.7009 28.3175V11.6426C78.9971 13.5873 84.6346 17.9784 88.4 26.6463C84.3741 27.6313 80.1227 28.1901 75.7009 28.3175ZM71.2603 11.6055V28.3157C66.8574 28.1839 62.5361 27.6124 58.5146 26.6303C62.2743 17.8891 67.941 13.5229 71.2603 11.6055ZM50.3307 45.0045H36.5483C36.9749 37.6903 39.5498 30.9454 43.6526 25.3918C46.3441 27.0419 49.3752 28.4401 52.7117 29.5726C51.386 33.9183 50.5044 39.024 50.3307 45.0045ZM50.333 49.4451C50.5184 55.5661 51.4354 60.7681 52.8081 65.17C49.5281 66.278 46.5435 67.6432 43.8863 69.2508C39.6703 63.6689 37.0142 56.8504 36.5577 49.4451H50.333ZM71.2603 66.457V82.7506C67.9849 80.8909 62.4131 76.652 58.6521 68.1066C62.641 67.1353 66.862 66.5834 71.2603 66.457ZM75.7009 82.7505V66.4567C80.098 66.5829 84.3193 67.1343 88.3097 68.1051C84.5488 76.6514 78.9765 80.8907 75.7009 82.7505ZM96.6283 49.4451H109.848C109.398 56.747 106.81 63.4789 102.696 69.0169C100.152 67.5144 97.2942 66.2264 94.1542 65.1662C95.5264 60.765 96.4429 55.5643 96.6283 49.4451ZM96.6304 45.0045C96.4569 39.025 95.5755 33.9203 94.2502 29.575C97.4489 28.4883 100.35 27.1692 102.923 25.6302C106.926 31.1385 109.437 37.7938 109.858 45.0045H96.6304ZM100.076 22.1715C97.8985 23.4157 95.442 24.4872 92.757 25.3953C90.196 19.2169 86.7463 14.8908 83.5252 11.9277C89.9423 13.8108 95.6344 17.399 100.076 22.1715ZM63.6887 11.6977C60.3972 14.665 56.8338 19.053 54.2058 25.3914C51.4134 24.4443 48.8169 23.291 46.5341 21.9577C51.133 17.0944 57.039 13.4835 63.6887 11.6977ZM46.812 72.6615C49.0563 71.3745 51.601 70.2616 54.3299 69.3426C56.9143 75.4535 60.3674 79.6997 63.5756 82.5975C57.1055 80.8374 51.3435 77.35 46.812 72.6615ZM83.6412 82.3667C86.7772 79.4746 90.1175 75.2882 92.6336 69.337C95.2511 70.2142 97.6567 71.2472 99.7972 72.4484C95.4238 77.0459 89.8788 80.5138 83.6412 82.3667Z" fill="#4A62AD"/>
<path d="M23.3614 72.7146C21.7732 72.7146 20.71 72.2948 20.201 71.4672C19.3731 70.1208 20.1975 68.2057 22.7217 65.6126C24.8397 63.4366 28.1106 60.8286 32.1807 58.0706L33.2072 59.5416C30.7202 61.3276 28.6631 62.977 27.2583 64.3112C25.8866 65.6139 25.4443 66.3169 25.3017 66.6316C25.3558 66.6365 25.4217 66.6398 25.5013 66.6398C28.1631 66.6398 36.8003 63.1751 48.1582 56.5534C50.8654 54.9747 53.4481 53.3763 55.8566 51.7891L52.3886 50.2857L57.1661 47.0796L61.0774 48.4425L73.2748 39.7889L57.4128 29.5824L62.6982 26.0449L79.7998 34.0238L81.4384 34.7889L83.1912 33.616L86.0466 31.6976C87.5632 30.6784 89.2375 29.9588 91.0231 29.5587L92.5455 29.2189C92.6975 29.1848 92.8524 29.1675 93.0056 29.1675C93.7733 29.1675 94.4698 29.5994 94.8233 30.2948C95.1737 30.9839 95.1072 31.8015 94.6499 32.4285L93.7811 33.6185C92.6905 35.1136 91.3448 36.3735 89.7816 37.363L85.2804 40.2139L86.3205 61.0742L81.0537 64.634L77.5096 45.5815L64.5708 53.4745L64.5533 53.8526L64.3468 57.751L59.5706 60.9548L59.4941 57.3505C56.8388 59.0204 54.008 60.6715 51.0583 62.2701C39.5328 68.5172 28.4023 72.7146 23.3614 72.7146Z" fill="#4A62AD"/>
<path d="M62.7791 27.0705L79.4228 34.8358L81.5192 35.8146L83.6921 34.3606L86.549 32.4411C87.9681 31.4874 89.5532 30.8068 91.2215 30.4331L92.7432 30.0933C92.8337 30.0731 92.9221 30.0634 93.0078 30.0634C93.9061 30.0634 94.4999 31.1142 93.9275 31.8991L93.059 33.0887C92.0398 34.486 90.766 35.679 89.3042 36.6042L84.3609 39.7353L85.402 60.6133L81.6876 63.1237L78.1559 44.1373L63.6991 52.9562L63.6674 53.6444L63.6598 53.8105L63.4773 57.2551L60.4347 59.2959L60.3648 56.001L60.3592 55.7363C57.4272 57.6303 54.1486 59.5755 50.633 61.4807C38.9299 67.8242 28.1325 71.817 23.3636 71.817C22.1375 71.817 21.3091 71.5528 20.9673 70.9968C19.7962 69.0923 24.6303 64.2713 32.6861 58.8124C27.0556 62.8561 23.7258 66.104 24.4337 67.1736C24.5957 67.4186 24.9607 67.5359 25.5035 67.5359C28.7144 67.5359 38.1485 63.4279 48.612 57.3274C51.9341 55.3902 55.0182 53.4508 57.7264 51.6203L57.5975 51.5646L54.2535 50.1148L57.2961 48.073L60.8356 49.3064L61.2213 49.4408L74.8781 39.7518L59.0494 29.5668L62.7791 27.0705ZM62.6215 25.0176L61.7814 25.5799L58.0517 28.0761L55.7803 29.5963L58.0788 31.0753L71.6758 39.8242L60.9378 47.4424L57.8863 46.3791L57.0404 46.0843L56.2965 46.5834L53.254 48.6252L50.5279 50.4547L53.5401 51.7605L53.9705 51.947C51.9819 53.2256 49.886 54.5079 47.7084 55.7775C42.7521 58.6671 37.7472 61.2594 33.6157 63.0771C30.6566 64.3789 28.6982 65.0486 27.4368 65.3909C27.6535 65.1732 27.9049 64.9312 28.1966 64.6629C29.5541 63.4145 31.4685 61.895 33.7325 60.2691L31.6799 57.3271C27.5603 60.1188 24.2411 62.7671 22.0813 64.9861C20.8933 66.2065 20.074 67.2696 19.5765 68.236C18.668 70.0012 19.0003 71.2224 19.4392 71.9361C20.1223 73.0472 21.4427 73.6106 23.3636 73.6106C26.6288 73.6106 31.5101 72.0312 35.0299 70.7063C40.0547 68.8149 45.7457 66.17 51.4878 63.0576C53.9634 61.716 56.356 60.3374 58.6329 58.9414L58.6413 59.3338L58.7108 62.6119L61.4339 60.7855L64.4764 58.7447L65.2211 58.2452L65.2686 57.3498L65.4464 53.9914L76.8681 47.0239L79.924 63.4517L80.4244 66.1424L82.6919 64.6097L86.4063 62.0992L87.2438 61.5332L87.1934 60.5237L86.2044 40.6907L90.2639 38.1195C91.9225 37.0696 93.3506 35.7326 94.5081 34.1458L95.3763 32.9566C96.034 32.0548 96.1292 30.8789 95.6251 29.8873C95.1178 28.8894 94.115 28.2695 93.0078 28.2695C92.7889 28.2695 92.5679 28.2941 92.3511 28.3427L90.8305 28.6822C88.9345 29.1069 87.1578 29.8704 85.5484 30.952L82.6918 32.8713L81.362 33.7612L80.1817 33.2101L63.5375 25.4447L62.6215 25.0176Z" fill="white"/>
</svg>
