<svg width="71" height="70" viewBox="0 0 71 70" fill="none" xmlns="http://www.w3.org/2000/svg">
<g clip-path="url(#clip0_2484_1171)">
<path d="M35.4661 0.000137538C33.0253 0.0182237 31.0409 2.02657 31.0511 4.46741C31.0571 5.5189 31.4346 6.53444 32.117 7.33446C32.7994 8.13448 33.7426 8.66745 34.78 8.83914V17.5075C34.7808 17.6959 34.8563 17.8762 34.9899 18.0089C35.1236 18.1417 35.3045 18.2159 35.4929 18.2152H35.507C35.6954 18.2159 35.8763 18.1417 36.01 18.0089C36.1436 17.8762 36.2191 17.6959 36.2198 17.5075V8.83914C37.3256 8.65811 38.3224 8.06649 39.0109 7.1825C39.6994 6.2985 40.029 5.18725 39.9338 4.07081C39.8386 2.95437 39.3256 1.91496 38.4974 1.16031C37.6691 0.405654 36.5866 -0.00866827 35.4661 0.000137538ZM35.4999 7.45752C34.9048 7.45744 34.323 7.28086 33.8282 6.95011C33.3334 6.61937 32.9478 6.14931 32.7201 5.59939C32.4925 5.04947 32.4331 4.4444 32.5493 3.8607C32.6656 3.27699 32.9524 2.74088 33.3734 2.32017C33.7943 1.89946 34.3306 1.61305 34.9144 1.49715C35.4982 1.38126 36.1032 1.4411 36.653 1.66909C37.2028 1.89709 37.6726 2.283 38.003 2.77802C38.3334 3.27305 38.5096 3.85494 38.5093 4.45011C38.508 5.24765 38.1904 6.01211 37.6263 6.57587C37.0621 7.13963 36.2975 7.45669 35.4999 7.45752Z" fill="#24B34B"/>
<path d="M17.5105 15.9926C18.1624 15.0851 18.4489 13.9655 18.313 12.8564C18.1772 11.7473 17.6289 10.7299 16.7773 10.0065C15.9257 9.28315 14.833 8.90673 13.7165 8.95212C12.6001 8.9975 11.5416 9.46136 10.7515 10.2515C9.96136 11.0416 9.4975 12.1001 9.45212 13.2165C9.40673 14.333 9.78315 15.4257 10.5065 16.2773C11.2299 17.1289 12.2473 17.6772 13.3564 17.813C14.4655 17.9489 15.5851 17.6624 16.4926 17.0105L22.6218 23.1402C22.6876 23.2061 22.7657 23.2585 22.8517 23.2942C22.9378 23.3299 23.03 23.3483 23.1231 23.3483C23.2163 23.3483 23.3085 23.3299 23.3945 23.2942C23.4806 23.2585 23.5587 23.2061 23.6244 23.1402L23.6402 23.1244C23.7061 23.0587 23.7585 22.9806 23.7942 22.8945C23.8299 22.8085 23.8483 22.7163 23.8483 22.6231C23.8483 22.53 23.8299 22.4378 23.7942 22.3517C23.7585 22.2657 23.7061 22.1876 23.6402 22.1218L17.5105 15.9926ZM16.0247 15.5247C15.6039 15.9455 15.0678 16.2321 14.4841 16.3482C13.9004 16.4643 13.2954 16.4047 12.7456 16.177C12.1957 15.9492 11.7258 15.5636 11.3952 15.0687C11.0645 14.5739 10.8881 13.9922 10.8881 13.397C10.8881 12.8019 11.0645 12.2202 11.3952 11.7253C11.7258 11.2305 12.1957 10.8449 12.7456 10.6171C13.2954 10.3894 13.9004 10.3298 14.4841 10.4459C15.0678 10.562 15.6039 10.8486 16.0247 11.2694C16.5881 11.8341 16.9046 12.5993 16.9046 13.397C16.9046 14.1948 16.5881 14.96 16.0247 15.5247Z" fill="#24B34B"/>
<path d="M18.0075 34.28H9.33914C9.16745 33.2426 8.63448 32.2994 7.83446 31.617C7.03444 30.9346 6.0189 30.5571 4.96741 30.5511C2.52657 30.5409 0.518224 32.5253 0.500138 34.9661C0.491332 36.0866 0.905654 37.1691 1.66031 37.9974C2.41496 38.8256 3.45437 39.3386 4.57081 39.4338C5.68725 39.529 6.7985 39.1994 7.6825 38.5109C8.56649 37.8224 9.15811 36.8256 9.33914 35.7198H18.0075C18.1959 35.7191 18.3762 35.6436 18.5089 35.51C18.6417 35.3763 18.7159 35.1954 18.7152 35.007V34.9929C18.7159 34.8045 18.6417 34.6236 18.5089 34.4899C18.3762 34.3563 18.1959 34.2808 18.0075 34.28ZM4.95011 38.0093C4.35483 38.0097 3.77281 37.8335 3.27766 37.5031C2.78251 37.1727 2.39648 36.7028 2.16841 36.1529C1.94034 35.6031 1.88046 34.9979 1.99636 34.4141C2.11225 33.8302 2.39871 33.2938 2.8195 32.8727C3.24029 32.4516 3.77651 32.1648 4.36032 32.0485C4.94414 31.9323 5.54932 31.9917 6.09933 32.2195C6.64933 32.4472 7.11945 32.8329 7.45021 33.3278C7.78097 33.8227 7.95752 34.4047 7.95752 34.9999C7.95658 35.7974 7.6395 36.5621 7.07576 37.1262C6.51202 37.6903 5.74762 38.0079 4.95011 38.0093Z" fill="#24B34B"/>
<path d="M23.6402 46.8739L23.6244 46.8581C23.5587 46.7922 23.4806 46.7398 23.3945 46.7041C23.3085 46.6684 23.2163 46.65 23.1231 46.65C23.03 46.65 22.9378 46.6684 22.8517 46.7041C22.7657 46.7398 22.6876 46.7922 22.6218 46.8581L16.4926 52.9878C15.5851 52.3359 14.4655 52.0494 13.3564 52.1853C12.2473 52.3211 11.2299 52.8694 10.5065 53.721C9.78315 54.5726 9.40673 55.6653 9.45212 56.7818C9.4975 57.8982 9.96136 58.9567 10.7515 59.7468C11.5416 60.5369 12.6001 61.0008 13.7165 61.0462C14.833 61.0916 15.9257 60.7152 16.7773 59.9918C17.6289 59.2684 18.1772 58.251 18.313 57.142C18.4489 56.0329 18.1624 54.9132 17.5105 54.0057L23.6402 47.8765C23.7061 47.8107 23.7585 47.7326 23.7942 47.6466C23.8299 47.5605 23.8483 47.4683 23.8483 47.3752C23.8483 47.282 23.8299 47.1898 23.7942 47.1038C23.7585 47.0178 23.7061 46.9396 23.6402 46.8739ZM16.0247 58.7305C15.6039 59.1513 15.0678 59.4379 14.4841 59.554C13.9004 59.6701 13.2954 59.6105 12.7456 59.3828C12.1957 59.155 11.7258 58.7694 11.3952 58.2745C11.0645 57.7797 10.8881 57.198 10.8881 56.6028C10.8881 56.0077 11.0645 55.426 11.3952 54.9311C11.7258 54.4363 12.1957 54.0506 12.7456 53.8229C13.2954 53.5952 13.9004 53.5356 14.4841 53.6517C15.0678 53.7678 15.6039 54.0543 16.0247 54.4752C16.5883 55.0398 16.9049 55.805 16.9049 56.6028C16.9049 57.4006 16.5883 58.1659 16.0247 58.7305Z" fill="#24B34B"/>
<path d="M36.2198 61.1607V52.4924C36.2191 52.304 36.1436 52.1236 36.01 51.9909C35.8763 51.8582 35.6954 51.784 35.507 51.7847H35.4929C35.3045 51.784 35.1236 51.8582 34.9899 51.9909C34.8563 52.1236 34.7808 52.304 34.78 52.4924V61.1607C33.7426 61.3324 32.7994 61.8654 32.117 62.6654C31.4346 63.4654 31.0571 64.481 31.0511 65.5325C31.0409 67.9733 33.0253 69.9817 35.4661 69.9997C36.5866 70.0085 37.6691 69.5942 38.4974 68.8396C39.3256 68.0849 39.8386 67.0455 39.9338 65.9291C40.029 64.8126 39.6994 63.7014 39.0109 62.8174C38.3224 61.9334 37.3256 61.3418 36.2198 61.1607ZM35.4999 68.5603C34.9049 68.5602 34.3232 68.3837 33.8284 68.0531C33.3336 67.7224 32.948 67.2524 32.7203 66.7026C32.4926 66.1528 32.4331 65.5479 32.5492 64.9642C32.6653 64.3806 32.9519 63.8445 33.3727 63.4237C33.7935 63.0029 34.3296 62.7163 34.9132 62.6002C35.4969 62.4841 36.1018 62.5436 36.6516 62.7713C37.2014 62.999 37.6714 63.3846 38.002 63.8794C38.3327 64.3742 38.5092 64.9559 38.5093 65.5509C38.5084 66.3488 38.191 67.1137 37.6269 67.6779C37.0627 68.242 36.2978 68.5594 35.4999 68.5603Z" fill="#24B34B"/>
<path d="M60.2484 53.4568C59.5016 52.7123 58.515 52.2567 57.4639 52.1711C56.4129 52.0855 55.3655 52.3755 54.5081 52.9893L48.3788 46.8597C48.3131 46.7937 48.235 46.7414 48.1489 46.7057C48.0629 46.67 47.9707 46.6516 47.8775 46.6516C47.7844 46.6516 47.6922 46.67 47.6061 46.7057C47.5201 46.7414 47.442 46.7937 47.3762 46.8597L47.3605 46.8754C47.2945 46.9412 47.2422 47.0193 47.2065 47.1053C47.1707 47.1914 47.1524 47.2836 47.1524 47.3768C47.1524 47.4699 47.1707 47.5621 47.2065 47.6481C47.2422 47.7342 47.2945 47.8123 47.3605 47.8781L53.4901 54.0073C52.9948 54.6969 52.7071 55.514 52.6612 56.3618C52.6152 57.2097 52.8129 58.053 53.2308 58.7922C53.6487 59.5313 54.2694 60.1355 55.0197 60.5332C55.7699 60.9309 56.6182 61.1056 57.4646 61.0367C58.3109 60.9678 59.1198 60.6581 59.7958 60.1442C60.4718 59.6304 60.9866 58.9338 61.2794 58.1367C61.5722 57.3397 61.6308 56.4755 61.4482 55.6462C61.2657 54.817 60.8497 54.0573 60.2492 53.4568H60.2484ZM59.2305 58.7305C58.8097 59.1513 58.2735 59.4379 57.6899 59.554C57.1062 59.6701 56.5012 59.6105 55.9514 59.3828C55.4015 59.155 54.9316 58.7694 54.601 58.2745C54.2703 57.7797 54.0939 57.198 54.0939 56.6028C54.0939 56.0077 54.2703 55.426 54.601 54.9311C54.9316 54.4363 55.4015 54.0506 55.9514 53.8229C56.5012 53.5952 57.1062 53.5356 57.6899 53.6517C58.2735 53.7678 58.8097 54.0543 59.2305 54.4752C59.7941 55.0398 60.1107 55.805 60.1107 56.6028C60.1107 57.4006 59.7941 58.1659 59.2305 58.7305Z" fill="#24B34B"/>
<path d="M66.0325 30.5511C64.981 30.5571 63.9654 30.9346 63.1654 31.617C62.3654 32.2994 61.8324 33.2426 61.6607 34.28H52.9924C52.804 34.2808 52.6236 34.3563 52.4909 34.4899C52.3582 34.6236 52.284 34.8045 52.2847 34.9929V35.007C52.284 35.1954 52.3582 35.3763 52.4909 35.51C52.6236 35.6436 52.804 35.7191 52.9924 35.7198H61.6607C61.8418 36.8256 62.4334 37.8224 63.3174 38.5109C64.2014 39.1994 65.3126 39.529 66.4291 39.4338C67.5455 39.3386 68.5849 38.8256 69.3396 37.9974C70.0942 37.1691 70.5085 36.0866 70.4997 34.9661C70.4817 32.5253 68.4733 30.5409 66.0325 30.5511ZM66.0509 38.0093C65.4557 38.0093 64.8739 37.8328 64.379 37.5021C63.8841 37.1715 63.4984 36.7015 63.2707 36.1516C63.0429 35.6017 62.9833 34.9966 63.0994 34.4128C63.2155 33.8291 63.5021 33.2929 63.923 32.872C64.3439 32.4511 64.8801 32.1645 65.4638 32.0484C66.0476 31.9323 66.6527 31.9919 67.2026 32.2196C67.7525 32.4474 68.2225 32.8331 68.5532 33.328C68.8838 33.8229 69.0603 34.4047 69.0603 34.9999C69.0595 35.798 68.742 36.5632 68.1776 37.1274C67.6131 37.6916 66.8479 38.0088 66.0498 38.0093H66.0509Z" fill="#24B34B"/>
<path d="M60.2484 10.2514C59.4582 9.46211 58.4 8.99891 57.284 8.95382C56.168 8.90874 55.0759 9.28507 54.2246 10.0081C53.3733 10.7311 52.8251 11.7478 52.6889 12.8564C52.5527 13.965 52.8384 15.0842 53.4893 15.9918L47.3597 22.121C47.2937 22.1868 47.2414 22.2649 47.2057 22.3509C47.17 22.437 47.1516 22.5292 47.1516 22.6223C47.1516 22.7155 47.17 22.8077 47.2057 22.8937C47.2414 22.9798 47.2937 23.0579 47.3597 23.1236C47.3652 23.1288 47.3703 23.1339 47.3754 23.1394C47.4412 23.2054 47.5193 23.2577 47.6053 23.2934C47.6914 23.3291 47.7836 23.3475 47.8768 23.3475C47.9699 23.3475 48.0621 23.3291 48.1481 23.2934C48.2342 23.2577 48.3123 23.2054 48.3781 23.1394L54.5073 17.0097C55.4149 17.6607 56.5341 17.9464 57.6427 17.8102C58.7512 17.674 59.768 17.1258 60.491 16.2745C61.214 15.4232 61.5904 14.331 61.5453 13.2151C61.5002 12.0991 61.037 11.0409 60.2477 10.2506L60.2484 10.2514ZM59.2305 15.5247C58.8097 15.9455 58.2735 16.2321 57.6899 16.3482C57.1062 16.4643 56.5012 16.4047 55.9514 16.177C55.4015 15.9492 54.9316 15.5636 54.601 15.0687C54.2703 14.5739 54.0939 13.9922 54.0939 13.397C54.0939 12.8019 54.2703 12.2202 54.601 11.7253C54.9316 11.2305 55.4015 10.8449 55.9514 10.6171C56.5012 10.3894 57.1062 10.3298 57.6899 10.4459C58.2735 10.562 58.8097 10.8486 59.2305 11.2694C59.7939 11.8341 60.1104 12.5993 60.1104 13.397C60.1104 14.1948 59.7939 14.96 59.2305 15.5247Z" fill="#24B34B"/>
<path d="M35.4999 50.4459C44.0305 50.4459 50.9459 43.5305 50.9459 34.9999C50.9459 26.4694 44.0305 19.554 35.4999 19.554C26.9694 19.554 20.054 26.4694 20.054 34.9999C20.054 43.5305 26.9694 50.4459 35.4999 50.4459Z" fill="#24B34B"/>
<path d="M35.4998 23.748L38.6779 30.6074L46.1836 31.5105L40.6422 36.6525L42.1028 44.0698L35.4998 40.3885L28.8972 44.0698L30.3578 36.6525L24.8164 31.5105L32.3221 30.6074L35.4998 23.748Z" fill="#FCFCFC"/>
</g>
<defs>
<clipPath id="clip0_2484_1171">
<rect width="70" height="70" fill="white" transform="translate(0.5)"/>
</clipPath>
</defs>
</svg>
