<svg width="70" height="70" viewBox="0 0 70 70" fill="none" xmlns="http://www.w3.org/2000/svg">
<path d="M34.9829 8.60417C37.3577 8.60417 39.283 6.67806 39.283 4.30208C39.283 1.92611 37.3577 0 34.9829 0C32.608 0 30.6827 1.92611 30.6827 4.30208C30.6827 6.67806 32.608 8.60417 34.9829 8.60417Z" fill="#F99D1C"/>
<path d="M46.2737 24.5612C46.0545 24.5612 45.8353 24.4776 45.668 24.3102C45.3335 23.9755 45.3335 23.4329 45.668 23.0982L53.9542 14.8083C54.2888 14.4737 54.8311 14.4737 55.1656 14.8083C55.5001 15.143 55.5001 15.6857 55.1656 16.0204L46.8794 24.3102C46.7123 24.4775 46.4929 24.5612 46.2737 24.5612Z" fill="#F99D1C"/>
<path d="M56.6811 17.5956C59.056 17.5956 60.9812 15.6695 60.9812 13.2935C60.9812 10.9175 59.056 8.99142 56.6811 8.99142C54.3062 8.99142 52.3809 10.9175 52.3809 13.2935C52.3809 15.6695 54.3062 17.5956 56.6811 17.5956Z" fill="#F99D1C"/>
<path d="M62.6681 35.8571H50.9497C50.4766 35.8571 50.0931 35.4734 50.0931 35.0001C50.0931 34.5268 50.4766 34.1431 50.9497 34.1431H62.6681C63.1412 34.1431 63.5247 34.5268 63.5247 35.0001C63.5248 35.4734 63.1412 35.8571 62.6681 35.8571Z" fill="#F99D1C"/>
<path d="M65.6673 39.3015C68.0422 39.3015 69.9674 37.3754 69.9674 34.9995C69.9674 32.6235 68.0422 30.6974 65.6673 30.6974C63.2924 30.6974 61.3672 32.6235 61.3672 34.9995C61.3672 37.3754 63.2924 39.3015 65.6673 39.3015Z" fill="#F99D1C"/>
<path d="M54.5599 55.4436C54.3406 55.4436 54.1215 55.3599 53.9542 55.1926L45.668 46.9027C45.3335 46.568 45.3335 46.0254 45.668 45.6908C46.0026 45.3561 46.5449 45.3561 46.8794 45.6908L55.1656 53.9807C55.5001 54.3154 55.5001 54.8579 55.1656 55.1926C54.9982 55.3599 54.7791 55.4436 54.5599 55.4436Z" fill="#F99D1C"/>
<path d="M56.6811 61.0094C59.056 61.0094 60.9812 59.0833 60.9812 56.7074C60.9812 54.3314 59.056 52.4053 56.6811 52.4053C54.3062 52.4053 52.3809 54.3314 52.3809 56.7074C52.3809 59.0833 54.3062 61.0094 56.6811 61.0094Z" fill="#F99D1C"/>
<path d="M34.9842 63.5543C34.5111 63.5543 34.1276 63.1706 34.1276 62.6973V50.9736C34.1276 50.5003 34.5111 50.1166 34.9842 50.1166C35.4573 50.1166 35.8408 50.5003 35.8408 50.9736V62.6973C35.8408 63.1706 35.4573 63.5543 34.9842 63.5543Z" fill="#F99D1C"/>
<path d="M34.9829 70C37.3577 70 39.283 68.0739 39.283 65.6979C39.283 63.3219 37.3577 61.3958 34.9829 61.3958C32.608 61.3958 30.6827 63.3219 30.6827 65.6979C30.6827 68.0739 32.608 70 34.9829 70Z" fill="#F99D1C"/>
<path d="M15.4062 55.4436C15.1869 55.4436 14.9678 55.3599 14.8005 55.1926C14.466 54.8579 14.466 54.3154 14.8005 53.9807L23.0866 45.6908C23.4212 45.3561 23.9635 45.3561 24.298 45.6908C24.6326 46.0254 24.6326 46.568 24.298 46.9027L16.0119 55.1926C15.8446 55.3599 15.6255 55.4436 15.4062 55.4436Z" fill="#F99D1C"/>
<path d="M13.2872 61.0094C15.6621 61.0094 17.5874 59.0833 17.5874 56.7074C17.5874 54.3314 15.6621 52.4053 13.2872 52.4053C10.9123 52.4053 8.98711 54.3314 8.98711 56.7074C8.98711 59.0833 10.9123 61.0094 13.2872 61.0094Z" fill="#F99D1C"/>
<path d="M19.0166 35.8571H7.29831C6.82519 35.8571 6.4417 35.4734 6.4417 35.0001C6.4417 34.5268 6.82519 34.1431 7.29831 34.1431H19.0166C19.4898 34.1431 19.8732 34.5268 19.8732 35.0001C19.8732 35.4734 19.4898 35.8571 19.0166 35.8571Z" fill="#F99D1C"/>
<path d="M4.30012 39.3015C6.67502 39.3015 8.60026 37.3754 8.60026 34.9995C8.60026 32.6235 6.67502 30.6974 4.30012 30.6974C1.92523 30.6974 0 32.6235 0 34.9995C0 37.3754 1.92523 39.3015 4.30012 39.3015Z" fill="#F99D1C"/>
<path d="M23.6923 24.5612C23.4731 24.5612 23.2539 24.4776 23.0866 24.3102L14.8005 16.0204C14.466 15.6857 14.466 15.1431 14.8005 14.8084C15.135 14.4737 15.6774 14.4737 16.0119 14.8084L24.298 23.0982C24.6326 23.4329 24.6326 23.9755 24.298 24.3102C24.1307 24.4776 23.9116 24.5612 23.6923 24.5612Z" fill="#F99D1C"/>
<path d="M13.2872 17.5956C15.6621 17.5956 17.5874 15.6695 17.5874 13.2935C17.5874 10.9175 15.6621 8.99142 13.2872 8.99142C10.9123 8.99142 8.98711 10.9175 8.98711 13.2935C8.98711 15.6695 10.9123 17.5956 13.2872 17.5956Z" fill="#F99D1C"/>
<path d="M34.9842 19.8822C34.5111 19.8822 34.1276 19.4984 34.1276 19.0252V7.3015C34.1276 6.82825 34.5111 6.4445 34.9842 6.4445C35.4573 6.4445 35.8408 6.82825 35.8408 7.3015V19.0252C35.8408 19.4985 35.4573 19.8822 34.9842 19.8822Z" fill="#F99D1C"/>
<path d="M34.9835 53.3394C45.1076 53.3394 53.3148 45.1285 53.3148 34.9998C53.3148 24.8711 45.1076 16.6602 34.9835 16.6602C24.8594 16.6602 16.6522 24.8711 16.6522 34.9998C16.6522 45.1285 24.8594 53.3394 34.9835 53.3394Z" fill="#F99D1C"/>
<path d="M29.625 32.6567V30.0151C29.625 28.5829 30.1825 27.2365 31.1947 26.2237C32.2069 25.2111 33.5527 24.6533 34.9843 24.6533C36.4158 24.6533 37.7617 25.2111 38.7739 26.2237C39.7861 27.2364 40.3436 28.5829 40.3436 30.0151V32.6567C40.3436 34.0888 39.7861 35.4353 38.7739 36.448C37.7617 37.4607 36.4158 38.0184 34.9843 38.0184C33.5528 38.0184 32.2069 37.4607 31.1947 36.448C30.1825 35.4353 29.625 34.0888 29.625 32.6567Z" fill="white"/>
<path d="M45.571 45.846C43.7501 47.604 41.4928 48.9125 38.978 49.5934C37.705 49.938 36.3663 50.1218 34.9847 50.1218C33.6031 50.1218 32.2644 49.9381 30.9914 49.5934C28.4766 48.9125 26.2193 47.604 24.3984 45.846L25.2322 42.332C25.431 41.4942 25.9832 40.7864 26.7468 40.3902L31.4723 37.9379C32.5039 38.6277 33.7157 38.998 34.9846 38.998C36.2536 38.998 37.4654 38.6274 38.497 37.9375L43.2225 40.3901C43.9862 40.7863 44.5383 41.4941 44.7371 42.3319L45.571 45.846Z" fill="white"/>
</svg>
