<svg width="139" height="95" viewBox="0 0 139 95" fill="none" xmlns="http://www.w3.org/2000/svg">
<path d="M101.626 0.411844C108.027 -1.30342 114.608 2.49572 116.323 8.8972C117.763 14.2726 115.314 19.7717 110.702 22.4128L123.458 18.9958C129.859 17.2806 136.44 21.0797 138.155 27.4812C139.87 33.8827 136.071 40.4631 129.67 42.1784L116.906 45.5984C122.224 45.5752 127.1 49.1152 128.542 54.4939C130.257 60.8954 126.458 67.4758 120.056 69.1911L27.3269 94.0378C20.9255 95.7528 14.3459 91.9539 12.6306 85.5525C10.9153 79.1509 14.7144 72.5705 21.116 70.8552L33.8787 67.4343C28.5603 67.4573 23.6851 63.9184 22.2439 58.5398C20.8034 53.1638 23.2522 47.663 27.865 45.0222L15.1082 48.4411C8.70673 50.1562 2.12717 46.3572 0.411863 39.9558C-1.30344 33.5542 2.49562 26.9738 8.89721 25.2585L101.626 0.411844Z" fill="#EDEFF7"/>
<path d="M40.2939 44.2489H50.9767L52.3947 49.8551C52.4954 50.2531 52.8484 50.5312 53.2539 50.532H53.2564C53.6603 50.532 54.0141 50.2564 54.1166 49.8618L55.5837 44.2489H67.6544C69.4155 44.2489 70.8584 42.741 70.9434 40.8526H71.3805L73.1848 47.2689C73.2981 47.6661 73.6511 47.9334 74.0633 47.9342H74.0658C74.4771 47.9342 74.8301 47.6686 74.9442 47.2748L76.4496 42.0957C76.9567 43.3613 78.1207 44.2489 79.4713 44.2489H91.542L93.0091 49.8609C93.1124 50.2564 93.4654 50.532 93.8692 50.532H93.8717C94.2764 50.532 94.6303 50.2531 94.731 49.8551L96.1498 44.2489H106.832C108.648 44.2489 110.125 42.6461 110.125 40.6761V20.2706C110.125 18.3006 108.648 16.6977 106.832 16.6977H96.0316V13.9276C96.0316 11.7619 94.2697 10 92.1041 10H57.8251C55.6594 10 53.8976 11.7619 53.8976 13.9276V16.6977H40.2939C38.4779 16.6977 37 18.3006 37 20.2706V40.6761C37 42.6461 38.4779 44.2489 40.2939 44.2489ZM55.4729 13.9276C55.4729 12.6303 56.5279 11.5754 57.8251 11.5754H92.1041C93.4005 11.5754 94.4563 12.6303 94.4563 13.9276V21.0341C94.4563 21.4688 94.8085 21.8218 95.2439 21.8218C95.6794 21.8218 96.0316 21.4688 96.0316 21.0341V18.2731H106.832C107.778 18.2731 108.55 19.169 108.55 20.2706V40.6761C108.55 41.7777 107.778 42.6736 106.832 42.6736H94.9225L93.8584 46.8809L92.7585 42.6736H79.4713C78.5753 42.6736 77.8376 41.8718 77.761 40.8526H92.1041C94.2697 40.8526 96.0316 39.0907 96.0316 36.9251V25.1782C96.0316 24.7435 95.6786 24.3905 95.2439 24.3905C94.8093 24.3905 94.4563 24.7435 94.4563 25.1782V36.9251C94.4563 38.2223 93.4005 39.2773 92.1041 39.2773H75.6278L74.0758 44.6178L72.5737 39.2773H57.8251C56.5279 39.2773 55.4729 38.2223 55.4729 36.9251V13.9276ZM38.5762 20.2706C38.5762 19.169 39.3464 18.2731 40.2939 18.2731H53.8976V36.9251C53.8976 39.0907 55.6594 40.8526 57.8251 40.8526H69.3647C69.2881 41.8718 68.5504 42.6736 67.6544 42.6736H54.3664L53.2673 46.8809L52.2032 42.6736H40.2939C39.3464 42.6736 38.5762 41.7777 38.5762 40.6761V20.2706Z" fill="#4A62AD"/>
<path d="M45.6366 61.1743C45.6366 65.7713 49.3768 69.5116 53.9738 69.5116C58.5708 69.5116 62.3119 65.7713 62.3119 61.1743C62.3119 56.5773 58.5716 52.8371 53.9738 52.8371C49.376 52.8371 45.6366 56.5765 45.6366 61.1743Z" fill="#4A62AD"/>
<path d="M85.815 61.1743C85.815 65.7713 89.5552 69.5116 94.1522 69.5116C98.7492 69.5116 102.489 65.7713 102.489 61.1743C102.489 56.5773 98.7492 52.8371 94.1522 52.8371C89.5552 52.8371 85.815 56.5765 85.815 61.1743Z" fill="#4A62AD"/>
<path d="M111.092 87.2527C111.092 82.7273 109.329 78.4742 106.13 75.2743C102.93 72.0753 98.6771 70.3135 94.1525 70.3135C89.628 70.3135 85.374 72.0753 82.175 75.2743C81.9119 75.5375 81.6588 75.8064 81.4173 76.0837C79.1525 74.9896 76.6521 74.4126 74.0635 74.4126C71.4748 74.4126 68.9744 74.9896 66.7087 76.0837C66.4673 75.8064 66.2142 75.5375 65.951 75.2743C62.7521 72.0753 58.4981 70.3135 53.9744 70.3135C49.4506 70.3135 45.1959 72.0753 41.996 75.2743C38.797 78.4742 37.0352 82.7281 37.0352 87.2527V89.9754H57.1792C57.1426 90.4309 57.1242 90.8897 57.1242 91.3518V94.0753H91.0018V91.3518C91.0018 90.8897 90.9835 90.4309 90.9469 89.9754H111.092V87.2527Z" fill="#4A62AD"/>
<path d="M65.7262 65.2729C65.7262 69.8699 69.4656 73.6101 74.0634 73.6101C78.6612 73.6101 82.4006 69.8699 82.4006 65.2729C82.4006 60.6759 78.6604 56.9357 74.0634 56.9357C69.4664 56.9357 65.7262 60.6759 65.7262 65.2729Z" fill="#4A62AD"/>
<path d="M67.2566 22.1195H69.339C70.2133 22.1195 71.0101 22.4342 71.6071 22.948L72.6363 19.0054C72.8444 18.2078 73.3507 17.5391 74.0609 17.1228C74.5405 16.8414 75.0742 16.6982 75.6155 16.6982C75.8769 16.6982 76.1409 16.7315 76.3998 16.7989C77.7578 17.1536 78.7062 18.3809 78.7062 19.7823C78.7062 20.0454 78.6721 20.3085 78.6055 20.5633L78.0518 22.684L78.1367 22.6699C80.1 22.3285 82.0992 22.8689 83.6238 24.1511C85.1475 25.4334 86.0218 27.3118 86.0218 29.3035C86.0218 31.1087 85.3174 32.8031 84.0384 34.0754C82.6396 35.4675 80.7104 36.1744 78.7445 36.0146L71.4964 35.3002C70.9127 35.7598 70.16 36.0371 69.339 36.0371H67.2566C65.4098 36.0371 63.9069 34.6341 63.9069 32.9097V25.2477C63.9069 23.5233 65.4098 22.1203 67.2566 22.1195Z" fill="#4A62AD"/>
</svg>
