<svg width="58" height="70" viewBox="0 0 58 70" fill="none" xmlns="http://www.w3.org/2000/svg">
<path d="M6.38091 56.7393H0V70H6.38091V56.7393Z" fill="#24B34B"/>
<path d="M17.158 51.6606H10.7771V70H17.158V51.6606Z" fill="#24B34B"/>
<path d="M27.9355 46.582H21.5546V70H27.9355V46.582Z" fill="#24B34B"/>
<path d="M38.7098 41.5032H32.3289V70H38.7098V41.5032Z" fill="#24B34B"/>
<path d="M45.9199 69.9999L43.106 32.0597H49.4869L45.9199 69.9999Z" fill="#24B34B"/>
<path d="M44.2694 5.61194C43.6849 5.74244 43.1591 5.91141 42.7064 6.0841C43.52 2.82816 44.6734 0.669748 46.2895 0C47.6673 0.828317 48.7713 2.76984 49.6131 5.91886C47.5684 5.16862 45.6536 5.30216 44.2694 5.61194Z" fill="#24B34B"/>
<path d="M51.4605 18.9H41.0396C41.2854 14.378 41.7033 10.4031 42.3753 7.31595C45.5748 6.29777 47.3153 6.26161 49.9602 7.31595C50.6523 10.2604 51.1493 14.1028 51.4605 18.9Z" fill="#24B34B"/>
<path d="M51.853 33.7515C51.853 34.1829 51.8519 34.6188 51.8508 35.0597H40.7378C40.7357 34.6213 40.7347 34.1855 40.7336 33.7515C40.7326 32.049 40.74 30.3789 40.76 28.7494C40.7959 25.7821 40.8739 22.9277 41.009 20.256H51.4985C51.6536 22.8181 51.758 25.6444 51.8108 28.7435C51.8382 30.3406 51.8519 32.009 51.853 33.7515Z" fill="#24B34B"/>
<path d="M41.338 25.2415V37.3613H34.5856L41.338 25.2415Z" fill="#24B34B"/>
<path d="M51.2485 25.2415V37.3613H58.001L51.2485 25.2415Z" fill="#24B34B"/>
<path d="M48.9731 12.3293C48.9731 13.5218 47.7722 14.4887 46.2913 14.4887C44.8099 14.4887 43.6094 13.5218 43.6094 12.3293C43.6094 11.1368 44.8099 10.1699 46.2913 10.1699C47.7722 10.1699 48.9731 11.1369 48.9731 12.3293Z" fill="#FCFCFC"/>
<path d="M47.6824 26.904C47.6824 27.5227 47.0594 28.0242 46.2913 28.0242C45.5228 28.0242 44.9001 27.5226 44.9001 26.904C44.9001 26.2855 45.5228 25.7839 46.2913 25.7839C47.0594 25.7839 47.6824 26.2855 47.6824 26.904Z" fill="#FCFCFC"/>
</svg>
