<svg width="72" height="70" viewBox="0 0 72 70" fill="none" xmlns="http://www.w3.org/2000/svg">
<path d="M63.443 0.0886441C63.443 0.0886441 64.0264 3.63189 63.443 4.51846C63.443 4.51846 60.0876 4.51846 58.9208 2.30374C58.9208 2.30374 62.6406 -0.531312 63.443 0.0886441Z" fill="#F99D1C"/>
<path d="M53.6941 16.634C53.6941 16.634 58.1364 14.5362 64.1455 16.634V64.4604C64.1455 64.4604 57.6133 66.4677 53.6941 64.4604V16.634Z" fill="#F99D1C"/>
<path d="M56.291 17.9827C56.1526 17.9805 56.0059 19.7506 55.8807 22.615C55.7551 25.4791 55.6514 29.4372 55.5986 33.8074C55.6333 38.1826 55.7551 42.1418 55.8773 45.0058C56.0044 47.8699 56.1522 49.6393 56.291 49.6367C56.4294 49.6344 56.5323 47.8613 56.5866 44.9972C56.6455 42.1331 56.6364 38.178 56.6017 33.8078C56.6545 29.4421 56.6462 25.4874 56.59 22.6233C56.5335 19.7589 56.4298 17.985 56.291 17.9827Z" fill="#F99D1C"/>
<path d="M56.0255 61.7568C56.093 61.7719 56.1797 61.6475 56.2792 61.4031C56.3758 61.1599 56.5055 60.7934 56.5756 60.3405C56.7642 59.4297 56.8419 58.168 56.8536 56.7795C56.8483 55.3917 56.7676 54.1401 56.6597 53.24C56.5523 52.3391 56.4267 51.7844 56.2868 51.7832C56.1499 51.7821 56.0247 52.3455 55.9508 53.2524C55.8773 54.1601 55.8456 55.4065 55.8508 56.7795C55.8392 58.1476 55.8742 59.386 55.8697 60.2744C55.8908 60.7258 55.872 61.0777 55.895 61.3345C55.915 61.5902 55.958 61.7421 56.0255 61.7568Z" fill="#F99D1C"/>
<path d="M60.7978 6.04741C60.992 6.06777 61.1689 5.84377 61.1926 5.54737C61.216 5.25059 61.0769 5.00132 60.8815 4.99039C60.6862 4.97945 60.5101 5.20345 60.4871 5.4908C60.4645 5.77778 60.6032 6.02704 60.7978 6.04741Z" fill="#F99D1C"/>
<path d="M59.4588 10.0857C59.5226 10.1592 59.6674 10.134 59.8653 10.0114C59.9721 9.95446 60.0539 9.85679 60.1463 9.74517C60.2375 9.63317 60.3356 9.50269 60.3922 9.35373C60.4566 9.20591 60.5113 9.06148 60.5468 8.92723C60.5709 8.79147 60.5826 8.66703 60.5826 8.56031C60.5822 8.34687 60.5328 8.20696 60.4385 8.18283C60.3439 8.15794 60.2225 8.24995 60.1052 8.41098C60.0464 8.49168 59.9887 8.5901 59.9355 8.7021C59.8725 8.80769 59.8084 8.9227 59.7537 9.04979C59.7051 9.18253 59.6421 9.28849 59.5961 9.39635C59.5493 9.50344 59.5214 9.61431 59.4815 9.69124C59.414 9.85829 59.3955 10.0118 59.4588 10.0857Z" fill="#F99D1C"/>
<path d="M55.551 9.17752C55.4401 9.33176 55.7414 9.75524 56.2728 10.0769C56.809 10.4008 57.3577 10.4457 57.4192 10.264C57.4844 10.0746 57.1262 9.7658 56.6367 9.47015C56.1446 9.17262 55.6675 9.01462 55.551 9.17752Z" fill="#F99D1C"/>
<path d="M52.0892 6.57121C51.9776 6.73148 52.2714 7.15006 52.7454 7.50529C53.2198 7.8609 53.7021 8.02418 53.8224 7.87033C53.9427 7.71647 53.6489 7.29827 53.1659 6.93625C52.6836 6.57461 52.2012 6.41094 52.0892 6.57121Z" fill="#F99D1C"/>
<path d="M48.167 4.87477C48.1749 5.07954 48.6071 5.23679 49.1327 5.39027C49.6626 5.55092 50.1479 5.63011 50.2399 5.44683C50.3247 5.28242 49.9499 4.90004 49.3326 4.71111C48.7059 4.52935 48.156 4.68773 48.167 4.87477Z" fill="#F99D1C"/>
<path d="M45.1265 7.49979C45.3219 7.56578 45.6085 7.16643 45.8732 6.68299C46.1383 6.2052 46.3382 5.79605 46.2032 5.64181C46.0829 5.49776 45.5727 5.76701 45.2544 6.33945C44.9455 6.90661 44.9516 7.44247 45.1265 7.49979Z" fill="#F99D1C"/>
<path d="M44.2999 11.7469C44.4941 11.7684 44.7189 11.311 44.8015 10.7257C44.8841 10.1401 44.7947 9.63702 44.6028 9.60195C44.4104 9.5665 44.1864 10.0239 44.1016 10.6231C44.0167 11.2224 44.1057 11.7254 44.2999 11.7469Z" fill="#F99D1C"/>
<path d="M43.8265 16.0534C44.0204 16.0791 44.2327 15.6156 44.3009 15.0187C44.3692 14.4209 44.2666 13.9209 44.072 13.9013C43.8775 13.8817 43.6655 14.3448 43.598 14.9364C43.5309 15.5274 43.6327 16.0278 43.8265 16.0534Z" fill="#F99D1C"/>
<path d="M42.8916 20.2757C43.0722 20.3477 43.3788 19.9288 43.5643 19.3386C43.7076 18.742 43.6676 18.2284 43.4757 18.1911C43.2838 18.1537 43.0179 18.5833 42.8821 19.1508C42.7079 19.7006 42.7091 20.2029 42.8916 20.2757Z" fill="#F99D1C"/>
<path d="M40.0803 23.3708C40.1075 23.4601 40.2579 23.519 40.4721 23.4858C40.58 23.4722 40.7063 23.4435 40.8432 23.4002C40.9729 23.3444 41.1098 23.2671 41.2482 23.1796C41.7931 22.7934 41.9911 22.2692 41.8433 22.1591C41.6819 22.0328 41.2822 22.2919 40.8447 22.5985C40.7297 22.6694 40.6283 22.7485 40.5355 22.8251C40.4359 22.8888 40.35 22.9563 40.2791 23.0238C40.1403 23.1649 40.0502 23.2735 40.0803 23.3708Z" fill="#F99D1C"/>
<path d="M36.0061 22.4334C35.8994 22.5891 36.2188 23.0084 36.7799 23.2988C37.3501 23.5847 37.9029 23.5684 37.9448 23.3844C37.9919 23.1876 37.6024 22.9194 37.0993 22.6675C36.5959 22.4073 36.1192 22.2667 36.0061 22.4334Z" fill="#F99D1C"/>
<path d="M32.5824 19.7819C32.4667 19.9395 32.7499 20.366 33.2145 20.7344C33.6791 21.1032 34.1561 21.2786 34.2798 21.1274C34.4035 20.9761 34.1203 20.5496 33.6474 20.1748C33.1753 19.8003 32.6982 19.6242 32.5824 19.7819Z" fill="#F99D1C"/>
<path d="M28.6194 18.2166C28.6156 18.4191 29.0798 18.6091 29.627 18.7012C29.7624 18.7302 29.894 18.7475 30.0177 18.7547C30.138 18.7724 30.2481 18.7905 30.3469 18.7905C30.5437 18.7936 30.6912 18.7524 30.7304 18.6631C30.7696 18.5737 30.6886 18.45 30.5166 18.3195C30.4302 18.2558 30.3231 18.1842 30.1961 18.1276C30.0656 18.0812 29.9181 18.0394 29.7609 18.0065C29.1296 17.8998 28.6209 18.0288 28.6194 18.2166Z" fill="#F99D1C"/>
<path d="M25.4424 20.6427C25.6329 20.7181 25.9394 20.3252 26.2166 19.8508C26.4942 19.3858 26.7178 19.0004 26.5952 18.8334C26.4893 18.6795 25.9493 18.9186 25.6099 19.4873C25.284 20.0473 25.2701 20.5763 25.4424 20.6427Z" fill="#F99D1C"/>
<path d="M23.888 24.6787C24.0604 24.7636 24.4205 24.391 24.6641 23.8329C24.8832 23.2608 24.9096 22.7461 24.7244 22.6835C24.5397 22.6209 24.2203 23.0115 24.0125 23.5568C23.7787 24.0934 23.7093 24.5912 23.888 24.6787Z" fill="#F99D1C"/>
<path d="M21.957 28.5592C22.1324 28.6459 22.491 28.2828 22.758 27.7484C23.0254 27.2137 23.1 26.7092 22.9254 26.6213C22.7505 26.5338 22.3926 26.897 22.1248 27.4328C21.8571 27.9679 21.7821 28.4725 21.957 28.5592Z" fill="#F99D1C"/>
<path d="M20.0977 32.472C20.2768 32.5505 20.6245 32.176 20.8742 31.6368C21.1238 31.0968 21.1834 30.5903 21.0077 30.5055C20.8315 30.4202 20.4842 30.7947 20.2312 31.3411C19.9785 31.8872 19.9186 32.3936 20.0977 32.472Z" fill="#F99D1C"/>
<path d="M19.0734 35.5136C19.1714 35.5132 19.268 35.4566 19.3438 35.379C19.426 35.2968 19.4591 35.207 19.4999 35.0724C19.5742 34.8095 19.4833 34.5448 19.2985 34.4815C19.1141 34.4181 18.895 34.6097 18.8113 34.9106C18.7664 35.0562 18.7988 35.2357 18.8449 35.3413C18.8954 35.4533 18.9757 35.5143 19.0734 35.5136Z" fill="#F99D1C"/>
<path d="M3.06486 67.6611C3.13425 67.6592 3.18742 66.8469 3.22438 65.3804C3.26171 63.9135 3.28245 61.7923 3.28697 59.1721C3.29565 53.9319 3.23908 46.6965 3.11426 38.7083C3.06938 36.7097 3.08447 34.7567 3.0724 32.8712C3.06109 30.9857 3.05015 29.1673 3.03997 27.4349C3.01244 23.9701 2.97399 20.8503 2.92723 18.2306C2.88047 15.6108 2.82503 13.4908 2.76432 12.0257C2.7036 10.5607 2.63723 9.75067 2.56785 9.75067C2.49846 9.75067 2.43322 10.5607 2.37401 12.0261C2.31481 13.4912 2.26202 15.6116 2.21827 18.2317C2.17453 20.8522 2.13946 23.9727 2.11608 27.4383C2.10778 29.1711 2.09911 30.9898 2.09006 32.8757C2.08931 34.7616 2.06705 36.7142 2.11155 38.7147C2.23674 46.7082 2.40568 53.9478 2.57802 59.1869C2.66438 61.8062 2.7515 63.9259 2.83446 65.3902C2.91667 66.8541 2.99548 67.663 3.06486 67.6611Z" fill="#F99D1C"/>
<path d="M3.03378 6.12787C3.03378 6.12787 5.23643 9.0968 5.12896 10.1255C5.12896 10.1255 2.10121 11.442 0 9.90154C0 9.90154 2.01673 5.88314 3.03378 6.12787Z" fill="#F99D1C"/>
<path d="M5.17015 68.5687C5.16865 68.4993 6.05258 68.416 7.65262 68.3247C9.25266 68.2331 11.5681 68.1331 14.4299 68.0313C20.1532 67.8277 28.0602 67.6154 36.792 67.4431C38.977 67.3884 41.1121 67.391 43.1734 67.3771C45.2342 67.3703 47.2219 67.3639 49.1157 67.3578C52.903 67.3525 56.3135 67.3616 59.1772 67.3835C62.0409 67.4057 64.3574 67.4408 65.9586 67.4875C67.5598 67.5347 68.4448 67.5931 68.4448 67.6625C68.4448 67.7319 67.5598 67.8051 65.959 67.8778C64.3586 67.951 62.0424 68.0238 59.1802 68.0924C56.318 68.1611 52.9101 68.2255 49.1252 68.2817C47.2329 68.3062 45.2463 68.3323 43.1862 68.359C41.1264 68.3862 38.9932 68.3911 36.8079 68.4454C28.0776 68.6177 20.1701 68.718 14.4438 68.7403C11.5809 68.7516 9.26284 68.7433 7.66054 68.715C6.05861 68.6867 5.17166 68.6381 5.17015 68.5687Z" fill="#F99D1C"/>
<path d="M71.4916 68.088C71.4916 68.088 68.2323 70.0946 67.1033 69.9966C67.1033 69.9966 65.6582 67.2388 67.3487 65.3246C67.3487 65.3246 71.7605 67.1619 71.4916 68.088Z" fill="#F99D1C"/>
<path d="M35.0115 29.8484C35.0115 29.8484 39.4556 27.7506 45.4647 29.8484V64.4596C45.4647 64.4596 38.9326 66.4669 35.0115 64.4596V29.8484Z" fill="#F99D1C"/>
<path d="M37.3345 54.3772C37.6117 54.373 37.913 49.0755 38.0073 42.5512C38.1381 36.0029 38.0318 30.694 37.7531 30.6963C37.4778 30.6986 37.1343 35.9885 37.0046 42.5241C36.9095 49.0721 37.0574 54.3817 37.3345 54.3772Z" fill="#F99D1C"/>
<path d="M36.8415 62.9453C37.1164 62.9781 37.4532 61.558 37.555 59.8206C37.5878 59.3881 37.6055 58.9748 37.6085 58.5977C37.6047 58.2236 37.601 57.8869 37.5987 57.6025C37.5791 57.0391 37.4999 56.6662 37.3645 56.6387C37.2284 56.6108 37.0595 56.9407 36.8947 57.5135C36.8539 57.6565 36.8113 57.8152 36.7747 57.9849C36.7438 58.152 36.7152 58.3315 36.688 58.5204C36.6333 58.8986 36.5873 59.3161 36.5545 59.755C36.4508 61.5059 36.5655 62.9121 36.8415 62.9453Z" fill="#F99D1C"/>
<path d="M15.4141 39.4933C15.4141 39.4933 19.8556 37.3955 25.8655 39.4933V64.4604C25.8655 64.4604 19.3337 66.4678 15.4141 64.4604V39.4933Z" fill="#F99D1C"/>
<path d="M17.7366 54.378C17.875 54.3769 18.0058 53.6099 18.1054 52.3756C18.2079 51.1417 18.2411 49.4346 18.3814 47.5706C18.4282 46.6403 18.4919 45.7209 18.5194 44.9014C18.5405 44.0779 18.4968 43.3338 18.47 42.7109C18.4037 41.4642 18.2932 40.6975 18.1548 40.6975C18.0164 40.6979 17.8761 41.4627 17.7611 42.6931C17.697 43.3082 17.6679 44.0413 17.5967 44.8528C17.5178 45.6685 17.4296 46.5441 17.3806 47.5027C17.2377 49.4089 17.3172 51.1263 17.3957 52.3696C17.4782 53.6136 17.5982 54.3795 17.7366 54.378Z" fill="#F99D1C"/>
<path d="M17.5039 62.946C17.6362 62.9637 17.8021 62.6085 17.9055 62.0334C18.0163 61.4564 18.0752 60.6664 18.0872 59.7964C18.1035 58.9295 18.0593 58.144 18.016 57.5843C17.9835 57.2985 17.962 57.0771 17.9247 56.915C17.8862 56.7528 17.8335 56.6529 17.7652 56.6393C17.6973 56.6258 17.6208 56.7008 17.5389 56.855C17.4556 57.0093 17.367 57.2461 17.3089 57.5315C17.169 58.1112 17.1011 58.9061 17.0845 59.7836C17.0728 60.6566 17.126 61.4459 17.1969 62.0111C17.275 62.5787 17.3613 62.9275 17.5039 62.946Z" fill="#F99D1C"/>
</svg>
