<svg width="139" height="95" viewBox="0 0 139 95" fill="none" xmlns="http://www.w3.org/2000/svg">
<path d="M101.627 0.411825C108.028 -1.30337 114.608 2.49564 116.323 8.89718C117.763 14.2729 115.314 19.7718 110.702 22.4128L123.459 18.9958C129.86 17.2806 136.44 21.0796 138.155 27.4812C139.87 33.8825 136.072 40.4619 129.67 42.1775L116.903 45.5974C122.223 45.5726 127.1 49.1138 128.542 54.4939C130.257 60.8952 126.458 67.4746 120.057 69.1901L27.3277 94.0368C20.9261 95.7521 14.3457 91.953 12.6304 85.5515C10.9155 79.1502 14.7146 72.5706 21.1158 70.8552L33.8785 67.4343C28.5604 67.4569 23.6849 63.9172 22.2437 58.5388C20.8036 53.1633 23.2526 47.6631 27.8648 45.0222L15.109 48.4401C8.70739 50.1554 2.12699 46.3564 0.411698 39.9548C-1.30321 33.5535 2.4959 26.9739 8.89705 25.2585L101.627 0.411825Z" fill="#EDEFF7"/>
<path d="M44.9395 65.7179C48.9677 65.7179 52.2332 62.4524 52.2332 58.4242C52.2332 54.3959 48.9677 51.1304 44.9395 51.1304C40.9113 51.1304 37.6457 54.3959 37.6457 58.4242C37.6457 62.4524 40.9113 65.7179 44.9395 65.7179Z" fill="#4A62AD"/>
<path d="M103.387 65.7179C107.415 65.7179 110.681 62.4524 110.681 58.4242C110.681 54.3959 107.415 51.1304 103.387 51.1304C99.3589 51.1304 96.0933 54.3959 96.0933 58.4242C96.0933 62.4524 99.3589 65.7179 103.387 65.7179Z" fill="#4A62AD"/>
<path d="M37.1014 68.6356C33.368 68.6356 30.3516 71.6767 30.3516 75.3854V84.7066H53.7163V71.9239C53.7163 70.8361 53.8894 69.7729 54.1861 68.7839C53.741 68.685 53.2713 68.6356 52.8015 68.6356H37.1014Z" fill="#4A62AD"/>
<path d="M111.226 68.6356H95.526C95.0563 68.6356 94.5865 68.685 94.1415 68.7839C94.4629 69.7729 94.6112 70.8361 94.6112 71.9239V84.7066H117.976V75.3854C117.976 71.6767 114.96 68.6356 111.226 68.6356Z" fill="#4A62AD"/>
<path d="M84.0283 64.2582H64.298C60.0701 64.2582 56.6334 67.6949 56.6334 71.9229V84.7055H63.9272V74.4942C63.9272 73.6783 64.57 73.0355 65.3859 73.0355C66.2018 73.0355 66.8447 73.6783 66.8447 74.4942V84.7302H81.4569V74.4942C81.4569 73.6783 82.0997 73.0355 82.9157 73.0355C83.7316 73.0355 84.3744 73.6783 84.3744 74.4942V84.7302H91.6682V71.9476C91.6929 67.6949 88.2562 64.2582 84.0283 64.2582Z" fill="#4A62AD"/>
<path d="M74.1626 61.3423C78.9965 61.3423 82.9151 57.4237 82.9151 52.5898C82.9151 47.7559 78.9965 43.8373 74.1626 43.8373C69.3287 43.8373 65.4101 47.7559 65.4101 52.5898C65.4101 57.4237 69.3287 61.3423 74.1626 61.3423Z" fill="#4A62AD"/>
<path d="M88.5279 14.8595C88.1571 12.8321 87.3659 10.9283 86.2038 9.247C85.8082 8.67834 85.8824 7.88715 86.3769 7.39266L87.5884 6.18115L85.5115 4.10429L84.3 5.31579C83.8055 5.81028 83.0143 5.88446 82.4457 5.48886C80.7397 4.32681 78.8606 3.53562 76.8332 3.16475C76.1409 3.04113 75.6464 2.42301 75.6464 1.73072V0H72.7289V1.73072C72.7289 2.44774 72.2344 3.04113 71.5421 3.16475C69.5147 3.53562 67.6109 4.32681 65.9296 5.48886C65.361 5.88446 64.5698 5.81028 64.0753 5.31579L62.8638 4.10429L60.7869 6.18115L61.9984 7.39266C62.4929 7.88715 62.5671 8.67834 62.1715 9.247C61.0094 10.953 60.2183 12.8321 59.8474 14.8595C59.7238 15.5518 59.1057 16.0463 58.4134 16.0463H56.6826V18.9638H58.4134C59.1304 18.9638 59.7238 19.4583 59.8474 20.1506C60.2183 22.178 61.0094 24.0818 62.1715 25.763C62.5671 26.3317 62.4929 27.1229 61.9984 27.6174L60.7869 28.8289L62.8638 30.9058L64.0753 29.6943C64.5698 29.1998 65.361 29.1256 65.9296 29.5212C67.6356 30.6832 69.5147 31.4744 71.5421 31.8453C72.2344 31.9689 72.7289 32.587 72.7289 33.2793V35.01H75.6464V33.2793C75.6464 32.5623 76.1409 31.9689 76.8332 31.8453C78.8606 31.4744 80.7397 30.6832 82.4457 29.5212C83.0143 29.1256 83.8055 29.1998 84.3 29.6943L85.5115 30.9058L87.5884 28.8289L86.3769 27.6174C85.8824 27.1229 85.8082 26.3317 86.2038 25.763C87.3659 24.057 88.1571 22.178 88.5279 20.1506C88.6516 19.4583 89.2697 18.9638 89.962 18.9638H91.6927V16.0463H89.962C89.2697 16.071 88.6516 15.5518 88.5279 14.8595ZM74.1629 27.741C68.5257 27.741 63.927 23.167 63.927 17.505C63.927 11.8431 68.501 7.26904 74.1629 7.26904C79.8249 7.26904 84.3989 11.8431 84.3989 17.505C84.3989 23.167 79.8002 27.741 74.1629 27.741Z" fill="#4A62AD"/>
<path d="M34.7278 45.2705C35.5437 45.2705 36.1865 44.6276 36.1865 43.8117V18.9882H45.8044L43.9253 20.8673C43.3567 21.4359 43.3567 22.3508 43.9253 22.9441C44.222 23.2408 44.5929 23.3645 44.9638 23.3645C45.3346 23.3645 45.7055 23.2161 46.0022 22.9441L50.3784 18.5679C50.4279 18.5184 50.4526 18.469 50.5021 18.4443C50.5268 18.4195 50.5268 18.3948 50.5515 18.3948L50.5762 18.3701C50.5762 18.3454 50.601 18.3454 50.601 18.3206C50.6257 18.2959 50.6257 18.2712 50.6504 18.2465C50.6504 18.2217 50.6751 18.2217 50.6751 18.197C50.6999 18.1723 50.6999 18.1476 50.6999 18.1228C50.6999 18.0981 50.7246 18.0734 50.7246 18.0734C50.7493 18.0487 50.7493 17.9992 50.7493 17.9745C50.774 17.925 50.774 17.8756 50.774 17.8509C50.774 17.8014 50.7988 17.752 50.7988 17.7025V17.4058C50.7988 17.3564 50.7988 17.3069 50.774 17.2575C50.774 17.208 50.7493 17.1586 50.7493 17.1339C50.7493 17.1091 50.7246 17.0597 50.7246 17.035C50.7246 17.0102 50.6999 16.9855 50.6999 16.9855C50.6999 16.9608 50.6751 16.9361 50.6751 16.9113C50.6751 16.8866 50.6504 16.8866 50.6504 16.8619C50.6257 16.8372 50.6257 16.8124 50.601 16.7877C50.601 16.763 50.5762 16.763 50.5762 16.7383C50.5762 16.7383 50.5762 16.7135 50.5515 16.7135C50.5268 16.6888 50.5268 16.6641 50.5021 16.6641C50.4773 16.6146 50.4279 16.5652 50.3784 16.5405L45.9775 12.1148C45.4088 11.5461 44.494 11.5461 43.9006 12.1148C43.3319 12.6834 43.3319 13.5982 43.9006 14.1916L45.7797 16.0707H34.703C33.8871 16.0707 33.2443 16.7135 33.2443 17.5295V43.8117C33.269 44.6276 33.9119 45.2705 34.7278 45.2705Z" fill="#4A62AD"/>
<path d="M97.5534 17.8014C97.5534 17.8509 97.5782 17.9003 97.5782 17.925C97.5782 17.9498 97.6029 17.9992 97.6029 18.0239C97.6029 18.0487 97.6276 18.0734 97.6276 18.0734C97.6276 18.0981 97.6523 18.1228 97.6523 18.1476C97.6523 18.1723 97.6771 18.1723 97.6771 18.197C97.7018 18.2217 97.7018 18.2465 97.7265 18.2712C97.7265 18.2959 97.7512 18.2959 97.7512 18.3206C97.7512 18.3206 97.7512 18.3454 97.776 18.3454C97.8007 18.3701 97.8007 18.3948 97.8254 18.3948C97.8501 18.4443 97.8996 18.4937 97.949 18.5184L102.325 22.8947C102.622 23.1914 102.993 23.315 103.364 23.315C103.735 23.315 104.105 23.1667 104.402 22.8947C104.971 22.326 104.971 21.4112 104.402 20.8178L102.523 18.9388H112.141V43.7623C112.141 44.5782 112.784 45.221 113.6 45.221C114.416 45.221 115.058 44.5782 115.058 43.7623V17.5295C115.058 16.7135 114.416 16.0707 113.6 16.0707H102.523L104.402 14.1916C104.971 13.623 104.971 12.7082 104.402 12.1148C103.833 11.5461 102.919 11.5461 102.325 12.1148L97.949 16.491C97.8996 16.5405 97.8749 16.5899 97.8254 16.6146C97.8007 16.6394 97.8007 16.6641 97.776 16.6641L97.7512 16.6888C97.7512 16.7135 97.7265 16.7135 97.7265 16.7383C97.7018 16.763 97.7018 16.7877 97.6771 16.8124C97.6771 16.8372 97.6523 16.8372 97.6523 16.8619C97.6276 16.8866 97.6276 16.9113 97.6276 16.9361C97.6276 16.9608 97.6029 16.9855 97.6029 16.9855C97.5782 17.0102 97.5782 17.0597 97.5782 17.0844C97.5534 17.1339 97.5534 17.1833 97.5534 17.208C97.5534 17.2575 97.5287 17.3069 97.5287 17.3564V17.6531C97.5534 17.7025 97.5534 17.752 97.5534 17.8014Z" fill="#4A62AD"/>
</svg>
