<svg width="99" height="71" viewBox="0 0 99 71" fill="none" xmlns="http://www.w3.org/2000/svg">
<path d="M17.9336 26.7209L19.2872 28.4755L19.4376 28.6761L19.6381 28.9267C20.5906 23.7129 22.7965 18.9503 25.9549 14.8895C24.9021 16.8948 24.4509 19.0004 24.6514 21.106C22.5458 23.5625 20.8914 26.3198 19.8888 29.2275L20.5405 30.0297C21.5432 27.4227 23.0472 24.9161 24.9021 22.61C25.6039 25.5678 27.509 28.4254 30.6674 30.8819C29.3138 33.4888 28.261 36.1459 27.4589 38.8029L29.2637 41.0589C30.0156 38.1011 31.0684 35.043 32.422 32.0851C35.9815 34.3411 40.2929 35.8952 44.9051 36.6973C44.2534 40.9085 43.8022 45.1197 43.5516 49.0802C43.2006 49.0301 42.8497 48.9298 42.4988 48.8797C42.8497 49.0301 43.2006 49.1303 43.5014 49.2807C44.4539 49.6317 45.4065 49.9826 46.3089 50.2834C47.4118 50.6845 48.5147 51.0354 49.6176 51.3863C54.1797 51.5868 58.8421 51.2359 63.2037 50.2333C63.304 51.7372 63.3541 53.141 63.3541 54.5447V54.5948C64.3066 54.7452 65.209 54.8455 66.1114 54.9959C66.1114 54.5948 66.1114 54.2439 66.1114 53.8428C66.1114 52.4391 66.0613 51.0354 65.961 49.5314C68.8186 48.6791 71.5258 47.5762 74.0324 46.1725C76.138 45.0194 77.8927 43.716 79.3966 42.3122C79.5972 43.716 79.7476 45.1197 79.7476 46.5234C79.7476 48.7293 79.4468 50.7346 78.8953 52.5895C77.7924 53.5922 76.5892 54.5447 75.1855 55.4471C75.4361 55.4471 75.7369 55.4471 75.9876 55.4471C76.1881 55.4471 76.3385 55.4471 76.5391 55.397C77.2409 54.8956 77.8425 54.3442 78.4441 53.7927C78.2436 54.3442 77.9929 54.8455 77.7423 55.2967C77.7423 55.2967 77.7423 55.2967 77.7924 55.2967C77.9929 55.2967 78.1433 55.2466 78.3439 55.2466C79.146 55.1463 79.9481 55.046 80.7001 54.9458C84.6606 49.2807 86.9667 42.4125 86.9667 34.9928C86.9667 15.6916 71.2751 0 51.9739 0C45.4065 0 39.2903 1.80479 34.0263 4.96317L34.678 5.0133L29.4642 8.22181C23.8493 12.8842 19.7384 19.3513 17.9336 26.7209ZM27.509 12.9343C28.261 12.1322 29.013 11.3301 29.8652 10.5781C31.9207 9.22447 34.3772 8.22181 37.0343 7.72048C35.6807 9.37487 35.1292 11.1797 35.2796 12.9844C31.5698 14.7892 28.3111 17.1455 25.7042 19.8527C25.5037 17.5465 26.1053 15.1402 27.509 12.9343ZM31.4695 29.3278C28.4114 26.9715 26.5565 24.2142 25.9047 21.3567C28.5117 18.4991 31.7202 15.9924 35.3799 13.9871C35.7809 15.7919 36.9841 17.5465 38.8892 19.0505C36.0316 22.1588 33.525 25.6681 31.4695 29.3278ZM45.1057 34.8926C40.694 34.1406 36.5329 32.6867 33.1239 30.4809C35.0289 26.7209 37.3351 23.0612 39.9921 19.7524C42.1478 21.1561 44.8049 22.0585 47.6123 22.5598C46.6598 26.5204 45.8075 30.6814 45.1057 34.8926ZM49.1163 22.8105C51.9739 23.1113 54.9819 22.9609 57.7392 22.3593C58.9925 26.2196 60.0954 30.3806 60.9978 34.5416C56.6363 35.5443 51.9238 35.7448 47.4619 35.2435C47.863 30.9822 48.4646 26.771 49.1163 22.8105ZM46.3089 49.4813C46.4593 45.5208 46.8102 41.3096 47.2113 37.0483C51.9238 37.5496 56.7867 37.3491 61.2986 36.2963C62.1008 40.4573 62.7024 44.6685 63.0533 48.5789C57.6891 49.7821 51.8736 50.0829 46.3089 49.4813ZM59.1429 21.9583C60.5968 21.5071 62.0005 20.9556 63.2538 20.2537C64.3066 19.6521 65.209 19.0004 65.961 18.2985C69.0191 21.2564 71.7263 24.6153 73.9321 28.1747C72.729 29.2777 71.3252 30.3305 69.6708 31.283C67.7157 32.3859 65.5098 33.2883 63.2037 33.94C62.1008 29.8291 60.697 25.7684 59.1429 21.9583ZM76.4889 13.1348C77.2911 14.4383 77.8425 15.7919 78.0932 17.1956C75.4863 14.7391 72.2778 12.7338 68.618 11.3301C68.2671 9.52527 67.1642 7.77061 65.3093 6.21649C66.8133 6.36689 68.217 6.71782 69.5205 7.21915C72.1274 8.82341 74.4836 10.8287 76.4889 13.1348ZM78.2937 18.6495C78.4441 21.5071 77.3913 24.3646 75.1855 26.9214C72.8794 23.5124 70.0218 20.3039 66.7631 17.4964C68.1669 15.8922 68.8186 14.0372 68.7685 12.2324C72.4783 13.8367 75.6868 16.0426 78.2937 18.6495ZM73.7818 44.5682C71.3252 45.972 68.6682 47.0247 65.8106 47.877C65.4095 43.9666 64.6575 39.8557 63.6549 35.6947C66.0613 34.9928 68.3172 34.0904 70.3727 32.8872C72.1274 31.9347 73.5812 30.8318 74.8346 29.6787C76.8399 33.2883 78.3439 37.0483 79.0959 40.708C77.5919 42.1117 75.8372 43.4152 73.7818 44.5682ZM76.138 28.3251C78.4441 25.6681 79.547 22.7102 79.3966 19.7524C81.3518 21.9582 82.8558 24.3646 83.8585 27.0217C84.1092 28.0745 84.3097 29.1774 84.5102 30.2803C84.3097 33.3384 83.0564 36.3966 80.65 39.1539C79.7977 35.4942 78.2436 31.8344 76.138 28.3251ZM81.2014 49.8823C80.9508 50.2333 80.65 50.6343 80.3492 50.9852C80.9508 49.1303 81.2516 47.0749 81.2516 44.869C81.2516 43.4653 81.1513 42.1117 80.9006 40.708C83.1065 38.2013 84.3598 35.3939 84.7107 32.5864C84.7609 33.3886 84.811 34.1406 84.811 34.9427C84.811 40.3069 83.5076 45.3704 81.2014 49.8823ZM82.4548 22.6601C81.5524 21.0559 80.4996 19.602 79.1961 18.1983C78.9956 17.0954 78.5945 15.9924 78.0431 14.9396C79.8478 17.2959 81.3017 19.9028 82.4548 22.6601ZM53.2272 8.32208C53.2774 8.32208 53.2774 8.37221 53.3275 8.37221C57.1877 6.71782 60.8474 5.96583 64.1061 6.06609C65.8106 7.46981 66.8133 9.07407 67.1141 10.6783C63.0533 9.32474 58.4912 8.67301 53.6283 8.82341C53.6283 8.87354 53.6283 8.87354 53.6283 8.92367C58.4912 9.02394 63.1034 9.97647 67.1642 11.5306C67.2143 13.185 66.6127 14.7892 65.3594 16.2932C61.7498 13.4356 57.6891 11.0794 53.4278 9.425C53.4278 9.47514 53.3776 9.47513 53.3275 9.52527C57.3883 11.3802 61.1984 13.9871 64.6074 17.0452C63.9055 17.6969 63.1034 18.2985 62.1509 18.85C60.9978 19.5017 59.7445 20.0031 58.4411 20.4041C56.6864 16.4436 54.7312 12.834 52.6758 9.92633C52.6256 9.92633 52.5755 9.92633 52.5254 9.97647C54.1798 13.0346 55.7339 16.6943 57.1376 20.7551C54.6309 21.3065 51.9238 21.4569 49.3169 21.1561C50.0187 16.9951 50.8208 13.185 51.6731 9.97647C51.623 9.97647 51.5728 9.97647 51.5227 9.97647C50.2694 13.0847 49.0662 16.8447 47.9633 20.9556C45.4065 20.5044 43.0001 19.6521 41.0449 18.3988C44.0028 14.9898 47.2614 11.9818 50.7707 9.67567C50.7707 9.67567 50.7206 9.67567 50.7206 9.62553L50.6704 9.5754C46.8603 11.6309 43.3009 14.4383 40.0924 17.6969C38.3377 16.3434 37.2849 14.7391 36.8839 13.0847C40.9446 11.0794 45.5067 9.67567 50.3195 9.07407C50.3195 9.02394 50.3195 9.02394 50.3195 8.97381C45.4566 9.32474 40.8444 10.4277 36.7836 12.2324C36.6332 10.5781 37.1847 8.92367 38.3879 7.46982C42.0476 6.96849 46.1585 7.26928 50.52 8.47248C50.52 8.42234 50.5702 8.42234 50.5702 8.37221C46.4593 6.91835 42.5489 6.41702 39.0897 6.66769C39.7916 5.96583 40.694 5.26397 41.7468 4.66237C42.7996 4.06077 43.9025 3.60958 45.1057 3.20851C46.9606 3.86024 49.0161 5.41436 51.2219 7.97115C51.272 7.97115 51.3222 7.92101 51.3723 7.92101C49.6176 5.26397 47.9131 3.60957 46.4091 2.85758C48.9158 2.25598 51.623 2.05545 54.2299 2.30612C53.6283 3.20851 52.9264 5.0133 52.2246 7.87088C52.2747 7.87088 52.3248 7.87088 52.375 7.87088C53.528 5.11356 54.6309 3.30878 55.5835 2.45652C58.3408 2.85758 60.9978 3.81011 63.0533 5.21383C63.4544 5.21383 63.8554 5.21383 64.2064 5.21383C61.9002 3.65971 58.9925 2.65705 55.9344 2.15572C55.9344 2.15572 55.9344 2.15572 55.9845 2.15572C60.1456 2.65705 64.0559 3.9605 67.6154 5.86556C63.6549 4.8629 58.6917 5.51463 53.2272 8.32208ZM49.5675 2.15572C48.3142 2.25599 47.0609 2.45652 45.9078 2.75731C45.8075 2.70718 45.7574 2.70718 45.6571 2.70718C46.9105 2.40638 48.2139 2.25599 49.5675 2.15572ZM43.9526 3.05811C44.103 3.05811 44.3036 3.10825 44.454 3.15838C43.1505 3.55944 41.8972 4.11091 40.7441 4.76263C39.591 5.41436 38.5884 6.16636 37.7863 6.96849C35.7308 7.26928 33.8759 7.87088 32.1714 8.72314C35.6807 6.06609 39.6412 4.1109 43.9526 3.05811Z" fill="#24B34B"/>
<path d="M62.953 65.9249C63.9056 65.0225 64.7077 63.5686 65.209 61.6134C64.4069 61.5132 63.6048 61.3628 62.8026 61.2124C62.0506 61.062 61.2986 60.9617 60.5466 60.8113C55.8843 61.6134 51.0214 61.7638 46.3089 61.2124C46.2086 59.9591 46.1585 58.6055 46.1585 57.0513C45.2059 56.7505 44.2033 56.3996 43.2508 56.0487C43.2508 57.8535 43.351 59.4577 43.5014 60.8113C38.0871 59.9089 32.9735 58.1041 28.8125 55.397C28.3613 53.6423 28.1106 51.6871 28.1106 49.4813C27.7597 49.3309 27.4589 49.1303 27.1079 48.9799L26.005 48.8797C26.0551 50.7346 26.3058 52.4391 26.757 53.9932C25.1026 52.6898 23.6989 51.286 22.596 49.8322C22.3954 49.381 22.1448 48.9799 21.9442 48.5287H21.4429L19.5378 48.3282C24.8018 61.062 37.3351 70.0358 51.9238 70.0358C60.0954 70.0358 67.6154 67.2283 73.5812 62.5158C72.4783 62.4657 71.4255 62.4156 70.3226 62.3153C68.0666 63.719 65.5599 64.9724 62.953 65.9249ZM62.7525 61.4129C62.3013 63.9196 61.5493 65.6241 60.6469 66.5766C56.3856 67.5291 51.8235 67.7798 47.4619 67.2785C47.0107 66.3761 46.6598 64.7217 46.4091 62.2652C51.8235 62.8668 57.4885 62.6161 62.7525 61.4129ZM43.6518 61.9142C44.0028 64.3708 44.5041 66.0753 45.2059 67.0278C44.3036 66.8774 43.351 66.6769 42.4486 66.4262C38.2876 65.1729 34.4775 63.1174 31.2188 60.4604C30.3666 59.3575 29.6647 58.054 29.1634 56.6001C33.2743 59.2071 38.2876 61.0118 43.6518 61.9142ZM23.8493 52.038C24.7517 53.141 25.8546 54.1938 27.1581 55.1463C27.5591 56.2492 28.1106 57.2519 28.7122 58.1543C26.8573 56.2993 25.2029 54.2439 23.8493 52.038Z" fill="#24B34B"/>
<path d="M95.1373 39.003L96.2904 36.9475L97.8445 34.1902L87.3166 27.4724C88.5197 30.0793 89.372 33.0873 89.9235 35.8947C91.0264 41.259 91.2269 46.0216 91.2269 46.0216L93.1821 42.5123C94.8365 48.4781 92.2797 53.341 85.8627 55.6973C84.9603 56.0482 84.0078 56.2989 82.955 56.5495C81.6014 56.8503 80.1977 57.1511 78.7939 57.3516C77.9918 57.4519 77.1396 57.5522 76.2873 57.6524C76.2372 57.6524 76.187 57.6524 76.1369 57.6524C75.9364 57.6524 75.786 57.7026 75.5854 57.7026C74.5326 57.8028 73.4798 57.853 72.427 57.853C71.7252 57.853 71.0233 57.9031 70.2713 57.9031C68.8676 57.9031 67.3636 57.8028 65.9098 57.7026C65.0074 57.6524 64.105 57.5522 63.2026 57.4519C57.7882 56.8002 52.1232 55.4466 46.1574 53.2909C45.2048 52.9399 44.2523 52.589 43.2998 52.188C41.6454 51.5362 39.991 50.8344 38.3366 50.0322L34.4764 50.2328C37.334 51.6365 40.2417 52.8898 43.2496 54.0429C44.2022 54.3938 45.1547 54.7447 46.1574 55.0957C51.7723 57.0508 57.5376 58.5047 63.0522 59.4071C63.9044 59.5575 64.7567 59.7079 65.609 59.8082C66.3108 59.9084 66.9626 59.9586 67.6644 60.0588C69.3689 60.2594 71.0735 60.3596 72.6777 60.4599C73.7305 60.51 74.7833 60.51 75.8361 60.51C79.8467 60.51 83.5566 60.109 86.8152 59.357C87.9683 59.1063 89.0211 58.7554 90.0237 58.4044C99.4487 54.7949 100.802 47.4253 95.1373 39.003Z" fill="#24B34B"/>
<path d="M20.6397 46.2221L21.0909 46.2723L22.5447 46.4227L26.0039 46.7736L27.7084 46.924L28.1596 46.9741L31.2679 47.2749L30.7164 46.5731L28.5607 43.8157L26.6556 41.4094L26.3548 41.0584L19.6871 32.5859L19.5869 32.4355L19.0855 31.834L18.9853 31.6334L18.1832 30.6308L17.5314 34.8419L17.1805 37.2984C17.0802 37.1982 16.98 37.148 16.9298 37.0478C16.3784 36.5966 15.7768 36.1454 15.2754 35.6441C3.44405 25.3167 1.9902 15.0895 13.1197 10.9285C14.0221 10.5776 14.9746 10.3269 16.0274 10.0762C18.4338 9.52477 21.1911 9.22397 24.149 9.1237C25.1015 8.42184 26.4551 7.46932 28.0092 6.51679C22.0935 6.06559 16.6792 6.26612 12.1672 7.36905C11.0141 7.61971 9.91121 7.97065 8.95868 8.32158C-4.47696 13.3349 -1.46898 26.2692 14.8744 38.7523C15.5261 39.2536 16.1778 39.7048 16.8296 40.2062L16.4786 42.5624L15.9773 45.8211L18.7346 46.0717L20.6397 46.2221Z" fill="#24B34B"/>
</svg>
