<svg width="111" height="70" viewBox="0 0 111 70" fill="none" xmlns="http://www.w3.org/2000/svg">
<path d="M44.8167 13.3772C42.6587 15.1373 40.6691 16.7809 38.6558 18.395C37.2534 19.5192 36.369 20.861 36.0622 22.7079C35.722 24.7557 37.6387 28.3064 40.3863 29.0356C43.616 29.8928 46.5894 29.3213 49.3444 27.4666C50.5425 26.66 51.7517 25.8698 52.9596 25.0781C56.2221 22.94 60.0286 23.2351 62.8955 26.0052C66.9848 29.9562 70.9906 33.9934 75.0351 37.9908C77.3206 40.2496 79.604 42.5104 81.904 44.7544C83.1764 45.9958 83.6896 47.4103 83.2153 49.1866C82.6097 51.4547 79.4102 52.5242 77.7476 50.8605C74.4317 47.5422 71.0522 44.2877 67.6983 41.0074C67.3326 40.6498 67.01 40.2464 66.5292 40.0185C65.7374 39.6434 64.7844 39.7808 64.3439 40.4119C63.8208 41.1615 64.0045 41.9069 64.5888 42.5098C65.8858 43.848 67.2225 45.1478 68.554 46.4521C70.7343 48.5876 72.9304 50.7069 75.106 52.8469C76.3697 54.0899 76.6571 55.4668 75.9858 56.8425C75.2545 58.3409 74.0554 58.9391 72.2515 58.7358C71.3525 58.6346 70.7486 58.0602 70.1482 57.4816C67.0246 54.4714 63.9078 51.454 60.7871 48.4408C60.2768 47.9481 59.7744 47.4691 58.9683 47.5114C57.6959 47.5779 57.0072 48.699 57.6197 49.8037C57.8025 50.1334 58.0685 50.4299 58.3424 50.6939C61.5342 53.7701 64.7471 56.8246 67.9272 59.9128C69.2497 61.1971 69.3023 63.0344 68.1324 64.28C66.8985 65.5939 64.9512 65.6747 63.5765 64.4064C61.9024 62.8617 60.3604 61.1739 58.558 59.7686C58.3781 59.6283 58.3687 59.4655 58.3405 59.2726C57.9059 56.305 55.7238 54.4128 52.7321 54.4655C52.0796 54.4771 51.8676 54.3398 51.9565 53.6556C52.4554 49.8192 48.3869 46.7873 45.0408 47.9597C44.3726 48.1939 44.6418 47.6296 44.5942 47.4266C43.8297 44.1733 40.8585 42.2728 37.7791 43.1061C36.7103 43.3954 35.7883 43.9646 34.8989 44.8075C34.5264 43.3847 33.7761 42.2754 32.6378 41.4593C30.6947 40.0661 28.6318 40.0889 26.5503 41.0758C26.0199 41.3273 25.8861 41.2614 25.7398 40.724C24.8601 37.4915 23.0282 35.0105 19.9343 33.5775C19.5219 33.3865 19.4122 33.2842 19.7217 32.8716C24.3066 26.7575 28.8741 20.6302 33.4532 14.5117C33.6352 14.2684 33.8047 14.0129 34.2016 13.9893C37.5524 13.7891 40.9016 13.5621 44.2515 13.3456C44.3661 13.3382 44.4821 13.3574 44.8167 13.3772Z" fill="#F99D1C"/>
<path d="M83.2481 41.5055C82.8038 41.0959 82.4245 40.7676 82.069 40.4152C76.6616 35.0553 71.2675 29.6817 65.8459 24.3361C64.2434 22.7561 62.5501 21.3138 60.2726 20.7117C57.0218 19.8522 54.0744 20.3963 51.3005 22.2647C49.7058 23.3389 48.1576 24.5012 46.3993 25.3136C44.8237 26.0416 43.1942 26.4198 41.4644 25.9253C40.3892 25.6179 39.698 24.9294 39.419 23.835C39.1311 22.7056 39.5185 21.7501 40.3861 21.104C43.2418 18.9767 45.8728 16.5441 48.9353 14.6996C51.6683 13.0534 54.6597 12.2817 57.8414 12.0337C61.6564 11.7362 65.3355 12.6191 69.0647 13.08C71.2739 13.353 73.4568 13.8355 75.6938 13.8899C76.1236 13.9003 76.3456 14.2536 76.5778 14.5647C80.2792 19.5259 83.9841 24.4845 87.6834 29.4472C88.488 30.5266 89.2739 31.6199 90.0696 32.706C90.3696 33.1155 90.4162 33.2965 89.799 33.5494C86.2719 34.9942 84.3304 37.8195 83.2481 41.5055Z" fill="#F99D1C"/>
<path d="M13.256 36.2342C13.0104 36.0631 12.8209 35.9471 12.6493 35.809C8.57216 32.526 4.5102 29.2242 0.407884 25.9731C-0.236518 25.4624 -0.00713158 25.1297 0.343085 24.6639C3.91068 19.9182 7.4799 15.1738 11.0347 10.4184C13.4941 7.12821 15.9511 3.83585 18.3607 0.509302C18.802 -0.0998789 19.0954 -0.103383 19.6362 0.31452C23.8231 3.54944 28.0203 6.77122 32.2247 9.98371C32.6863 10.3364 32.6703 10.5417 32.3071 11.0215C26.1449 19.1644 20.0151 27.3319 13.8759 35.4923C13.689 35.7405 13.4774 35.9703 13.256 36.2342ZM12.7785 25.8675C12.7568 27.0815 13.5876 27.9583 14.7782 27.9781C15.9862 27.9981 16.8385 27.1468 16.8287 25.9297C16.8205 24.9206 15.8739 24.0169 14.8131 24.0054C13.6997 23.9935 12.7972 24.8194 12.7785 25.8675Z" fill="#F99D1C"/>
<path d="M91.1637 0C91.4666 0.0317125 91.5812 0.278038 91.7274 0.475708C95.7693 5.93991 99.8033 11.4098 103.851 16.8698C105.837 19.5484 107.829 22.2227 109.862 24.8655C110.263 25.387 110.191 25.6113 109.712 25.9882C105.575 29.2468 101.449 32.5192 97.3434 35.8173C96.712 36.3245 96.4256 36.1209 96.0206 35.5584C90.8986 28.4435 85.647 21.4243 80.3593 14.4321C79.4881 13.28 78.6549 12.0985 77.7578 10.9674C77.4263 10.5494 77.5003 10.3705 77.895 10.0703C82.1374 6.84452 86.3642 3.59817 90.5976 0.360492C90.7751 0.224491 90.9756 0.118702 91.1637 0ZM93.6167 28.0941C93.6005 29.2645 94.4637 30.1558 95.6475 30.1912C96.6758 30.222 97.6372 29.3042 97.6539 28.2759C97.6717 27.176 96.6786 26.1648 95.585 26.1697C94.4835 26.1746 93.6316 27.0074 93.6167 28.0941Z" fill="#F99D1C"/>
<path d="M41.0983 62.4168C39.7238 62.432 38.9031 61.8364 38.4016 60.8084C37.8542 59.6861 38.0073 58.5596 38.8683 57.7047C40.7615 55.8249 42.4153 53.7394 44.1908 51.7594C45.2142 50.6183 46.8982 50.5019 47.9849 51.4239C49.0742 52.3479 49.2856 54.0836 48.3346 55.2361C46.6005 57.3379 44.8001 59.3852 43.0237 61.4522C42.4715 62.0948 41.7792 62.4445 41.0983 62.4168Z" fill="#F99D1C"/>
<path d="M34.0305 57.2454C32.8574 57.2189 31.911 56.8216 31.4199 55.6582C30.9421 54.5266 30.9566 53.4318 31.8621 52.5449C33.4498 50.9895 34.8499 49.2747 36.2777 47.5808C37.1948 46.4927 38.2813 45.7839 39.7841 46.2163C41.4928 46.708 42.3264 48.8303 41.2247 50.2175C39.4896 52.4026 37.6145 54.4773 35.7766 56.5795C35.3327 57.0872 34.7066 57.2664 34.0305 57.2454Z" fill="#F99D1C"/>
<path d="M47.885 67.9888C46.592 67.9911 45.5779 67.3284 45.1156 66.2166C44.6919 65.1975 45.0019 63.8834 45.8608 63.0621C47.4168 61.574 48.7209 59.8568 50.1954 58.2951C51.5012 56.9118 54.2114 57.1003 55.0425 59.1953C55.3744 60.032 55.3536 60.8034 54.7285 61.5209C53.1273 63.3589 51.5561 65.2233 49.9419 67.0497C49.3992 67.664 48.7148 68.0867 47.885 67.9888Z" fill="#F99D1C"/>
<path d="M29.0802 43.6752C30.5502 43.4539 32.052 44.7127 32.2659 46.4805C32.4951 48.3732 28.9438 51.3855 27.1882 50.8312C25.0667 50.1614 24.2835 47.5336 25.6397 45.6361C26.5454 44.3691 27.7183 43.7006 29.0802 43.6752Z" fill="#F99D1C"/>
<path d="M57.8853 69.9999C56.2789 69.883 54.8946 69.5207 53.7533 68.4433C53.4274 68.1356 53.4289 67.9679 53.6731 67.6728C54.8155 66.2917 55.9628 64.9144 57.0845 63.5168C57.3729 63.1574 57.6078 63.2438 57.8659 63.4901C59.2787 64.8382 60.6868 66.1909 62.0946 67.5442C62.2592 67.7023 62.365 67.8006 62.1245 68.0651C60.9501 69.3569 59.4387 69.836 57.8853 69.9999Z" fill="#F99D1C"/>
</svg>
