<svg width="139" height="95" viewBox="0 0 139 95" fill="none" xmlns="http://www.w3.org/2000/svg">
<path d="M101.626 0.4119C108.027 -1.30336 114.607 2.49496 116.323 8.89628C117.763 14.2719 115.314 19.7719 110.702 22.4129L123.458 18.9959C129.859 17.2806 136.439 21.0789 138.155 27.4803C139.87 33.8819 136.071 40.4622 129.67 42.1775L116.906 45.5974C122.224 45.5741 127.1 49.1143 128.542 54.493C130.257 60.8945 126.458 67.4749 120.056 69.1902L27.3278 94.0369C20.9262 95.7522 14.3459 91.9531 12.6306 85.5515C10.9154 79.1501 14.7145 72.5706 21.1159 70.8553L33.8825 67.4344C28.5627 67.4589 23.6854 63.9187 22.2438 58.5389C20.8036 53.1635 23.252 47.6634 27.864 45.0223L15.1091 48.4402C8.70748 50.1555 2.12711 46.3565 0.411811 39.9549C-1.30336 33.5534 2.4957 26.9739 8.89716 25.2586L101.626 0.4119Z" fill="#EDEFF7"/>
<path d="M101.264 60.2761H27.2439C25.6426 60.2761 24.3398 58.9611 24.3398 57.3449V12.4907C24.3398 10.8745 25.6426 9.55957 27.2439 9.55957H101.264C102.865 9.55957 104.168 10.8745 104.168 12.4907V57.345C104.168 58.9611 102.865 60.2761 101.264 60.2761ZM27.5666 57.0192H100.941V12.8164H27.5666V57.0192Z" fill="#4A62AD"/>
<path d="M93.2383 23.2998H69.3045C68.5345 23.2998 68.5333 24.6662 69.3045 24.6662H93.2383C94.0083 24.6662 94.0096 23.2998 93.2383 23.2998Z" fill="#4A62AD"/>
<path d="M93.2385 29.6584H69.3047C68.5347 29.6584 68.5334 31.0248 69.3047 31.0248H93.2385C94.0085 31.0248 94.0097 29.6584 93.2385 29.6584Z" fill="#4A62AD"/>
<path d="M93.2385 35.1873H69.3047C68.5347 35.1873 68.5334 36.5537 69.3047 36.5537H93.2385C94.0085 36.5537 94.0097 35.1873 93.2385 35.1873Z" fill="#4A62AD"/>
<path d="M93.2383 39.8818H69.3045C68.5345 39.8818 68.5333 41.2482 69.3045 41.2482H93.2383C94.0083 41.2482 94.0096 39.8818 93.2383 39.8818Z" fill="#4A62AD"/>
<path d="M93.2383 43.3457H69.3045C68.5345 43.3457 68.5333 44.7121 69.3045 44.7121H93.2383C94.0083 44.7121 94.0096 43.3457 93.2383 43.3457Z" fill="#4A62AD"/>
<path d="M103.837 42.4531C110.004 36.2858 110.004 26.2865 103.837 20.1191C97.6696 13.9518 87.6703 13.9518 81.5029 20.1191C75.3356 26.2865 75.3356 36.2858 81.5029 42.4531C87.6703 48.6205 97.6696 48.6205 103.837 42.4531Z" fill="#FCFCFC"/>
<path d="M111.101 82.6107C111.118 80.2783 111.05 77.2084 110.79 73.3331C110.086 62.8323 98.7378 49.4873 98.7378 49.4873H96.8513H90.7835H88.8969C88.8969 49.4873 77.5485 62.8323 76.8443 73.3331C76.5843 77.2083 76.5164 80.2782 76.534 82.6105C76.5334 82.6306 76.5312 82.6503 76.5312 82.6705V89.7791C76.5312 90.7156 77.211 91.4817 78.0417 91.4817H109.593C110.424 91.4817 111.103 90.7156 111.103 89.7791V82.6705C111.103 82.6503 111.101 82.6306 111.101 82.6107Z" fill="#FCFCFC"/>
<path d="M51.3651 49.5993C42.6333 49.5998 35.4814 42.5458 35.3838 33.7924C35.2856 24.9784 42.3763 17.728 51.1901 17.6295C55.4613 17.5946 59.4924 19.1999 62.5448 22.1857C65.5975 25.171 67.3049 29.1665 67.3523 33.4361C67.4505 42.2498 60.3598 49.5002 51.546 49.5985C51.4859 49.5988 51.4253 49.5993 51.3651 49.5993ZM51.3726 19.4553C51.3185 19.4553 51.2648 19.4557 51.2103 19.4566C43.4039 19.5434 37.1236 25.9655 37.2105 33.7717C37.2971 41.5247 43.632 47.7718 51.3653 47.7721C51.419 47.7721 51.4719 47.7721 51.5259 47.7712C59.3323 47.6845 65.6126 41.2628 65.5257 33.4564C65.4836 29.6745 63.9715 26.1355 61.2675 23.4915C58.6024 20.8851 55.0938 19.4553 51.3726 19.4553Z" fill="#4A62AD"/>
<path d="M51.1999 18.5408L50.652 18.5469L50.9821 48.2868L51.5301 48.2808L51.1999 18.5408Z" fill="#4A62AD"/>
<path d="M64.6044 26.5306L64.3229 26.0604L50.8253 34.1416L51.1068 34.6118L64.6044 26.5306Z" fill="#4A62AD"/>
<path d="M53.947 32.5831L54.1808 32.2449L51.2976 30.2515L51.0638 30.5896L53.947 32.5831Z" fill="#4A62AD"/>
<path d="M56.3153 31.4071L56.5491 31.069L51.2623 27.4129L51.0284 27.751L56.3153 31.4071Z" fill="#4A62AD"/>
<path d="M58.5529 30.0517L58.7866 29.7136L51.2226 24.4852L50.9889 24.8233L58.5529 30.0517Z" fill="#4A62AD"/>
<path d="M60.861 28.7344L61.0948 28.3963L51.1117 21.4937L50.8779 21.8318L60.861 28.7344Z" fill="#4A62AD"/>
<path d="M62.9797 27.2959L63.2135 26.9577L51.2762 18.7039L51.0424 19.042L62.9797 27.2959Z" fill="#4A62AD"/>
<path d="M75.3601 61.2148L76.0039 60.4482L48.6546 37.481L48.0108 38.2475L75.3601 61.2148Z" fill="#FCFCFC"/>
<path d="M102.311 42.2457C108.478 36.0783 108.478 26.079 102.311 19.9117C96.1438 13.7443 86.1445 13.7443 79.9771 19.9117C73.8097 26.079 73.8097 36.0783 79.9771 42.2457C86.1445 48.413 96.1438 48.413 102.311 42.2457Z" fill="#4A62AD"/>
<path d="M109.735 82.6104C109.753 80.278 109.685 77.2081 109.425 73.3328C108.721 62.8319 97.3722 49.487 97.3722 49.487H87.5313C87.5313 49.487 76.1829 62.8319 75.4787 73.3328C75.2188 77.2079 75.1508 80.2779 75.1684 82.6102C75.1678 82.6302 75.1657 82.65 75.1657 82.6702V89.7788C75.1657 90.7152 75.8454 91.4814 76.6762 91.4814H108.227C109.058 91.4814 109.738 90.7152 109.738 89.7788V82.6702C109.738 82.65 109.736 82.6302 109.735 82.6104Z" fill="#4A62AD"/>
<path d="M75.3902 61.5275L47.707 38.2832L48.63 37.1841L76.313 60.4282L75.3902 61.5275ZM48.3187 38.2301L75.3368 60.9158L75.7012 60.4818L48.6831 37.7959L48.3187 38.2301Z" fill="#4A62AD"/>
<path d="M88.6472 69.0159L84.4017 74.0721C83.9512 74.6087 83.1437 74.679 82.6071 74.2285L63.2438 57.9701C62.7072 57.5195 62.6368 56.712 63.0873 56.1755L67.3326 51.1193C67.7832 50.5827 68.5908 50.5124 69.1274 50.9628L88.4907 67.2212C89.0272 67.6717 89.0976 68.4794 88.6472 69.0159Z" fill="#4A62AD"/>
</svg>
