<svg width="62" height="72" viewBox="0 0 62 72" fill="none" xmlns="http://www.w3.org/2000/svg">
<path d="M25.6887 26.1248H44.4809C46.6898 26.1248 48.4817 24.5544 48.4817 22.6184V3.50615C48.4817 1.57042 46.6896 0 44.4809 0H4.0001C1.78922 0 0 1.57042 0 3.50615V22.6184C0 24.5544 1.78922 26.1248 4.0001 26.1248H20.2714L19.7362 32.1268L25.6887 26.1248ZM7.20241 6.76948H41.28V8.77875H7.20241V6.76948ZM7.20241 11.8361H41.28V13.8455H7.20241V11.8361ZM7.20241 18.9121V16.9028H24.6325V18.9121H7.20241Z" fill="#24B34B"/>
<path d="M61.9991 32.2116V19.1295C61.9991 17.9176 60.8776 16.9365 59.4968 16.9365H50.2908V23.8344C50.2908 25.9172 48.3569 27.612 45.9808 27.612H33.8316V32.2116C33.8316 33.4221 34.9517 34.407 36.3346 34.407H48.6842L52.4101 38.1626L52.0739 34.407H59.4968C60.8776 34.4069 61.9991 33.4221 61.9991 32.2116Z" fill="#24B34B"/>
<path d="M5.66603 44.5051C5.66603 50.5346 10.557 55.4217 16.5861 55.4217C22.6173 55.4217 27.5055 50.5346 27.5055 44.5051C27.5055 38.4708 22.6172 33.5843 16.5861 33.5843C10.5569 33.5843 5.66603 38.4708 5.66603 44.5051Z" fill="#24B34B"/>
<path d="M10.2662 56.4521C4.59605 56.4521 0 61.0498 0 66.7177V71.6997H33.1702V66.7177C33.1702 61.0499 28.576 56.4521 22.9059 56.4521H10.2662ZM20.653 69.9375H19.1367H14.0342L15.2998 61.6235L14.0321 69.9375H12.5185L10.1629 57.5714C10.3958 57.5551 10.6252 57.5379 10.8595 57.5379H22.3101C22.5457 57.5379 22.7751 57.5551 23.008 57.5714L20.653 69.9375Z" fill="#24B34B"/>
<path d="M14.0342 69.9375H19.1367L17.8724 61.6235H17.8283L19.0697 59.3413H14.101L15.3439 61.6235H15.2998L14.0342 69.9375Z" fill="#24B34B"/>
<path d="M47.9209 41.1509C43.5625 41.4217 40.0116 44.9719 39.7416 49.3323C39.4246 54.4211 43.4592 58.6471 48.4817 58.6471C48.6429 58.6471 48.8027 58.643 48.9626 58.633H59.4135C59.5341 58.633 59.5686 58.469 59.4562 58.4236C58.1645 57.8895 57.237 56.4421 57.237 54.7331V50.0561H57.2329L57.237 49.8901C57.237 44.8685 53.0109 40.8367 47.9209 41.1509Z" fill="#24B34B"/>
<path d="M43.4109 59.4736C38.8678 59.4736 35.1812 63.1582 35.1812 67.7047V71.6997H61.7808V67.7047C61.7808 63.1582 58.0941 59.4736 53.549 59.4736H43.4109ZM50.6877 64.6573L52.3674 66.273L48.4816 70.487L44.5959 66.273L46.2736 64.6573C46.2736 64.6573 43.7816 62.3964 43.6713 62.2009C43.4708 61.8508 45.2049 60.6858 45.2049 60.6858L48.4816 70.487L51.7571 60.6858C51.7571 60.6858 53.4891 61.8508 53.2914 62.2009C53.1791 62.3964 50.6877 64.6573 50.6877 64.6573Z" fill="#24B34B"/>
<path d="M17.8731 61.6235L19.1374 69.9376H20.6537L23.0086 57.5714C22.7757 57.5551 22.5463 57.5379 22.3107 57.5379H10.8601C10.6259 57.5379 10.3964 57.5551 10.1635 57.5714L12.5191 69.9376H14.0327L15.3004 61.6235H15.3445L14.1016 59.3414H19.0703L17.829 61.6235H17.8731Z" fill="#FCFCFC"/>
<path d="M41.2807 6.76953H7.20312V8.7788H41.2807V6.76953Z" fill="#FCFCFC"/>
<path d="M41.2807 11.8362H7.20312V13.8456H41.2807V11.8362Z" fill="#FCFCFC"/>
<path d="M24.6332 16.9029H7.20312V18.9121H24.6332V16.9029Z" fill="#FCFCFC"/>
<path d="M48.4824 70.487L45.2057 60.6857C45.2057 60.6857 43.4715 61.8507 43.672 62.2008C43.7823 62.3964 46.2743 64.6572 46.2743 64.6572L44.5966 66.273L48.4824 70.487Z" fill="#FCFCFC"/>
<path d="M53.2921 62.2008C53.4898 61.8507 51.7578 60.6857 51.7578 60.6857L48.4824 70.487L52.3682 66.273L50.6885 64.6572C50.6885 64.6572 53.1798 62.3965 53.2921 62.2008Z" fill="#FCFCFC"/>
</svg>
