<svg width="55" height="70" viewBox="0 0 55 70" fill="none" xmlns="http://www.w3.org/2000/svg">
<path d="M27.4277 4.94259C27.0346 4.94259 26.7156 4.62409 26.7156 4.23001V0.712586C26.7156 0.319234 27.0339 0 27.4277 0C27.8216 0 28.1398 0.3185 28.1398 0.712586V4.23001C28.1398 4.62336 27.8216 4.94259 27.4277 4.94259Z" fill="#F99D1C"/>
<path d="M43.8325 11.742C43.6506 11.742 43.468 11.6723 43.3294 11.5336C43.0514 11.2554 43.0514 10.8041 43.3294 10.526L45.8147 8.03888C46.0927 7.76075 46.543 7.76075 46.8216 8.03888C47.0996 8.31702 47.0996 8.76835 46.8216 9.04575L44.3363 11.5328C44.1969 11.6723 44.0151 11.7412 43.8332 11.7412L43.8325 11.742Z" fill="#F99D1C"/>
<path d="M8.53731 47.0622C8.35543 47.0622 8.17283 46.9925 8.03422 46.8538C7.75628 46.5756 7.75628 46.1243 8.03422 45.8469L10.5196 43.3598C10.7975 43.0817 11.2478 43.0817 11.5265 43.3598C11.8045 43.638 11.8045 44.0893 11.5265 44.3674L9.04113 46.8545C8.90179 46.994 8.71992 47.0629 8.53804 47.0629L8.53731 47.0622Z" fill="#F99D1C"/>
<path d="M54.1428 28.1591H50.6278C50.2347 28.1591 49.9157 27.8406 49.9157 27.4465C49.9157 27.0524 50.234 26.7339 50.6278 26.7339H54.1428C54.5359 26.7339 54.8549 27.0524 54.8549 27.4465C54.8549 27.8406 54.5367 28.1591 54.1428 28.1591Z" fill="#F99D1C"/>
<path d="M4.22711 28.1591H0.712095C0.319011 28.1591 0 27.8406 0 27.4465C0 27.0524 0.318278 26.7339 0.712095 26.7339H4.22711C4.62019 26.7339 4.93921 27.0524 4.93921 27.4465C4.93921 27.8406 4.62093 28.1591 4.22711 28.1591Z" fill="#F99D1C"/>
<path d="M46.3178 47.0621C46.1359 47.0621 45.9533 46.9924 45.8147 46.8537L43.3294 44.3666C43.0514 44.0884 43.0514 43.6371 43.3294 43.359C43.6073 43.0808 44.0576 43.0808 44.3363 43.359L46.8216 45.8461C47.0996 46.1242 47.0996 46.5755 46.8216 46.8529C46.6823 46.9924 46.5004 47.0613 46.3186 47.0613L46.3178 47.0621Z" fill="#F99D1C"/>
<path d="M11.0227 11.7421C10.8408 11.7421 10.6582 11.6724 10.5196 11.5337L8.03422 9.04661C7.75628 8.76847 7.75628 8.31715 8.03422 8.03974C8.31217 7.76161 8.76245 7.76161 9.04113 8.03974L11.5265 10.5268C11.8045 10.805 11.8045 11.2563 11.5265 11.5344C11.3872 11.6739 11.2053 11.7428 11.0234 11.7428L11.0227 11.7421Z" fill="#F99D1C"/>
<path d="M36.3873 6.74398C36.2956 6.74398 36.2025 6.72636 36.113 6.68894C35.7508 6.53703 35.5791 6.11946 35.731 5.75693L37.0884 2.5125C37.2402 2.14924 37.659 1.97898 38.0198 2.13016C38.3821 2.28207 38.5537 2.69964 38.4019 3.06217L37.0444 6.30659C36.93 6.57959 36.666 6.74398 36.3873 6.74398Z" fill="#F99D1C"/>
<path d="M48.8961 19.3557C48.616 19.3557 48.3505 19.1891 48.2368 18.9132C48.0879 18.5492 48.2617 18.1331 48.6255 17.9841L51.878 16.6506C52.2417 16.5009 52.6575 16.6756 52.8064 17.0396C52.9553 17.4036 52.7815 17.8197 52.4177 17.9687L49.1652 19.3021C49.0772 19.3381 48.9863 19.3557 48.8961 19.3557Z" fill="#F99D1C"/>
<path d="M2.70775 38.2963C2.4276 38.2963 2.16212 38.1297 2.04845 37.8537C1.89958 37.4897 2.07339 37.0736 2.43714 36.9247L5.68961 35.5912C6.05336 35.4422 6.46918 35.6162 6.61805 35.9802C6.76693 36.3442 6.59312 36.7603 6.22937 36.9092L2.9769 38.2427C2.88889 38.2786 2.79795 38.2963 2.70775 38.2963Z" fill="#F99D1C"/>
<path d="M52.0703 38.4838C51.9786 38.4838 51.8854 38.4661 51.796 38.4287L48.5538 37.0703C48.1915 36.9184 48.0199 36.5008 48.1717 36.1383C48.3235 35.7751 48.7415 35.6048 49.1031 35.756L52.3453 37.1144C52.7076 37.2663 52.8792 37.6838 52.7273 38.0464C52.6129 38.3194 52.3489 38.4838 52.0703 38.4838Z" fill="#F99D1C"/>
<path d="M6.02739 19.1926C5.93572 19.1926 5.84258 19.1749 5.75311 19.1368L2.51091 17.7784C2.14863 17.6265 1.97701 17.2089 2.12882 16.8464C2.28063 16.4831 2.69938 16.3129 3.0602 16.464L6.3024 17.8224C6.66469 17.9743 6.83629 18.3919 6.68448 18.7544C6.57008 19.0274 6.30607 19.1926 6.02739 19.1926Z" fill="#F99D1C"/>
<path d="M18.6307 6.67565C18.3506 6.67565 18.0851 6.50906 17.9714 6.23312L16.6389 2.97843C16.49 2.61443 16.6638 2.19833 17.0276 2.04935C17.3913 1.90038 17.8071 2.0743 17.956 2.4383L19.2885 5.693C19.4374 6.057 19.2636 6.4731 18.8999 6.62207C18.8119 6.65803 18.7209 6.67565 18.6307 6.67565Z" fill="#F99D1C"/>
<path d="M33.6641 61.338H21.6398C20.9615 61.338 20.4115 60.7876 20.4115 60.1088C20.4115 59.4299 20.9615 58.8795 21.6398 58.8795H33.6641C34.3425 58.8795 34.8925 59.4299 34.8925 60.1088C34.8925 60.7876 34.3425 61.338 33.6641 61.338Z" fill="#F99D1C"/>
<path d="M33.6641 65.1994H21.6398C20.9615 65.1994 20.4115 64.649 20.4115 63.9702C20.4115 63.2914 20.9615 62.741 21.6398 62.741H33.6641C34.3425 62.741 34.8925 63.2914 34.8925 63.9702C34.8925 64.649 34.3425 65.1994 33.6641 65.1994Z" fill="#F99D1C"/>
<path d="M24.735 66.6534C24.4372 66.6534 24.2113 66.9242 24.2663 67.217C24.5626 68.8007 25.9494 69.9999 27.6178 69.9999C29.2862 69.9999 30.673 68.8007 30.9693 67.217C31.0243 66.9242 30.7984 66.6534 30.5007 66.6534H24.735Z" fill="#F99D1C"/>
<path d="M32.3911 57.3308H22.7364C21.0636 57.3308 19.6555 56.0223 19.5301 54.352C19.1209 48.9052 16.9003 45.4539 14.5484 41.7999C11.9838 37.815 9.33194 33.6951 9.33194 27.0323C9.33194 18.0351 15.7636 10.4638 24.6241 9.02912C26.6951 8.69374 28.8776 8.72016 30.9383 9.10471C39.5473 10.7155 45.7956 18.2553 45.7956 27.0323C45.7956 33.6951 43.1437 37.8158 40.5784 41.7999C38.2265 45.4539 36.0051 48.9052 35.5967 54.352C35.4713 56.0223 34.0632 57.3308 32.3911 57.3308Z" fill="#F99D1C"/>
<path d="M18.7298 38.4622C18.3631 38.4622 18.0023 38.2927 17.7698 37.9742C11.1827 28.9205 16.0383 20.4238 16.2481 20.0664C16.5803 19.5013 17.3078 19.312 17.8725 19.6444C18.4364 19.9768 18.6256 20.7026 18.2956 21.267C18.1138 21.5803 14.0421 28.8163 19.6883 36.5762C20.074 37.106 19.9574 37.8487 19.4279 38.2347C19.2167 38.3881 18.9725 38.4622 18.7305 38.4622H18.7298Z" fill="#FCFCFC"/>
</svg>
