<svg width="54" height="72" viewBox="0 0 54 72" fill="none" xmlns="http://www.w3.org/2000/svg">
<path d="M34.1836 57.4505L36.0102 69.4427H38.1955L41.5943 51.6067C41.2604 51.5812 40.9272 51.5557 40.588 51.5557H39.493C37.3543 52.6468 34.9182 53.2711 32.33 53.2711C29.7409 53.2711 27.3057 52.6468 25.1654 51.5557H24.0721C23.7313 51.5557 23.3997 51.5812 23.0664 51.6067L26.4615 69.4427H28.6498L30.4733 57.4505H30.5371L28.7457 54.159H35.9125L34.1204 57.4505H34.1836Z" fill="white"/>
<path d="M38.1956 69.4435H36.0102H28.6498H26.4615L23.0664 51.6075C16.1308 52.1245 10.6584 57.9001 10.6584 64.9692V71.4764H54V64.9692C54 57.8999 48.5293 52.1245 41.5943 51.6075L38.1956 69.4435Z" fill="#24B34B"/>
<path d="M28.6498 69.4435H36.0102L34.1836 57.4512H34.1206L35.9126 54.1597H28.7458L30.5372 57.4512H30.4733L28.6498 69.4435Z" fill="#24B34B"/>
<path d="M25.9715 17.6923C26.1719 17.5106 26.3655 17.3448 26.5365 17.218C27.3057 16.6402 29.7154 15.7817 30.2325 15.7426H30.2363C30.595 15.7426 30.9973 15.979 31.4715 16.3812C31.5068 15.5459 31.4737 14.707 31.3755 13.8679L28.7226 13.2338C28.5838 12.5375 28.3872 11.8448 28.1372 11.1656L30.0847 9.2475C29.846 8.73048 29.5849 8.22311 29.2906 7.72781C28.9979 7.23182 28.6798 6.75742 28.3376 6.30348L25.7215 7.08544C25.2472 6.53763 24.7339 6.03406 24.1875 5.57931L24.911 2.94745C23.9752 2.27808 22.9763 1.71821 21.9324 1.26944L20.0525 3.25732C19.3741 3.02317 18.6792 2.84382 17.9753 2.72077L17.2826 0.0746596C16.1509 -0.0363272 15.0064 -0.0243773 13.8681 0.115907L13.2294 2.7673C12.533 2.90391 11.8441 3.09911 11.1642 3.35118L9.24373 1.40972C8.73257 1.64169 8.21935 1.90135 7.72404 2.19628C7.22805 2.48891 6.75446 2.80855 6.3012 3.14633L7.08087 5.76681C6.53374 6.2427 6.02799 6.75363 5.57542 7.30006L2.94437 6.57807C2.275 7.51319 1.71432 8.50977 1.26555 9.55369L3.25274 11.4351C3.01939 12.112 2.84372 12.8084 2.71849 13.5108L0.0768621 14.2057C-0.0357333 15.3374 -0.0251623 16.4826 0.112135 17.624L2.76651 18.2559C2.90312 18.9546 3.0997 19.6435 3.34512 20.3264L1.40595 22.2446C1.637 22.7617 1.89895 23.2667 2.1932 23.7605C2.48962 24.258 2.80707 24.7338 3.14244 25.1863L5.76224 24.4058C6.2387 24.9544 6.75434 25.458 7.29767 25.9105L6.57649 28.5446C7.5108 29.2117 8.50589 29.7739 9.54969 30.2188L11.4319 28.2346C12.1118 28.4703 12.8007 28.6458 13.5098 28.7666L14.2033 31.4127C14.7091 31.4615 15.2179 31.4832 15.7297 31.4832L15.7252 31.3991C15.7255 24.9116 20.0496 19.44 25.9715 17.6923ZM18.7858 20.7032C15.9236 22.3961 12.2208 21.4131 10.5774 18.5036C9.03302 15.7719 9.95756 12.1766 12.6277 10.5256C15.4704 8.76576 19.1851 9.69409 20.8788 12.5525C22.5509 15.3802 21.612 19.0288 18.7858 20.7032Z" fill="#24B34B"/>
<path d="M13.5282 37.5958V38.7664C13.5282 40.7627 15.2167 42.3859 17.2925 42.3859H17.5147C18.6462 46.3588 21.4583 49.6638 25.1655 51.5565C27.3059 52.6476 29.741 53.2719 32.3301 53.2719C34.9185 53.2719 37.3544 52.6476 39.4932 51.5565C43.2004 49.6638 46.0123 46.3588 47.144 42.3859H47.3662C49.4435 42.3859 51.1297 40.7627 51.1297 38.7664V37.5958C51.1297 35.8653 49.8592 34.4214 48.1699 34.0642C48.2285 33.5457 48.2697 33.0166 48.2697 32.4801L48.2623 32.33C48.2653 31.9472 48.2517 31.5494 48.2007 31.1225V31.1202C47.9688 28.6497 47.1103 26.3653 45.7813 24.424C45.0953 23.4206 44.2811 22.5194 43.3723 21.7231C40.9393 19.5948 37.7845 18.2816 34.3196 18.1975L34.1434 18.0594C33.9962 17.8974 33.8312 17.8681 33.7216 17.8681C33.4613 17.8681 33.2796 18.0399 33.1326 18.1802H33.0837C32.806 17.9033 32.5525 17.6631 32.3153 17.4642C31.8417 17.0598 31.4403 16.8256 31.0801 16.8256H31.0756C30.5608 16.8647 28.1511 17.7217 27.3788 18.2988C27.2084 18.4256 27.0163 18.5914 26.816 18.7731C20.8948 20.5231 16.5708 25.9924 16.5708 32.4801L16.5738 32.5663L16.5806 32.775C16.5738 33.2117 16.5872 33.6409 16.6293 34.0642C14.8714 34.3688 13.5282 35.8201 13.5282 37.5958ZM47.7698 36.1758C48.4264 36.3492 48.915 36.9114 48.915 37.5957V38.7663C48.915 39.5138 48.3357 40.1307 47.5867 40.2357C47.6587 39.6601 47.7038 39.0808 47.7038 38.4879C47.7038 37.9161 47.6513 37.3539 47.5785 36.8016C47.6459 36.5931 47.7127 36.3861 47.7698 36.1758ZM19.3314 36.5991C19.3764 36.3124 19.4402 36.0311 19.5047 35.7519C21.3103 34.4701 23.6232 32.474 24.5057 30.9018C24.5057 30.9018 39.1155 34.3237 44.437 34.7178C44.5894 34.7276 44.7326 34.7336 44.8722 34.7358C45.0673 35.3406 45.2264 35.9612 45.327 36.6007C45.4222 37.2176 45.4883 37.8457 45.4883 38.4881C45.4883 38.9466 45.4598 39.4006 45.4103 39.8456C45.3247 40.6104 45.1649 41.3518 44.9443 42.0685C43.333 47.3074 38.2908 51.143 32.3299 51.143C26.3668 51.143 21.3253 47.3074 19.7133 42.0685C19.4934 41.3518 19.3335 40.6102 19.2473 39.8456C19.1984 39.4006 19.1692 38.9466 19.1692 38.4881C19.1694 37.8457 19.2361 37.2176 19.3314 36.5991ZM15.742 37.5958C15.742 36.8589 16.3071 36.2577 17.0403 36.1407C17.0433 36.4251 17.0522 36.7042 17.0598 36.9894C16.9998 37.481 16.954 37.9785 16.954 38.4881C16.954 39.0809 17.0012 39.6603 17.0717 40.2358C16.3213 40.1308 15.742 39.5139 15.742 38.7664V37.5958Z" fill="#24B34B"/>
</svg>
