<svg width="70" height="70" viewBox="0 0 70 70" fill="none" xmlns="http://www.w3.org/2000/svg">
<path d="M35 70C54.33 70 70 54.33 70 35C70 15.67 54.33 0 35 0C15.67 0 0 15.67 0 35C0 54.33 15.67 70 35 70Z" fill="#F99D1C"/>
<path d="M42.0703 33.6875C41.7012 33.6875 41.4141 33.3867 41.4141 33.0313V30.3926C41.4141 29.791 41.332 29.2031 41.168 28.6289V28.6152C40.8672 27.5352 40.2793 26.5371 39.4863 25.7441C38.2422 24.5 36.5879 23.8164 34.8242 23.8164C32.0078 23.8164 29.5059 25.6074 28.5898 28.2734V28.2871C28.3574 28.9707 28.2344 29.6816 28.2344 30.4062V33.0449C28.2344 33.4141 27.9336 33.7012 27.5781 33.7012C27.2227 33.7012 26.9219 33.4004 26.9219 33.0449V30.4062C26.9219 29.5449 27.0586 28.6973 27.332 27.877V27.8633C28.4258 24.6504 31.4336 22.5039 34.8242 22.5039C36.9297 22.5039 38.9258 23.3242 40.416 24.8145C41.3867 25.7715 42.084 26.9746 42.4395 28.2871V28.3008C42.6309 28.9844 42.7266 29.6953 42.7266 30.4062V33.0449C42.7266 33.3867 42.4395 33.6875 42.0703 33.6875Z" fill="white"/>
<path d="M34.8223 23.8027C32.6484 23.8027 30.8711 22.0254 30.8711 19.8516C30.8711 17.6777 32.6484 15.9004 34.8223 15.9004C36.9961 15.9004 38.7734 17.6777 38.7734 19.8516C38.7734 22.0254 36.9961 23.8027 34.8223 23.8027ZM34.8223 17.2129C33.373 17.2129 32.1836 18.3887 32.1836 19.8516C32.1836 21.3008 33.3594 22.4902 34.8223 22.4902C36.2715 22.4902 37.4609 21.3145 37.4609 19.8516C37.4609 18.3887 36.2715 17.2129 34.8223 17.2129Z" fill="white"/>
<path d="M52.2539 33.6875C51.8848 33.6875 51.5977 33.3867 51.5977 33.0312V31.1445C51.5977 29.832 51.0918 28.6016 50.1621 27.6719C49.2324 26.7422 48.002 26.2363 46.6895 26.2363C44.9121 26.2363 43.2715 27.207 42.3965 28.752C42.2871 28.957 42.0684 29.1074 41.8086 29.1074C41.4395 29.1074 41.1523 28.8066 41.1523 28.4512C41.1523 28.3418 41.1797 28.2324 41.2344 28.1367C42.3418 26.1543 44.4199 24.9238 46.6895 24.9238C48.3574 24.9238 49.916 25.5664 51.0918 26.7559C52.2676 27.9316 52.9238 29.5039 52.9238 31.1582V33.0449C52.9102 33.4004 52.623 33.6875 52.2539 33.6875Z" fill="white"/>
<path d="M46.6758 26.2363C44.9121 26.2363 43.4766 24.8008 43.4766 23.0371C43.4766 21.2734 44.9121 19.8379 46.6758 19.8379C48.4395 19.8379 49.875 21.2734 49.875 23.0371C49.875 24.8008 48.4395 26.2363 46.6758 26.2363ZM46.6758 21.1641C45.6367 21.1641 44.8027 22.0117 44.8027 23.0371C44.8027 24.0625 45.6504 24.9102 46.6758 24.9102C47.7012 24.9102 48.5488 24.0625 48.5488 23.0371C48.5625 22.0117 47.7148 21.1641 46.6758 21.1641Z" fill="white"/>
<path d="M17.7461 33.6875C17.377 33.6875 17.0898 33.3867 17.0898 33.0312V31.1582C17.0898 27.7266 19.8926 24.9238 23.3242 24.9238C24.9922 24.9238 26.5508 25.5664 27.7266 26.7559C28.0137 27.043 28.2734 27.3711 28.5059 27.6992C28.5742 27.8086 28.6152 27.9316 28.6152 28.0684C28.6152 28.4375 28.3145 28.7246 27.959 28.7246C27.7266 28.7246 27.5215 28.6016 27.3984 28.4102C27.2207 28.1504 27.0156 27.9043 26.7969 27.6719C25.8672 26.7422 24.6367 26.2363 23.3242 26.2363C20.6172 26.2363 18.4023 28.4375 18.4023 31.1582V33.0312C18.4023 33.3867 18.1016 33.6875 17.7461 33.6875Z" fill="white"/>
<path d="M23.3242 26.2363C21.5605 26.2363 20.125 24.8008 20.125 23.0371C20.125 21.2734 21.5605 19.8379 23.3242 19.8379C25.0879 19.8379 26.5234 21.2734 26.5234 23.0371C26.5098 24.8008 25.0742 26.2363 23.3242 26.2363ZM23.3242 21.1641C22.2852 21.1641 21.4512 22.0117 21.4512 23.0371C21.4512 24.0625 22.2988 24.9102 23.3242 24.9102C24.3633 24.9102 25.1973 24.0625 25.1973 23.0371C25.1973 22.0117 24.3496 21.1641 23.3242 21.1641Z" fill="white"/>
<path d="M35 54.0996C28.752 54.0996 22.873 51.3516 18.8535 46.5664C15.668 42.7793 13.918 37.9668 13.918 33.0039C13.918 32.6348 14.2187 32.3477 14.5742 32.3477H55.4258C55.7949 32.3477 56.082 32.6484 56.082 33.0039C56.082 37.9531 54.332 42.7656 51.1465 46.5664C47.127 51.3652 41.248 54.0996 35 54.0996ZM15.2441 33.6875C15.3945 38.1035 17.0215 42.3555 19.8652 45.7324C23.6387 50.2168 29.1484 52.7871 35 52.7871C40.8516 52.7871 46.375 50.2168 50.1348 45.7324C52.9785 42.3555 54.6055 38.0898 54.7559 33.6875H15.2441Z" fill="white"/>
<path d="M35.002 54.0996C34.8652 54.0996 34.7285 54.0586 34.6055 53.9629C31.2012 51.4063 28.5488 48.1113 26.7305 44.1875C24.2559 38.8418 24.1328 33.9336 24.1328 33.0176C24.1328 32.6484 24.4336 32.3613 24.7891 32.3613C25.1445 32.3613 25.4453 32.6621 25.4453 33.0176C25.4453 33.8926 25.5684 38.541 27.9199 43.6406C29.5742 47.209 31.9531 50.2305 35.002 52.6094C38.0508 50.2305 40.4297 47.209 42.084 43.6406C44.4355 38.541 44.5586 33.8926 44.5586 33.0176C44.5586 32.6484 44.8594 32.3613 45.2148 32.3613C45.5703 32.3613 45.8711 32.6621 45.8711 33.0176C45.8711 33.9473 45.748 38.8418 43.2734 44.1875C41.4551 48.1113 38.8027 51.4063 35.3984 53.9629C35.2754 54.0586 35.1387 54.0996 35.002 54.0996Z" fill="white"/>
<path d="M50.642 46.8125C50.5599 46.8125 50.4779 46.7988 50.4095 46.7715C47.8666 45.7871 45.2279 45.0488 42.5619 44.5703C40.0736 44.1191 37.5306 43.9004 35.0013 43.9004C32.472 43.9004 29.9291 44.1328 27.4408 44.5703C24.7748 45.0488 22.1361 45.7871 19.5931 46.7715C19.2513 46.9082 18.8685 46.7305 18.7455 46.3887C18.6088 46.0469 18.7865 45.6641 19.1283 45.541C21.7396 44.5293 24.4603 43.7637 27.2084 43.2715C29.7787 42.8066 32.39 42.5742 35.0013 42.5742C37.6127 42.5742 40.224 42.8066 42.7943 43.2715C45.5424 43.7637 48.2631 44.5293 50.8744 45.541C51.2162 45.6777 51.3802 46.0469 51.2572 46.3887C51.1615 46.6484 50.9017 46.8125 50.642 46.8125Z" fill="white"/>
<path d="M35 54.0996C34.6309 54.0996 34.3438 53.7988 34.3438 53.4434V33.0176C34.3438 32.6484 34.6445 32.3613 35 32.3613C35.3555 32.3613 35.6562 32.6621 35.6562 33.0176V53.4434C35.6562 53.8125 35.3691 54.0996 35 54.0996Z" fill="white"/>
</svg>
